<?xml version="1.0" standalone="no"?>
<!DOCTYPE svg PUBLIC "-//W3C//DTD SVG 20010904//EN"
 "http://www.w3.org/TR/2001/REC-SVG-20010904/DTD/svg10.dtd">
<svg version="1.0" xmlns="http://www.w3.org/2000/svg"
 width="1672.000000pt" height="1672.000000pt" viewBox="0 0 1672.000000 1672.000000"
 preserveAspectRatio="xMidYMid meet">
<metadata>
Created by potrace 1.11, written by Peter Selinger 2001-2013
</metadata>
<g transform="translate(0.000000,1672.000000) scale(0.100000,-0.100000)"
fill="#000000" stroke="none">
<path d="M15185 12830 c-12 -4 -35 -35 -95 -124 -45 -67 -75 -112 -81 -116 -3
-3 -19 -25 -34 -50 -15 -25 -34 -49 -41 -53 -8 -4 -14 -12 -14 -18 0 -5 -29
-50 -65 -100 -36 -49 -65 -92 -65 -95 0 -3 -6 -12 -12 -19 -16 -17 -30 -36
-198 -280 -76 -110 -145 -208 -154 -217 -9 -10 -16 -21 -16 -26 0 -4 -12 -21
-27 -37 -16 -16 -26 -30 -23 -30 7 0 -122 -179 -132 -183 -4 -2 -8 -8 -8 -13
0 -7 -54 -88 -83 -124 -13 -17 -131 -186 -142 -204 -5 -9 -22 -32 -36 -51 -15
-19 -55 -75 -89 -125 -34 -49 -98 -143 -143 -208 -45 -66 -86 -126 -92 -135
-5 -9 -14 -21 -18 -26 -5 -6 -39 -56 -77 -111 -38 -55 -72 -104 -77 -110 -5
-5 -24 -35 -43 -65 -19 -30 -38 -59 -43 -65 -27 -34 -135 -200 -132 -205 2 -3
410 -5 907 -5 l904 0 1 -282 c1 -340 0 -316 16 -310 6 2 24 0 40 -4 15 -4 27
-5 27 -1 0 11 364 8 372 -3 5 -6 8 -6 8 1 0 11 57 10 88 -1 6 -2 12 0 12 5 0
5 6 7 14 4 17 -7 30 12 32 46 2 27 11 102 20 160 3 19 7 114 9 210 l4 175 255
1 c141 0 259 4 263 8 4 4 8 144 8 312 0 268 -2 305 -16 309 -8 3 -125 6 -260
7 -134 1 -246 5 -249 9 -3 4 -5 489 -4 1078 l0 1071 -25 1 c-128 3 -475 3
-486 -1z m-128 -1725 c-1 -239 -3 -436 -6 -436 -18 -3 -579 -4 -593 -1 -15 4
-13 10 15 51 17 25 35 48 38 51 3 3 21 28 39 55 19 28 37 52 42 53 4 2 8 10 8
18 0 8 5 14 12 14 6 0 9 3 5 6 -3 3 5 18 19 32 13 15 24 32 24 39 0 6 3 13 8
15 4 2 32 38 62 81 54 77 121 171 137 193 4 5 13 17 18 26 6 9 24 36 41 59 16
24 47 69 68 99 42 60 57 80 61 80 1 0 2 -196 2 -435z"/>
<path d="M5535 12360 c-2 -3 -5 -307 -6 -675 -2 -450 -7 -672 -14 -677 -6 -5
-6 -8 0 -8 8 0 11 -659 5 -985 0 -5 0 -206 1 -445 0 -239 0 -448 0 -465 -1
-16 -1 -70 0 -120 0 -49 0 -103 0 -120 -1 -16 0 -205 2 -420 1 -214 -2 -396
-7 -402 -5 -8 -5 -13 0 -13 5 0 8 -187 6 -422 -1 -233 -2 -427 -2 -433 0 -5 1
-44 3 -85 1 -41 -1 -81 -6 -87 -5 -7 -6 -13 -1 -13 5 0 8 -170 6 -382 -1 -211
-2 -387 -2 -393 0 -5 1 -44 3 -85 1 -41 -1 -81 -6 -87 -5 -7 -6 -13 -1 -13 5
0 8 -100 6 -222 -3 -263 -3 -226 1 -318 1 -41 -1 -81 -6 -87 -5 -7 -6 -13 -1
-13 7 0 10 -181 5 -235 -2 -13 -70 96 -71 113 0 6 -4 12 -8 12 -5 0 -16 15
-25 33 -20 38 -43 77 -80 134 -15 24 -27 44 -27 46 0 3 -32 58 -72 123 -39 66
-76 128 -82 139 -13 22 -100 168 -119 200 -45 72 -61 101 -62 105 0 3 -12 23
-26 45 -14 22 -38 63 -53 90 -16 28 -34 57 -42 66 -8 8 -14 18 -14 21 0 5
-188 324 -297 503 -13 22 -26 48 -30 58 -3 9 -8 17 -12 17 -4 0 -13 16 -21 35
-8 19 -17 35 -21 35 -4 0 -13 16 -20 35 -7 19 -17 35 -21 35 -4 0 -8 7 -8 15
0 8 -4 15 -10 15 -5 0 -10 5 -10 10 0 6 -18 40 -40 76 -22 36 -40 68 -40 70 0
3 -78 136 -109 184 -8 14 -14 28 -13 33 1 4 -3 7 -8 7 -6 0 -10 4 -10 9 0 6
-32 62 -70 127 -39 64 -70 118 -70 119 0 2 -18 33 -40 69 -22 36 -40 70 -40
76 0 5 -4 10 -8 10 -5 0 -18 19 -31 43 -23 44 -24 46 -83 144 -21 34 -38 65
-38 67 0 3 -22 41 -50 86 -27 45 -50 84 -50 87 0 3 -8 17 -19 31 -10 15 -31
51 -46 80 -15 28 -31 52 -36 52 -5 0 -9 6 -9 14 0 8 -25 54 -55 103 -30 50
-55 95 -55 101 0 7 -4 12 -9 12 -5 0 -11 8 -15 18 -3 9 -23 46 -45 82 -22 36
-48 81 -58 100 -10 19 -21 37 -25 38 -5 2 -8 10 -8 18 0 8 -5 14 -11 14 -5 0
-8 4 -5 9 3 5 -1 14 -9 21 -8 7 -15 19 -15 26 0 8 -3 14 -8 14 -4 0 -13 13
-20 29 -7 16 -31 57 -52 90 -22 34 -36 61 -32 61 4 0 3 4 -3 8 -13 9 -31 38
-52 85 -10 20 -21 37 -25 37 -5 0 -8 7 -8 15 0 8 -4 15 -8 15 -5 0 -14 16 -22
35 -8 19 -17 35 -22 35 -4 0 -8 4 -8 9 0 8 -40 79 -72 129 -10 15 -21 34 -25
42 -3 8 -39 69 -78 135 -39 66 -74 127 -78 135 -4 8 -18 33 -32 55 -14 22 -28
47 -32 55 -3 8 -11 22 -18 30 -7 8 -26 40 -42 70 -17 30 -58 101 -92 158 -33
56 -61 107 -61 112 0 6 -4 10 -9 10 -5 0 -12 11 -15 25 -4 14 -11 25 -16 25
-6 0 -10 4 -10 9 0 4 -36 68 -79 142 -166 281 -201 341 -201 350 0 5 -4 9 -8
9 -4 0 -18 19 -30 43 -32 61 -68 120 -84 137 -7 8 -12 17 -10 20 1 3 -4 12
-11 20 -7 8 -13 17 -13 20 0 3 -29 54 -65 113 -35 60 -69 117 -74 127 -6 10
-16 24 -22 31 -6 8 -12 19 -12 24 0 6 -6 17 -13 25 -7 8 -20 29 -28 45 -8 17
-27 48 -41 70 -15 22 -37 58 -49 80 -46 83 -125 210 -132 213 -5 2 -8 12 -8
23 0 10 -3 19 -8 19 -4 0 -19 21 -32 48 -14 26 -28 49 -32 50 -5 2 -8 10 -8
18 0 8 -4 14 -10 14 -5 0 -9 3 -8 8 1 4 -11 28 -28 54 -16 26 -57 93 -92 150
l-63 103 -438 0 c-413 0 -438 -1 -433 -17 2 -10 9 -18 14 -18 5 0 7 -4 4 -9
-4 -5 -3 -11 2 -13 4 -1 41 -59 81 -128 41 -69 82 -138 92 -155 10 -16 28 -48
40 -70 12 -22 24 -42 28 -45 7 -6 20 -28 64 -110 16 -30 39 -65 50 -77 11 -13
17 -23 12 -23 -4 0 -2 -8 6 -17 8 -10 20 -28 26 -40 27 -48 38 -67 46 -77 4
-6 43 -72 87 -146 43 -74 84 -140 89 -147 6 -7 11 -15 11 -18 0 -3 18 -35 40
-71 22 -36 40 -67 40 -68 0 -4 219 -370 227 -381 4 -5 15 -23 23 -40 8 -16 19
-37 26 -45 12 -16 60 -100 78 -137 6 -13 14 -23 19 -23 4 0 7 -4 7 -9 0 -5 23
-46 50 -91 28 -45 50 -83 50 -85 0 -2 22 -40 50 -84 27 -44 50 -85 50 -91 0
-5 5 -10 10 -10 6 0 10 -6 10 -13 0 -8 12 -32 28 -53 15 -22 36 -57 47 -79 11
-22 22 -42 26 -45 12 -11 78 -130 71 -130 -4 0 -2 -4 4 -8 7 -4 20 -21 30 -39
11 -18 53 -89 94 -160 41 -70 77 -132 79 -138 2 -5 7 -12 11 -15 3 -3 17 -25
31 -50 13 -25 26 -47 29 -50 3 -3 11 -16 18 -30 7 -14 20 -38 31 -55 40 -65
61 -102 82 -140 12 -22 27 -43 33 -47 6 -4 7 -8 2 -8 -5 0 -2 -8 6 -17 9 -10
25 -34 35 -53 25 -45 83 -144 104 -178 35 -57 123 -208 133 -229 6 -13 14 -23
19 -23 4 0 7 -7 7 -15 0 -8 5 -15 12 -15 6 0 9 -2 6 -6 -3 -3 33 -69 79 -147
47 -78 95 -158 105 -177 11 -19 51 -87 88 -150 37 -63 77 -131 88 -150 32 -58
201 -344 212 -360 6 -8 14 -24 20 -35 5 -11 20 -36 32 -57 13 -20 39 -62 58
-95 19 -32 42 -71 52 -88 10 -16 21 -38 24 -47 4 -10 10 -18 15 -18 5 0 9 -4
9 -9 0 -5 28 -56 61 -113 34 -56 71 -119 82 -138 11 -19 28 -48 38 -65 11 -16
22 -37 25 -45 4 -8 12 -22 19 -30 7 -8 26 -40 42 -70 16 -30 42 -74 56 -97 15
-24 27 -47 27 -53 0 -5 5 -10 10 -10 6 0 10 -4 10 -10 0 -8 43 -84 90 -160 31
-50 60 -104 60 -111 0 -5 5 -9 10 -9 6 0 10 -4 10 -10 0 -5 18 -39 40 -75 22
-36 40 -70 40 -75 0 -6 4 -10 9 -10 5 0 12 -9 16 -19 3 -11 17 -36 30 -55 13
-20 22 -36 18 -36 -3 0 1 -8 9 -17 8 -10 29 -43 47 -73 17 -30 36 -62 41 -70
43 -69 90 -154 90 -161 0 -5 5 -9 11 -9 5 0 8 -4 4 -9 -3 -5 -1 -12 4 -15 5
-4 26 -37 47 -74 20 -37 41 -68 46 -70 4 -2 8 -9 8 -16 0 -6 11 -27 23 -46 13
-19 35 -55 49 -80 14 -25 35 -61 47 -80 11 -19 26 -46 33 -60 7 -14 15 -27 19
-30 3 -3 17 -25 30 -50 14 -25 32 -56 41 -70 9 -14 26 -44 39 -67 13 -23 49
-84 79 -135 30 -51 57 -97 59 -103 2 -5 17 -29 32 -52 16 -23 29 -44 29 -47 0
-3 16 -30 35 -60 19 -30 35 -57 35 -60 0 -2 32 -58 70 -123 91 -151 78 -130
156 -263 37 -63 71 -116 76 -118 4 -2 8 -10 8 -19 0 -8 14 -34 30 -59 17 -24
28 -44 25 -44 -3 0 -1 -6 6 -12 8 -9 41 -13 103 -12 50 1 96 3 101 4 6 1 12 1
15 0 15 -6 80 -4 80 2 0 4 10 4 23 0 26 -9 99 -8 116 2 6 4 11 4 11 -1 0 -10
91 -10 108 1 7 4 12 3 12 -1 0 -11 50 -10 68 0 6 5 12 5 12 0 0 -4 29 -8 65
-8 36 0 65 4 65 8 0 5 5 5 11 2 20 -13 110 -11 121 2 7 9 7 13 -1 13 -7 0 -9
5 -5 12 6 9 10 2550 5 2693 -1 17 -1 89 0 160 1 72 1 144 0 160 -1 17 -1 89 0
160 1 72 1 144 0 160 -1 17 -1 89 0 160 1 72 1 144 0 160 -1 17 -1 665 0 1440
1 776 1 1424 0 1440 0 17 0 94 1 173 1 118 3 140 14 131 8 -6 14 -15 14 -19 0
-5 23 -45 50 -89 28 -44 50 -85 50 -91 0 -5 4 -10 8 -10 5 0 14 -16 22 -35 8
-20 22 -43 32 -52 10 -9 18 -20 18 -25 0 -4 18 -38 40 -74 22 -36 40 -70 40
-74 0 -5 4 -10 9 -12 5 -1 17 -20 27 -40 16 -30 117 -203 251 -426 12 -20 25
-43 29 -51 9 -18 201 -341 214 -361 6 -8 15 -26 22 -40 7 -14 17 -32 24 -40 6
-8 23 -36 37 -61 35 -64 51 -91 60 -103 9 -12 164 -275 202 -342 38 -68 50
-88 58 -98 19 -26 147 -248 147 -257 0 -5 3 -9 8 -9 4 0 18 -23 31 -50 14 -28
29 -50 33 -50 4 0 8 -5 8 -11 0 -6 13 -30 28 -53 15 -22 31 -49 35 -58 3 -10
22 -43 42 -73 19 -31 35 -58 35 -61 0 -3 14 -25 30 -49 17 -24 30 -46 30 -48
0 -2 32 -57 70 -121 39 -65 70 -121 70 -127 0 -5 5 -9 10 -9 6 0 10 -4 10 -9
0 -9 132 -238 150 -258 5 -7 10 -19 10 -27 0 -8 4 -16 8 -18 10 -4 72 -105 72
-117 0 -5 3 -11 8 -13 4 -1 16 -19 26 -38 18 -34 205 -354 231 -395 7 -11 13
-24 15 -30 1 -5 14 -28 29 -50 39 -59 48 -75 76 -125 35 -62 54 -95 98 -166
20 -34 37 -67 37 -73 0 -6 4 -11 9 -11 5 0 11 -8 14 -17 7 -22 37 -72 55 -91
7 -7 10 -17 7 -22 -3 -5 -1 -10 3 -12 10 -4 142 -226 142 -239 0 -5 5 -9 10
-9 6 0 10 -6 10 -13 0 -7 15 -35 33 -63 19 -28 36 -57 40 -65 4 -8 18 -32 32
-54 14 -22 28 -47 32 -55 6 -13 166 -287 193 -330 11 -19 118 -201 145 -249
11 -20 51 -87 88 -149 37 -62 67 -117 67 -122 0 -6 5 -10 10 -10 6 0 10 -4 10
-9 0 -5 18 -39 40 -75 22 -36 40 -70 40 -76 0 -5 3 -10 8 -10 4 0 18 -21 32
-47 14 -27 54 -97 91 -158 36 -60 68 -117 72 -125 4 -8 13 -24 20 -35 17 -27
148 -249 181 -305 14 -25 39 -70 55 -101 16 -30 35 -60 43 -66 9 -7 162 -11
476 -11 l462 1 0 41 c1 22 1 1644 1 3604 1 1960 2 3562 4 3560 6 -6 140 -234
160 -271 11 -20 23 -37 27 -37 5 0 8 -4 8 -10 0 -5 20 -44 45 -86 25 -41 45
-80 45 -85 0 -5 5 -9 10 -9 6 0 10 -6 10 -14 0 -8 6 -21 13 -28 16 -17 97
-158 97 -169 0 -5 5 -9 11 -9 5 0 7 -4 4 -10 -3 -5 -2 -10 4 -10 6 0 20 -19
31 -42 26 -54 53 -101 61 -108 3 -3 23 -36 45 -73 21 -38 47 -83 58 -100 10
-18 86 -147 169 -287 82 -140 164 -277 181 -305 17 -27 30 -53 28 -57 -1 -5 1
-8 6 -8 4 0 19 -21 32 -47 14 -27 28 -50 31 -53 3 -3 14 -21 24 -40 10 -19 21
-37 24 -40 6 -5 47 -78 65 -117 6 -13 14 -23 19 -23 4 0 7 -7 7 -15 0 -8 5
-15 10 -15 6 0 10 -4 10 -10 0 -5 30 -60 67 -122 37 -62 74 -126 82 -143 9
-16 18 -32 21 -35 11 -9 70 -110 70 -120 0 -6 5 -10 10 -10 6 0 10 -9 10 -19
0 -11 4 -21 9 -23 5 -1 39 -55 75 -118 77 -131 80 -136 124 -207 17 -30 32
-58 32 -63 0 -6 5 -10 10 -10 6 0 10 -7 10 -15 0 -9 5 -21 11 -28 5 -7 74
-120 151 -252 78 -132 149 -253 159 -270 11 -16 25 -41 32 -55 7 -14 25 -44
40 -67 15 -24 27 -47 27 -53 0 -5 4 -10 9 -10 5 0 11 -8 14 -17 7 -19 24 -50
106 -188 30 -49 62 -103 71 -120 9 -16 45 -77 79 -133 33 -57 61 -108 61 -113
0 -5 5 -9 10 -9 6 0 10 -5 10 -11 0 -6 8 -23 18 -37 11 -15 32 -52 49 -82 17
-30 58 -101 92 -156 33 -56 61 -107 61 -113 0 -6 5 -11 10 -11 6 0 10 -4 10
-9 0 -4 28 -55 62 -112 34 -57 78 -133 99 -169 21 -36 42 -69 46 -75 5 -5 14
-21 20 -35 7 -14 24 -43 38 -65 14 -22 28 -47 32 -55 3 -8 24 -42 45 -76 21
-34 38 -66 38 -73 0 -6 4 -11 9 -11 5 0 14 -12 20 -27 6 -16 54 -99 106 -187
52 -87 95 -163 95 -167 0 -5 5 -9 10 -9 6 0 10 -4 10 -9 0 -8 70 -131 160
-281 18 -30 41 -68 50 -85 10 -16 41 -70 70 -120 29 -49 60 -103 70 -120 10
-16 45 -76 79 -133 33 -57 61 -108 61 -113 0 -5 5 -9 10 -9 6 0 10 -4 10 -10
0 -5 18 -39 40 -75 22 -36 40 -68 40 -72 0 -3 6 -14 14 -22 7 -9 25 -36 38
-61 14 -25 49 -85 78 -135 30 -49 65 -111 79 -137 17 -32 33 -48 46 -49 27 -1
791 -1 833 0 l33 1 -20 29 c-12 16 -21 34 -21 40 0 6 -4 11 -8 11 -5 0 -14 16
-22 35 -8 19 -16 35 -19 35 -3 0 -17 21 -31 48 -13 26 -27 49 -30 52 -7 6
-125 210 -154 265 -12 22 -25 43 -31 47 -5 4 -10 11 -10 15 -1 12 -58 108 -67
111 -4 2 -8 7 -8 12 0 6 -60 113 -111 198 -13 22 -87 148 -206 350 -10 17 -45
77 -79 134 -33 57 -67 114 -75 128 -8 14 -16 27 -19 30 -6 6 -49 84 -64 117
-6 13 -14 23 -18 23 -5 0 -8 7 -8 15 0 8 -4 15 -10 15 -5 0 -10 6 -10 13 0 6
-18 40 -40 75 -22 34 -40 65 -40 67 0 2 -18 33 -40 67 -22 35 -40 68 -40 74 0
5 -8 19 -17 30 -10 10 -29 39 -42 64 -13 25 -51 89 -83 142 -32 54 -58 102
-58 108 0 5 -4 10 -10 10 -5 0 -10 5 -10 10 0 6 -12 29 -27 53 -15 23 -33 53
-40 67 -7 14 -18 34 -25 45 -45 71 -65 104 -78 130 -8 17 -27 49 -42 72 -15
23 -28 46 -28 52 0 6 -4 11 -10 11 -5 0 -10 4 -10 9 0 5 -35 69 -77 141 -43
72 -91 154 -107 183 -16 29 -33 54 -38 55 -4 2 -8 9 -8 16 0 6 -15 34 -32 61
-18 28 -39 61 -46 75 -6 14 -24 43 -37 65 -14 22 -28 48 -32 58 -3 9 -9 17
-14 17 -5 0 -9 4 -9 10 0 5 -36 70 -80 145 -44 75 -80 140 -80 145 0 6 -4 10
-10 10 -5 0 -10 7 -10 15 0 8 -4 15 -10 15 -5 0 -10 5 -10 11 0 11 -130 234
-150 256 -6 7 -9 13 -6 13 2 0 -33 63 -80 140 -46 77 -84 145 -84 150 0 6 -3
10 -8 10 -4 0 -18 21 -31 48 -14 26 -35 62 -48 80 -13 17 -21 32 -18 32 3 0
-8 20 -25 44 -16 25 -30 47 -30 50 0 5 -62 108 -70 116 -3 3 -16 25 -29 50
-39 72 -46 83 -54 94 -13 18 -107 177 -107 181 0 3 -16 29 -35 59 -19 30 -35
60 -35 66 0 5 -4 10 -10 10 -5 0 -10 5 -10 10 0 6 -16 36 -35 66 -19 30 -35
56 -35 58 0 1 -44 77 -98 167 -54 90 -123 206 -153 257 -29 51 -61 105 -70
120 -14 23 -79 134 -130 222 -8 13 -20 30 -26 38 -7 7 -13 18 -13 23 0 5 -15
32 -34 61 -18 29 -34 56 -35 60 -1 4 -20 36 -41 70 -22 35 -50 82 -62 106 -12
23 -26 42 -31 42 -4 0 -6 4 -3 9 3 5 -1 14 -9 21 -8 7 -15 19 -15 26 0 8 -4
14 -10 14 -5 0 -10 4 -10 9 0 8 -50 95 -108 189 -12 20 -25 44 -29 52 -4 8
-22 38 -40 67 -18 29 -33 55 -33 59 0 4 -6 15 -14 23 -7 9 -24 36 -37 61 -13
25 -27 47 -30 50 -3 3 -19 30 -35 60 -16 30 -37 64 -46 74 -10 11 -18 24 -18
29 0 5 -25 49 -55 98 -30 49 -55 93 -55 99 0 5 -4 10 -10 10 -5 0 -10 4 -10 9
0 9 -81 153 -91 161 -3 3 -19 30 -36 60 -16 30 -49 85 -71 123 -23 37 -42 72
-42 77 0 6 -4 10 -8 10 -5 0 -15 16 -22 35 -8 20 -20 41 -27 46 -6 6 -22 32
-34 57 -13 26 -26 49 -29 52 -7 5 -80 129 -80 135 0 2 -13 23 -29 47 -15 24
-43 71 -62 106 -21 39 -38 61 -46 58 -7 -3 -13 -2 -13 2 0 4 -19 6 -42 4 -24
-2 -52 -3 -63 -3 -53 2 -131 3 -140 1 -5 -1 -14 -1 -20 0 -24 5 -134 2 -144
-4 -6 -4 -19 -2 -30 3 -11 7 -30 7 -50 1 -17 -5 -33 -5 -35 -1 -5 8 -99 6
-121 -3 -8 -3 -17 -1 -20 4 -3 5 -18 5 -35 0 -18 -5 -30 -5 -30 0 0 6 -10 6
-22 1 -13 -5 -31 -5 -41 -2 -10 4 -33 5 -50 3 l-32 -4 1 -3449 c0 -1897 -1
-3449 -2 -3449 -2 0 -25 37 -51 82 -27 46 -52 91 -58 100 -5 9 -59 101 -120
203 -60 103 -120 205 -132 227 -13 22 -27 46 -32 52 -4 6 -20 31 -33 56 -61
109 -99 174 -119 201 -11 16 -18 29 -14 29 3 0 1 6 -5 13 -6 6 -35 53 -64 102
-29 50 -123 209 -208 355 -86 146 -165 281 -176 301 -11 20 -39 67 -61 104
-23 37 -41 69 -41 72 0 2 -13 23 -28 46 -16 23 -32 49 -35 57 -4 8 -20 38 -37
65 -17 28 -33 58 -37 68 -3 9 -9 17 -13 17 -4 0 -10 8 -13 18 -4 9 -20 40 -37
67 -17 28 -33 58 -37 68 -3 9 -9 17 -14 17 -5 0 -9 4 -9 10 0 8 -56 107 -90
160 -6 8 -16 26 -22 40 -7 14 -15 27 -19 30 -3 3 -16 25 -30 50 -13 25 -27 47
-31 48 -5 2 -8 8 -8 14 0 8 -89 163 -130 228 -6 8 -16 26 -22 40 -7 14 -15 27
-18 30 -12 11 -90 149 -90 159 0 6 -3 11 -7 11 -5 0 -19 23 -32 50 -14 28 -29
50 -33 50 -4 0 -8 4 -8 9 0 5 -52 97 -115 205 -63 108 -115 200 -115 205 0 6
-6 14 -12 18 -7 4 -22 26 -34 48 -11 22 -51 92 -89 155 -37 63 -75 128 -84
145 -9 16 -18 32 -21 35 -3 3 -12 19 -20 35 -8 17 -17 32 -20 35 -3 3 -12 16
-19 30 -8 14 -37 63 -65 110 -27 47 -56 98 -65 113 -9 16 -21 36 -26 45 -6 9
-23 40 -39 67 -16 28 -36 58 -44 68 -8 9 -11 17 -7 17 4 0 1 8 -7 18 -8 9 -30
44 -48 77 -19 33 -36 62 -39 65 -3 3 -17 26 -31 53 -13 26 -28 47 -32 47 -5 0
-8 9 -8 20 0 11 -4 20 -9 20 -5 0 -11 8 -15 18 -7 20 -56 105 -65 112 -4 3
-13 19 -21 35 -8 17 -76 131 -150 255 -74 124 -139 235 -143 248 -5 12 -13 22
-18 22 -5 0 -8 3 -7 8 1 4 -9 25 -23 47 -13 22 -30 49 -36 60 -19 31 -136 228
-150 250 -7 11 -16 27 -20 35 -10 18 -162 276 -243 410 -31 52 -60 102 -64
110 -3 8 -14 27 -24 42 -9 14 -35 57 -56 95 -22 37 -43 70 -48 71 -4 2 -8 8
-8 14 0 6 -19 43 -43 82 -24 39 -46 79 -50 89 -3 9 -12 18 -19 18 -46 5 -900
3 -903 -1z"/>
</g>
</svg>
