<?xml version="1.0" encoding="utf-8"?>
<!-- Generator: Adobe Illustrator 21.1.0, SVG Export Plug-In . SVG Version: 6.00 Build 0)  -->
<svg version="1.1" id="Capa_1" xmlns="http://www.w3.org/2000/svg" xmlns:xlink="http://www.w3.org/1999/xlink" x="0px" y="0px"
	 viewBox="0 0 557.8 720" style="enable-background:new 0 0 557.8 720;" xml:space="preserve">
<style type="text/css">
	.st0{fill:#4D4D4D;}
</style>
<path class="st0" d="M393.6,661.7h59.7v-20.5h-59.7v-30.7h64.7v-21h-85.2v127.5h85.9v-20.5h-65.5V661.7z M292.6,667.4
	c0,8.2-1.1,14.8-3.3,19.5c-4,8.4-11.4,12.4-22.7,12.4c-9.2,0-15.6-3.7-19.5-11.4c-2.7-5.4-4.1-12.3-4.1-20.5v-77.8h-20.9v71.1
	c0,15.5,1.8,27.1,5.7,35.6c7,15.8,20.5,23.7,40,23.7c19.5,0,33-8,40.1-23.8c3.8-8.5,5.6-20.1,5.6-35.6v-71.1h-20.9V667.4z
	 M529.3,644.3l-14.6-3.9c-11.8-3.2-16.3-5.1-18-6.2c-3.4-2.2-5-5.5-5-10.4c0-4.6,1.5-8.6,4.6-12c3-3.3,8.1-5,15.4-5
	c9.1,0,15.4,2.6,19,8c2,3,3.3,7.5,4,13.4l0.3,2.8h19.6v-3.1c0-14.4-4.3-25.1-12.7-31.9c-8.2-6.6-18.2-9.9-29.9-9.9
	c-12.8,0-22.8,3.9-29.9,11.5c-7,7.6-10.6,17.3-10.6,29c0,11.1,3.8,19.6,11.2,25.3c4.2,3.2,11,6,20.7,8.4l14.1,3.5
	c7.3,1.9,12.6,4,15.7,6.3c2.8,2.2,4.2,6,4.2,11.7c0,7.6-3.4,12.5-10.7,15.4c-3.9,1.6-8.3,2.4-13.2,2.4c-10.7,0-17.9-3.4-22-10.4
	c-2.2-3.8-3.4-8.9-3.8-15.3l-0.1-2.9h-19.7l0,3.1c-0.1,13.9,3.8,25.1,11.7,33.3c8,8.3,19.1,12.5,32.9,12.5c11.8,0,22.3-3.1,31.2-9.2
	c9.3-6.4,14.1-16.9,14.1-31.3c0-11.6-3.7-20.7-11-27C542.6,649.1,536.7,646.3,529.3,644.3z M278.9,557.8
	c154,0,278.9-124.9,278.9-278.9C557.8,124.9,433,0,278.9,0S0,124.9,0,278.9C0,432.9,124.9,557.8,278.9,557.8z M288.2,543.5
	c-3.1,0.1-6.1,0.2-9.2,0.2s-6.2-0.1-9.2-0.2c-93.2-4.8-167.5-82.1-167.5-176.5c0-97.4,79.3-176.7,176.7-176.7
	c97.4,0,176.7,79.3,176.7,176.7C455.7,461.4,381.3,538.7,288.2,543.5z M426.2,488.3c27.2-33,43.5-75.2,43.5-121.3
	c0-105.4-85.4-190.8-190.8-190.8c-105.4,0-190.8,85.4-190.8,190.8c0,46.1,16.3,88.3,43.5,121.3c-47-41.1-76.7-101.4-76.7-168.5
	c0-123.5,100.5-224,224-224s224,100.5,224,224C502.9,386.9,473.2,447.2,426.2,488.3z M278.9,14.1c146,0,264.8,118.8,264.8,264.8
	c0,71.7-28.7,136.8-75.1,184.6C499,423.5,517,373.8,517,319.8c0-131.5-106.6-238.1-238.1-238.1S40.9,188.3,40.9,319.8
	c0,54,18,103.8,48.3,143.7c-46.4-47.7-75.1-112.9-75.1-184.6C14.1,132.9,132.9,14.1,278.9,14.1z M332.8,717.1h20.9V589.8h-20.9
	V717.1z M182.5,678.5l-48.9-88.9h-22.2v127.5h20.1v-89.4l49.7,89.4h21.4V589.6h-20.2V678.5z M42.8,589.6L0,717.1h21.6l11.8-36.4
	h37.9l11.3,36.4h22.3L63.6,589.6H42.8z M39.7,661l13-40.1L65.2,661H39.7z"/>
</svg>
