<?xml version="1.0" encoding="utf-8"?>
<!-- Generator: Adobe Illustrator 21.1.0, SVG Export Plug-In . SVG Version: 6.00 Build 0)  -->
<svg version="1.1" id="Capa_1" xmlns="http://www.w3.org/2000/svg" xmlns:xlink="http://www.w3.org/1999/xlink" x="0px" y="0px"
	 viewBox="0 0 546.2 720" style="enable-background:new 0 0 546.2 720;" xml:space="preserve">
<style type="text/css">
	.st0{fill:#4D4D4D;}
</style>
<g>
	<path class="st0" d="M0,655.9c1.4-0.5,2.8-0.8,4.3-0.8c5.7,0,9.3-3.3,11.6-8.1c2.2-4.5,3.8-9.3,5.6-13.9c1.7-4.4,3.5-8.9,5.2-13.3
		c1.2-3.1,2.3-6.2,3.5-9.3c1.6-4.1,3.2-8.1,4.7-12.2c1.7-4.5,3.4-9,5.2-13.6c2.5-6.5,5.1-13.1,7.7-19.6c1.6-4.1,3.2-8.3,4.8-12.4
		c0.1-0.2,0.1-0.5,0.2-0.7c0.5-1,0.9-2.2,2.2-2.3c1.3,0,1.6,1.2,2.1,2.1c1.6,2.9,2.6,6.1,3.9,9.1c1.8,4.1,3.4,8.4,5.1,12.5
		c2.1,5.2,4.2,10.3,6.2,15.5c2.1,5.2,4.1,10.3,6.2,15.5c1.7,4.3,3.4,8.7,5.3,13c3.8,8.9,7.1,18,11.4,26.7c1.2,2.4,2.7,4.6,4.5,6.6
		c2.3,2.5,5.3,3.9,8.7,4.2c0.8,0.1,1.6,0.1,2.4,0.2c0.6,0.1,1.1,0.5,1.1,1.1c0,0.7-0.5,1-1,1.1c-0.6,0.1-1.3,0.2-1.9,0.2
		c-7.8-0.1-15.7-0.2-23.5-0.3c-0.6,0-1.1-0.1-1.7-0.2c-1.2-0.4-1.6-1.2-0.8-2.1c1.4-1.6,1-3.1,0.4-4.8c-4.2-10.5-8.4-21-12.5-31.5
		c-0.6-1.5-1.5-2.3-3.1-2.3c-2,0-4,0-6.1,0c-7.3,0-14.6,0-21.8,0c-3.1,0-3.4,0.2-4.5,3.2c-2.3,6.4-4.6,12.9-7,19.4
		c-1.3,3.4-2.6,6.8-3,10.4c-0.4,3.2,1,5.1,4.2,5.5c0.6,0.1,1.3,0.1,1.9,0.2c0.5,0.1,1,0.3,1.1,0.8c0.1,0.6-0.3,1.1-0.8,1.3
		c-0.8,0.4-1.6,0.4-2.4,0.3c-7.3-0.5-14.5-0.4-21.8,0c-2.5,0.1-5,0.2-7.5-0.4C0,656.9,0,656.4,0,655.9z M53,610.9
		c3.6,0,7.1,0,10.7,0c3.4,0,3.9-0.7,2.6-3.8c-0.1-0.1-0.1-0.3-0.2-0.4c-2.2-5.8-4.3-11.6-6.5-17.5c-2-5.3-3.9-10.6-5.8-15.9
		c-0.2-0.6-0.6-1.2-1.4-1.1c-0.7,0-0.9,0.6-1.1,1.1c-1.4,4.3-2.9,8.6-4.3,12.8c-1.7,5-3.4,10.1-5.2,15.1c-0.9,2.5-1.8,5-2.6,7.5
		c-0.5,1.4-0.1,1.9,1.4,2.1c0.6,0.1,1.1,0,1.7,0C45.9,610.9,49.4,610.9,53,610.9z"/>
	<path class="st0" d="M284,0c0.1,0.5,0.3,0.9,0.7,1.2c6.3,5.8,10.8,12.8,14.5,20.4c2.8,5.8,4.7,12,5.2,18.6c0.4,5.7,0,11.3-1.4,16.8
		c-2.6,9.7-7.4,18.2-13.7,25.9c-1.1,1.4-2.4,2.6-3.6,3.9c-2.5,2.8-7.2,2.9-10,0.1c-3.8-3.8-7-8.1-9.7-12.7c-4-6.5-7.1-13.4-8.4-21
		c-1-5.9-1.1-11.9,0.1-17.8c2.5-12.8,9-23.4,17.5-33c0.7-0.8,2.1-1.1,2.1-2.5C279.5,0,281.8,0,284,0z M291.1,44.2
		c0-0.5,0-1.5-0.1-2.4c-0.6-6.6-3-12.5-6.2-18.2c-0.9-1.5-1.8-3.1-2.8-4.5c-0.9-1.3-1.5-1.2-2.4,0c-0.2,0.3-0.4,0.5-0.6,0.8
		c-4.5,6.7-7.5,13.9-8.6,21.9c-0.2,1.7-0.2,3.4,0,5.1c0.6,4.9,1.8,9.7,3.9,14.2c1.5,3.1,3.2,6.2,5.2,9c0.8,1.1,1.3,1.1,2.1,0.2
		c0.4-0.4,0.7-0.9,1-1.4c2-3,3.8-6,5.1-9.3C289.7,54.8,291.1,49.9,291.1,44.2z"/>
	<path class="st0" d="M215.6,720c-0.4-0.8-0.4-1.7-0.4-2.6c0-10.9,0-21.8,0-32.7c0-0.6,0-1.1,0-1.7c0.1-1.1,0.7-1.9,1.8-1.9
		c5.3,0.1,10.6-0.6,15.9,0.5c6.8,1.4,9.9,9.2,7.9,14.3c-1.3,3.4-3.4,5.6-6.6,6.9c-2.1,0.9-2.2,1.3-1,3.2c2.5,3.8,5.1,7.6,7.8,11.4
		c0.6,0.9,1,1.6,0.8,2.7c-1.1,0-2.3,0-3.4,0c-0.2-0.4-0.3-0.8-0.5-1.1c-3-4.5-6-9-9-13.5c-0.7-1-1.6-1.3-2.7-1.3c-1.7,0-3.4,0-5.1,0
		c-2.3,0-2.7,0.4-2.7,2.7c0,3.5,0,6.9,0,10.4c0,1,0,1.9-0.5,2.8C217.2,720,216.4,720,215.6,720z M218.4,692.6L218.4,692.6
		c0,2.1,0,4.2,0,6.3c0.1,1.8,0.5,2.3,2.3,2.3c2,0.1,4-0.1,6,0c2.2,0.2,4.3-0.4,6.4-1.2c3.3-1.3,5.3-4.7,5-8.3
		c-0.3-4.1-3.3-6.7-6.3-7.4c-3.8-0.8-7.6-0.4-11.3-0.4c-1.6,0-2.1,0.6-2.1,2.3C218.4,688.4,218.4,690.5,218.4,692.6z"/>
	<path class="st0" d="M274.8,720c-6.7-10-13.3-20-20-30c-0.5-0.7-0.8-1.9-1.8-1.6c-1.1,0.3-0.6,1.5-0.6,2.4c0,8.8,0,17.6,0,26.4
		c0,1,0,1.9-0.4,2.9c-0.6,0-1.3,0-1.9,0c-0.6-0.8-0.6-1.6-0.6-2.5c0-11.1,0-22.2,0-33.2c0-0.4,0-0.8,0-1.2c0.1-0.9,0.4-1.6,1.3-1.8
		c0.9-0.3,1.6,0.1,2.1,0.8c1,1.3,1.9,2.6,2.8,3.9c5.5,8.3,11,16.5,16.5,24.8c0.2,0.3,0.3,0.6,0.5,0.8c0.3,0.3,0.6,0.6,1,0.4
		c0.3-0.1,0.5-0.4,0.5-0.8c0.1-0.6,0.1-1.1,0.1-1.7c0-8.4,0-16.8,0-25.2c0-0.6,0-1.3,0.1-1.9c0.2-0.7,0.6-1.2,1.4-1.1
		c0.6,0.1,1.1,0.5,1.2,1.1c0.1,0.6,0.1,1.3,0.1,1.9c0,11.1,0,22.2,0,33.2c0,0.9,0,1.8-0.5,2.6C276.1,720,275.4,720,274.8,720z"/>
	<path class="st0" d="M348.6,720c-0.4-0.7-0.4-1.3-0.1-2.1c1.9-4.8,3.8-9.6,5.6-14.4c2.1-5.5,4.2-11,6.3-16.5
		c0.5-1.4,1.1-2.9,1.7-4.3c0.5-1,1-2.1,2.4-2.1c1.5,0,2,1.2,2.5,2.3c1.4,3.7,2.8,7.4,4.3,11.1c1.8,4.7,3.6,9.3,5.4,14
		c1.3,3.5,2.7,6.9,4,10.4c0.2,0.6,0,1.1-0.1,1.6c-1,0-1.9,0-2.9,0c-1.1-2.9-2.2-5.7-3.2-8.6c-0.5-1.5-1.3-2.1-2.8-2.1
		c-4.9,0-9.7,0-14.6,0c-1.4,0-2.2,0.5-2.7,1.9c-1,3-2.3,5.9-3.4,8.8C350.2,720,349.4,720,348.6,720z M364.4,706.4L364.4,706.4
		c0.7,0,1.5,0,2.2,0c0.8,0,1.6,0,2.4,0c3,0,3.4-0.5,2.4-3.5c0-0.1-0.1-0.2-0.1-0.2c-1.9-4.9-3.7-9.8-5.6-14.7
		c-0.2-0.6-0.5-1.3-1.3-1.3c-0.8,0-1,0.6-1.3,1.3c-1.4,3.7-2.8,7.4-4.2,11.1c-0.7,1.7-1.3,3.5-1.8,5.3c-0.4,1.4,0,2,1.5,2
		C360.6,706.5,362.5,706.4,364.4,706.4z"/>
	<path class="st0" d="M418,720c-0.6-0.6-0.5-1.3-0.2-2c1.3-3.2,2.4-6.5,3.7-9.7c1.7-4.4,3.4-8.7,5.1-13.1c1.6-4.1,3.1-8.2,4.7-12.2
		c0.4-1.1,0.9-2.4,2.4-2.3c1.5,0.1,2.1,1.3,2.6,2.6c3.2,8.3,6.5,16.5,9.6,24.8c1.3,3.5,2.5,7,4.1,10.3c0.3,0.6,0,1.1,0,1.7
		c-1,0-1.9,0-2.9,0c-1.2-3-2.4-6-3.5-9c-0.4-1.2-1.2-1.7-2.4-1.7c-5,0-10,0-15,0c-1.3,0-2.1,0.5-2.5,1.8c-1,3-2.2,5.9-3.3,8.8
		C419.6,720,418.8,720,418,720z M433.6,706.4L433.6,706.4c1.9,0,3.9,0,5.8,0c1.7-0.1,2-0.5,1.6-2.1c-0.1-0.5-0.3-1.1-0.5-1.6
		c-1-2.7-2-5.4-3.1-8.1c-0.9-2.2-1.9-4.4-2.6-6.8c-0.1-0.5-0.3-0.9-0.9-1c-0.7-0.1-1,0.4-1.3,0.8c-0.1,0.2-0.2,0.4-0.3,0.7
		c-1.4,3.7-2.8,7.4-4.2,11c-0.6,1.5-1.2,3-1.7,4.5c-0.6,2-0.3,2.5,1.8,2.6C430.1,706.5,431.9,706.4,433.6,706.4z"/>
	<path class="st0" d="M285,720c-0.7-0.8-0.3-1.6,0-2.5c3.5-9.1,7-18.2,10.5-27.3c0.9-2.4,1.9-4.8,2.8-7.2c0.2-0.5,0.5-1,0.8-1.5
		c1-1.2,2.3-1.3,3.3-0.1c0.5,0.6,0.8,1.2,1.1,1.9c3.9,10.2,7.8,20.5,11.7,30.7c0.5,1.4,1,2.7,1.6,4c0.3,0.7,0.2,1.2,0.1,1.9
		c-1,0-1.9,0-2.9,0c-1-2.8-2.1-5.6-3.1-8.4c-0.7-2-1-2.3-3.2-2.3c-4.7,0-9.4,0-14.1,0c-1.5,0-2.4,0.4-2.9,1.9
		c-1.1,3-2.3,5.9-3.4,8.8C286.6,720,285.8,720,285,720z M300.6,706.4c1.9,0,3.7,0,5.6,0c2-0.1,2.4-0.6,1.9-2.6
		c-0.1-0.4-0.2-0.8-0.4-1.1c-0.9-2.3-1.7-4.5-2.6-6.8c-1-2.6-1.9-5.3-2.9-7.9c-0.3-0.7-0.6-1.4-1.5-1.4c-0.8,0-0.8,0.8-1.1,1.4
		c-0.8,2-1.6,4.1-2.3,6.1c-1.2,3.2-2.5,6.5-3.6,9.7c-0.8,2.2-0.5,2.5,1.9,2.5C297.2,706.5,298.9,706.4,300.6,706.4z"/>
	<path class="st0" d="M184,720c0-0.6-0.1-1.3-0.1-1.9c0-11.4,0-22.8,0-34.2c0-2.5,0.3-2.8,2.8-2.8c6,0,12,0,17.9,0
		c2,0,2.9,0.5,2.7,1.6c-0.3,1.6-1.6,1.3-2.7,1.3c-4.8,0-9.7,0-14.6,0c-2.8,0-3.1,0.4-3.1,3c0,3.1,0,6.1,0,9.2c0,2.4,0.4,2.8,2.9,2.8
		c4,0,8.1,0,12.1,0c0.5,0,1,0,1.5,0c1,0,1.8,0.3,1.8,1.5c-0.1,1.2-0.9,1.4-1.9,1.4c-0.5,0-1,0-1.5,0c-4,0-7.9,0-11.9,0
		c-2.6,0-3,0.3-3,2.9c0,3.2,0,6.5,0,9.7c0,2.2,0.3,2.5,2.5,2.6c5,0,10,0,15,0c0.3,0,0.6,0,1,0c2.4,0,2.7,0.5,1.9,3
		C199.5,720,191.8,720,184,720z"/>
	<path class="st0" d="M154.9,720c-0.5-0.4-0.9-0.9-1.5-1.3c-4.3-2.6-6-6.8-6.2-11.5c-0.2-7.9-0.1-15.9-0.1-23.8c0-0.3,0-0.6,0.1-1
		c0.1-0.8,0.5-1.4,1.4-1.4c0.9,0,1.4,0.5,1.5,1.3c0.1,0.7,0.1,1.4,0.1,2.2c0,7.2-0.1,14.4,0,21.6c0,3,1,5.8,3,8.3
		c3.3,4.3,12.3,4.3,15.6,0.1c1.1-1.4,2-2.8,2.3-4.5c0.3-2.4,0.7-4.8,0.7-7.2c0-6.1,0-12.3,0-18.4c0-0.7,0-1.5,0.2-2.2
		c0.1-0.6,0.6-0.9,1.3-0.9c0.7,0,1.1,0.4,1.2,1c0.1,0.6,0.2,1.3,0.2,1.9c0,7.6,0.1,15.2,0,22.8c0,4.8-1.8,8.8-5.9,11.6
		c-0.5,0.4-1,0.8-1.3,1.4C163.3,720,159.1,720,154.9,720z"/>
	<path class="st0" d="M122.8,720c-0.4-0.4-0.8-0.8-1.3-1.1c-6.9-3.9-9.1-10.4-9.4-17.7c-0.2-5.1,1-9.8,3.9-14
		c5.3-7.4,15-9.1,22.8-3.7c0.3,0.2,0.5,0.4,0.7,0.6c0.9,0.9,1,1.8,0.3,2.6c-0.8,0.8-1.6,0.5-2.4-0.1c-1.5-1.3-3.2-2.1-5.1-2.7
		c-4.1-1.3-7.7-0.3-10.9,2.2c-5.4,4.4-6.5,10.3-6,16.8c0.3,3.4,1.3,6.5,3.3,9.3c4.5,6.3,12.5,7.1,18.2,2.8c0.4-0.3,0.9-0.7,1.4-1
		c0.7-0.4,1.4-0.3,2,0.4c0.6,0.7,0.4,1.4-0.2,2c-0.9,0.9-1.8,1.6-2.9,2.1c-0.7,0.4-1.4,0.8-1.8,1.6C131.2,720,127,720,122.8,720z"/>
	<path class="st0" d="M331.1,720c-4.3-11.7-8.6-23.3-12.8-35c-0.2-0.6-0.4-1.2-0.6-1.8c-0.2-0.7-0.3-1.5,0.6-1.9
		c0.9-0.4,1.8-0.1,2.3,0.8c0.6,1.2,1.1,2.4,1.5,3.6c2.1,6,4.3,12,6.4,18c1.1,3.2,2.3,6.4,3.4,9.6c0.2,0.5,0.3,1,0.9,1
		c0.6,0,0.8-0.5,0.9-0.9c1.3-3.6,2.6-7.3,3.9-10.9c1.3-3.6,2.6-7.1,3.9-10.7c1-2.9,2.1-5.8,3.1-8.7c0.2-0.5,0.4-1.1,0.8-1.5
		c0.5-0.5,1.2-0.6,1.8-0.3c0.7,0.3,0.8,0.9,0.6,1.6c-0.3,0.9-0.6,1.9-0.9,2.8c-1.7,4.8-3.5,9.6-5.2,14.3c-2.1,5.7-4.2,11.3-6.3,17
		c-0.4,1-0.6,2-0.9,3C333.4,720,332.2,720,331.1,720z"/>
	<path class="st0" d="M394.7,720c-0.3-0.7-0.9-1.1-1.6-1.5c-4-2.3-6.3-5.9-7.6-10.2c-1.7-5.4-1.5-10.8,0.2-16.2
		c3.8-11.4,16.3-14.9,25.1-8.8c0.5,0.4,1,0.8,1.5,1.3c0.5,0.5,0.5,1.2,0.1,1.8c-0.5,0.7-1.1,0.9-1.9,0.6c-0.5-0.2-1-0.6-1.4-0.9
		c-7.6-5.7-16.2-1.7-19.3,5c-3,6.4-3.1,12.9,0.1,19.2c3.9,7.8,12.6,9.8,19.4,4.7c0.4-0.3,0.7-0.6,1.2-0.9c0.7-0.4,1.4-0.6,1.9,0.1
		c0.5,0.7,0.5,1.4,0,2c-0.7,0.9-1.7,1.4-2.7,2.1c-0.7,0.5-1.6,0.8-1.9,1.7C403.5,720,399.1,720,394.7,720z"/>
	<path class="st0" d="M202.5,72.2c-5.9-0.4-11.6,0.7-17,2.9C179,77.7,173.7,82,169.8,88c-2.4,3.7-4.2,7.7-5.3,11.9
		c-1.3,4.8-1.2,9.5,1.8,13.7c2.9,4,6.8,5.8,11.7,5.5c5.1-0.4,9.1-3,12.5-6.7c1.1-1.2,2-2.5,3.1-3.7c2-2,4.5-2.5,7.2-1.7
		c4.7,1.4,5.4,6.8,3.7,9.5c-3.8,5.9-8.8,10.5-15.2,13.5c-5.3,2.5-10.9,3.5-16.8,2.5c-7.9-1.4-14-5.5-18.3-12.4
		c-3.5-5.8-4.6-12.1-3.9-18.6c0.4-4,1.6-7.9,3.2-11.6c2.2-5.2,5-9.9,8.6-14.3c4.2-5.1,9.3-8.9,15.2-11.8c8.7-4.3,18.1-6,27.8-5.4
		c9.2,0.5,18.2,2.6,26.7,6.4c9.8,4.2,18.4,10,25.9,17.6c4.9,4.9,8.9,10.5,11.9,16.7c3,6.1,5.1,12.6,5.7,19.4
		c0.6,6.3,0.6,12.6-1.4,18.7c-2.8,8.4-7.8,15-16.2,18.5c-5.4,2.3-11,2.9-16.8,1.5c-7.4-1.7-13-5.8-16.7-12.2c-3.2-5.6-4-11.7-3.1-18
		c1.6-11.3,7.2-20.6,14.1-29.3c2.2-2.8,4.5-5.5,7-8.1c1.3-1.4,1.3-1.9,0-2.9c-4.5-3.6-9.4-6.6-14.7-8.9c-2.8-1.2-5.5-2.3-8.4-3.1
		C213.7,73,208.2,71.8,202.5,72.2z M262.2,124.4c0.1-1.5-0.3-2.9-0.4-4.3c-0.5-7.3-3.2-13.8-7.1-19.9c-1.3-2-1.9-2.1-3.5-0.4
		c-3.9,4.2-7.6,8.7-10.5,13.6c-3.1,5.2-5.9,10.6-6.3,16.9c-0.3,5.1,1.3,9.4,5.7,12.1c6.2,3.9,14.5,1.7,18.5-4.5
		C261.3,133.7,261.9,129.1,262.2,124.4z"/>
	<path class="st0" d="M358.7,72.1c-7.1-0.3-13.8,1.5-20.4,3.8c-6.7,2.4-12.8,5.8-18.4,10.1c-0.3,0.2-0.5,0.4-0.8,0.6
		c-1.2,1.1-1.2,1.6-0.1,2.8c2.8,2.9,5.3,5.9,7.8,9c4.2,5.3,7.7,11,10.4,17.1c2.6,6.2,4,12.7,3.2,19.4c-1.2,9.7-6.3,16.8-15.3,20.8
		c-12.6,5.5-27.2,0.3-34.1-10.9c-3.4-5.6-4.9-11.7-5.3-18.2c-0.3-5,0.3-9.9,1.3-14.7c0.9-4.4,2.6-8.7,4.6-12.7
		c6.5-13,16.5-22.6,28.9-29.9c5.9-3.5,12.1-6.1,18.6-8c4.5-1.3,9.1-2.2,13.8-2.5c1.8-0.1,3.7-0.4,5.5-0.4c6.3,0,12.4,0.8,18.4,2.6
		c11.8,3.7,20.9,10.9,27.3,21.6c2.9,4.8,5.1,9.9,6.2,15.4c2.5,12.1-1,24.5-12.3,31.2c-6.5,3.8-13.4,4.7-20.8,2.8
		c-8-2-13.9-7-19-13.1c-0.6-0.7-1.1-1.6-1.6-2.4c-1.5-2.9-0.8-6.2,1.8-8.3c2.4-1.9,6.4-1.8,8.6,0.1c1,0.9,1.9,2,2.7,3.1
		c2.2,2.7,4.9,4.9,8.1,6.4c5,2.3,9.8,2.2,14.2-1c4.4-3.3,6.2-8.1,5.2-13.5c-2.3-12.7-9-22.3-21.1-27.7
		C372,73.3,365.7,71.7,358.7,72.1z M299.3,124.8c0,2.6,0.4,6.1,1.7,9.5c2,5.6,6.9,9.8,13,10c8.3,0.2,13.5-6.1,13-13.8
		c-0.4-5.9-2.8-11.1-5.7-16.1c-3.1-5.3-7.1-10-11.2-14.6c-1.4-1.6-2.2-1.5-3.4,0.3C302.1,107.3,299.4,115.1,299.3,124.8z"/>
	<path class="st0" d="M486.1,181.2c0.2,8.6-1.3,16.7-4.1,24.5c-3.6,10.5-9.1,19.7-16.4,28c-6.6,7.5-14.5,13-23.6,17
		c-5.5,2.4-11.4,3.4-17.4,4.2c-4.9,0.6-9.7,0.1-14.4-1c-9.1-2.1-16.3-6.8-20.6-15.4c-4.9-9.9-3.4-22.6,4.4-30.6
		c4.1-4.3,9.2-6.7,15.1-7.4c7.6-0.9,14.7,0.7,21.6,3.9c6.7,3.1,12.7,7.1,18.2,11.8c2.2,1.8,4.3,3.7,6.4,5.6c1.3,1.1,1.6,1.1,2.7-0.3
		c3.8-4.8,6.8-10,9.3-15.6c3.1-7.1,4.6-14.6,5.4-22.3c0.2-2.4-0.3-4.7-0.5-7c-0.7-7.2-3-13.9-7.4-19.7c-4-5.3-9.3-8.9-15.4-11.4
		c-2.4-1-4.9-1.5-7.4-2.2c-4.8-1.4-12,1.8-14.6,6c-2.9,4.7-2.7,9.3-0.3,14c1.8,3.6,4.5,6.5,7.7,8.9c1.7,1.3,2.9,2.9,3.1,5.3
		c0.4,5.3-5.5,9-9.8,6.5c-2.6-1.5-4.8-3.5-6.9-5.7c-3.7-3.8-6.6-8.2-8.1-13.3c-3.9-12.8,0.9-26.5,13.5-32.5
		c7.2-3.4,14.6-3.6,22.2-1.5c7.8,2.2,14.8,5.9,21,11.3c5.1,4.5,9,10,11.7,16.1C485,165.7,486.5,173.4,486.1,181.2z M419.8,241.4
		c7.2,0.2,13.6-1.6,19.8-4.5c2-0.9,3.9-1.9,5.6-3.3c1.2-1,1.2-1.5,0.1-2.5c-1-1-2-1.8-3.1-2.7c-5.5-4.7-11.2-9-17.9-11.9
		c-3.9-1.7-7.9-2.7-12.2-2.5c-5.7,0.3-9.9,3.7-11.2,9.1c-1.5,6.5,1,12.3,6.9,15.6C411.6,240.8,415.8,241.7,419.8,241.4z"/>
	<path class="st0" d="M285.7,398.9c-0.2-5.9,0.7-11.1,2.7-16.1c4.1-10.4,13.9-17.8,25.4-17.9c7.2,0,13.3,2.2,18.7,6.8
		c3.1,2.6,5.1,6.1,6.4,9.9c2.7,7.7,1.9,15.3-0.7,22.8c-3,8.8-8.2,16.2-14.1,23.3c-1.4,1.8-3,3.4-4.6,5c-1.7,1.8-1.6,2.4,0.4,4
		c5.8,4.6,12.3,8.1,19.3,10.5c8.2,2.9,16.8,4.2,25.5,3.1c12.2-1.5,21.9-6.9,28.1-17.9c2.2-4,3.9-8.1,4.6-12.7
		c0.8-5.5-0.7-10.3-5.3-13.7c-4-3-8.4-3.2-12.9-1.6c-4.4,1.6-7.6,4.8-10.5,8.4c-0.9,1.2-1.9,2.2-3.3,2.7c-2.7,1.1-5.4,0.6-7.5-1.6
		c-2.1-2.2-2.6-5-1.1-7.6c3.2-5.5,7.7-9.5,13.1-12.6c5.4-3.1,11.3-4.5,17.5-3.7c8.1,1,14.7,4.8,19.2,11.8c2.9,4.4,4.4,9.3,4.5,14.6
		c0.1,4.2-0.4,8.3-1.7,12.2c-2.3,6.8-5.5,13.1-10.2,18.6c-4.7,5.5-10.4,9.7-17,12.6c-5.9,2.6-12.2,3.9-18.8,4.5
		c-6.2,0.5-12.3-0.2-18.3-1.4c-6.6-1.2-12.9-3.5-19-6.5c-7.2-3.5-13.7-7.8-19.6-13.2c-4.9-4.4-9-9.5-12.5-15.1
		c-3.2-5.2-5.6-10.8-6.9-16.7C286.3,407.1,285.3,402.8,285.7,398.9z M314.4,378.3c-5.2,0.3-9.3,2.6-12,7.1
		c-2.8,4.7-3.4,9.9-3.1,15.2c0.2,3,0.7,5.9,1.4,8.8c1.3,4.9,3.4,9.4,6.2,13.6c0.9,1.5,1.7,1.5,2.8,0.2c2.7-2.9,5.3-5.9,7.6-9.1
		c4.7-6.5,8.7-13.2,9.5-21.4c0.3-2.6-0.1-5.2-1.3-7.5C323.4,380.5,319.3,378.6,314.4,378.3z"/>
	<path class="st0" d="M75.1,339.8c-0.1-10.7,1.9-19.6,5.3-28.3c3.1-8.1,7.4-15.4,12.8-22.1c6.7-8.3,14.9-14.9,24.6-19.3
		c9.8-4.4,20.2-6,30.8-4.4c7.5,1.1,14.1,4.2,19.2,10c3.5,4.1,5.7,8.7,6.5,14.1c1,7.1-0.4,13.5-4.4,19.3c-3.7,5.4-8.9,8.8-15.4,10.1
		c-7.4,1.4-14.4,0.5-21.4-2.3c-7.7-3.1-14.4-7.6-20.7-12.8c-2-1.6-3.9-3.4-5.8-5.2c-1.7-1.6-2.3-1.5-3.7,0.2
		c-4,5.1-7.1,10.8-9.6,16.8c-1.6,3.9-2.6,8-3.6,12c-0.4,1.4-0.4,2.9-0.6,4.3c-0.7,5-0.5,10,0.4,14.9c2.2,11.5,8.1,20.4,18.8,25.8
		c2.9,1.5,5.9,2.7,9,3.4c6.5,1.5,12.3,0.3,16.2-5.2c2.7-3.8,3.1-8.1,1.4-12.4c-1.7-4.3-4.4-7.7-8.1-10.4c-0.5-0.4-1-0.8-1.5-1.2
		c-2-1.9-2.7-4.9-1.6-7.3c1.3-3,3.3-4.3,6.4-4.2c1.8,0.1,3.4,0.6,4.9,1.8c4.7,3.7,8.7,8,11.3,13.4c3.5,7.4,4.3,15,1.3,22.8
		c-3.7,9.5-10.9,14.6-20.7,16.6c-5.5,1.1-10.7,0.2-16-1.4c-5.5-1.7-10.7-4.2-15.4-7.5c-7.5-5.3-13-12.2-16.5-20.8
		C76.3,353.3,74.8,346.1,75.1,339.8z M142.5,278.7c-0.6,0-1.3-0.1-1.9-0.1c-0.6,0-1.3,0.2-1.9,0.2c-8.2,0.4-15.6,3.2-22.4,7.7
		c-1.4,0.9-1.4,1.5-0.2,2.6c6.7,6.1,13.7,11.8,22.3,15.2c3.6,1.4,7.2,2.4,11.1,2.1c6.3-0.5,11.4-5.6,11.5-12.2
		c0-6.2-3-10.5-8.6-13.2C149.3,279.4,145.9,279,142.5,278.7z"/>
	<path class="st0" d="M75.2,181.5c-0.5-6.8,0.8-13.3,3-19.6c2.6-7.6,7.1-14.1,13.1-19.5c6.6-6,14.4-10,23-11.9
		c9.1-2,17.9-0.9,25.5,5.3c4.7,3.8,7.7,8.6,9,14.5c2.2,9.8-0.7,18.2-6.7,25.8c-2.3,2.9-5,5.5-8.2,7.5c-3.5,2.2-7.1,1.5-9.4-1.7
		c-1.9-2.7-1.7-5.9,0.6-8.4c1-1,2.2-1.9,3.3-2.9c2.8-2.4,5-5.2,6.4-8.7c3.2-8-1.2-15.7-8.5-18.1c-4.1-1.4-7.9-0.4-11.6,0.7
		c-5.3,1.6-10.1,4.3-14.2,8c-3.8,3.5-6.6,7.7-8.6,12.4c-2.3,5.3-3,10.9-3.2,16.5c-0.1,3.8,0.3,7.8,1.2,11.6
		c1.4,6.2,3.4,12.1,6.4,17.7c1.9,3.6,4,7,6.5,10.2c1.6,2,1.8,2,3.8,0.2c5.4-4.7,10.7-9.3,16.9-13c5.5-3.3,11.3-6.1,17.6-7.2
		c8.8-1.7,17.3-0.7,24.5,5.3c4.6,3.9,7.5,8.8,8.6,14.8c0.5,3,0.7,6,0.3,9.1c-1.3,8.6-5.6,15-12.8,19.7c-4.8,3.2-10.3,4.4-16,5.1
		c-7.4,0.9-14.5-0.4-21.5-2.4c-5.4-1.6-10.3-4.2-15-7.2c-3.7-2.4-7.1-5.2-10.2-8.2c-6.2-6.2-11.3-13.2-15.3-21.1
		c-2.8-5.6-5-11.4-6.4-17.4C75.8,192.9,74.7,187.2,75.2,181.5z M140.8,241.4c1.1,0,2.3,0.1,3.4,0c4.9-0.5,9.6-1.8,13-5.6
		c4-4.4,5-9.5,2.5-15c-2.2-4.9-6.4-6.7-11.6-6.8c-5.3-0.1-10,1.8-14.5,4.1c-6.3,3.3-11.8,7.9-17.2,12.5c-1.7,1.5-1.7,2.1,0.1,3.3
		C124,238.7,131.9,241.5,140.8,241.4z"/>
	<path class="st0" d="M275.6,398.6c0.4,6.4-1,12.6-3.1,18.5c-2.7,7.9-7.1,14.8-12.7,21c-7.7,8.6-17,14.9-27.4,19.6
		c-5,2.3-10.2,4-15.6,5.1c-8.4,1.6-16.7,2.2-25.3,0.6c-8.5-1.6-16-4.8-22.8-10c-5.5-4.3-9.7-9.7-12.9-15.8
		c-2.4-4.6-4.1-9.5-5.1-14.6c-0.6-3.1-0.6-6.2-0.3-9.2c0.8-6.4,3.4-12.1,8.1-16.6c5-4.7,10.9-7.2,17.7-7.2
		c12.4-0.1,21.3,6.1,28.1,15.9c1.9,2.7,1.1,6.7-1.5,8.7c-2.9,2.3-6.8,2.1-9.2-0.6c-2.1-2.4-3.9-4.9-6.5-6.8c-3.7-2.6-7.6-4-12.3-3.5
		c-4.6,0.5-9.9,5.4-10.8,10.5c-0.6,3.6-0.1,7,1.1,10.5c1.7,5.3,4.3,10.1,8,14.2c3.6,4,7.9,6.8,12.9,8.8c7.9,3.1,16.1,3.5,24.4,2.4
		c6.7-0.9,13-3,19.1-6c4.2-2,8-4.5,11.8-7.2c2.3-1.7,2.4-2.3,0.4-4.4c-5.1-5.3-9.5-11-13.3-17.2c-3.9-6.4-6.7-13.3-7.4-20.8
		c-0.8-8.3,1.2-16,7.3-22.1c4.7-4.7,10.5-7.5,17.4-7.5c2.3,0,4.7-0.1,7,0.4c7.4,1.5,13,5.5,17.2,11.6c3.9,5.7,5.6,12.1,5.8,19
		C275.6,396.8,275.6,397.7,275.6,398.6z M262.2,397.9c-0.3-3-0.6-6.5-1.9-9.9c-2.4-6.4-8.6-10.5-15.2-9.5
		c-4.9,0.7-9.7,4.3-10.5,10.2c-0.8,5.8,1.1,11,3.6,16.1c3.4,6.9,8.1,12.8,13.4,18.3c1.3,1.4,1.8,1.4,2.9-0.3
		C259.5,415.4,261.9,407.3,262.2,397.9z"/>
	<path class="st0" d="M486.1,337.5c0,1,0,1.9,0,2.9c0.1,13.5-4.4,25.2-13.6,35c-4.7,5-10.4,8.6-16.7,11.4c-4.6,2-9.3,3.2-14.2,3.8
		c-0.8,0.1-1.6,0.2-2.4,0.1c-7-0.5-13.6-2.4-18.9-7.3c-4.2-3.9-7-8.8-8-14.6c-1.9-11.8,2.6-21.2,11-29c1.2-1.1,2.6-2.2,4-3.1
		c2.8-1.8,6.8-1.3,8.9,0.9c2.2,2.2,2.5,7.2-0.4,9.6c-1.2,1-2.4,1.9-3.5,3c-3,2.6-5.1,5.8-6.4,9.6c-2,6.2,1,13.1,6.9,15.9
		c3.4,1.6,7,1.8,10.4,0.9c11-2.7,19.8-8.6,25.1-18.9c2.3-4.6,3.3-9.6,4-14.7c0.8-6.6-0.3-12.9-1.8-19.2c-2.1-8.8-6.2-16.8-11.6-24
		c-0.1-0.2-0.3-0.4-0.4-0.6c-1.6-2-1.9-2.1-3.8-0.3c-4,3.8-8.2,7.3-12.7,10.5c-5.7,3.9-11.7,7.3-18.4,9.1c-8.3,2.2-16.5,2.4-24.2-2
		c-5.5-3.1-9.1-7.8-11.2-13.8c-1.7-4.9-1.9-9.9-0.8-14.8c1.6-7,5.4-12.7,11.5-16.8c6-4.1,12.8-5.6,19.9-5.8
		c8.5-0.2,16.6,1.4,24.3,4.7c6.9,3,13,7.2,18.4,12.4c8.3,7.9,14.5,17.3,18.9,27.9C484.1,319,486.2,328,486.1,337.5z M413.7,306.4
		c5.5-0.1,10.5-2.4,15.3-5c6-3.2,11.1-7.7,16.3-12.2c1.3-1.1,1.2-1.8-0.3-2.8c-3.2-2.3-6.7-4-10.3-5.3c-5.7-2-11.6-2.9-17.6-2.3
		c-3.9,0.4-7.6,1.4-10.9,3.7c-6.2,4.3-7.3,13.2-3.6,18.5C405.3,304.9,409,306.4,413.7,306.4z"/>
	<path class="st0" d="M277.3,274.6c-6,0-12,0-18,0c-2,0-3.8,0.4-4.7,2.4c-0.6,1.3-1.1,2.7-1.6,4.1c-1.8,4.9-3.5,9.9-5.3,14.8
		c-1.9,5.5-4,10.9-5.7,16.5c-0.7,2.3-1,4.7-1.3,7.1c-0.3,2.3,1.6,4.7,4.2,5.3c1.3,0.3,2.5,0.4,3.8,0.6c0.5,0.1,1,0.1,1.4,0.2
		c0.6,0.2,1.3,0.5,1.3,1.3c0,0.8-0.7,1.1-1.3,1.2c-2,0.4-4,0.2-6,0c-4.3-0.4-8.7-0.4-13.1-0.4c-6.2,0-12.4,0.7-18.7,0.6
		c-0.8,0-1.6,0-2.4-0.4c-0.5-0.2-1.1-0.5-1-1.2c0.1-0.5,0.5-0.8,1-1c1.3-0.4,2.6-0.8,4-0.7c5.5,0.1,9.6-2.4,12.7-6.7
		c2.3-3.1,3.7-6.6,5.1-10.1c2.3-5.8,4.5-11.6,6.7-17.4c2.1-5.5,4.1-11,6.3-16.5c1.6-4.2,3.3-8.4,5-12.6c1.5-4,3-8,4.6-12
		c1.6-4.2,3.2-8.4,4.8-12.7c2.2-5.6,4.4-11.3,6.6-16.9c2.7-6.8,5.3-13.7,7.9-20.6c1.1-2.8,2.1-5.6,3.3-8.3c0.6-1.3,1.1-2.8,2.7-2.8
		c1.6-0.1,2.2,1.5,2.7,2.7c1.6,3.5,3,7,4.4,10.5c2.3,5.6,4.5,11.2,6.8,16.8c2,4.9,3.9,9.9,5.9,14.8c2.1,5.3,4.3,10.6,6.4,15.9
		c2.1,5.3,4.3,10.6,6.4,15.9c2.1,5.2,4.3,10.4,6.5,15.7c1.6,3.9,3.1,7.8,4.8,11.7c3.5,8.2,6.3,16.6,11.4,24c2.4,3.4,5.2,6.4,9.4,7.7
		c1.6,0.5,3.1,0.7,4.7,0.9c1.4,0.1,2.9,0.2,4.2,0.9c1,0.5,0.9,1.3-0.1,1.8c-0.8,0.4-1.7,0.5-2.6,0.5c-5.7,0-11.4,0.4-17-0.1
		c-5.5-0.5-11,0.1-16.5-0.6c-0.4,0-0.8,0-1.2-0.1c-1.1-0.3-1.6-1.3-0.7-1.9c2.9-2,2-4.3,1-6.8c-1.5-3.9-3.1-7.8-4.6-11.7
		c-1.7-4.3-3.5-8.7-5.2-13c-1.6-3.9-3.1-7.8-4.7-11.7c-0.6-1.6-1.4-3.1-1.9-4.7c-0.7-2.3-2.3-3-4.4-2.9c-5.3,0-10.5,0-15.8,0
		C278.9,274.6,278.1,274.6,277.3,274.6L277.3,274.6z M276.8,268c5.3,0,10.5,0,15.8,0c2.7,0,3.3-1,2.4-3.5
		c-2.6-6.9-5.2-13.7-7.8-20.6c-2.6-7-5.1-13.9-7.6-20.9c-0.6-1.7-1.2-3.3-1.9-5c-0.3-0.6-0.5-1.5-1.5-1.4c-0.8,0.1-0.9,0.8-1.1,1.4
		c-1.3,3.7-2.6,7.5-3.9,11.2c-1.1,3.2-2.1,6.4-3.2,9.6c-1.7,4.9-3.5,9.9-5.2,14.8c-1.2,3.6-2.4,7.2-3.7,10.7c-1,2.6-0.4,3.6,2.4,3.6
		C266.6,268,271.7,268,276.8,268z"/>
	<path class="st0" d="M129.6,567.5c9.1,0,18.3,0,27.4,0c5.6,0,11.2,0.9,16.3,3c7,2.9,12.7,10.3,12.7,18.3c0,7.5-2.8,13.8-7.5,19.4
		c-2,2.4-4.4,4.5-6.7,6.7c-1.2,1.2-1.3,1.6-0.2,2.8c8.7,10,16.9,20.5,26.4,29.7c2.9,2.8,6.1,5.2,10,6.7c2,0.8,4.1,0.8,6.2,1
		c1,0.1,2.4,0.1,2.4,1.4c0,1.5-1.5,1.2-2.5,1.2c-4.9,0-9.9,0.2-14.8-0.3c-5.1-0.5-9.4-2.7-13.1-6.2c-5.1-4.8-9.5-10.4-13.9-15.8
		c-3.6-4.4-7.2-8.9-10.8-13.4c-1.3-1.7-2.9-2.4-5-2.4c-4.1,0.1-8.2,0-12.4,0c-2.3,0-2.7,0.4-2.7,2.7c-0.1,7.8,0,15.7,0.3,23.5
		c0.1,1.4,0.4,2.9,0.7,4.3c0.6,3,2.5,4.5,5.6,4.8c1,0.1,2.1,0.2,3.1,0.3c0.4,0,0.8,0.1,1.2,0.2c0.6,0.2,1.2,0.6,1.2,1.3
		c0,0.8-0.7,1-1.4,1c-1.9,0-3.7,0-5.6-0.1c-6.7-0.3-13.4-0.3-20.1,0c-1,0-2.1,0.1-3.1,0c-0.7-0.1-1.5-0.4-1.5-1.3
		c0-0.9,0.7-1.2,1.4-1.3c0.5-0.1,1-0.1,1.5-0.1c2.2-0.2,3.6-1.4,4-3.6c0.6-3.5,1.2-7,1.2-10.6c0.1-12.8,0.3-25.6,0.2-38.3
		c-0.1-8.2-0.2-16.3-0.2-24.5c0-1.7-0.5-3.4-1-5c-0.5-1.7-1.8-2.7-3.6-2.9c-0.9-0.1-1.8-0.1-2.7-0.2c-0.6,0-1.3-0.1-1.9-0.2
		c-0.8-0.2-1.7-0.5-1.5-1.6c0.2-0.9,1.1-0.8,1.8-0.8C123.9,567.4,126.7,567.4,129.6,567.5C129.6,567.4,129.6,567.5,129.6,567.5z
		 M155.6,615.2c1.1,0,2.3,0.1,3.4,0c4.5-0.3,8.3-1.9,10.9-5.7c2.1-3.1,3.2-6.5,3.8-10.1c0.6-4.3,0.2-8.5-1-12.7
		c-1.6-5.4-4.7-9.5-9.7-12.1c-5.6-2.9-11.6-3-17.7-2.2c-3.5,0.5-3.8,1-3.8,4.3c0,10.9,0,21.8,0,32.7c0,0.5,0,1,0,1.5
		c0.2,1.8,1,2.9,2.8,3.2C148,614.5,151.7,615.6,155.6,615.2z"/>
	<path class="st0" d="M57.9,283.9c-2.7,0.2-6.6-0.7-10.3-1.9c-4.5-1.3-8.8-3.1-12.9-5.4c-5.6-3.2-10.8-6.8-15.4-11.2
		c-3.7-3.5-2.9-8.5,0.5-11.4c4.7-3.9,9.5-7.5,14.8-10.5c8.7-4.8,18-7.7,28-7.5c5.2,0.1,10.3,1.2,15.2,2.9c7.9,2.7,15.1,7,21.6,12.2
		c1.4,1.1,2.7,2.3,4,3.5c3.5,3.4,3.3,7.9-0.3,11c-6,5.3-12.4,9.8-19.7,13.2C75.8,282.4,67.8,284.3,57.9,283.9z M61.3,249.8
		c-2.6,0.1-5.6,0.2-8.5,1c-2,0.6-4,1.2-6,2c-3.9,1.5-7.4,3.6-10.8,5.9c-1.5,1-1.4,1.7,0.1,2.7c4.5,3.1,9.3,5.5,14.5,7.2
		c6.4,2.1,12.9,2.3,19.3,0.7c5.9-1.5,11.3-4.2,16.4-7.7c1.8-1.3,1.8-2,0-3.2c-2-1.3-4.1-2.6-6.3-3.7
		C74.2,251.9,68.2,249.8,61.3,249.8z"/>
	<path class="st0" d="M498.3,284.1c-16.1-1.1-29.1-8.3-40.6-18.9c-2.5-2.3-3.1-6.7-0.5-9.6c2.4-2.8,5.4-4.8,8.4-7
		c6.8-4.9,14.2-8.8,22.3-10.8c6.4-1.6,12.8-2.1,19.4-1c13.6,2.3,24.8,8.9,34.8,17.9c3.4,3.1,3.5,7.1,0.2,10.4
		c-4.8,5-10.5,8.8-16.6,12c-7.9,4.2-16.2,6.8-25.2,6.9C499.8,284.1,499,284.1,498.3,284.1z M499.7,249.8c-1.8,0.1-4.2,0-6.5,0.6
		c-2.6,0.7-5.3,1.4-7.9,2.5c-3.7,1.5-7.1,3.5-10.4,5.7c-1.6,1.1-1.5,1.8,0.2,3c4.4,3,9.2,5.4,14.3,7.1c6.4,2.1,12.9,2.3,19.4,0.6
		c6-1.5,11.5-4.3,16.6-7.9c1.5-1,1.5-1.7,0.1-2.7c-1.5-1-3-2-4.5-2.8C514.5,252.3,507.8,249.8,499.7,249.8z"/>
	<path class="st0" d="M304.5,477.4c0,9.3-2.2,17.1-5.9,24.6c-3.4,6.8-7.5,13-12.9,18.4c-3.1,3.1-7,3.1-10.1,0.1
		c-5.3-5.3-9.4-11.5-12.8-18.1c-2.1-4-3.6-8.3-4.7-12.7c-1.4-5.4-1.5-10.9-1.1-16.4c0.7-9.2,4.3-17.5,9.1-25.3
		c2.4-4,5.4-7.7,8.4-11.2c0.5-0.6,1.1-1.2,1.7-1.7c3.3-2.4,6.6-2.2,9.6,0.8c3,3,5.5,6.3,7.9,9.8c4.5,6.7,7.8,13.9,9.7,21.8
		C304.2,471,304.8,474.6,304.5,477.4z M291.1,477.3c-0.1-4.5-1.4-9.9-3.8-15c-1.5-3.2-3.2-6.4-5.1-9.3c-1.1-1.6-1.8-1.7-2.7-0.3
		c-3.5,5.1-6.3,10.5-7.9,16.5c-1.4,5.3-1.8,10.6-0.4,16c0.5,2,1.1,3.9,1.7,5.8c1.5,4.5,3.9,8.6,6.7,12.6c0.8,1.1,1.4,1.1,2.3,0.2
		c0.3-0.3,0.5-0.6,0.7-1c2-3.2,3.9-6.3,5.3-9.8C289.6,488.3,291.1,483.5,291.1,477.3z"/>
	<path class="st0" d="M426.8,624.6c-4.2,0-8.4,0-12.6,0c-2.6,0-3.5,0.7-4.5,3.2c-1.7,4.5-3.5,8.9-5.2,13.3c-1,2.8-2,5.6-2.9,8.5
		c-0.2,0.7-0.2,1.4-0.2,2.2c0,1.7,1.1,2.9,2.7,3.2c0.7,0.1,1.5,0.1,2.2,0.3c0.6,0.1,1.1,0.4,1.1,1.1c0,0.7-0.4,1-1,1.2
		c-0.9,0.3-1.8,0.2-2.6,0.1c-6.2-0.4-12.4-0.4-18.7,0c-1.4,0.1-2.7,0.1-4.1,0c-0.7,0-1.6-0.2-1.6-1.1c0-0.9,0.8-1.2,1.5-1.3
		c0.8-0.1,1.6-0.2,2.4-0.2c3.6-0.3,6.4-2,8.4-5c2.3-3.4,3.5-7.3,5.1-11c1.7-4,3.2-8.1,4.9-12.1c1.6-4,3.3-7.9,4.9-11.8
		c2.7-6.5,5.3-13,8-19.5c1.6-4,3.2-8.1,4.9-12.1c2.3-5.4,4.2-11,6.8-16.3c0.4-0.9,0.8-1.9,2-1.8c1.2,0.1,1.9,1,2.4,2.1
		c3.4,7.7,6.8,15.5,10.1,23.3c3,7.2,6.2,14.4,9.3,21.5c2.5,5.9,4.9,11.9,7.6,17.8c2.7,5.9,4.8,12.2,8.3,17.8
		c1.6,2.6,3.5,4.8,6.3,6.2c1.4,0.7,2.9,0.8,4.5,1.1c0.6,0.1,1.1,0.1,1.7,0.2c0.8,0.2,1.4,0.5,1.3,1.4c-0.1,0.8-0.8,1-1.5,1
		c-3.2,0-6.3,0.2-9.5,0c-4-0.3-7.9-0.2-11.9-0.2c-1,0-2,0-2.9-0.3c-1.1-0.4-1.4-1.1-0.7-1.8c1.7-1.6,0.9-3,0.2-4.6
		c-3.4-7.9-6.7-15.9-10.1-23.8c-0.7-1.7-1.9-2.4-3.8-2.4C435.4,624.7,431.1,624.6,426.8,624.6C426.8,624.6,426.8,624.6,426.8,624.6z
		 M426.6,619.4L426.6,619.4c3.6,0,7.3,0,10.9,0c1.7,0,2.2-0.6,1.8-2.3c-0.1-0.5-0.3-0.9-0.5-1.4c-1.2-3-2.5-6-3.6-9
		c-2.1-5.4-4.2-10.8-6.2-16.3c-0.5-1.3-1-2.6-1.5-3.8c-0.2-0.5-0.7-0.9-1.3-0.9c-0.6,0-0.8,0.4-1,0.9c-1.4,3.8-2.8,7.6-4.2,11.3
		c-1.2,3.3-2.4,6.7-3.7,10c-1.1,2.9-2.2,5.7-3.2,8.6c-0.7,2.1-0.2,2.8,2.1,2.8C419.7,619.4,423.1,619.4,426.6,619.4z"/>
	<path class="st0" d="M511.1,659.4c-5.1,0.2-10-0.2-14.9-1.7c-1.7-0.5-3.4-1.1-5-1.9c-1.5-0.8-2.3-2.2-2.3-4
		c-0.1-4.4,0.4-8.7,0.7-13.1c0.1-1.3,0.2-2.6,0.3-3.9c0.1-0.6,0.2-1.2,0.9-1.2c0.7-0.1,1,0.4,1.2,1c0.4,0.8,0.5,1.7,0.5,2.6
		c0.3,7.2,4.1,12,10.5,14.7c6.8,2.8,13.9,3.1,20.8,0.3c9-3.7,13.5-13.2,10.4-23c-1.6-5.1-4.9-9-8.8-12.5c-6.1-5.5-12.8-10.1-19-15.5
		c-4.2-3.6-7.8-7.7-10.6-12.5c-2.9-5.1-3.7-10.6-3.2-16.4c0.8-8.9,5.5-15.1,13.4-19.1c4.2-2.1,8.7-2.9,13.3-3.4
		c6.5-0.7,12.9,0.3,19.2,1.5c0.9,0.2,1.8,0.2,2.6,0.4c1.9,0.3,2.5,0.8,2.4,2.7c-0.2,2.9-0.1,5.8-0.3,8.7c-0.1,1.6-0.3,3.2-0.3,4.8
		c0,0.4,0,0.8-0.1,1.2c-0.1,0.6-0.3,1.1-1,1.2c-0.7,0.1-1.1-0.4-1.2-1c-0.4-1.4-0.9-2.8-1.1-4.2c-0.4-2.7-1.9-4.6-4-6.2
		c-6.1-4.5-18.6-6-26-1.2c-5.3,3.4-7.4,8.3-7.1,14.5c0.2,4.9,2.8,8.7,6.1,12.1c3,3.2,6.5,5.8,10,8.5c6.4,4.8,12.9,9.5,18.4,15.4
		c6.6,7,10.2,15.2,8.9,24.9c-1.4,11-7.3,19-17.6,23.4C522.8,658.8,517.1,659.7,511.1,659.4z"/>
	<path class="st0" d="M345.1,659.1c-6.1,0.5-12.4-0.4-18.6-1.5c-10.2-1.9-19.4-6.3-27-13.5c-4.6-4.4-7.9-9.7-10.1-15.7
		c-2.9-7.8-3.4-15.8-2.3-23.9c0.6-4.6,2.2-9,4.3-13.1c3.7-7.4,9-13.4,16.1-17.8c5.2-3.2,10.9-5.2,16.9-6.4
		c10.1-2.1,20.3-1.6,30.4-0.8c3.1,0.2,6.2,0.8,9.3,1.4c2.5,0.5,5.1,0.9,7.7,1.1c2.1,0.1,2.8,0.9,2.7,2.9c-0.2,5.8-0.5,11.6-0.7,17.4
		c0,0.2,0,0.5-0.1,0.7c-0.2,0.8-0.5,1.6-1.6,1.5c-0.9-0.1-1.2-0.8-1.2-1.6c0-1.3-0.2-2.6-0.4-3.8c-0.8-4.7-3.5-7.9-7.5-10.1
		c-4.7-2.6-9.9-3.8-15.2-4.5c-6.5-0.8-12.9-0.6-19.3,0.4c-11.9,1.8-20.8,7.8-25.6,19c-2,4.5-2.9,9.4-3.1,14.4
		c-0.3,5.6-0.1,11.2,1.6,16.6c1.9,5.9,4.9,11.2,9,15.9c5.4,6,12,10.1,19.5,12.7c4.7,1.7,9.7,2.5,14.8,2.5c4.3,0,8.6,0.1,12.8-0.7
		c3.1-0.6,5.9-1.7,8.4-3.6c3.1-2.3,4.7-5.5,5.8-9c0.3-0.8,0.4-1.7,1-2.5c0.4-0.5,0.8-0.8,1.4-0.6c0.5,0.2,0.8,0.6,0.9,1.1
		c0.1,0.4,0.1,0.8,0.1,1.2c-0.8,4.9-1.5,9.9-3.2,14.7c-0.5,1.5-1.5,2.4-2.9,3c-4.1,1.6-8.4,1.9-12.6,2.4
		C352.6,659.2,349,659.4,345.1,659.1z"/>
	<path class="st0" d="M243.9,567.7c6.7,0,13,0,19.2,0c3.1,0,6.1-0.1,9.2-0.9c1.5-0.4,2.1,0.2,2,1.7c-0.2,1.8-0.6,3.5-0.8,5.3
		c-0.3,2.1-0.4,4.2-0.7,6.3c-0.1,0.8-0.2,1.8-1.2,1.8c-1.1,0-1.4-0.9-1.6-1.8c-0.1-0.6-0.1-1.3-0.2-1.9c-0.3-2-1.5-3.3-3.5-3.8
		c-3.2-0.9-6.5-1.3-9.8-1.3c-4,0-7.9-0.3-11.9-0.2c-2.9,0-3.5,0.6-3.6,3.6c0,5.8,0,11.7,0,17.5c0,3.2,0,6.5,0,9.7
		c0,3.1,0.6,3.6,3.7,3.7c6.2,0.1,12.4-0.3,18.7-0.3c2.4,0,4.7-0.5,6.6-2.1c0.6-0.5,1.2-0.9,2-0.4c0.7,0.5,0.6,1.3,0.4,2
		c-1,3.6-1,7.4-1.2,11.1c0,0.9-0.2,1.8-0.7,2.5c-0.3,0.4-0.6,0.8-1.2,0.7c-0.6-0.1-0.7-0.6-0.7-1.1c-0.1-1.2-0.4-2.4-0.9-3.5
		c-1.2-2.5-3.6-2.8-5.9-3.3c-1.7-0.3-3.4-0.3-5.1-0.3c-4,0.1-7.9-0.3-11.9-0.3c-0.6,0-1.3,0-1.9,0.1c-1.1,0.2-1.8,0.8-1.8,1.9
		c0,0.7,0,1.5,0,2.2c0,7.8,0,15.5,0,23.3c0,2,0.3,4,0.5,6c0.4,3.7,3.1,5.8,6.2,6.2c6.4,0.7,12.8,0.8,19.1-0.1
		c3.9-0.5,6.9-2.7,7.8-6.9c0.2-0.8,0.5-1.5,0.8-2.3c0.2-0.5,0.6-0.8,1.1-0.7c0.5,0.1,0.8,0.5,0.9,1c0.1,0.4,0.2,0.8,0.1,1.2
		c-0.5,3.5-0.6,7.1-1.7,10.5c-0.7,2.3-1.5,3-4,3.1c-7.2,0-14.4,0.2-21.6-0.1c-4.8-0.2-9.7-0.2-14.5-0.3c-3.7-0.1-7.4-0.2-11.1,0.3
		c-0.9,0.1-1.8,0.2-2.7-0.1c-0.7-0.2-1.2-0.5-1.2-1.3c0-0.6,0.5-1,1.1-1.1c0.6-0.1,1.3-0.1,1.9-0.2c2.3-0.3,3.4-1.4,3.9-3.6
		c1.1-4.7,1.3-9.5,1.3-14.2c0.1-18.4,0-36.7,0-55.1c0-2.2-0.1-4.4-0.3-6.5c-0.3-3.5-2.1-5.2-5.7-5.4c-1-0.1-2.1,0.1-3.1-0.3
		c-0.7-0.3-1.5-0.6-1.4-1.4c0.1-1,1-0.9,1.7-0.9c4.2,0,8.4-0.1,12.6,0.1C236.7,567.7,240.6,567.6,243.9,567.7z"/>
</g>
</svg>
