<?xml version="1.0" encoding="utf-8"?>
<!-- Generator: Adobe Illustrator 21.1.0, SVG Export Plug-In . SVG Version: 6.00 Build 0)  -->
<svg version="1.1" id="Capa_1" xmlns="http://www.w3.org/2000/svg" xmlns:xlink="http://www.w3.org/1999/xlink" x="0px" y="0px"
	 viewBox="0 0 1272.4 720.3" style="enable-background:new 0 0 1272.4 720.3;" xml:space="preserve">
<style type="text/css">
	.st0{fill:#4D4D4D;}
</style>
<g>
	<g>
		<path class="st0" d="M78.5,425.2v-7.7c7.3,0,11-2.2,11-6.8l0.4-9.6v-72.4l-0.4-9.7c0-4.5-3.6-6.7-11-6.7v-7.8h51.2
			c21.7,0,32.5,9.1,32.5,27.3c0,13.9-8.7,24.3-26.1,31.4c20.7,4.7,31,15.2,31,31.7c0,20.2-12.2,30.3-36.5,30.3L78.5,425.2
			L78.5,425.2z M113.9,367.3v33.8c0,7.2,0.5,11.7,1.5,13.6c1.1,1.9,3.9,2.8,8.6,2.8c10.9,0,16.4-7.8,16.4-23.5
			c0-17.8-8-26.7-24.1-26.7L113.9,367.3L113.9,367.3z M113.9,359.6h2.4c14.5,0,21.7-8.1,21.7-24.4c0-15.3-7.5-22.9-22.6-22.9h-1.5
			C113.9,312.4,113.9,359.6,113.9,359.6z"/>
		<path class="st0" d="M169.1,425.2v-7.7l2.8-0.3c2.4-0.4,4.5-3.1,6.3-8.2l2.7-7.5l31.3-99.9h7.7l32.7,99.9l3.4,9
			c1.7,4.6,4.5,6.9,8.4,6.9v7.7h-42.5v-7.7c5.8,0,8.7-1.1,8.7-3.5c0-1.6-1.1-5.7-3.4-12.5l-3.3-10h-31.6l-3.1,10.1
			c-2.2,6.7-3.3,10.8-3.3,12.4c0,2.4,2.4,3.5,7.1,3.5v7.7L169.1,425.2L169.1,425.2z M194.5,383.7H221l-13.6-41.2L194.5,383.7z"/>
		<path class="st0" d="M262.9,425.2v-7.7c7.3,0,11-2.2,11-6.8l0.4-9.6v-72.4l-0.4-9.7c0-4.5-3.7-6.7-11-6.7v-7.8h35.5v50.8h24.1
			v-26.5l-0.4-9.7c0-4.5-3.6-6.7-11-6.7v-7.8h46.8v7.8c-7.3,0-11,2.2-11,6.7l-0.3,9.7v72.4l0.3,9.6c0,4.5,3.7,6.8,11,6.8v7.7h-35.5
			V365h-24v36.2l0.4,9.6c0,4.5,3.6,6.8,10.9,6.8v7.7h-46.8V425.2z"/>
		<path class="st0" d="M361.5,425.2v-7.7c7.3,0,11-2.2,11-6.8l0.3-9.6v-72.4l-0.3-9.7c0-4.5-3.7-6.7-11-6.7v-7.8h46.8v7.8
			c-7.3,0-11,2.2-11,6.7l-0.4,9.7v72.4l0.4,9.6c0,4.5,3.6,6.8,11,6.8v7.7H361.5z"/>
		<path class="st0" d="M408.7,425.2v-7.7l2.8-0.3c2.4-0.4,4.5-3.1,6.3-8.2l2.7-7.5l31.2-99.9h7.7l32.7,99.9l3.4,9
			c1.7,4.6,4.5,6.9,8.3,6.9v7.7h-42.5v-7.7c5.8,0,8.7-1.1,8.7-3.5c0-1.6-1.1-5.7-3.4-12.5l-3.4-10h-31.6l-3.2,10.1
			c-2.2,6.7-3.3,10.8-3.3,12.4c0,2.4,2.4,3.5,7.1,3.5v7.7L408.7,425.2L408.7,425.2z M434.1,383.7h26.5L447,342.5L434.1,383.7z"/>
		<path class="st0" d="M573.6,373.8v27.4c0,6.9,0.5,11.3,1.4,13.4c1,2,4.9,3,11.7,3v7.7h-48.6v-7.7c7.3,0,11-2.2,11-6.8l0.4-9.6
			v-72.4l-0.4-9.7c0-4-3.7-6.3-11-6.7v-7.8h35.5l6.5-0.1l7-0.3l5.7-0.1c22.1,0,33.1,10.4,33.1,31.2c0,25.7-15.3,38.5-45.8,38.5
			H573.6z M573.6,366.1h3.8c16.2,0,24.4-9.7,24.4-29.2c0-16.3-7-24.5-21.2-24.5h-7V366.1z"/>
		<path class="st0" d="M628.1,425.2v-7.7c7.3,0,11-2.2,11-6.8l0.3-9.6v-72.4l-0.3-9.7c0-4.5-3.7-6.7-11-6.7v-7.8h35.5l4.7-0.1
			l6.4-0.3l6.7-0.1c21.9,0,32.9,9.8,32.9,29.3c0,15.8-6.7,26.7-20.1,32.7l16.4,36.7c3.9,8.7,8.1,13.8,12.6,15v7.4h-27.5l-24.4-55
			h-7.7V401l0.3,9.6c0,2.5,0.4,4.2,1.2,5c0.8,0.7,3.5,1.3,8.1,1.8v7.7L628.1,425.2L628.1,425.2z M663.6,312.5v50.2h3.8
			c15.1,0,22.7-9.1,22.7-27.4c0-15.2-6.7-22.8-20.1-22.8L663.6,312.5L663.6,312.5z"/>
		<path class="st0" d="M723.7,425.2v-7.7c7.3,0,10.9-2.2,10.9-6.8l0.4-9.6v-72.4l-0.4-9.7c0-4.5-3.6-6.7-10.9-6.7v-7.8h46.8v7.8
			c-7.3,0-10.9,2.2-10.9,6.7l-0.4,9.7v72.4l0.4,9.6c0,4.5,3.7,6.8,10.9,6.8v7.7H723.7z"/>
		<path class="st0" d="M857.7,426.2l-60.4-82.4v57.4l0.4,9.6c0,4.5,3.7,6.8,11,6.8v7.7h-34.8v-7.7c5.5,0,8.8-1,9.8-2.9
			c1-2,1.5-6.5,1.5-13.5v-72.4c0-7-0.5-11.5-1.5-13.4c-1-2-4.3-2.9-9.8-2.9v-7.8h23.4l60.4,82.4v-58.3l-0.4-9.7
			c0-4.5-3.6-6.7-11-6.7v-7.8h34.8v7.8c-7.3,0-11,2.2-11,6.7l-0.4,9.7v97.5h-12V426.2z"/>
		<path class="st0" d="M961.8,330.6l-0.2-5.3c0-10-6.6-15-19.8-15c-20.2,0-30.2,18.3-30.2,54.7c0,35.6,11.2,53.3,33.6,53.3
			c9.1,0,17.9-2.4,26.2-7.3v10.3c-9.5,4.5-20.2,6.8-32.1,6.8c-17.1,0-30.4-5.6-40-16.8c-9.5-11.2-14.3-26.7-14.3-46.6
			c0-20,4.6-35.6,14-46.5c9.4-11.1,22.6-16.6,39.5-16.6c10.2,0,21.2,1.8,32.9,5.3v23.7H961.8z"/>
		<path class="st0" d="M975.3,425.2v-7.7c7.3,0,11-2.2,11-6.8l0.3-9.6v-72.4l-0.3-9.7c0-4.5-3.7-6.7-11-6.7v-7.8h46.8v7.8
			c-7.3,0-11,2.2-11,6.7l-0.4,9.7v72.4l0.4,9.6c0,4.5,3.6,6.8,11,6.8v7.7H975.3z"/>
		<path class="st0" d="M1061.1,373.8v27.4c0,6.9,0.5,11.3,1.4,13.4c1,2,4.9,3,11.7,3v7.7h-48.6v-7.7c7.3,0,10.9-2.2,10.9-6.8
			l0.3-9.6v-72.4l-0.3-9.7c0-4-3.7-6.3-10.9-6.7v-7.8h35.5l6.5-0.1l7-0.3l5.7-0.1c22,0,33.1,10.4,33.1,31.2
			c0,25.7-15.3,38.5-45.8,38.5H1061.1z M1061.1,366.1h3.8c16.3,0,24.4-9.7,24.4-29.2c0-16.3-7.1-24.5-21.2-24.5h-7L1061.1,366.1
			L1061.1,366.1z"/>
		<path class="st0" d="M1115.6,425.2v-7.7c7.3,0,11-2.2,11-6.8l0.3-9.6v-72.4l-0.3-9.7c0-4.5-3.6-6.7-11-6.7v-7.8h76v21.2h-7.7v-2
			l-0.1-5.4c0-4.1-3.5-6.1-10.4-6.1h-22.2v45.3h13.1l6.1-0.2c2.9,0,4.4-1.7,4.4-5.3v-2.9h7.7v24.2h-7.7v-3c0-3.5-1.5-5.2-4.4-5.3
			l-6.1-0.2h-13.1V401c0,6.6,0.4,11,1.1,13.2c0.8,2.2,4.9,3.2,12.6,3.2h5.9l9.1-0.3c2.8,0,4.3-0.7,4.8-2.1s0.7-4.7,0.7-9.7v-2.4h8.7
			v22.2L1115.6,425.2L1115.6,425.2z"/>
	</g>
	<path class="st0" d="M0.3,503.5c132.3,7.3,352.7,12.2,604.3,12.6c-1.4-3.7-2.3-7.7-2.3-11.8c0-4.7,0.9-9.2,2.7-13.3
		C353.2,491.3,132.6,496.2,0.3,503.5z M1272.1,503.5c-132.3-7.3-352.9-12.2-604.7-12.5c1.7,4,2.7,8.5,2.7,13.1c0,4.2-0.8,8.2-2.2,12
		C919.4,515.6,1139.8,510.8,1272.1,503.5z"/>
	<path class="st0" d="M761.8,130c-1.2-2.2-2.7-4.7-4.4-7.1c-4.4-5.8-8.9-8.8-18.1-9.2c-11.6-0.2-17.9,5.4-24.3,9.1
		c-5.2,3-9.8,2.9-12.7,1.4c-0.8-0.5-1.8-1.2-2.1-2.2c-0.3-4.5-1.1-8.8-2.2-12.9c-0.2-2,2-2.1,2.3-2.2c4.2-0.6,9.3-2,11.9-3.2
		c4.6-2.1,10.5-6.8,14.8-10.2c4.3-3.4,9.2-6.5,14.2-7.9c2.8-0.7,7.4-0.7,11.2-0.5l0,0c0,0,1.8-0.1,2.2-1.2c0.4-1-0.8-2.1-1.1-2.4
		c-1.9-1.6-4.3-3.3-6.8-4.9c-6.2-3.7-11.6-4.7-20.1-1.6c-10.9,4.2-14.5,11.9-19,17.7c-3.6,4.8-7.9,6.5-11.2,6.1
		c-1-0.1-2.3-0.4-3-1.4c-1.8-3.6-4-7.1-6.5-10.3c-0.1-0.2-0.2-0.4-0.3-0.5c-1.1-1.9,1-2.8,1.3-3c3.7-2.1,7.8-5.4,9.8-7.4
		c3.4-3.7,7.1-10.3,9.7-15.1s6-9.5,10.1-12.7c2.2-1.8,6.6-3.5,10.1-4.8l0,0c0,0,1.7-0.8,1.6-2c0-1-1.6-1.6-2-1.8
		c-2.3-0.7-5.2-1.5-8.1-1.9c-7.2-1-12.5,0.1-19.2,6.3c-8.4,8.1-8.8,16.5-10.8,23.6c-1.5,5.8-4.8,9-7.9,10c-1.1,0.3-2.6,0.5-3.5-0.4
		v0.1c-2.9-2.5-6.1-4.8-9.4-6.7c-0.3-0.3-0.6-0.4-0.7-0.5c-1.7-1.3-0.1-2.9,0-3.2c2.6-3.3,5.2-7.9,6.2-10.6
		c1.8-4.7,2.6-12.2,3.2-17.7c0.6-5.4,1.9-11.1,4.5-15.6c1.4-2.5,4.8-5.8,7.5-8.3l0,0c0,0,1.3-1.4,0.8-2.4c-0.5-1-2.1-0.9-2.5-0.9
		c-2.4,0.2-5.3,0.6-8.2,1.3c-7,1.8-11.5,4.8-15.4,13.2c-4.7,10.7-1.9,18.7-0.9,25.9c0.8,5.9-1,10.2-3.5,12.2c-0.9,0.8-2.2,1.5-3.4,1
		v0.1c-3.6-1.1-7.2-2-11-2.5c-0.5-0.1-0.9-0.2-1.1-0.3c-2.1-0.6-1.3-2.7-1.2-3c1.1-4.1,1.7-9.3,1.6-12.2c-0.2-5-2.3-12.3-3.8-17.6
		c-1.5-5.2-2.5-11-1.9-16.2c0.4-2.8,2.2-7.2,3.8-10.6l0,0c0,0,0.6-1.7-0.3-2.5c-0.8-0.7-2.2-0.1-2.7,0.1c-2.1,1.1-4.7,2.6-7.1,4.4
		c-5.8,4.3-8.8,8.9-9.2,18c-0.2,11.6,5.4,17.9,9.1,24.3c3,5.2,2.9,9.8,1.4,12.7c-0.5,0.9-1.3,2.1-2.4,2.3c-3.9,0.3-7.8,0.9-11.5,1.9
		c-0.5,0.1-0.9,0.1-1.1,0.2c-2.1,0.3-2.2-2-2.2-2.3c-0.6-4.2-2-9.3-3.2-11.9c-2.1-4.6-6.8-10.5-10.2-14.8c-3.4-4.3-6.5-9.2-7.9-14.3
		c-0.8-2.8-0.7-7.5-0.5-11.2l0,0c0,0-0.1-1.8-1.2-2.2c-1-0.4-2.1,0.8-2.4,1.1c-1.5,1.9-3.3,4.2-4.9,6.8c-3.7,6.2-4.7,11.6-1.6,20.1
		c4.3,10.9,11.9,14.5,17.7,19c4.8,3.6,6.5,7.9,6.2,11.2c-0.1,1.1-0.4,2.4-1.3,3c-3.5,1.8-6.9,3.9-10,6.2c-0.4,0.2-0.8,0.5-0.9,0.6
		c-1.9,1.1-2.8-1-3-1.3c-2.1-3.7-5.4-7.8-7.4-9.8c-3.7-3.4-10.3-7.1-15.1-9.7c-4.8-2.7-9.5-6-12.7-10.1c-1.7-2.3-3.5-6.6-4.8-10.1
		l0,0c0,0-0.8-1.7-2-1.6c-1.1,0-1.7,1.5-1.8,1.9c-0.7,2.3-1.5,5.2-1.9,8.1c-1,7.2,0.1,12.5,6.3,19.2c8.1,8.4,16.5,8.8,23.6,10.7
		c5.8,1.5,9,4.8,10,7.9c0.3,1,0.5,2.2,0,3.2c-2.7,3.1-5.1,6.4-7.1,10c-0.2,0.2-0.3,0.4-0.4,0.5c-1.3,1.7-3,0.2-3.2,0
		c-3.4-2.6-8-5.2-10.6-6.2c-4.7-1.8-12.3-2.6-17.7-3.2c-5.4-0.6-11.1-1.9-15.6-4.5c-2.5-1.4-5.8-4.8-8.3-7.6l0,0
		c0,0-1.3-1.2-2.4-0.7c-1,0.5-1,2.1-0.9,2.5c0.2,2.4,0.6,5.4,1.4,8.3c1.8,7,4.8,11.5,13.1,15.4c10.6,4.7,18.6,1.9,25.9,0.9
		c5.9-0.8,10.2,1,12.3,3.5c0.6,0.7,1.3,1.7,1.2,2.7c-1.3,4.1-2.3,8.3-2.9,12.6c0,0.1-0.1,0.2-0.1,0.2c-0.5,2.1-2.7,1.3-3,1.2
		c-4-1.1-9.3-1.7-12.2-1.6c-5,0.1-12.3,2.2-17.6,3.8c-5.3,1.5-11,2.5-16.2,1.8c-2.9-0.4-7.2-2.2-10.6-3.8l0,0c0,0-1.7-0.7-2.5,0.2
		c-0.7,0.8-0.1,2.2,0.1,2.6c1.1,2.2,2.6,4.7,4.4,7.1c4.3,5.8,8.9,8.8,18,9.2c11.6,0.2,17.9-5.4,24.3-9.1c5.2-3,9.8-2.9,12.7-1.4
		c0.8,0.4,1.7,1.1,2.1,1.9c0.3,4.6,1.1,9.1,2.2,13.3c0.1,1.9-2,2-2.3,2c-4.2,0.5-9.3,2-11.9,3.1c-4.6,2.1-10.5,6.8-14.8,10.2
		s-9.2,6.5-14.3,7.9c-2.8,0.8-7.5,0.7-11.2,0.5l0,0c0,0-1.8,0.1-2.3,1.2c-0.3,1,0.8,2.1,1.1,2.4c1.9,1.6,4.3,3.3,6.8,4.9
		c6.2,3.7,11.6,4.7,20.2,1.6c10.8-4.2,14.5-11.9,18.9-17.7c3.6-4.8,7.9-6.5,11.2-6.2c0.9,0.1,1.9,0.3,2.6,0.8
		c2,4.2,4.5,8.1,7.4,11.7c0.6,1.6-1.2,2.4-1.4,2.6c-3.7,2.1-7.8,5.4-9.8,7.5c-3.5,3.7-7.1,10.3-9.7,15.1c-2.7,4.8-6,9.5-10.1,12.7
		c-2.3,1.7-6.6,3.5-10.1,4.8l0,0c0,0-1.7,0.8-1.6,2c0,1,1.5,1.6,2,1.8c2.3,0.7,5.1,1.5,8.1,1.9c7.2,1,12.5-0.1,19.2-6.3
		c8.4-8.1,8.8-16.5,10.7-23.6c1.6-5.8,4.9-9,8-10c0.8-0.3,1.8-0.5,2.6-0.2c3.5,3.1,7.3,5.8,11.5,8.1c1,1.2-0.3,2.6-0.4,2.8
		c-2.6,3.3-5.2,8-6.2,10.6c-1.8,4.8-2.6,12.2-3.2,17.7s-1.9,11.1-4.5,15.7c-1.4,2.5-4.8,5.8-7.5,8.3l0,0c0,0-1.3,1.3-0.7,2.4
		c0.5,0.9,2.1,0.9,2.5,0.9c2.4-0.2,5.4-0.7,8.2-1.4c7-1.8,11.5-4.8,15.4-13.1c4.6-10.7,1.8-18.7,0.8-26c-0.8-5.9,1-10.2,3.5-12.3
		c0.6-0.5,1.4-1,2.3-1.2c4.4,1.5,9,2.6,13.8,3.1c1.4,0.7,0.7,2.5,0.7,2.8c-1.1,4.1-1.7,9.3-1.6,12.2c0.2,5.1,2.3,12.3,3.7,17.6
		c1.5,5.3,2.5,11,1.9,16.2c-0.4,2.9-2.2,7.2-3.8,10.5l0,0c0,0-0.6,1.7,0.2,2.5c0.8,0.7,2.3,0.1,2.6-0.1c2.2-1.1,4.7-2.6,7.1-4.4
		c5.8-4.3,8.8-8.9,9.2-18c0.2-11.6-5.4-17.9-9.1-24.3c-3-5.2-2.9-9.8-1.4-12.7c0.4-0.7,1-1.5,1.8-2c4.8-0.3,9.4-1.1,13.8-2.4
		c1.5,0.2,1.6,2,1.6,2.3c0.6,4.2,2,9.2,3.2,11.8c2.1,4.6,6.8,10.5,10.2,14.8c3.4,4.3,6.5,9.2,7.9,14.2c0.8,2.8,0.7,7.5,0.5,11.2l0,0
		c0,0,0.1,1.8,1.2,2.2c1,0.4,2.1-0.8,2.4-1.1c1.6-1.9,3.3-4.2,4.8-6.8c3.7-6.2,4.7-11.6,1.6-20.2c-4.2-10.8-11.8-14.5-17.7-18.9
		c-4.8-3.6-6.5-7.9-6.2-11.2c0.1-0.8,0.3-1.8,0.9-2.5c4.2-2.1,8.1-4.6,11.8-7.5c1.5-0.5,2.3,1.2,2.4,1.5c2.1,3.6,5.4,7.8,7.5,9.8
		c3.7,3.5,10.3,7.1,15.1,9.7c4.8,2.7,9.5,6,12.7,10.2c1.8,2.3,3.5,6.6,4.8,10.1l0,0c0,0,0.7,1.6,2,1.6c1.1,0,1.6-1.5,1.8-1.9
		c0.7-2.4,1.5-5.2,1.9-8.1c1-7.2-0.1-12.5-6.3-19.2c-8-8.4-16.5-8.8-23.6-10.7c-5.8-1.5-9-4.9-10-8c-0.3-0.8-0.4-1.9-0.1-2.8
		c3-3.4,5.7-7.3,7.9-11.3c1.2-1.1,2.7,0.2,2.9,0.4c3.4,2.6,8,5.2,10.6,6.1c4.7,1.8,12.2,2.6,17.7,3.2c5.5,0.6,11.1,1.9,15.7,4.5
		c2.5,1.4,5.8,4.8,8.3,7.5l0,0c0,0,1.3,1.2,2.4,0.7c1-0.4,0.9-2,0.9-2.5c-0.2-2.4-0.6-5.3-1.4-8.3c-1.8-7-4.8-11.5-13.1-15.4
		c-10.7-4.7-18.6-1.8-25.9-0.8c-5.9,0.8-10.2-1-12.3-3.5c-0.6-0.7-1.1-1.6-1.1-2.6c1.4-4.2,2.4-8.6,2.9-13.2c0.7-1.7,2.6-1,2.9-0.9
		c4.1,1.1,9.3,1.7,12.2,1.6c5-0.2,12.3-2.3,17.5-3.8c5.3-1.5,11-2.5,16.2-1.8c2.9,0.4,7.2,2.2,10.6,3.8l0,0c0,0,1.7,0.6,2.5-0.3
		C762.7,131.8,762,130.3,761.8,130z M653.2,174.2c-0.6,0-1.1-0.3-1.4-0.8c-0.3-0.7-0.1-1.6,0.6-2c1.6-0.9,3.3-2.1,5.3-3.6
		c13.1-10.4,19.2-23.5,18.3-39c-1.2-21.8-19.6-39.5-41-39.5c-1.2,0-2.5,0.1-3.7,0.2c-13.5,1.2-21.9,8.9-25.6,13.4
		c-6.8,8-9.7,17.1-8.8,26.8c1.7,17.3,15.7,30.3,32.5,30.3c1.1,0,2.3-0.1,3.4-0.2c8-0.8,15.7-5.1,20.4-11.5
		c3.7-4.8,6.8-13.3,4.9-22.8c-2.1-10.1-12.1-18.7-22.2-19l0,0c-8.6,0-15.9,4.2-19.6,10.9c-3.3,5.9-3.2,12.7,0.3,18.1
		c1.7,2.8,6.8,6.8,11.2,7.1c0.4,0.1,0.8,0.1,1.2,0.1c7.3,0,12-5.4,12.4-10.5c0.3-4.3-2.3-7.5-6.9-8.2c-0.6,0.2-0.1,0.5,0.2,0.8
		c2.9,2.4,3.5,5.3,2,7.9c-1.2,2-3.7,3.3-6.6,3.3c-2.5,0-4.9-1-6.5-2.6c-1.8-1.8-2.6-4.4-2.5-7.6c0.2-5.8,5.8-12.1,13.9-12.1
		c1,0,2,0.1,3,0.3c4.3,0.8,8.4,3.8,11,8c2.9,4.7,3.5,10.2,1.9,15.5c-2.5,8.4-9.7,14.2-18.6,15.3c-0.9,0.1-1.9,0.2-2.8,0.2
		c-6.9,0-13.6-3.1-18.5-8.5c-5.2-5.9-7.6-13.7-6.7-21.6c1.4-11.9,11.3-24.8,27.6-26.3c1-0.1,2.1-0.1,3.1-0.1
		c17.5,0,32.2,13.4,34,31.3c1.4,13-4.3,22.8-9.3,28.7c-4.9,5.8-13.7,12.9-27.8,13.7c-0.7,0-1.5,0.1-2.2,0.1
		c-20.1,0-38.2-15.1-42.2-35.2c-0.7-2.8-0.7-4.4-0.8-7.8c0.8-22.4,15.7-47,46.2-48.1h1.9c15.3,0,26.3,6.5,32.9,11.9
		c9,7.6,14.7,17.3,17.9,30.6c0.6,2.6,0.9,5.2,0.9,8.9c-0.8,18.1-10.5,29.3-18.5,35.5c-5.5,4.3-10.7,6.7-14.1,8
		C653.6,174.1,653.4,174.2,653.2,174.2z"/>
	<g>
		<g>
			<path class="st0" d="M280,593.2c3.3-0.6,8.2-0.9,13.7-0.9c6.8,0,11.5,1,14.8,3.6c2.8,2.2,4.3,5.4,4.3,9.6c0,5.8-4.1,9.8-8,11.2
				v0.2c3.2,1.3,4.9,4.2,6.1,8.5c1.4,5.2,2.8,11.1,3.6,12.9h-10.6c-0.7-1.4-1.8-5-3.1-10.6c-1.2-5.8-3.2-7.3-7.5-7.3h-3.1v17.8H280
				L280,593.2L280,593.2z M290.2,612.8h4.1c5.1,0,8.2-2.6,8.2-6.5c0-4.1-2.9-6.3-7.6-6.3c-2.5,0-3.9,0.1-4.7,0.3V612.8z"/>
			<path class="st0" d="M353.9,618.9h-16.8v10.8h18.7v8.5h-29v-45.6h28.1v8.4h-17.8v9.5h16.8L353.9,618.9L353.9,618.9z"/>
			<path class="st0" d="M370.1,627.6c2.7,1.4,7.1,2.8,11.4,2.8c4.7,0,7.2-2,7.2-4.9c0-2.8-2.2-4.5-7.6-6.3
				c-7.6-2.7-12.6-6.9-12.6-13.5c0-7.8,6.5-13.7,17.2-13.7c5.2,0,8.9,1,11.6,2.3l-2.3,8.3c-1.7-0.9-5.1-2.2-9.5-2.2
				c-4.5,0-6.7,2.1-6.7,4.4c0,2.9,2.5,4.2,8.5,6.4c8.1,3,11.8,7.2,11.8,13.6c0,7.6-5.8,14.1-18.3,14.1c-5.2,0-10.4-1.4-12.9-2.8
				L370.1,627.6z"/>
			<path class="st0" d="M423.4,592.6v45.6h-10.3v-45.6H423.4z"/>
			<path class="st0" d="M439.1,593.3c3.8-0.6,8.7-1,13.9-1c8.7,0,14.4,1.6,18.7,4.9c4.7,3.5,7.7,9.1,7.7,17.2
				c0,8.7-3.2,14.7-7.5,18.5c-4.8,4-12.2,5.9-21.1,5.9c-5.4,0-9.2-0.3-11.7-0.7V593.3z M449.4,630.4c0.9,0.2,2.4,0.2,3.6,0.2
				c9.4,0.1,15.6-5.1,15.6-16c0-9.5-5.5-14.5-14.5-14.5c-2.2,0-3.8,0.2-4.7,0.4V630.4z"/>
			<path class="st0" d="M520.2,618.9h-16.8v10.8h18.7v8.5h-29v-45.6h28.1v8.4h-17.8v9.5h16.8V618.9z"/>
			<path class="st0" d="M535.9,638.2v-45.6h12l9.5,16.7c2.7,4.8,5.3,10.5,7.4,15.7h0.1c-0.6-6-0.8-12.2-0.8-19.1v-13.3h9.5v45.6
				h-10.8l-9.7-17.6c-2.7-4.9-5.8-10.8-7.9-16.1h-0.3c0.3,6.1,0.5,12.5,0.5,20v13.7H535.9z"/>
			<path class="st0" d="M622.8,637c-1.8,0.9-6.1,1.9-11.6,1.9c-15.7,0-23.9-9.9-23.9-22.9c0-15.6,11.1-24.2,24.9-24.2
				c5.4,0,9.4,1,11.2,2l-2.2,8.1c-2-0.9-4.9-1.7-8.6-1.7c-8.1,0-14.5,4.9-14.5,15.1c0,9.2,5.4,14.9,14.6,14.9c3.2,0,6.6-0.6,8.6-1.5
				L622.8,637z"/>
			<path class="st0" d="M663.5,618.9h-16.8v10.8h18.8v8.5h-29v-45.6h28.1v8.4h-17.8v9.5h16.8L663.5,618.9L663.5,618.9z"/>
			<path class="st0" d="M679.7,627.6c2.7,1.4,7,2.8,11.4,2.8c4.7,0,7.2-2,7.2-4.9c0-2.8-2.1-4.5-7.6-6.3
				c-7.6-2.7-12.6-6.9-12.6-13.5c0-7.8,6.6-13.7,17.3-13.7c5.2,0,8.9,1,11.6,2.3l-2.3,8.3c-1.8-0.9-5.1-2.2-9.5-2.2
				c-4.5,0-6.6,2.1-6.6,4.4c0,2.9,2.5,4.2,8.5,6.4c8.1,3,11.8,7.2,11.8,13.6c0,7.6-5.8,14.1-18.3,14.1c-5.2,0-10.4-1.4-12.9-2.8
				L679.7,627.6z"/>
			<path class="st0" d="M772.1,638.2c-0.9-1-1.9-2-3-3.2c-3,2.3-7.1,4-12.5,4c-11,0-15.9-6.5-15.9-12.9c0-6,3.5-10.3,8.7-13.1v-0.2
				c-1.9-2.3-3.5-5.6-3.5-8.9c0-5.7,4.6-12,13.8-12c7.1,0,12.3,4.1,12.3,10.7c0,4.6-2.7,8.6-9,11.7l-0.1,0.3c2.7,3,5.4,6.3,7.6,8.6
				c1.8-2.9,3.3-7.1,3.9-11.2h9.2c-1.2,7-3.5,12.9-7.6,17.3c2.6,3,5.2,6,8.1,9L772.1,638.2L772.1,638.2z M764.3,629.2
				c-2.8-2.8-6.5-7.1-10.3-11.2c-1.9,1.4-3.5,3.4-3.5,6.4c0,3.9,2.9,7.2,7.7,7.2C760.7,631.5,762.9,630.5,764.3,629.2z M759.2,598.2
				c-2.7,0-4.1,2.3-4.1,4.7c0,2.3,1,4.3,3.2,6.5c3.3-2.2,4.9-4.1,4.9-6.7c0-2.2-1.3-4.6-3.9-4.6L759.2,598.2L759.2,598.2z"/>
			<path class="st0" d="M854.3,636.1c-3.2,1.1-9.2,2.6-15.2,2.6c-8.3,0-14.3-2.1-18.5-6.1c-4.1-4-6.4-10-6.4-16.7
				c0.1-15.1,11.1-23.8,26-23.8c5.9,0,10.4,1.1,12.7,2.2l-2.2,8.3c-2.5-1.1-5.5-2-10.6-2c-8.6,0-15.1,4.8-15.1,14.8
				c0,9.5,6,14.9,14.4,14.9c2.3,0,4.2-0.3,5-0.6v-9.6h-7V612h17v24.1H854.3z"/>
			<path class="st0" d="M910.9,614.9c0,15-9,24-22.4,24c-13.5,0-21.4-10.2-21.4-23.3c0-13.7,8.8-23.9,22.2-23.9
				C903.2,591.8,910.9,602.3,910.9,614.9z M877.9,615.5c0,9,4.2,15.3,11.1,15.3c7,0,11-6.6,11-15.5c0-8.3-3.8-15.3-11-15.3
				C882,600,877.9,606.6,877.9,615.5z"/>
			<path class="st0" d="M924.5,592.6h10.3v37H953v8.6h-28.4L924.5,592.6L924.5,592.6z"/>
			<path class="st0" d="M965.8,592.6h27.8v8.4h-17.5v10.4h16.4v8.4h-16.4v18.4h-10.3V592.6z"/>
			<path class="st0" d="M241.5,674.5c3-0.6,7.3-1,11.3-1c6.3,0,10.4,1.2,13.2,3.7c2.2,2,3.6,5.1,3.6,8.7c0,5.9-3.8,9.9-8.5,11.6v0.2
				c3.5,1.2,5.6,4.5,6.7,9.2c1.5,6.4,2.5,10.8,3.5,12.5h-6.1c-0.7-1.4-1.7-5.2-3-10.9c-1.4-6.3-3.9-8.7-9.2-8.9h-5.6v19.7h-5.9
				V674.5z M247.4,695.2h6c6.3,0,10.3-3.5,10.3-8.7c0-5.9-4.3-8.4-10.5-8.4c-2.9,0-4.8,0.2-5.8,0.5L247.4,695.2L247.4,695.2z"/>
			<path class="st0" d="M290.5,673.9v45.6h-5.9v-45.6H290.5z"/>
			<path class="st0" d="M317.5,719.5l-15-45.6h6.5l7.1,22.5c1.9,6.1,3.6,11.7,4.9,17h0.1c1.3-5.3,3.1-11,5.2-17l7.7-22.5h6.3
				L324,719.5H317.5z"/>
			<path class="st0" d="M358,673.9v45.6h-6v-45.6H358z"/>
			<path class="st0" d="M398.6,698.1H381v16.4h19.8v4.9h-25.7v-45.6h24.7v5h-18.7v14.4h17.6L398.6,698.1L398.6,698.1z"/>
			<path class="st0" d="M415.1,674.5c3-0.6,7.3-1,11.3-1c6.3,0,10.4,1.2,13.2,3.7c2.2,2,3.6,5.1,3.6,8.7c0,5.9-3.8,9.9-8.5,11.6v0.2
				c3.5,1.2,5.6,4.5,6.6,9.2c1.5,6.4,2.6,10.8,3.5,12.5h-6.1c-0.7-1.4-1.8-5.2-3-10.9c-1.4-6.3-3.9-8.7-9.2-8.9H421v19.7h-5.9V674.5
				z M421,695.2h6c6.3,0,10.3-3.5,10.3-8.7c0-5.9-4.3-8.4-10.5-8.4c-2.8,0-4.8,0.2-5.8,0.5V695.2z"/>
			<path class="st0" d="M466,705.1l-4.7,14.4h-6.1l15.6-45.6h7l15.6,45.6h-6.3l-4.9-14.4H466z M481,700.5l-4.5-13.1
				c-1-3-1.7-5.7-2.4-8.3H474c-0.7,2.6-1.4,5.5-2.3,8.3l-4.5,13.2H481V700.5z"/>
			<path class="st0" d="M566.3,699.4c-0.3-6.3-0.7-14.1-0.7-19.7h-0.1c-1.6,5.3-3.4,11.1-5.7,17.3l-8.1,22.1h-4.5l-7.4-21.7
				c-2.2-6.5-3.9-12.3-5.2-17.7h-0.2c-0.1,5.7-0.4,13.3-0.9,20.2l-1.2,19.6h-5.6l3.2-45.6h7.5l7.8,22c1.9,5.6,3.4,10.6,4.6,15.4h0.1
				c1.2-4.6,2.8-9.6,4.9-15.4l8.1-22h7.5l2.8,45.6h-5.8L566.3,699.4z"/>
			<path class="st0" d="M595.8,705.1l-4.7,14.4H585l15.6-45.6h7l15.6,45.6h-6.3l-4.9-14.4H595.8z M610.8,700.5l-4.6-13.1
				c-1-3-1.7-5.7-2.4-8.3h-0.1c-0.7,2.6-1.4,5.5-2.3,8.3l-4.5,13.2h13.9V700.5z"/>
			<path class="st0" d="M641.4,719.5v-19.4l-14.5-26.2h6.8l6.4,12.6c1.7,3.5,3.1,6.2,4.5,9.4h0.1c1.2-3,2.8-5.9,4.6-9.4l6.6-12.6
				h6.6l-15.2,26.2v19.4H641.4z"/>
			<path class="st0" d="M676.6,705.1l-4.7,14.4h-6.1l15.6-45.6h7.1l15.6,45.6h-6.3l-4.9-14.4H676.6z M691.6,700.5l-4.5-13.1
				c-1-3-1.7-5.7-2.4-8.3h-0.1c-0.7,2.6-1.3,5.5-2.3,8.3l-4.5,13.2h13.8V700.5z"/>
			<path class="st0" d="M736.4,701.7c0-2.5,1.7-4.3,4.1-4.3c2.3,0,4,1.8,4,4.3c0,2.4-1.6,4.2-4.1,4.2
				C738,705.9,736.4,704.1,736.4,701.7z"/>
			<path class="st0" d="M818.8,699.4c-0.3-6.3-0.8-14.1-0.8-19.7h-0.1c-1.6,5.3-3.5,11.1-5.8,17.3l-8,22.2h-4.5l-7.4-21.7
				c-2.2-6.5-3.9-12.3-5.2-17.7h-0.1c-0.1,5.7-0.5,13.3-0.9,20.2l-1.2,19.6h-5.7l3.2-45.6h7.5l7.8,22c1.9,5.6,3.4,10.6,4.6,15.4h0.1
				c1.2-4.6,2.8-9.6,4.9-15.4l8.1-22h7.5l2.8,45.6h-5.8L818.8,699.4z"/>
			<path class="st0" d="M865.1,698.1h-17.6v16.4h19.8v4.9h-25.7v-45.6h24.7v5h-18.8v14.4h17.6V698.1z"/>
			<path class="st0" d="M906.6,719.5l-5.9-10.1c-2.3-3.9-3.8-6.4-5.2-9h-0.2c-1.3,2.6-2.6,5-4.9,9l-5.5,10h-6.7l13.9-23.1
				l-13.4-22.5h6.9l6,10.7c1.7,3,3,5.3,4.2,7.7h0.2c1.3-2.7,2.4-4.8,4.1-7.7l6.2-10.7h6.8L899.2,696l14.2,23.4L906.6,719.5
				L906.6,719.5z"/>
			<path class="st0" d="M933,673.9v45.6h-6v-45.6H933z"/>
			<path class="st0" d="M981.8,718c-2.1,1.1-6.5,2.2-12,2.2c-12.9,0-22.5-8.1-22.5-23.2c0-14.3,9.7-23.9,23.8-23.9
				c5.6,0,9.3,1.2,10.8,2l-1.5,4.8c-2.2-1.1-5.3-1.9-9.1-1.9c-10.7,0-17.8,6.8-17.8,18.8c0,11.2,6.4,18.3,17.4,18.3
				c3.6,0,7.3-0.7,9.7-1.9L981.8,718z"/>
			<path class="st0" d="M1033.6,696.2c0,15.7-9.6,24-21.2,24c-12.1,0-20.5-9.4-20.5-23.2c0-14.5,9-24,21.1-24
				C1025.5,673,1033.6,682.6,1033.6,696.2z M998.1,696.9c0,9.8,5.3,18.6,14.6,18.6c9.4,0,14.6-8.6,14.6-19c0-9.1-4.7-18.6-14.5-18.6
				C1003,677.8,998.1,686.9,998.1,696.9z"/>
		</g>
	</g>
	<path class="st0" d="M636.1,470.2c-18.7,0.1-33.8,15.3-33.8,34c0,18.6,15.2,33.8,33.9,33.8h0.1c9.1,0,17.6-3.6,23.9-10
		c6.4-6.4,9.9-14.9,9.9-24C670,485.4,654.8,470.2,636.1,470.2z M636.3,533.7c-16.3,0-29.6-13.2-29.6-29.5
		c0-16.3,13.2-29.6,29.5-29.6c16.3,0,29.6,13.2,29.6,29.5C665.8,520.4,652.6,533.6,636.3,533.7z"/>
	<path class="st0" d="M622.6,519c0,0.8,1.1,1.5,2.2,1.7c0.9,0.3,1.9,0.1,2.2-0.7c-0.6-0.2-0.8-0.5-2.2-0.6
		C624.3,519.1,623.6,519.1,622.6,519z M620.4,514.3c-0.7-0.1-1.5-0.1-2.4-0.1c0.3,1.1,1.2,2.2,2.4,2.5c0.7,0.2,1.4,0,2.1-0.7
		c0-0.1,0.1-0.2,0.2-0.3c-0.1-0.2-0.1-0.3-0.2-0.5C622,514.8,621.3,514.4,620.4,514.3z M624.8,510.4c-0.7-0.1-1.6-0.1-2.4,0.1
		c-0.1,0-0.2,0-0.2,0c0,0.1-0.1,0.2-0.1,0.3c0.1-0.1,0.1-0.1,0.2-0.1c-0.1,0.5-0.1,1,0.1,1.3c0.2,0.7,0.6,1.4,1.4,1.9
		c0.3,0.2,0.6,0.3,0.9,0.3c1.1,0.3,2.4-0.3,2.9-1.3c0.2-0.6,0.3-1,0.2-1.6C627.3,511,626.2,510.5,624.8,510.4z M633.4,520.2
		c0.3,0.6,1.4,1.2,2.5,1.3s2-0.1,2.4-1c-0.8-0.3-1.5-0.5-2.4-0.3C634.9,520.2,634.1,520.3,633.4,520.2z M617.7,520.1
		c0.3,0.5,1.8,1.3,2.6,1.1c0.1-0.1,0.3-0.2,0.4-0.3c-0.1-0.1-0.3-0.2-0.4-0.3C619.6,520.3,618.5,519.9,617.7,520.1z M627.7,516
		c0.3,1.3,1.5,2.2,2.8,2.2c1.2,0.1,2.3-0.4,2.7-1.7c-0.9-0.4-1.9-0.6-2.7-0.6C629.6,515.7,628.7,515.8,627.7,516z M628.4,523.8
		c0.3,0.4,1.3,0.8,2.2,0.7c0.3-0.1,0.5-0.2,0.7-0.4c-0.2-0.1-0.5-0.2-0.7-0.2C629.8,523.7,629,523.7,628.4,523.8z M615.5,512.8
		c-0.6-0.2-1.2-0.3-1.9-0.3c-0.1,1,0.8,2.3,1.9,2.6c0.7,0.2,1.4,0,1.9-1.1C617.1,513.5,616.5,513.1,615.5,512.8z M608,508.7
		c0.1,1.1,0.3,2.3,1,2.8c0.1,0.1,0.1,0.1,0.2,0.1c0.5,0.2,0.7-0.3,0.9-1.3c-0.1-0.6-0.5-0.9-1.1-1.2
		C608.6,509,608.4,508.9,608,508.7z M610.5,517c0.2,0.4,0.8,1.1,1.3,1.1c0.1,0,0.3,0,0.3-0.1c0-0.1-0.2-0.2-0.3-0.4
		C611.4,517.4,610.9,517,610.5,517z M639.3,512.2c0,0,0-0.1,0-0.2C639.4,512.1,639.3,512.1,639.3,512.2L639.3,512.2z M606.9,507.5
		l0.3,2.1l0.1,0.1c0.5,0.3,0.6-0.6,0.5-2.2c-0.2-0.1-0.3-0.2-0.5-0.2C607.2,507.3,607,507.4,606.9,507.5z M612.2,511.4
		c-0.1-0.1-0.3-0.1-0.5-0.2c-0.5-0.2-0.9-0.4-1.6-0.5c0.1,0.9,0.8,2.4,1.6,2.8c0.2,0.1,0.3,0.1,0.5,0c0.2,0,0.3,0,0.4-0.1
		c0.3-0.2,0.5-0.6,0.7-1.2c-0.1-0.2-0.4-0.4-0.7-0.7C612.5,511.6,612.4,511.5,612.2,511.4z M613.3,518.6c0.3,0.6,1.5,1.5,2.3,1.4
		c0.2-0.1,0.3-0.2,0.4-0.3c-0.1-0.1-0.2-0.2-0.4-0.3C615,519,614.1,518.4,613.3,518.6z M662.1,513.5c0,0-0.1,0-0.2,0
		c-0.8-0.1-1.7,0.2-2.4,0.9c-0.1,0-0.2,0.1-0.3,0.2c0,0.3,0.1,0.5,0.3,0.7c0.6,0.9,2,0.5,2.4-1C662,514,662.1,513.7,662.1,513.5z
		 M656.1,511.7C656.1,511.7,656.2,511.7,656.1,511.7c0.1-0.4,0.1-0.7,0.2-1C656.2,511,656.2,511.4,656.1,511.7z M655.3,519.2
		c0.2,0.5,0.9,0.6,1.4,0.4s1.1-0.6,1.4-1.5c-0.5,0-1,0-1.4,0.2C656.3,518.6,655.8,518.9,655.3,519.2z M659.6,510.2
		c0,0.2-0.1,0.5-0.1,0.7h0.1C659.6,510.6,659.8,510.3,659.6,510.2z M653.1,515.5c-0.5,0.1-0.8,0.2-1.3,0.4c-0.3,0.1-0.6,0.3-0.9,0.5
		c0.1,0.7,0.5,1.1,1,1.3c0.4,0.1,0.9,0.2,1.3,0c0.9-0.2,1.8-0.9,2.3-2.1C654.7,515.4,653.9,515.4,653.1,515.5z M664.4,511.1
		c-0.1,0-0.2,0.1-0.3,0.2c0,0.2,0,0.9,0.1,1.2c0-0.1,0.1-0.2,0.2-0.3c0.2-0.5,0.2-0.9,0.2-1.1C664.5,511.1,664.4,511.1,664.4,511.1z
		 M661.8,516.9C661.8,517,661.9,517,661.8,516.9c0.5,0.2,0.8-0.5,1.4-1.4c-0.5,0-1,0.1-1.3,0.4C661.8,516.2,661.7,516.5,661.8,516.9
		z M659.5,512c0.1-0.3,0.1-0.7,0.1-1.1c-0.1,0-0.1-0.1-0.1-0.1c-0.6-0.3-1.9,0-2.7,0.5c-0.2,0.1-0.4,0.2-0.5,0.3
		c-0.1,1,0,1.9,0.6,2.3h0.1C657.9,514.4,659,513.6,659.5,512C659.4,512.1,659.4,512.1,659.5,512z M639.8,524
		c0.4,0.3,1.6,0.5,2.5,0.2c0.4-0.2,0.7-0.4,0.9-0.7h-0.9C641.5,523.5,640.5,523.6,639.8,524z M642.3,516c-1.1,0-2,0.2-2.9,0.5
		c0.3,1.2,1.6,1.9,3,1.9c0.8-0.1,1.7-0.4,2.3-1c0.3-0.3,0.5-0.6,0.6-1c-0.2-0.1-0.4-0.1-0.6-0.2C643.8,516.1,643,516,642.3,516z
		 M645.3,520.1c0.3,0.7,1.2,1,2.3,0.9c0.8-0.1,1.7-0.6,2.2-1.5c-0.6-0.1-1.4-0.1-2.2,0S646,519.8,645.3,520.1z M633.6,512.1
		c-0.1,1,0.3,2,1.4,2.6c0.3,0.2,0.6,0.3,0.8,0.4c1.1,0.2,2.6-0.3,3.2-1.4c0.2-0.5,0.3-1,0.2-1.5c-1-0.7-2.3-1-3.5-0.8
		C635.1,511.4,634.3,511.6,633.6,512.1z M650.8,522.6c0.1,0.4,0.6,0.6,1,0.5c0.5,0,0.9-0.3,1.1-0.8c-0.4-0.1-0.8-0.1-1.1,0
		C651.5,522.3,651.1,522.5,650.8,522.6z M650.6,511.8c-0.7-0.1-2,0-3,0.2c-0.8,0.1-1.5,0.3-2,0.5c-0.1,1,0.4,2,1.2,2.4
		c0.3,0.2,0.6,0.3,0.8,0.3c1,0.2,2.3-0.5,2.9-1.7h0.1c0.2-0.5,0.3-1,0.4-1.4C650.8,511.9,650.7,511.9,650.6,511.8z M651.1,511.6
		c0,0.1-0.1,0.2-0.1,0.4l0,0C651,511.9,651,511.7,651.1,511.6z"/>
	<path class="st0" d="M723.2,561.7C723.2,561.7,723.2,561.6,723.2,561.7C723.2,561.6,723.2,561.6,723.2,561.7z"/>
	<path class="st0" d="M723.2,561.7C723.2,561.7,723.2,561.6,723.2,561.7C723.2,561.6,723.2,561.6,723.2,561.7z"/>
	<path class="st0" d="M607.3,499.1L607.3,499.1c0-0.2,0.2-0.4,0.2-0.7C607.4,498.7,607.3,498.9,607.3,499.1z M665.7,504.2
		c0-16.3-13.3-29.5-29.6-29.5c-14.1,0-25.7,10.1-28.5,23.4c0.1-0.2,0.2-0.1,0.3,0.2v1.3c0,0.4-0.1,0.8-0.2,1.1
		c-0.2-0.2-0.2-0.6-0.4-0.8c0-0.1,0-0.1-0.1-0.2c-0.2,1.2-0.4,2.4-0.5,3.6c0.2-0.1,0.4-0.5,0.5-0.8c0.1-0.2,0.2-0.3,0.2-0.5l0.1,0.1
		c-0.1,1.1,0,2.2,0.3,2.5c0.1,0,0.1,0.1,0.1,0.1c0.4,0.2,0.8-0.3,1-1.1c0.1-0.2,0.2-0.3,0.2-0.5c0.1,0.1,0.2,0.1,0.4,0.2
		c-0.3,1.4,0.1,2.8,0.8,3.2c0.6,0.3,1.1-0.1,1.5-0.8c0.1-0.2,0.2-0.5,0.3-0.8l0.2,0.2l0.3,0.1c0,0.5,0,1,0.1,1.5
		c0.2,0.7,0.6,1.4,1.1,1.7c0.6,0.4,1.2,0.2,1.8-0.4c0.3-0.3,0.5-0.6,0.7-1.2c0.2,0.1,0.4,0.2,0.6,0.3c-0.3,1.2,0.3,2.6,1.3,3.3
		c0.8,0.4,1.6,0.4,2.3,0c0.5-0.3,0.9-0.8,1.1-1.3c0.1-0.3,0.1-0.5,0.2-0.7c0.2,0,0.5,0.1,0.8,0.1s0.5,0.1,0.7,0.1
		c0.5-0.5,1-0.8,1.6-0.9c1.5-0.2,3,0.9,3.3,2.6c0.2,0.3,0.5,0.6,0.8,0.7c0.5,0.3,1.1,0.5,1.6,0.5c0.6,0,1.2-0.2,1.6-0.6
		c0.4,0.1,1,0.3,1.4,0.4c0.6-1.4,1.4-2.2,2.3-2.4c1.6-0.4,3.4,1.2,3.6,2.8c0.4,0,0.9-0.1,1.3-0.1c0.5,0.3,0.9,0.4,1.5,0.4
		c0.7,0,1.5-0.3,2.1-0.9l0.2,0.1h1.2c0.4-1,1-1.6,1.8-1.9c1.1-0.6,2.4-0.3,3,0.5c0.3,0.4,0.4,0.8,0.5,1.4c0.1-0.1,0.3-0.1,0.5-0.1
		c0.1,0.2,0.2,0.3,0.3,0.4c0.2,0.2,0.4,0.3,0.5,0.4c0.3,0.2,0.6,0.3,0.8,0.3c1,0.1,1.9-0.5,2.4-1.6c0.3,0,0.6-0.1,1-0.2
		c0.1-0.3,0.2-0.6,0.3-0.8c0.8-1.2,2.2-1.3,2.7-0.3c0.3-0.1,0.5-0.3,0.8-0.4c0.2,0.3,0.3,0.5,0.6,0.5c0.4,0.2,0.8,0.1,1.1-0.5
		c0.3-0.3,0.5-0.8,0.7-1.4c0.1,0,0.2-0.1,0.4-0.2l0,0l0,0c0.1-0.3,0.1-0.5,0.2-0.6c0.4-1,0.9-1.1,1.1-0.5h0.1
		c0.1-0.1,0.2-0.2,0.3-0.3c0.1,0.1,0.1,0.1,0.2,0.1c0.1,0.1,0.3-0.1,0.3-0.5c0.1,0,0.2-0.1,0.2-0.1c0,2.3-0.3,4.6-0.8,6.8
		C665.2,509.7,665.7,507,665.7,504.2z M662.7,494c0.1,0.1,0.3,0.2,0.4,0.3c0.2,0.3,0.4,0.7,0.5,1.1c-0.2-0.3-0.4-0.6-0.5-0.6
		c-0.3-0.2-0.4,0.1-0.3,0.9C662.6,494.7,662.5,494.6,662.7,494z M661.2,493c-0.7-0.6-1-0.8-1.4,0.7c-0.1-0.7-0.1-1.1,0.4-1.5
		C660.6,492.2,660.8,492.6,661.2,493z M660.4,489.3c-0.8-0.7-0.5,0-0.3,0.7c-0.3-0.5-0.5-1.1-0.4-1.4
		C660,488.6,660.3,488.9,660.4,489.3z M657.3,486.9c-0.3-0.2-0.5-0.2-0.6-0.1c-0.2,0.2-0.4,0.6-0.3,1.1c-0.3-0.5-0.3-1-0.1-1.3
		c0.1-0.1,0.3-0.2,0.4-0.1C656.9,486.5,657.1,486.6,657.3,486.9z M658.1,491.1c-0.7-0.3-1.1-0.2-1.4,0.1c-0.4,0.4-0.4,1.4-0.4,2.2
		c-0.5-0.9-0.8-2.8,0.1-2.9c0.1,0,0.2-0.1,0.3-0.1C657.1,490.4,657.7,490.8,658.1,491.1z M656.5,484.4c-0.7-0.6-0.9-0.3-0.4,0.5
		c-0.4-0.5-0.8-1-0.6-1.1C655.6,483.8,656.1,484.1,656.5,484.4z M655.8,495c0.4-0.1,0.7,0,0.9,0.3c0.4,0.2,0.7,0.5,1.1,0.9
		c-0.4-0.2-0.7-0.3-1.1-0.3c-0.9-0.1-1.7,0.7-2.2,1.7C654.4,496.3,654.9,495,655.8,495z M651.7,482.2c0.2-0.1,0.4-0.1,0.7,0.1
		c-0.7-0.3-0.7,0.2-0.2,0.9c-0.3-0.2-0.4-0.3-0.5-0.4V482.2z M653,485.4c-0.6-0.4-1.3,0.3-1.1,1.3l-0.1-0.1v-1.3
		C652,485,652.5,485,653,485.4z M651.8,489c0.1,0,0.1-0.1,0.2-0.1c0.3,0,0.7,0,1.1,0.2c0.3,0.1,0.6,0.3,0.9,0.6
		c-0.3-0.2-0.6-0.3-0.9-0.3c-0.6-0.1-0.9,0.1-1.3,0.5c-0.3,0.4-0.6,0.9-0.6,1.7C650.7,490.8,650.6,489.6,651.8,489z M650.5,493.6
		C650.5,493.5,650.5,493.5,650.5,493.6c0.5-0.2,1-0.1,1.3,0.1c0.5,0.2,0.9,0.5,1.2,0.8c-0.4-0.3-0.9-0.4-1.2-0.4
		c-0.4,0-0.8,0.3-1.2,0.5c-0.6,0.5-0.9,1.2-1.2,2.1C649,495.8,649.4,493.9,650.5,493.6z M644.5,490.9c0.3-0.7,1.1-1.4,1.9-1.4
		c0.4-0.1,0.8-0.1,1.1,0c0.5,0.2,0.8,0.5,1,0.8c-0.3-0.3-0.6-0.4-1-0.4c-1.2-0.1-2.4,0.6-3,1.4c0,0.1,0,0.1-0.1,0.2
		C644.4,491.3,644.5,491.1,644.5,490.9z M644.5,497.5c0.6-1,1.8-1.6,3-1.3c0.6,0.2,1.2,0.6,1.7,1.2c-0.6-0.1-1.1,0-1.7,0.2
		c-1,0.2-2.2,0.7-3,1c-0.1,0-0.1,0-0.2,0.1C644.3,498.3,644.4,497.9,644.5,497.5z M642.3,492c0.5,0.1,1.1,0.5,1.5,1.1
		c-0.5-0.4-1.1-0.5-1.5-0.6c-1.4-0.1-2.9,0.8-3.5,1.8C639,492.6,640.8,491.7,642.3,492z M633.2,496.6c0.6-1,1.6-1.5,2.6-1.5
		c0.6,0,1.1,0.1,1.5,0.4c1.1,0.7,1.6,1.8,1.5,2.9c-0.2-0.6-0.8-1.1-1.5-1.3c-0.5-0.3-1-0.4-1.5-0.3c-1.2,0-2.4,0.6-2.9,1.6
		c-0.1,0-0.1,0.1-0.1,0.1C632.7,497.8,632.9,497.3,633.2,496.6z M627.4,494.6L627.4,494.6c0.2-1.8,1.7-2.7,3.1-2.6
		c1,0.2,2.1,1,2.3,2.5c-0.5-0.9-1.4-1.3-2.3-1.4C629.3,493.1,628.1,493.6,627.4,494.6C627.4,494.7,627.4,494.7,627.4,494.6
		L627.4,494.6z M620.3,487.5c1.2-0.3,2.3,1.1,1.3,2.7c0.2-1-0.4-1.9-1.3-2.2c-0.4-0.1-0.7-0.1-0.9,0h-0.1
		C619.6,487.7,619.9,487.6,620.3,487.5z M622.4,495.9c0.7-0.7,1.6-1,2.4-0.8c1.4,0.3,2.5,1.9,1.7,3.9c0-0.7-0.8-1.7-1.7-2.1
		c-0.7-0.5-1.7-0.8-2.4-0.5c-0.2,0-0.4,0.1-0.6,0.3C622,496.3,622.2,496.2,622.4,495.9z M620.3,492.9c0.9,0.6,1.2,1.9,0.4,3.4
		c0.1-0.6-0.1-1.1-0.4-1.5c-0.7-0.9-2.3-1.4-2.7-1.1C618.4,492.6,619.6,492.4,620.3,492.9z M616.3,486.4c1.7-1.5,2.8-0.1,1.3,1.8
		C618,487,617.4,486,616.3,486.4L616.3,486.4z M615.5,485c0.5-0.1,0.6,0.5,0,1.3c-0.2,0.3-0.3,0.5-0.6,0.7c0.7-0.9,0.6-1.7-0.3-1.2
		C615,485.3,615.3,485.1,615.5,485z M613.1,491.8c0.5-1.8-0.1-2.1-0.6-1.8c-0.1,0-0.3,0.1-0.4,0.2c0.2-0.2,0.3-0.3,0.4-0.4
		C613.7,488.4,614.5,489.7,613.1,491.8z M611.1,489.9c0.3-0.4,0.4-0.7,0.6-1c0.2-0.3,0.4-0.5,0.5-0.5v0.5c-0.1,0.3-0.2,0.7-0.5,1.1
		c-0.1,0.2-0.2,0.4-0.3,0.5c0.1-0.3,0.2-0.3,0.3-0.6c0-0.1,0-0.2,0.1-0.3c0-0.3,0-0.4-0.1-0.4C611.5,489.3,611.2,489.6,611.1,489.9
		C610.9,490.2,611.1,489.9,611.1,489.9z M609.3,502.3c-0.1-0.2-0.1-0.6-0.4-0.9c-0.2-0.4-0.6-0.7-1-0.4v-0.3c0.3-1.3,0.7-1.6,1-1.1
		C609.3,500,609.4,501,609.3,502.3z M609.3,494.6c0.3-0.7,0.5-1.2,0.9-1.2c0.5,0.4,0,1.1-0.3,2.1C609.9,494,609.8,493.8,609.3,494.6
		z M612.2,503.8c0,0.2,0,0.4-0.1,0.6c0-0.2-0.2-0.4-0.4-0.7c-0.5-0.6-1.3-1.1-2.3-0.8c0.5-2.1,1.6-2.4,2.3-1.5
		c0.2,0.3,0.5,0.7,0.5,1.3V503.8z M612.3,497.7c0-0.1-0.1-0.2-0.1-0.3c-0.1-0.7-0.3-1.2-0.5-1.5c-0.4-0.5-0.8-0.6-1.2-0.1
		c0.2-0.5,0.7-1.2,1.2-1.4c0.1-0.1,0.3-0.1,0.4,0c0.1,0,0.1,0,0.1,0c0.2,0.2,0.3,0.4,0.4,0.7v0.9
		C612.5,496.6,612.3,497.2,612.3,497.7z M612.6,498.5c0.7-2.4,2.1-2.9,2.9-2.1c0.4,0.5,0.7,1.2,0.6,2.3c-0.2-0.1-0.4-0.3-0.6-0.4
		c-0.8-0.3-1.9-0.3-2.9,0.4V498.5z M615.5,505.8c-0.7-0.5-1.7-1.2-2.9-1.2c0.5-2.1,2-2.1,2.9-1c0.6,0.6,0.8,1.5,0.7,2.6
		C616,506.2,615.8,506,615.5,505.8z M615.5,491.4c-0.5-0.2-1-0.1-1.5,0.3c0.5-0.7,1-1.1,1.5-1.1c1.1-0.2,2,1.3,0.8,3.2
		C616.6,492.5,616.1,491.6,615.5,491.4z M616.3,500.8c1-2.7,2.9-2.9,4-1.7c0.4,0.6,0.7,1.4,0.6,2.5c-0.2-0.3-0.4-0.5-0.6-0.7
		C619.2,500.1,617.8,500.1,616.3,500.8z M620.3,507.5c-1.1-0.4-2.4-0.7-3.5-0.5c0.5-2.2,2.2-2.5,3.5-1.7c0.9,0.5,1.6,1.7,1.4,2.9
		C621.3,508,620.8,507.7,620.3,507.5z M624.8,503.6c-0.7-0.1-1.6-0.1-2.4,0.2c-0.4,0.1-0.7,0.2-0.9,0.3c0.2-0.8,0.5-1.4,0.9-1.9
		c0.6-0.7,1.6-0.9,2.4-0.8c1.1,0.3,2,1.4,2.1,3.1C626.3,504.1,625.5,503.8,624.8,503.6z M626.7,492c0-0.9-1.1-1.8-2-2.1
		c-0.5-0.1-0.9-0.2-1.3,0c0.4-0.4,0.8-0.6,1.3-0.7C626.1,489,627.5,490.5,626.7,492z M630.5,498.6c1.4,0.4,2.6,1.8,2.1,3.6
		c-0.4-0.7-1.2-1.4-2.1-1.8c-1.4-0.7-2.9-0.8-3.3-0.3C628,498.7,629.3,498.3,630.5,498.6z M630.6,507.5c-1.1,0-2,0-3,0.3
		c0.3-1.5,1.3-2.8,3-2.8h0.4c1.4,0.4,2.2,1.3,2.5,2.7C632.3,507.6,631.4,507.5,630.6,507.5z M635.8,503.7c-1,0.1-2.1,0.5-2.7,1.1
		c0-1.7,1.3-2.6,2.7-2.6c1.2-0.1,2.6,0.7,3,2C638.1,503.8,637,503.6,635.8,503.7z M638.8,502L638.8,502c-0.1-0.6,0-1.2,0.3-1.8
		c0.7-1.1,2-1.7,3.2-1.5c0.3,0.1,0.6,0.2,1,0.4c0.6,0.3,1,0.9,1.2,1.4c0.2,0.5,0.3,0.9,0.3,1.4c-0.1-0.1-0.2-0.2-0.3-0.4
		c-0.3-0.4-0.7-0.7-1.2-1c-0.4-0.1-0.7-0.2-1-0.3C640.8,500.2,639.4,500.7,638.8,502z M644.5,508c-0.6,0.1-1.4,0.1-2.3,0.2
		c-0.9,0-1.9,0.1-2.9,0.2c0.3-1.8,1.6-2.6,2.8-2.8c0.8,0,1.8,0.3,2.3,1c0.3,0.4,0.5,0.8,0.6,1.4L644.5,508L644.5,508z M650.6,504.9
		c-0.5-0.9-1.8-0.9-3-0.7c-1,0.2-1.9,0.6-2.3,1c0.1-1.7,1.1-2.8,2.3-3c1.3-0.3,2.7,0.4,3,2.3V504.9z M650.6,503.2v-1.5
		c0.1-0.8,0.7-1.4,1.2-1.7c0.4-0.2,0.9-0.3,1.3-0.2c0.8,0,1.4,0.5,1.7,1.2c-0.6-0.2-1.2-0.2-1.7,0c-0.5,0.1-0.9,0.4-1.3,0.8
		C651.3,502.1,651,502.6,650.6,503.2z M653.1,508.3c-0.5,0.1-0.9,0.3-1.3,0.6c-0.2,0.2-0.4,0.3-0.6,0.5c0-1,0.3-1.8,0.6-2.3
		c0.4-0.5,0.9-0.8,1.3-0.8c1.2-0.3,2.7,0.6,2.7,2.6C655.4,508,654.3,507.9,653.1,508.3z M656.7,503.8c-0.7,0.4-1.1,0.8-0.9,0.9
		c-0.1-1.4,0.4-2.4,0.9-2.8c0.8-0.6,2-0.2,2.6,1.2C659.1,502.7,657.8,503.3,656.7,503.8z M659,499.6c-0.1-1,0-2,0.5-2.5
		c0.2-0.2,0.5-0.3,1-0.2c0.4,0.1,0.8,0.7,0.9,1c-0.6-0.5-1.4,0.1-1.9,0.9C659.2,499,659.1,499.3,659,499.6z M661.9,506
		c-0.7-0.3-1.7,0.3-2,1v-0.7c0.1-2.5,1.2-3.4,2-2.6c0.4,0.3,0.7,0.8,0.8,1.7v1C662.4,506.2,662.2,506.1,661.9,506z M663.2,500.6
		c-0.6,0.2-0.9,0.9-0.9,1.5c-0.2-2.3,0-3,0.5-3.5c0.1,0.1,0.2,0.2,0.3,0.3c0.2,0.3,0.5,1,0.8,2.1
		C663.7,500.6,663.3,500.5,663.2,500.6z M664.4,502.5L664.4,502.5c-0.1-0.3-0.1-0.6,0-0.9c0-0.9,0.1-1.3,0.2-1.3
		c0.2-0.1,0.4,0.9,0.7,2.5C664.9,501.3,664.7,501.6,664.4,502.5z"/>
</g>
</svg>
