<?xml version="1.0" encoding="utf-8"?>
<!-- Generator: Adobe Illustrator 21.1.0, SVG Export Plug-In . SVG Version: 6.00 Build 0)  -->
<svg version="1.1" id="Capa_1" xmlns="http://www.w3.org/2000/svg" xmlns:xlink="http://www.w3.org/1999/xlink" x="0px" y="0px"
	 viewBox="0 0 869.9 720" style="enable-background:new 0 0 869.9 720;" xml:space="preserve">
<style type="text/css">
	.st0{fill:#4D4D4D;}
	.st1{fill:#E4E6E7;}
	.st2{fill:#BABCBE;}
	.st3{fill:#808082;}
	.st4{fill:#FFFFFF;}
	.st5{fill:#59595B;}
	.st6{clip-path:url(#SVGID_2_);fill:#808082;}
	.st7{clip-path:url(#SVGID_2_);fill:#4D4D4D;}
	.st8{fill:none;stroke:#FFFFFF;stroke-width:3.9845;stroke-miterlimit:10;}
	.st9{fill:#6D6E71;}
	.st10{fill:#919395;}
	.st11{fill:#404041;}
	.st12{clip-path:url(#SVGID_4_);fill:#E4E6E7;}
</style>
<g>
	<path class="st0" d="M26.9,532.3c0,0,128.3-14.8,178.4,7.8l-19.3-49.8l-109.7,8.5L26.9,532.3z"/>
	<path class="st0" d="M835.4,532.3c0,0-128.3-14.8-178.4,7.8l19.3-49.8l109.7,8.5L835.4,532.3z"/>
	<path class="st1" d="M433,719.6c361.9-160.4,339.5-553.8,339.5-553.8l-35.3-22.5V73.8C737.3,73.8,622.8,0,433,0L432,0
		C242.2,0,127.7,73.8,127.7,73.8v69.5l-35.3,22.5c0,0-22.4,393.5,339.5,553.8H433z"/>
	<path class="st2" d="M432.5,0C242.8,0,127.7,73.8,127.7,73.8v69.5l-35.3,22.5c0,0-21.8,393.9,340.1,554.3l-0.6-70.9L432.5,0z"/>
	<path class="st3" d="M432.5,692.3c-74.4-34.5-137-82.3-186.2-142c-41.2-50-73.3-108.5-95.5-174.1c-30.1-89-33.5-167.2-33.6-196.7
		c0,0-13.3,105.1,38.4,228.3c51.7,123.2,106.7,205,276.9,293.7L432.5,692.3C432.5,692.3,432.5,692.3,432.5,692.3z"/>
	<path class="st4" d="M152.8,88.3c0,0,100.6-68.8,279.2-68.8s280.3,68.7,280.3,68.7L152.8,88.3z"/>
	<path class="st2" d="M432.5,692.3c74.4-34.5,137-82.3,186.2-142c41.2-50,73.3-108.5,95.5-174.1c30.1-89,33.5-167.2,33.6-196.7
		c0,0,13.3,105.1-38.4,228.3c-51.7,123.2-106.7,205-276.9,293.7L432.5,692.3C432.5,692.3,432.5,692.3,432.5,692.3z"/>
	<path class="st0" d="M432.5,692.3c-74.4-34.5-137-82.3-186.2-142c-41.2-50-73.3-108.5-95.5-174.1c-30.1-89-33.5-167.2-33.6-196.7
		l35.5-22.6V88.3C185.4,71,285.8,25,432,25h1.1c147,0,246.8,45.9,279.2,63.3V157l35.5,22.6c-0.1,29.5-3.5,107.7-33.6,196.7
		c-22.2,65.5-54.3,124.1-95.5,174.1C569.5,610.1,506.9,657.8,432.5,692.3z"/>
	<path class="st5" d="M432.5,664.6c-66.3-32.5-122.4-76.2-166.9-130.2c-39.3-47.6-69.9-103.5-91.1-166.2
		c-25.1-74.1-30.9-140.4-32-175.1c0,0,107.4-75.5,289.7-75.5c178.8,0,290.3,75.5,290.3,75.5c-1.2,34.7-7,101-32,175.1
		c-21.2,62.6-51.8,118.5-91.1,166.2C554.9,588.4,498.8,632.1,432.5,664.6z"/>
	<g>
		<defs>
			<path id="SVGID_1_" d="M432.5,664.6c-66.3-32.5-122.4-76.2-166.9-130.2c-39.3-47.6-69.9-103.5-91.1-166.2
				c-25.1-74.1-30.9-140.4-32-175.1c0,0,107.4-75.5,289.7-75.5c178.8,0,290.3,75.5,290.3,75.5c-1.2,34.7-7,101-32,175.1
				c-21.2,62.6-51.8,118.5-91.1,166.2C554.9,588.4,498.8,632.1,432.5,664.6z"/>
		</defs>
		<clipPath id="SVGID_2_">
			<use xlink:href="#SVGID_1_"  style="overflow:visible;"/>
		</clipPath>
		<rect x="171.8" y="72.4" class="st6" width="48.5" height="811.9"/>
		<rect x="264.3" y="72.4" class="st6" width="48.5" height="811.9"/>
		<rect x="356.8" y="72.4" class="st6" width="48.5" height="811.9"/>
		<rect x="449.4" y="72.4" class="st6" width="48.5" height="811.9"/>
		<rect x="541.9" y="72.4" class="st6" width="48.5" height="811.9"/>
		<rect x="634.4" y="72.4" class="st6" width="48.5" height="811.9"/>
		<path class="st7" d="M111.6,310.9c0,0,26.3-9.4,35.9-10.1c9.6-0.7,35.9,0,35.9,0s19.2-3.1,34.7-13.8s33.5-25.1,33.5-25.1
			s9.6-6,15.6-4.8s34.7-16.8,44.3-25.1s21.5-13.2,31.1-16.8c9.6-3.6,21.5-9.6,29.9-12s38.3-21.5,38.3-21.5h18l22.7,6h10.8
			c0,0,19.2,14.4,22.7,18s3.6,13.2,9.6,13.2s23.9-4.8,23.9-4.8s12,6,16.8,12l29.9,3.6c0,0,15.6,20.3,27.5,22.7
			c12,2.4,31.1,9.6,31.1,9.6l32.3,19.2l19.2,14.4l9.6-4.8l12,10.2l49.1,10.1c0,0,32.3,20.3,50.3,22.7s39.5,15.6,39.5,15.6l20.3,7.2
			v62.2L435.7,719.6L6.2,418.7l12-82.6c0,0,8.4-13.2,22.7-21.5c14.4-8.4,38.3-7.2,38.3-7.2L111.6,310.9z"/>
	</g>
	<path class="st8" d="M432.5,664.6c-66.3-32.5-122.4-76.2-166.9-130.2c-39.3-47.6-69.9-103.5-91.1-166.2
		c-25.1-74.1-30.9-140.4-32-175.1c0,0,107.4-75.5,289.7-75.5c178.8,0,290.3,75.5,290.3,75.5c-1.2,34.7-7,101-32,175.1
		c-21.2,62.6-51.8,118.5-91.1,166.2C554.9,588.4,498.8,632.1,432.5,664.6z"/>
	<path class="st4" d="M335.4,533.9c0,0,7.6,32.5,27.5,49.3l6.1-3.1l36.3-0.8l9.9-8.4v15.3l9.2,10.3v13.4c0,0,39.7,3.4,72.5-21V572
		l17.5-2.6c0,0,16.6-16.2,21.5-51.8l-9.1-9.7h-38.9c0,0-4.3,26.8-7.4,34.4l4.6,12.6l-11.1-5.3c0,0-7,4.5-44.2,4.2l-8.5,8l-1.1-12.5
		l-14.9-27.9l0.2-13.2h-16.6c0,0-14.5,17.8-32.8,30l-3.4,8.8C352.6,546.9,343.8,542.3,335.4,533.9z"/>
	<g>
		<g>
			<path class="st4" d="M254.2,89c-3.9,1.1-5.8,1.7-9.7,2.8c4.7,15.8,7.1,23.7,11.9,39.5c-5.6,1.7-8.3,2.5-13.9,4.3
				c-5.1-15.7-7.7-23.5-12.8-39.2c-3.8,1.2-5.7,1.9-9.5,3.2c-1.7-5-2.6-7.6-4.3-12.6c13.8-4.8,20.8-6.9,34.8-10.9
				C252,81.3,252.7,83.8,254.2,89z"/>
			<path class="st4" d="M313.9,117.1c-6.1,1.2-9.2,1.8-15.3,3.2c-1.2-3.4-1.8-5.1-2.9-8.5c-2.9,0.6-4.3,1-7.2,1.7
				c0.4,3.6,0.6,5.4,1.1,8.9c-6.1,1.5-9.1,2.2-15.2,3.8c-2-22.1-2.9-33.1-4.2-55.3c9.3-2.3,14-3.4,23.3-5.4
				C302,86,306.1,96.3,313.9,117.1z M292.5,99.7c-2.6-7.2-3.9-10.7-6.6-17.9c-0.7,0.2-1.1,0.2-1.8,0.4c0.7,7.6,1.1,11.4,1.9,18.9
				C288.7,100.6,290,100.3,292.5,99.7z"/>
			<path class="st4" d="M355.1,85.9c-2.8,3.2-4.1,4.9-6.8,8.1c-5.1,0.7-7.6,1-12.7,1.8c1,6.8,1.6,10.2,2.6,17
				c-5.7,0.9-8.6,1.4-14.3,2.4c-3.8-21.5-5.8-32.2-9.6-53.7c11.7-2.1,17.6-3,29.4-4.6c3.5,2.4,5.2,3.6,8.7,6
				C353.4,72.1,354,76.7,355.1,85.9z M339.3,83c-0.8-5.2-1.1-7.8-1.9-13c-2.3,0.3-3.4,0.5-5.7,0.9c0.8,5.2,1.2,7.8,2,13
				C335.9,83.5,337,83.3,339.3,83z"/>
			<path class="st4" d="M408.2,106.2c-6.2,0.2-9.3,0.4-15.5,0.8c-0.6-3.5-0.9-5.3-1.6-8.9c-2.9,0.2-4.4,0.3-7.3,0.5
				c-0.1,3.6-0.2,5.4-0.3,9c-6.2,0.5-9.3,0.8-15.5,1.4c1.4-22.1,2.3-33.2,4.4-55.3c9.5-0.8,14.2-1.2,23.8-1.7
				C401.3,73.6,403.7,84.5,408.2,106.2z M389.9,85.7c-1.4-7.5-2.2-11.2-3.7-18.7c-0.7,0-1.1,0.1-1.8,0.1c-0.4,7.6-0.7,11.4-1,19
				C385.9,85.9,387.2,85.8,389.9,85.7z"/>
			<path class="st4" d="M452.6,99c-3,2.8-4.6,4.2-7.5,7c-7.8-0.2-11.7-0.2-19.4-0.2c-3-2.9-4.5-4.4-7.5-7.3c-0.3-16-0.5-24-0.8-40
				c3.1-2.9,4.7-4.4,7.8-7.3c8.4-0.1,12.7,0,21.1,0.2c3.1,3,4.7,4.4,7.8,7.4c-0.2,5-0.3,7.5-0.5,12.4c-6.1-0.2-9.1-0.3-15.2-0.4
				c0-3,0.1-4.5,0.1-7.5c-2.3,0-3.4,0-5.7,0c0,12.1-0.1,18.2-0.1,30.3c2.2,0,3.2,0,5.4,0c0.1-4.4,0.1-6.6,0.1-11
				c6,0.1,9,0.1,14.9,0.4C452.9,89.4,452.8,92.6,452.6,99z"/>
			<path class="st4" d="M496.4,109.4c-5.7-0.6-8.6-0.9-14.3-1.4c0.8-8.8,1.1-13.1,1.9-21.9c-2.2-0.2-3.2-0.3-5.4-0.4
				c-0.7,8.8-1,13.2-1.7,21.9c-5.7-0.4-8.6-0.6-14.4-0.9c1.2-21.8,1.7-32.7,2.9-54.5c6.3,0.3,9.4,0.5,15.6,1
				c-0.6,7.3-0.9,11-1.4,18.4c2.2,0.2,3.3,0.3,5.5,0.5c0.6-7.3,0.9-11,1.6-18.4c6.3,0.5,9.4,0.8,15.6,1.5
				C500,76.8,498.8,87.7,496.4,109.4z"/>
			<path class="st4" d="M541.7,108.7c-3.4,2.3-5.1,3.5-8.5,5.9c-7.8-1.4-11.8-2-19.7-3.1c-2.5-3.3-3.7-4.9-6.3-8.2
				c2.4-18.8,3.6-28.2,6-46.9c6.2,0.8,9.3,1.2,15.6,2.2c-2.5,16.8-3.8,25.2-6.3,42c2.2,0.3,3.4,0.5,5.6,0.9
				c2.7-16.8,4-25.2,6.7-41.9c6.2,1,9.3,1.5,15.5,2.7C546.9,80.8,545.1,90.1,541.7,108.7z"/>
			<path class="st4" d="M576.8,123.8c-10.6-2.6-15.8-3.8-26.5-6c4.3-21.4,6.5-32.1,10.8-53.5c6.2,1.3,9.3,1.9,15.5,3.3
				c-3.6,16-5.4,24-9.1,39.9c5,1.1,7.5,1.7,12.5,3C578.7,115.8,578.1,118.5,576.8,123.8z"/>
			<path class="st4" d="M625.5,138.1c-6-2-9-3-14.9-4.9c0.7-3.5,1-5.3,1.7-8.8c-2.8-0.9-4.3-1.3-7.1-2.2c-1.4,3.3-2.1,5-3.5,8.3
				c-6-1.8-9-2.6-15.1-4.2c9.2-20.1,14-30.2,23.9-50.1c9.2,2.6,13.9,4,23,7C630.6,105.3,629,116.2,625.5,138.1z M615.5,112.4
				c1.3-7.5,2-11.3,3.2-18.8c-0.7-0.2-1-0.3-1.7-0.5c-3.1,6.9-4.7,10.4-7.8,17.4C611.7,111.2,613,111.6,615.5,112.4z"/>
		</g>
	</g>
	<g>
		<path class="st9" d="M680.9,99.4c-1.3-1-3.2-0.1-3.2,1.6c-0.1,6.1-1.1,13.8-4.9,20.7c-5.8,10.4-8.6,19.7-8.2,26.9
			c0.1,1.1,0.9,1.9,2,1.9c9.5,0.3,19-9.3,21.9-22.9C691.1,115.7,687.7,104.4,680.9,99.4z"/>
		<path class="st10" d="M669.8,120c3.9-7,4.6-15.3,4.4-21.2c0-1.2-1-2.1-2.2-2.1c-9.1,0.5-17.9,9.9-20.7,22.9
			c-2.4,11.2,0.3,21.8,6.3,27.2c1.3,1.2,3.4,0.3,3.5-1.5C661.7,136.1,666.3,126.2,669.8,120z"/>
	</g>
	<g>
		<path class="st10" d="M180.1,99.4c1.3-1,3.2-0.1,3.2,1.6c0.1,6.1,1.1,13.8,4.9,20.7c5.8,10.4,8.6,19.7,8.2,26.9
			c-0.1,1.1-0.9,1.9-2,1.9c-9.5,0.3-19-9.3-21.9-22.9C170,115.7,173.3,104.4,180.1,99.4z"/>
		<path class="st9" d="M191.2,120c-3.9-7-4.6-15.3-4.4-21.2c0-1.2,1-2.1,2.2-2.1c9.1,0.5,17.9,9.9,20.7,22.9
			c2.4,11.2-0.3,21.8-6.3,27.2c-1.3,1.2-3.4,0.3-3.5-1.5C199.3,136.1,194.7,126.2,191.2,120z"/>
	</g>
	<g>
		<path class="st9" d="M865.3,408.8c-5.4-6.5-8.1-9.7-13.5-16.1l-4.5-5.3l-6.8-1.4c-15.3-3.1-23.2-4.6-38.4-7.3l-9.3-1.7l-7.2,6.2
			c-1.8,1.6-3.3,2.9-4.8,4.1c-2.3-2.7-4.5-5.2-7.5-8.8l-4.8-5.6l-7.3-1.2c-15-2.4-22.7-3.6-37.7-5.7l-9-1.3l-6.9,6
			c-2.2,1.9-3.9,3.4-5.5,4.8c-2.3-2.6-4.5-5-7.5-8.4l-5-5.6l-7.5-0.9c-19.1-2.3-29.8-3.5-47.6-5.2v-0.1l-9.7-0.9l-16.9-1.6v0.1
			c-16.4-1.4-32.9-2.6-49.3-3.5l-18.5-1.1v0l-1.9-0.1l-0.7,0v0l-16.5-0.7c-11.1-0.5-16.8-0.7-27.9-1l-14.6-0.4l0,0l-0.9,0l-5-0.1
			v0.1l-10.8-0.1c-10.7-0.1-17.7-0.2-25.1-0.2c-5.1,0-10.5,0-17.2,0.1l-9.4,0.1v0l-3.5,0.1l-3.8,0l0,0l-13,0.3
			c-18.2,0.4-36.5,1-54.8,1.9v-0.1l-15.1,0.9l-13,0.7v0.1c-14.1,0.9-28.3,1.9-42.4,3.1v-0.1l-15,1.4l-11.6,1v0.1
			c-17.6,1.7-35.4,3.6-52.9,5.8l-11.9,1.5l0-0.1l-5.2,0.7l-0.3,0v0L154,365c-16.6,2.3-25.3,3.6-41.9,6.2l-14.3,2.3l-2.3,14.2
			c-0.3,1.7-0.5,3.4-0.8,5c-4.3-3.5-7-5.7-11.8-9.7l-7.1-5.8l-9,1.6c-14.7,2.7-22.3,4.1-37,7l-6.9,1.4l-4.5,5.5
			c-5.5,6.7-8.3,10-13.8,16.8L0,415v93.9l7.3,6c5.5,4.5,8.3,6.8,13.8,11.3l7.3,6l9.3-1.9c14.6-2.9,21.7-4.3,36.4-6.9l7.1-1.3l7-11.4
			l12.9,8c11.8-2,17.5-2.9,29.2-4.7l8.9-1.4l8.5-1.2c11.8-1.7,17.6-2.5,29.2-4l6.6-0.8l6.5-0.8c11-1.3,16.4-2,27.4-3.2l17.8-1.9
			l2.9-0.3l21.7-1.9c18.6-1.6,37.6-3,56.3-4.1l16.4-0.9l13.2-0.6c10.9-0.5,16.3-0.7,27.3-1l14.8-0.5l14.6-0.2
			c11.8-0.2,17.6-0.2,29.5-0.3l8.6,0l8.9,0.1c11.8,0.1,17.6,0.2,29.5,0.4l6.7,0.1l6.4,0.2c20.6,0.6,30.6,1,51.2,2.1l4.9,0.3l8.2,0.5
			c18.7,1.1,37.6,2.5,56.3,4.2l8.6,0.8l4.9,0.5c10.9,1,16.3,1.6,27.3,2.8l5.3,0.6l5.5,0.6c11,1.2,16.3,1.9,27.1,3.3l19.4,2.5
			l0.1,0.1l7.3,1c14.9,2.1,22.2,3.2,37,5.6l9,1.4l7-5.9c2.1-1.7,3.7-3.1,5.3-4.5c2.3,2.7,4.5,5.4,7.6,9l4.6,5.5l7.1,1.3
			c14.8,2.7,22.1,4.1,36.9,7l9.2,1.8l7.3-6c5.4-4.5,8.2-6.7,13.6-11.1l7.4-6v-94.9L865.3,408.8z"/>
	</g>
	<path class="st11" d="M84.3,491.6c-5.5,6.5-8.3,9.8-13.8,16.4c-14.7,2.7-22.1,4.1-36.7,7c-5.5-4.6-8.3-6.9-13.9-11.4
		c0-25.8,0-51.6,0-77.3c5.5-6.7,8.3-10.1,13.8-16.7c14.6-2.9,21.9-4.3,36.6-7c5.6,4.6,8.4,6.8,14,11.4c0,9.6,0,14.4,0,24
		c-10.9,1.9-16.3,2.9-27.2,4.9c0-5.8,0-8.7,0-14.5c-4,0.8-6,1.1-10,1.9c0,19.5,0,39.1,0,58.6c4-0.8,6-1.2,10-1.9
		c0-8.5,0-12.7,0-21.2c10.9-2,16.3-3,27.2-4.9C84.3,473.2,84.3,479.3,84.3,491.6z M174.3,491.9c-11.8,1.5-17.7,2.3-29.5,4
		c-0.8-6.8-1.1-10.2-1.9-17c-5.5,0.8-8.2,1.2-13.7,2c-0.8,7-1.1,10.5-1.9,17.6c-11.8,1.8-17.7,2.7-29.5,4.7
		c5.8-36.1,11.7-72.2,17.5-108.3c16.6-2.6,24.9-3.8,41.5-6.1C162.6,423.2,168.4,457.6,174.3,491.9z M141.9,455
		c-1.8-14.3-2.6-21.5-4.4-35.8c-1.3,0.2-1.9,0.3-3.2,0.5c-1.8,14.9-2.6,22.3-4.4,37.1C134.8,456.1,137.1,455.7,141.9,455z
		 M244.7,403.9c-11.8,1.1-17.7,1.7-29.5,3c0,5.5,0,8.3,0,13.8c9.7-1,14.5-1.5,24.2-2.5c0,10.1,0,15.1,0,25.2
		c-9.7,0.9-14.5,1.4-24.2,2.5c0,16.5,0,24.8,0,41.3c-11.1,1.2-16.6,1.8-27.7,3.2c0-35.2,0-70.3,0-105.5c19-2.3,38.1-4.4,57.2-6.2
		C244.7,388.7,244.7,393.8,244.7,403.9z M315.1,398.7c-11.8,0.7-17.7,1.1-29.5,1.9c0,5.5,0,8.3,0,13.8c9.6-0.7,14.5-1,24.1-1.6
		c0,10.1,0,15.2,0,25.3c-9.6,0.6-14.5,0.9-24.1,1.6c0,5.9,0,8.8,0,14.6c11.7-0.9,17.6-1.2,29.3-1.9c0,10.5,0,15.8,0,26.4
		c-19,1.1-37.9,2.5-56.9,4.1c0-35.2,0-70.3,0-105.5c19-1.7,38.1-3.1,57.2-4.2C315.1,383.5,315.1,388.5,315.1,398.7z M390.2,396.1
		c-7.2,0.2-10.8,0.3-18,0.5c0,26.6,0,53.1,0,79.7c-11,0.3-16.5,0.5-27.5,1c0-26.6,0-53.1,0-79.7c-7.1,0.3-10.7,0.5-17.8,0.9
		c0-10.3,0-15.5,0-25.8c21.1-1.1,42.2-1.9,63.3-2.4C390.2,380.6,390.2,385.8,390.2,396.1z M479.1,475.7c-11.9-0.3-17.8-0.3-29.7-0.4
		c-0.8-6.9-1.1-10.4-1.9-17.3c-5.5,0-8.3,0-13.8,0c-0.8,6.9-1.1,10.4-1.9,17.3c-11.9,0-17.8,0.1-29.7,0.3
		c5.9-35.2,11.8-70.5,17.7-105.7c16.7-0.1,25.1-0.1,41.8,0.1C467.3,405.2,473.2,440.5,479.1,475.7z M446.6,434
		c-1.8-14.6-2.7-21.9-4.4-36.5c-1.3,0-1.9,0-3.2,0c-1.8,14.6-2.7,21.9-4.4,36.5C439.3,434,441.8,434,446.6,434z M544.1,478.2
		c-20.7-1.1-31-1.5-51.7-2.1c0-35.2,0-70.3,0-105.5c11.1,0.3,16.6,0.5,27.7,1c0,26.4,0,52.7,0,79.1c9.6,0.4,14.4,0.6,24,1.1
		C544.1,462.4,544.1,467.6,544.1,478.2z M614.5,403c-11.8-1-17.7-1.5-29.5-2.4c0,5.5,0,8.3,0,13.8c9.6,0.7,14.5,1.1,24.1,1.9
		c0,10.1,0,15.2,0,25.3c-9.6-0.8-14.5-1.2-24.1-1.9c0,5.9,0,8.8,0,14.6c11.7,0.9,17.5,1.3,29.2,2.4c0,10.5,0,15.8,0,26.4
		c-18.9-1.7-37.9-3.1-56.9-4.2c0-35.2,0-70.3,0-105.5c19.1,1.1,38.1,2.5,57.2,4.2C614.5,387.8,614.5,392.9,614.5,403z M693.6,426.2
		c-4.4,4.1-6.7,6.1-11.1,10.2c4.5,4.9,6.7,7.4,11.1,12.4c0,17.2,0,25.8,0,42.9c-10.9-1.4-16.4-2.1-27.4-3.3c0-17,0-25.5,0-42.5
		c-4.3-0.5-6.5-0.7-10.8-1.2c0,17,0,25.5,0,42.5c-11-1.2-16.5-1.8-27.6-2.8c0-35.2,0-70.3,0-105.5c20.8,2,31.2,3.1,51.9,5.6
		c5.6,6.2,8.3,9.4,13.9,15.6C693.6,410.6,693.6,415.8,693.6,426.2z M666.2,423.3c0-7.3,0-11,0-18.3c-4.3-0.5-6.5-0.7-10.8-1.2
		c0,7.3,0,11,0,18.3C659.7,422.6,661.8,422.8,666.2,423.3z M771.7,489.4c-5.5,4.6-8.2,6.9-13.7,11.5c-14.9-2.4-22.4-3.5-37.4-5.6
		c-5.5-6.3-8.2-9.4-13.7-15.7c0-25.9,0-51.9,0-77.8c5.5-4.8,8.2-7.2,13.7-12c15,2.1,22.4,3.2,37.4,5.6c5.5,6.4,8.2,9.7,13.7,16.2
		C771.7,437.5,771.7,463.5,771.7,489.4z M744.3,475.4c0-19.5,0-39.1,0-58.6c-4-0.6-6-0.9-10.1-1.5c0,19.5,0,39.1,0,58.6
		C738.3,474.4,740.3,474.7,744.3,475.4z M850,443.2c-10.9-2.3-16.4-3.3-27.3-5.5c0-3.3,0-5,0-8.3c-4.1-0.8-6.2-1.2-10.3-2
		c0,5.7,0,8.6,0,14.4c15.1,8.3,22.6,12.6,37.6,21.2c0,16.3,0,24.5,0,40.9c-5.5,4.4-8.2,6.7-13.7,11.1c-14.9-3-22.3-4.4-37.3-7.1
		c-5.7-6.8-8.5-10.1-14.2-16.9c0-8.6,0-12.8,0-21.4c11,1.9,16.5,2.9,27.5,5c0,5,0,7.6,0,12.6c4.1,0.8,6.2,1.2,10.3,2
		c0-7.1,0-10.7,0-17.8c-15.1-8.4-22.7-12.5-37.8-20.6c0-14.7,0-22.1,0-36.8c5.4-4.7,8.1-7,13.5-11.7c15.2,2.8,22.9,4.2,38.1,7.2
		c5.4,6.4,8.1,9.6,13.5,16.1C850,432.7,850,436.2,850,443.2z"/>
	<path class="st4" d="M84.3,487.5c-5.5,6.5-8.3,9.8-13.8,16.4c-14.7,2.7-22.1,4.1-36.7,7c-5.5-4.6-8.3-6.9-13.9-11.4
		c0-25.8,0-51.6,0-77.3c5.5-6.7,8.3-10.1,13.8-16.7c14.6-2.9,21.9-4.3,36.6-7c5.6,4.6,8.4,6.8,14,11.4c0,9.6,0,14.4,0,24
		c-10.9,1.9-16.3,2.9-27.2,4.9c0-5.8,0-8.7,0-14.5c-4,0.8-6,1.1-10,1.9c0,19.5,0,39.1,0,58.6c4-0.8,6-1.2,10-1.9
		c0-8.5,0-12.7,0-21.2c10.9-2,16.3-3,27.2-4.9C84.3,469.1,84.3,475.2,84.3,487.5z M174.3,487.9c-11.8,1.5-17.7,2.3-29.5,4
		c-0.8-6.8-1.1-10.2-1.9-17c-5.5,0.8-8.2,1.2-13.7,2c-0.8,7-1.1,10.5-1.9,17.6c-11.8,1.8-17.7,2.7-29.5,4.7
		c5.8-36.1,11.7-72.2,17.5-108.3c16.6-2.6,24.9-3.8,41.5-6.1C162.6,419.1,168.4,453.5,174.3,487.9z M141.9,451
		c-1.8-14.3-2.6-21.5-4.4-35.8c-1.3,0.2-1.9,0.3-3.2,0.5c-1.8,14.9-2.6,22.3-4.4,37.1C134.8,452,137.1,451.7,141.9,451z
		 M244.7,399.8c-11.8,1.1-17.7,1.7-29.5,3c0,5.5,0,8.3,0,13.8c9.7-1,14.5-1.5,24.2-2.5c0,10.1,0,15.1,0,25.2
		c-9.7,0.9-14.5,1.4-24.2,2.5c0,16.5,0,24.8,0,41.3c-11.1,1.2-16.6,1.8-27.7,3.2c0-35.2,0-70.3,0-105.5c19-2.3,38.1-4.4,57.2-6.2
		C244.7,384.7,244.7,389.7,244.7,399.8z M315.1,394.6c-11.8,0.7-17.7,1.1-29.5,1.9c0,5.5,0,8.3,0,13.8c9.6-0.7,14.5-1,24.1-1.6
		c0,10.1,0,15.2,0,25.3c-9.6,0.6-14.5,0.9-24.1,1.6c0,5.9,0,8.8,0,14.6c11.7-0.9,17.6-1.2,29.3-1.9c0,10.5,0,15.8,0,26.4
		c-19,1.1-37.9,2.5-56.9,4.1c0-35.2,0-70.3,0-105.5c19-1.7,38.1-3.1,57.2-4.2C315.1,379.4,315.1,384.4,315.1,394.6z M390.2,392
		c-7.2,0.2-10.8,0.3-18,0.5c0,26.6,0,53.1,0,79.7c-11,0.3-16.5,0.5-27.5,1c0-26.6,0-53.1,0-79.7c-7.1,0.3-10.7,0.5-17.8,0.9
		c0-10.3,0-15.5,0-25.8c21.1-1.1,42.2-1.9,63.3-2.4C390.2,376.5,390.2,381.7,390.2,392z M479.1,471.7c-11.9-0.3-17.8-0.3-29.7-0.4
		c-0.8-6.9-1.1-10.4-1.9-17.3c-5.5,0-8.3,0-13.8,0c-0.8,6.9-1.1,10.4-1.9,17.3c-11.9,0-17.8,0.1-29.7,0.3
		c5.9-35.2,11.8-70.5,17.7-105.7c16.7-0.1,25.1-0.1,41.8,0.1C467.3,401.1,473.2,436.4,479.1,471.7z M446.6,429.9
		c-1.8-14.6-2.7-21.9-4.4-36.5c-1.3,0-1.9,0-3.2,0c-1.8,14.6-2.7,21.9-4.4,36.5C439.3,429.9,441.8,429.9,446.6,429.9z M544.1,474.1
		c-20.7-1.1-31-1.5-51.7-2.1c0-35.2,0-70.3,0-105.5c11.1,0.3,16.6,0.5,27.7,1c0,26.4,0,52.7,0,79.1c9.6,0.4,14.4,0.6,24,1.1
		C544.1,458.3,544.1,463.5,544.1,474.1z M614.5,398.9c-11.8-1-17.7-1.5-29.5-2.4c0,5.5,0,8.3,0,13.8c9.6,0.7,14.5,1.1,24.1,1.9
		c0,10.1,0,15.2,0,25.3c-9.6-0.8-14.5-1.2-24.1-1.9c0,5.9,0,8.8,0,14.6c11.7,0.9,17.5,1.3,29.2,2.4c0,10.5,0,15.8,0,26.4
		c-18.9-1.7-37.9-3.1-56.9-4.2c0-35.2,0-70.3,0-105.5c19.1,1.1,38.1,2.5,57.2,4.2C614.5,383.7,614.5,388.8,614.5,398.9z
		 M693.6,422.1c-4.4,4.1-6.7,6.1-11.1,10.2c4.5,4.9,6.7,7.4,11.1,12.4c0,17.2,0,25.8,0,42.9c-10.9-1.4-16.4-2.1-27.4-3.3
		c0-17,0-25.5,0-42.5c-4.3-0.5-6.5-0.7-10.8-1.2c0,17,0,25.5,0,42.5c-11-1.2-16.5-1.8-27.6-2.8c0-35.2,0-70.3,0-105.5
		c20.8,2,31.2,3.1,51.9,5.6c5.6,6.2,8.3,9.4,13.9,15.6C693.6,406.5,693.6,411.7,693.6,422.1z M666.2,419.2c0-7.3,0-11,0-18.3
		c-4.3-0.5-6.5-0.7-10.8-1.2c0,7.3,0,11,0,18.3C659.7,418.5,661.8,418.8,666.2,419.2z M771.7,485.3c-5.5,4.6-8.2,6.9-13.7,11.5
		c-14.9-2.4-22.4-3.5-37.4-5.6c-5.5-6.3-8.2-9.4-13.7-15.7c0-25.9,0-51.9,0-77.8c5.5-4.8,8.2-7.2,13.7-12c15,2.1,22.4,3.2,37.4,5.6
		c5.5,6.4,8.2,9.7,13.7,16.2C771.7,433.5,771.7,459.4,771.7,485.3z M744.3,471.3c0-19.5,0-39.1,0-58.6c-4-0.6-6-0.9-10.1-1.5
		c0,19.5,0,39.1,0,58.6C738.3,470.3,740.3,470.6,744.3,471.3z M850,439.1c-10.9-2.3-16.4-3.3-27.3-5.5c0-3.3,0-5,0-8.3
		c-4.1-0.8-6.2-1.2-10.3-2c0,5.7,0,8.6,0,14.4c15.1,8.3,22.6,12.6,37.6,21.2c0,16.3,0,24.5,0,40.9c-5.5,4.4-8.2,6.7-13.7,11.1
		c-14.9-3-22.3-4.4-37.3-7.1c-5.7-6.8-8.5-10.1-14.2-16.9c0-8.6,0-12.8,0-21.4c11,1.9,16.5,2.9,27.5,5c0,5,0,7.6,0,12.6
		c4.1,0.8,6.2,1.2,10.3,2c0-7.1,0-10.7,0-17.8c-15.1-8.4-22.7-12.5-37.8-20.6c0-14.7,0-22.1,0-36.8c5.4-4.7,8.1-7,13.5-11.7
		c15.2,2.8,22.9,4.2,38.1,7.2c5.4,6.4,8.1,9.6,13.5,16.1C850,428.6,850,432.1,850,439.1z"/>
	<polygon class="st4" points="204.1,318 266.7,269.4 263.2,283.9 273.4,279.2 240.9,312.1 249.9,293.7 	"/>
	<polygon class="st4" points="311.8,263.2 385.1,219.2 417.8,190.6 431.2,190.6 440.5,202.6 431.2,199.6 423.9,213 414.1,223.5 
		435.2,229.3 408.2,234.9 435.2,241.7 383.1,245.2 365.1,253.2 	"/>
	<polygon class="st4" points="577.6,258.9 544.8,240.1 549.8,251.5 508.8,232.7 508.8,239.4 502.9,245.8 511.5,258.9 495.5,262.8 
		530.7,271.8 542,257 	"/>
	<g>
		<defs>
			<path id="SVGID_3_" d="M84.3,487.5c-5.5,6.5-8.3,9.8-13.8,16.4c-14.7,2.7-22.1,4.1-36.7,7c-5.5-4.6-8.3-6.9-13.9-11.4
				c0-25.8,0-51.6,0-77.3c5.5-6.7,8.3-10.1,13.8-16.7c14.6-2.9,21.9-4.3,36.6-7c5.6,4.6,8.4,6.8,14,11.4c0,9.6,0,14.4,0,24
				c-10.9,1.9-16.3,2.9-27.2,4.9c0-5.8,0-8.7,0-14.5c-4,0.8-6,1.1-10,1.9c0,19.5,0,39.1,0,58.6c4-0.8,6-1.2,10-1.9
				c0-8.5,0-12.7,0-21.2c10.9-2,16.3-3,27.2-4.9C84.3,469.1,84.3,475.2,84.3,487.5z M174.3,487.9c-11.8,1.5-17.7,2.3-29.5,4
				c-0.8-6.8-1.1-10.2-1.9-17c-5.5,0.8-8.2,1.2-13.7,2c-0.8,7-1.1,10.5-1.9,17.6c-11.8,1.8-17.7,2.7-29.5,4.7
				c5.8-36.1,11.7-72.2,17.5-108.3c16.6-2.6,24.9-3.8,41.5-6.1C162.6,419.1,168.4,453.5,174.3,487.9z M141.9,451
				c-1.8-14.3-2.6-21.5-4.4-35.8c-1.3,0.2-1.9,0.3-3.2,0.5c-1.8,14.9-2.6,22.3-4.4,37.1C134.8,452,137.1,451.7,141.9,451z
				 M244.7,399.8c-11.8,1.1-17.7,1.7-29.5,3c0,5.5,0,8.3,0,13.8c9.7-1,14.5-1.5,24.2-2.5c0,10.1,0,15.1,0,25.2
				c-9.7,0.9-14.5,1.4-24.2,2.5c0,16.5,0,24.8,0,41.3c-11.1,1.2-16.6,1.8-27.7,3.2c0-35.2,0-70.3,0-105.5c19-2.3,38.1-4.4,57.2-6.2
				C244.7,384.7,244.7,389.7,244.7,399.8z M315.1,394.6c-11.8,0.7-17.7,1.1-29.5,1.9c0,5.5,0,8.3,0,13.8c9.6-0.7,14.5-1,24.1-1.6
				c0,10.1,0,15.2,0,25.3c-9.6,0.6-14.5,0.9-24.1,1.6c0,5.9,0,8.8,0,14.6c11.7-0.9,17.6-1.2,29.3-1.9c0,10.5,0,15.8,0,26.4
				c-19,1.1-37.9,2.5-56.9,4.1c0-35.2,0-70.3,0-105.5c19-1.7,38.1-3.1,57.2-4.2C315.1,379.4,315.1,384.4,315.1,394.6z M390.2,392
				c-7.2,0.2-10.8,0.3-18,0.5c0,26.6,0,53.1,0,79.7c-11,0.3-16.5,0.5-27.5,1c0-26.6,0-53.1,0-79.7c-7.1,0.3-10.7,0.5-17.8,0.9
				c0-10.3,0-15.5,0-25.8c21.1-1.1,42.2-1.9,63.3-2.4C390.2,376.5,390.2,381.7,390.2,392z M479.1,471.7c-11.9-0.3-17.8-0.3-29.7-0.4
				c-0.8-6.9-1.1-10.4-1.9-17.3c-5.5,0-8.3,0-13.8,0c-0.8,6.9-1.1,10.4-1.9,17.3c-11.9,0-17.8,0.1-29.7,0.3
				c5.9-35.2,11.8-70.5,17.7-105.7c16.7-0.1,25.1-0.1,41.8,0.1C467.3,401.1,473.2,436.4,479.1,471.7z M446.6,429.9
				c-1.8-14.6-2.7-21.9-4.4-36.5c-1.3,0-1.9,0-3.2,0c-1.8,14.6-2.7,21.9-4.4,36.5C439.3,429.9,441.8,429.9,446.6,429.9z
				 M544.1,474.1c-20.7-1.1-31-1.5-51.7-2.1c0-35.2,0-70.3,0-105.5c11.1,0.3,16.6,0.5,27.7,1c0,26.4,0,52.7,0,79.1
				c9.6,0.4,14.4,0.6,24,1.1C544.1,458.3,544.1,463.5,544.1,474.1z M614.5,398.9c-11.8-1-17.7-1.5-29.5-2.4c0,5.5,0,8.3,0,13.8
				c9.6,0.7,14.5,1.1,24.1,1.9c0,10.1,0,15.2,0,25.3c-9.6-0.8-14.5-1.2-24.1-1.9c0,5.9,0,8.8,0,14.6c11.7,0.9,17.5,1.3,29.2,2.4
				c0,10.5,0,15.8,0,26.4c-18.9-1.7-37.9-3.1-56.9-4.2c0-35.2,0-70.3,0-105.5c19.1,1.1,38.1,2.5,57.2,4.2
				C614.5,383.7,614.5,388.8,614.5,398.9z M693.6,422.1c-4.4,4.1-6.7,6.1-11.1,10.2c4.5,4.9,6.7,7.4,11.1,12.4c0,17.2,0,25.8,0,42.9
				c-10.9-1.4-16.4-2.1-27.4-3.3c0-17,0-25.5,0-42.5c-4.3-0.5-6.5-0.7-10.8-1.2c0,17,0,25.5,0,42.5c-11-1.2-16.5-1.8-27.6-2.8
				c0-35.2,0-70.3,0-105.5c20.8,2,31.2,3.1,51.9,5.6c5.6,6.2,8.3,9.4,13.9,15.6C693.6,406.5,693.6,411.7,693.6,422.1z M666.2,419.2
				c0-7.3,0-11,0-18.3c-4.3-0.5-6.5-0.7-10.8-1.2c0,7.3,0,11,0,18.3C659.7,418.5,661.8,418.8,666.2,419.2z M771.7,485.3
				c-5.5,4.6-8.2,6.9-13.7,11.5c-14.9-2.4-22.4-3.5-37.4-5.6c-5.5-6.3-8.2-9.4-13.7-15.7c0-25.9,0-51.9,0-77.8
				c5.5-4.8,8.2-7.2,13.7-12c15,2.1,22.4,3.2,37.4,5.6c5.5,6.4,8.2,9.7,13.7,16.2C771.7,433.5,771.7,459.4,771.7,485.3z
				 M744.3,471.3c0-19.5,0-39.1,0-58.6c-4-0.6-6-0.9-10.1-1.5c0,19.5,0,39.1,0,58.6C738.3,470.3,740.3,470.6,744.3,471.3z
				 M850,439.1c-10.9-2.3-16.4-3.3-27.3-5.5c0-3.3,0-5,0-8.3c-4.1-0.8-6.2-1.2-10.3-2c0,5.7,0,8.6,0,14.4
				c15.1,8.3,22.6,12.6,37.6,21.2c0,16.3,0,24.5,0,40.9c-5.5,4.4-8.2,6.7-13.7,11.1c-14.9-3-22.3-4.4-37.3-7.1
				c-5.7-6.8-8.5-10.1-14.2-16.9c0-8.6,0-12.8,0-21.4c11,1.9,16.5,2.9,27.5,5c0,5,0,7.6,0,12.6c4.1,0.8,6.2,1.2,10.3,2
				c0-7.1,0-10.7,0-17.8c-15.1-8.4-22.7-12.5-37.8-20.6c0-14.7,0-22.1,0-36.8c5.4-4.7,8.1-7,13.5-11.7c15.2,2.8,22.9,4.2,38.1,7.2
				c5.4,6.4,8.1,9.6,13.5,16.1C850,428.6,850,432.1,850,439.1z"/>
		</defs>
		<clipPath id="SVGID_4_">
			<use xlink:href="#SVGID_3_"  style="overflow:visible;"/>
		</clipPath>
		<path class="st12" d="M-27.4,490.3c0,0,333-127.8,928.3,0l-7.7,89.3L89,590.1l-110.8-57.8L-27.4,490.3z"/>
		<path class="st12" d="M900.1,482.4l0.8-8.9c-595.2-127.8-928.3,0-928.3,0l1.2,8.7C-4.5,474.2,325.5,359.2,900.1,482.4z"/>
	</g>
</g>
</svg>
