<?xml version="1.0" encoding="utf-8"?>
<!-- Generator: Adobe Illustrator 21.1.0, SVG Export Plug-In . SVG Version: 6.00 Build 0)  -->
<svg version="1.1" id="Capa_1" xmlns="http://www.w3.org/2000/svg" xmlns:xlink="http://www.w3.org/1999/xlink" x="0px" y="0px"
	 viewBox="0 0 746.9 720" style="enable-background:new 0 0 746.9 720;" xml:space="preserve">
<style type="text/css">
	.st0{fill:#4D4D4D;}
</style>
<g>
	<g id="XMLID_91_">
		<path id="XMLID_123_" class="st0" d="M47.7,694.8c0,4-0.6,7.6-1.9,10.7c-1.3,3.1-3,5.8-5.1,8c-2.1,2.2-4.7,3.8-7.5,4.9
			c-2.9,1.1-6,1.7-9.3,1.7c-3.2,0-6.3-0.6-9.2-1.7c-2.9-1.1-5.4-2.7-7.6-4.9c-2.2-2.2-3.9-4.8-5.2-8c-1.3-3.1-1.9-6.7-1.9-10.7v-84
			c0-4.3,0.6-8,1.9-11.2c1.3-3.2,3-5.8,5.2-7.9c2.2-2.1,4.7-3.7,7.6-4.6c2.9-1,5.9-1.5,9.2-1.5c3.3,0,6.5,0.6,9.3,1.8
			c2.9,1.2,5.4,2.9,7.5,5.1c2.1,2.1,3.9,4.8,5.1,8c1.3,3.2,1.9,6.6,1.9,10.4v4.3H33.9v-4.3c0-3.7-1-6.3-3-8c-2-1.7-4.4-2.6-7.1-2.6
			c-2.8,0-5.2,0.9-7.2,2.6c-1.9,1.7-2.9,4.4-2.9,8v84c0,3,1,5.5,2.9,7.6c1.9,2,4.3,3.1,7.2,3.1c2.7,0,5.1-1,7.1-3.1
			c2-2.1,3-4.6,3-7.6v-1.7l13.8-4.8V694.8z"/>
		<path id="XMLID_120_" class="st0" d="M103.9,717.7H90l-2-16.1H70.5l-1.9,16.1H53.9l18.8-130h12.7L103.9,717.7z M86.4,688l-7.1-57
			l-7.2,57H86.4z"/>
		<path id="XMLID_117_" class="st0" d="M160.2,717.7h-13.8v-45.8c0-3-0.2-5.4-0.6-7.3c-0.4-1.9-1.1-3.3-2-4.3c-1-1-2.2-1.7-3.7-2.1
			c-1.5-0.4-3.4-0.6-5.6-0.6h-8.2v60.1h-13.8v-130h23.9c7.5,0,13.3,2.2,17.2,6.6c3.9,4.4,5.9,10.9,5.9,19.5v17.9c0,4.7-1,8.5-3,11.4
			c-2,2.9-4.7,5-8,6.2c3.2,1.1,6,3.3,8.3,6.6c2.3,3.3,3.5,8,3.5,14.1V717.7z M145.6,616.2c0-4.6-0.8-8.1-2.3-10.5
			c-1.5-2.3-4.8-3.5-9.8-3.5h-7.2v41.8h7.2c4.2,0,7.3-1.1,9.2-3.2c1.9-2.1,2.9-5.8,2.9-11V616.2z"/>
		<path id="XMLID_115_" class="st0" d="M207.9,717.7h-37.5v-130h13.8v115.4h23.7V717.7z"/>
		<path id="XMLID_112_" class="st0" d="M261.4,694.8c0,3.8-0.6,7.2-1.9,10.3c-1.2,3.1-2.9,5.8-5.1,8c-2.1,2.2-4.7,3.9-7.5,5.1
			c-2.9,1.2-6,1.8-9.3,1.8c-3.2,0-6.3-0.6-9.2-1.8c-2.9-1.2-5.4-2.9-7.6-5.1c-2.2-2.2-3.9-4.9-5.2-8c-1.3-3.1-1.9-6.5-1.9-10.3v-84
			c0-4,0.6-7.5,1.9-10.6c1.3-3.1,3-5.7,5.2-7.9c2.2-2.2,4.7-3.8,7.6-5c2.9-1.2,5.9-1.7,9.2-1.7c3.3,0,6.5,0.6,9.3,1.7
			c2.9,1.2,5.4,2.8,7.5,5c2.1,2.2,3.8,4.8,5.1,7.9c1.3,3.1,1.9,6.6,1.9,10.6V694.8z M247.6,610.7c0-3.3-1-5.9-3-7.8
			c-2-1.9-4.3-2.8-7.1-2.8c-2.8,0-5.2,0.9-7.1,2.8c-1.9,1.9-2.9,4.5-2.9,7.8v84c0,3.4,1,6.1,2.9,7.9c1.9,1.8,4.3,2.7,7.1,2.7
			c2.7,0,5.1-0.9,7.1-2.7c2-1.8,3-4.4,3-7.9V610.7z"/>
		<path id="XMLID_110_" class="st0" d="M294.6,585.5c6.9,0,12.6,2.1,17.1,6.3c4.5,4.2,6.7,10.5,6.7,18.9v7.1l-13.8-3.1v-4
			c0-2.9-1-5.4-3-7.5c-2-2.1-4.3-3.1-7.1-3.1c-2.1,0-3.8,0.4-5.1,1.3c-1.3,0.9-2.4,2-3.1,3.4c-0.8,1.4-1.3,2.9-1.6,4.6
			c-0.3,1.7-0.4,3.5-0.4,5.2c0,2.6,0.5,5.4,1.6,8.2c1.1,2.8,2.5,5.6,4.2,8.4c1.7,2.8,3.5,5.5,5.5,8.1c2,2.6,3.8,5.1,5.5,7.5
			c2.2,3.1,4.4,6.3,6.6,9.6c2.2,3.3,4.2,6.7,5.9,10.2c1.7,3.5,3.1,7.1,4.2,10.9c1.1,3.8,1.7,7.7,1.7,11.8c0,4-0.5,7.8-1.3,11.5
			c-0.9,3.7-2.4,7-4.4,9.8c-2,2.8-4.7,5.1-7.9,6.7c-3.2,1.7-7,2.5-11.5,2.5c-3.7,0-6.9-0.7-9.8-2c-2.9-1.3-5.4-3.1-7.5-5.4
			c-2.1-2.3-3.7-4.9-4.8-8c-1.1-3-1.6-6.3-1.6-9.9v-7l13.8,3.1v3.8c0,3,1.1,5.5,3.2,7.6c2.1,2.1,4.6,3.2,7.3,3.2
			c3.7,0,6.4-1.2,8.2-3.6c1.8-2.4,2.7-5.3,2.7-8.9c0-2.9-0.2-5.4-0.5-7.6c-0.3-2.2-0.9-4.4-1.7-6.6c-1.3-3.4-2.8-6.7-4.6-9.8
			c-1.8-3.1-3.7-6.1-5.7-9.1c-2-3-4.1-5.9-6.3-8.9c-2.1-2.9-4.2-5.8-6.2-8.7c-3.1-4.6-5.6-9.2-7.5-13.6c-1.8-4.4-2.7-10-2.7-16.6
			c0-8,2-14.4,6.1-19.3C280.9,587.9,286.8,585.5,294.6,585.5z"/>
		<path id="XMLID_108_" class="st0" d="M405.6,694.8c0,4-0.6,7.6-1.9,10.7c-1.3,3.1-3,5.8-5.1,8c-2.1,2.2-4.7,3.8-7.5,4.9
			c-2.9,1.1-6,1.7-9.3,1.7c-3.2,0-6.3-0.6-9.2-1.7c-2.9-1.1-5.4-2.7-7.6-4.9c-2.2-2.2-3.9-4.8-5.2-8c-1.3-3.1-1.9-6.7-1.9-10.7v-84
			c0-4.3,0.6-8,1.9-11.2c1.2-3.2,3-5.8,5.2-7.9c2.2-2.1,4.7-3.7,7.6-4.6c2.9-1,5.9-1.5,9.2-1.5c3.4,0,6.5,0.6,9.3,1.8
			c2.9,1.2,5.4,2.9,7.5,5.1c2.1,2.1,3.8,4.8,5.1,8c1.2,3.2,1.9,6.6,1.9,10.4v4.3h-13.8v-4.3c0-3.7-1-6.3-3-8c-2-1.7-4.4-2.6-7.1-2.6
			c-2.8,0-5.2,0.9-7.2,2.6c-1.9,1.7-2.9,4.4-2.9,8v84c0,3,1,5.5,2.9,7.6c2,2,4.3,3.1,7.2,3.1c2.7,0,5.1-1,7.1-3.1c2-2.1,3-4.6,3-7.6
			v-1.7l13.8-4.8V694.8z"/>
		<path id="XMLID_106_" class="st0" d="M462.6,694.8c0,3.9-0.6,7.4-1.9,10.5c-1.2,3.1-2.9,5.8-5.1,8c-2.1,2.2-4.6,3.9-7.5,5.1
			c-2.9,1.2-6,1.7-9.4,1.7c-3.2,0-6.3-0.6-9.2-1.7c-2.9-1.2-5.4-2.8-7.6-5.1c-2.2-2.2-3.9-4.9-5.2-8c-1.3-3.1-1.9-6.6-1.9-10.5
			V587.7h13.8v107.1c0,3.8,1,6.5,2.9,8.1c1.9,1.7,4.3,2.5,7.1,2.5c2.7,0,5.1-0.8,7.1-2.5c2-1.7,3-4.4,3-8.1V587.7h13.8V694.8z"/>
		<path id="XMLID_103_" class="st0" d="M519.4,717.7h-14l-2-16.1H486l-1.9,16.1h-14.8l18.8-130h12.7L519.4,717.7z M501.8,688
			l-7.1-57l-7.2,57H501.8z"/>
		<path id="XMLID_100_" class="st0" d="M575.6,692.3c0,3.5-0.5,6.9-1.6,10c-1.1,3.1-2.7,5.8-4.7,8.1c-2,2.3-4.5,4.1-7.5,5.4
			c-3,1.3-6.3,2-10,2h-23.9v-130h23.9c3.7,0,7,0.6,10,1.9c3,1.3,5.5,3,7.5,5.3c2,2.3,3.6,5,4.7,8.1c1.1,3.1,1.6,6.5,1.6,10.1V692.3z
			 M561.8,613.1c0-3.4-1-6.1-2.9-8c-1.9-1.9-4.3-2.8-7.1-2.8h-10v100.8h10c2.8,0,5.2-1.1,7.1-3.2c1.9-2.1,2.9-4.7,2.9-7.6V613.1z"/>
		<path id="XMLID_97_" class="st0" d="M633.7,717.7h-13.8v-45.8c0-3-0.2-5.4-0.6-7.3c-0.4-1.9-1.1-3.3-2-4.3c-0.9-1-2.2-1.7-3.7-2.1
			c-1.5-0.4-3.4-0.6-5.6-0.6h-8.2v60.1H586v-130h23.9c7.5,0,13.3,2.2,17.2,6.6c3.9,4.4,5.9,10.9,5.9,19.5v17.9c0,4.7-1,8.5-3,11.4
			c-2,2.9-4.7,5-8,6.2c3.2,1.1,6,3.3,8.3,6.6c2.3,3.3,3.5,8,3.5,14.1V717.7z M619.1,616.2c0-4.6-0.7-8.1-2.3-10.5
			c-1.5-2.3-4.8-3.5-9.8-3.5h-7.2v41.8h7.2c4.2,0,7.2-1.1,9.2-3.2c1.9-2.1,2.9-5.8,2.9-11V616.2z"/>
		<path id="XMLID_94_" class="st0" d="M692.1,717.7h-14l-2-16.1h-17.4l-1.9,16.1H642l18.8-130h12.7L692.1,717.7z M674.5,688l-7.1-57
			l-7.2,57H674.5z"/>
		<path id="XMLID_92_" class="st0" d="M722,585.5c6.9,0,12.6,2.1,17.1,6.3c4.5,4.2,6.8,10.5,6.8,18.9v7.1l-13.8-3.1v-4
			c0-2.9-1-5.4-3-7.5c-2-2.1-4.3-3.1-7.1-3.1c-2.1,0-3.8,0.4-5.1,1.3c-1.3,0.9-2.4,2-3.1,3.4c-0.8,1.4-1.3,2.9-1.6,4.6
			c-0.3,1.7-0.4,3.5-0.4,5.2c0,2.6,0.5,5.4,1.6,8.2c1.1,2.8,2.5,5.6,4.2,8.4c1.7,2.8,3.5,5.5,5.5,8.1c2,2.6,3.8,5.1,5.5,7.5
			c2.2,3.1,4.4,6.3,6.6,9.6c2.2,3.3,4.2,6.7,5.9,10.2c1.7,3.5,3.1,7.1,4.2,10.9c1.1,3.8,1.6,7.7,1.6,11.8c0,4-0.4,7.8-1.3,11.5
			c-0.9,3.7-2.4,7-4.4,9.8c-2,2.8-4.7,5.1-7.9,6.7c-3.2,1.7-7,2.5-11.5,2.5c-3.7,0-6.9-0.7-9.8-2c-2.9-1.3-5.4-3.1-7.4-5.4
			c-2.1-2.3-3.7-4.9-4.8-8c-1.1-3-1.6-6.3-1.6-9.9v-7l13.8,3.1v3.8c0,3,1.1,5.5,3.2,7.6c2.1,2.1,4.6,3.2,7.3,3.2
			c3.7,0,6.4-1.2,8.2-3.6c1.8-2.4,2.7-5.3,2.7-8.9c0-2.9-0.2-5.4-0.5-7.6c-0.3-2.2-0.9-4.4-1.7-6.6c-1.3-3.4-2.8-6.7-4.5-9.8
			c-1.8-3.1-3.7-6.1-5.7-9.1c-2-3-4.1-5.9-6.3-8.9c-2.2-2.9-4.2-5.8-6.2-8.7c-3.1-4.6-5.6-9.2-7.5-13.6c-1.8-4.4-2.7-10-2.7-16.6
			c0-8,2-14.4,6.1-19.3C708.3,587.9,714.2,585.5,722,585.5z"/>
	</g>
	<path class="st0" d="M375.6,506.9h21.5c0.9-11.7-8.6-12.6-8.6-23.4c1.7-4.5,6-5.4,10.3-6.3c-6,9.9,14.6,22.6,4.3,29.8h6.9
		c0-2.7,0.9-5.4,4.3-4.5c1.7,0,2.6,1.8,2.6,4.5c0,0,0.9,0,1.7,0c0-1.8,1.7-2.7,2.6,0h247.1c0-167.7-0.9-342.6,0-496.7
		c-8.7-2.5-18-3.8-27.5-4.5l-44.6-0.1c-3.4,0.1-6.8,0.1-10.2,0.1c-31,0-65.3-0.3-99.4-0.4l-15.6,0l-30.3,100.5H573v301.1
		c-40.3,4.5-101.2-12.6-121.8,13.5c-9.4-0.9,4.3-9.9,4.3-13.5c-11.2,1.8-30.9-1.8-47.2,0c-3.4,7.2,6.9,0.9,4.3,9
		c-6.9-0.9-12,6.3-19.7,13.5c-17.2-1.8-1.7-16.2-4.3-20.8c-12-1.8-25.7-2.7-36.9-1.8c-0.7,0-1.3,0-1.9,0l-1.5,5
		c0.5,0.3,0.8,0.7,0.8,1.3c-0.4,0-0.8,0-1.2,0l-5.6,18.7c0.8-0.2,1.8-0.2,2.6-0.6c0,2.1-1.6,2-3.1,2.3l-4.2,13.9h3v4.5
		c3.4,0,5.1,0.9,6.9,2.7c0.9,3.6-10.3,2.7-6.9-2.7h-4.3l-10.3,34c3.5,0,5.3,1.8,6,4.7c6-3.6,10.3-9,12.9-16.2c2.6,0,3.4,3.6,6.9,2.7
		c-6-7.2,5.2-8.1,10.3-4.5c0,4.5-9.4,0-10.3,4.5c1.7,2.7,2.6,6.3,1.7,10.8c-4.3,3.6-12.9,1.8-10.3,11.7c-9.7,2.2-13.3-7.4-19.3-6.9
		l-4.3,14.1h53.5C373.1,505.1,374.8,504.2,375.6,506.9z M657.1,23.7c-0.8,2.7-4.3,2.7-4.3,0C654.5,21.9,657.1,21,657.1,23.7z
		 M657.1,30.9C657.9,23.7,666.5,32.7,657.1,30.9c0.9,1.8,0,4.5,2.6,4.5c-2.6,7.2-4.3-2.7-6.9-2.7C653.7,30.9,654.5,30,657.1,30.9z
		 M644.2,32.7c1.7,0.9,1.7,2.7,4.3,2.7c-0.9,1.8-2.6,1.8-2.6,4.5c-1.7-0.9-1.7-2.7-4.3-2.7C642.5,35.4,644.2,35.4,644.2,32.7z
		 M531.8,442.9c0.9,9-2.6,12.6-11.2,11.7c0,3.6-0.9,6.3-2.6,9c-7.7-2.7-15.4-4.5-17.2-13.5c9.4,2.7,11.2,3.6,19.7,4.5
		C513.8,445.6,524.9,437.5,531.8,442.9z M410,479c-0.9,0-1.7,0-1.7,0c-0.9,7.2-9.4-1.8,0,0c-0.9-2.7,0.9-4.5,1.7-6.3
		C413.4,472.7,411.7,477.2,410,479z M414.2,470c-9.4-0.9-2.6-9.9-6-13.5c1.7-6.3,11.2-4.5,6-13.5C424.6,448.3,418.5,462.7,414.2,470
		z M418.5,479c0-1.8,2.6-1.8,4.3-1.8C422.8,479,420.2,479,418.5,479z M425.4,440.2c-4.3,4.5-2.6,0-8.6,0v-4.5c6,0.9,4.3-3.6,8.6,0
		V440.2z M440,424.9h4.3c0,3.6,1.7,5.4,5.1,6.3c-2.6,7.2-6-2.7-11.2,0C437.4,427.6,440,427.6,440,424.9z M438.3,481.7
		C438.3,479,441.7,479.9,438.3,481.7C438.3,484.4,434.8,482.6,438.3,481.7z M434,481.7c-3.4-1.8-6.9-3.6-6.9-9
		C433.1,471.7,434.8,475.4,434,481.7z M427.1,408.6h4.3v4.5h-4.3V408.6z M410,417.7c11.2-4.5,8.6,2.7,19.7,2.7
		c-2.6,7.2,0,4.5,0,13.5c-4.3-0.9-5.1-4.5-4.3-9c-2.6,2.7-10.3,2.7-12.9,0c-5.2-0.9,0.9,9.9-6.9,6.3
		C404.8,424.9,410.8,424.9,410,417.7z M403.1,424.9c0,2.7-4.3,1.8-4.3,0C401.4,423.1,403.1,422.2,403.1,424.9z M403.1,438.4
		c7.7-1.8,3.4,7.2,9.4,6.3c-0.9,2.7-3.4,2.7-6.9,2.7c0,9.9-8.6,0.9,0,0C405.7,443.8,404.8,440.2,403.1,438.4
		c-2.6,0.9-3.4,2.7-8.6,1.8C390.2,432.1,405.7,430.3,403.1,438.4z M398.8,444.7C398.8,453.7,389.4,444.7,398.8,444.7
		C398.8,442,402.2,443.8,398.8,444.7z M392.8,459.1c4.3,3.6,2.6-0.9,8.6,0v6.3C399.7,461.8,391.1,466.3,392.8,459.1
		C385.9,456.4,395.4,446.5,392.8,459.1z M377.4,479c0-1.8,2.6-1.8,4.3-1.8C381.6,479,379.1,479,377.4,479z M388.5,495.2
		c-0.9,2.7-4.3,1.8-6.9,2.7C382.5,495.2,385.9,495.2,388.5,495.2z M385.9,481.7c0,2.7-4.3,1.8-4.3,0
		C383.4,479.9,385.9,479,385.9,481.7z M381.6,426.7C384.2,426.7,383.4,430.3,381.6,426.7c-1.7,0-2.6-1.8-1.7-4.5c-6.9,0,1.7-9,0,0
		C381.6,423.1,382.5,424,381.6,426.7z M375.6,411.3h4.3v4.5h-4.3V411.3z M361.9,413.2v4.5c-4.3,0.9-3.4-2.7-4.3-6.3
		C359.3,411.3,360.2,413.2,361.9,413.2z M355.9,459.1c0-2.7,2.6-1.8,4.3-2.7C360.2,459.1,357.6,458.2,355.9,459.1z M361.9,447.4
		C361.9,456.4,352.5,447.4,361.9,447.4C360.2,437.5,368.8,446.5,361.9,447.4z M368.8,456.4c-4.3,0.9-4.3-3.6-4.3-6.3
		c1.7,0,2.6,1.8,4.3,1.8V456.4z M357.6,438.4c-6.9-6.3,6-9,0-16.2c5.2,2.7,8.6,6.3,11.2,11.7C363.6,433,360.2,434.8,357.6,438.4z"/>
	<path class="st0" d="M339.5,2.8c0.7,9.2,8.6,10.7,8.6,20.6c-1.7,4.5-6,5.4-10.3,6.3c5.3-8.8-10.3-19.8-6.7-27.1l-4.8-0.1
		c-0.5,1.6-1.6,2.6-4,2c-1.1,0-1.9-0.8-2.3-2.1L212.8,0H68.4c0,167.7,0.9,342.6,0,496.7c24.9,7.2,54,4.5,82.4,4.5
		c35.8,0,75.9,0.4,115.1,0.5l30.3-100.5H163.6V100.1c40.3-4.5,101.2,12.6,121.8-13.5c9.4,0.9-4.3,9.9-4.3,13.5
		c11.2-1.8,30.9,1.8,47.2,0c3.4-7.2-6.9-0.9-4.3-9c6.9,0.9,12-6.3,19.7-13.5c17.2,1.8,1.7,16.2,4.3,20.8c12,1.8,25.7,2.7,36.9,1.8
		c0.7,0,1.4,0,2,0l1.5-5c-0.6-0.3-0.9-0.7-0.9-1.4c0.4,0,0.9,0,1.4,0l5.6-18.7c-0.8,0.2-1.9,0.2-2.7,0.7c0-2.2,1.7-2,3.2-2.4
		l4.2-13.9h-3.1V55c-3.4,0-5.1-0.9-6.9-2.7c-0.9-3.6,10.3-2.7,6.9,2.7h4.5l10.3-34c-3.6,0-5.5-1.7-6.2-4.7c-6,3.6-10.3,9-12.9,16.2
		c-2.6,0-3.4-3.6-6.9-2.7c6,7.2-5.2,8.1-10.3,4.5c0-4.5,9.4,0,10.3-4.5c-1.7-2.7-2.6-6.3-1.7-10.8c4.3-3.6,12.9-1.8,10.3-11.7
		c9.8-2.2,13.3,7.6,19.4,6.9l2.9-9.6L339.5,2.8z M79.5,483.2c0.8-2.7,4.3-2.7,4.3,0C82.1,485,79.5,485.9,79.5,483.2z M79.5,476
		C78.6,483.2,70.1,474.2,79.5,476c-0.9-1.8,0-4.5-2.6-4.5c2.6-7.2,4.3,2.7,6.9,2.7C82.9,476,82.1,476.9,79.5,476z M92.4,474.2
		c-1.7-0.9-1.7-2.7-4.3-2.7c0.9-1.8,2.6-1.8,2.6-4.5c1.7,0.9,1.7,2.7,4.3,2.7C94.1,471.5,92.4,471.5,92.4,474.2z M204.8,64
		c-0.9-9,2.6-12.6,11.2-11.8c0-3.6,0.9-6.3,2.6-9c7.7,2.7,15.4,4.5,17.2,13.5c-9.4-2.7-11.2-3.6-19.7-4.5
		C222.8,61.3,211.6,69.4,204.8,64z M326.6,28c0.9,0,1.7,0,1.7,0c0.9-7.2,9.4,1.8,0,0c0.9,2.7-0.9,4.5-1.7,6.3
		C323.2,34.3,324.9,29.8,326.6,28z M322.3,37c9.4,0.9,2.6,9.9,6,13.5c-1.7,6.3-11.2,4.5-6,13.5C312,58.6,318,44.2,322.3,37z M318,28
		c0,1.8-2.6,1.8-4.3,1.8C313.8,28,316.4,28,318,28z M311.2,66.7c4.3-4.5,2.6,0,8.6,0v4.5c-6-0.9-4.3,3.6-8.6,0V66.7z M296.6,82h-4.3
		c0-3.6-1.7-5.4-5.1-6.3c2.6-7.2,6,2.7,11.2,0C299.2,79.3,296.6,79.3,296.6,82z M298.3,25.2C298.3,28,294.9,27,298.3,25.2
		C298.3,22.5,301.7,24.3,298.3,25.2z M302.6,25.2c3.4,1.8,6.9,3.6,6.9,9C303.5,35.2,301.7,31.6,302.6,25.2z M309.5,98.3h-4.3v-4.5
		h4.3V98.3z M326.6,89.3c-11.2,4.5-8.6-2.7-19.7-2.7c2.6-7.2,0-4.5,0-13.5c4.3,0.9,5.1,4.5,4.3,9c2.6-2.7,10.3-2.7,12.9,0
		c5.2,0.9-0.9-9.9,6.9-6.3C331.8,82,325.8,82,326.6,89.3z M333.5,82c0-2.7,4.3-1.8,4.3,0C335.2,83.8,333.5,84.7,333.5,82z
		 M333.5,68.5c-7.7,1.8-3.4-7.2-9.4-6.3c0.9-2.7,3.4-2.7,6.9-2.7c0-9.9,8.6-0.9,0,0C330.9,63.1,331.8,66.7,333.5,68.5
		c2.6-0.9,3.4-2.7,8.6-1.8C346.4,74.8,330.9,76.6,333.5,68.5z M337.8,62.2C337.8,53.2,347.2,62.2,337.8,62.2
		C337.8,64.9,334.4,63.1,337.8,62.2z M343.8,47.8c-4.3-3.6-2.6,0.9-8.6,0v-6.3C336.9,45.1,345.5,40.6,343.8,47.8
		C350.7,50.5,341.2,60.4,343.8,47.8z M367.8,50.5c4.3-0.9,4.3,3.6,4.3,6.3c-1.7,0-2.6-1.8-4.3-1.8V50.5z M359.2,28
		c0,1.8-2.6,1.8-4.3,1.8C355,28,357.5,28,359.2,28z M348.1,11.7c0.9-2.7,4.3-1.8,6.9-2.7C354.1,11.7,350.7,11.7,348.1,11.7z
		 M350.7,25.2c0-2.7,4.3-1.8,4.3,0C353.2,27,350.7,28,350.7,25.2z M355,80.3C352.4,80.3,353.2,76.6,355,80.3c1.7,0,2.6,1.8,1.7,4.5
		c6.9,0-1.7,9,0,0C355,83.8,354.1,82.9,355,80.3z M361,95.6h-4.3V91h4.3V95.6z M374.7,93.8v-4.5c4.3-0.9,3.4,2.7,4.3,6.3
		C377.3,95.6,376.4,93.8,374.7,93.8z M379,84.7c-5.2-2.7-8.6-6.3-11.2-11.7c5.1,0.9,8.6-0.9,11.2-4.5C385.9,74.8,373,77.5,379,84.7z
		 M380.7,47.8c0,2.7-2.6,1.8-4.3,2.7C376.4,47.8,379,48.7,380.7,47.8z M374.7,59.5C376.4,69.4,367.8,60.4,374.7,59.5
		C374.7,50.5,384.1,59.5,374.7,59.5z"/>
</g>
</svg>
