<?xml version="1.0" encoding="utf-8"?>
<!-- Generator: Adobe Illustrator 21.1.0, SVG Export Plug-In . SVG Version: 6.00 Build 0)  -->
<svg version="1.1" id="Capa_1" xmlns="http://www.w3.org/2000/svg" xmlns:xlink="http://www.w3.org/1999/xlink" x="0px" y="0px"
	 viewBox="0 0 644.4 720" style="enable-background:new 0 0 644.4 720;" xml:space="preserve">
<style type="text/css">
	.st0{fill:#4D4D4D;}
	.st1{fill:#747474;}
</style>
<g>
	<path class="st0" d="M402.7,176.5c-8.9,1.4-16.2,6.3-23.2,11.6c1.1-4.5,1.7-9,1-13.7c-1.4-9.9-6.6-17.3-13.9-23.6
		c-16.3-14-35.1-22.7-56.5-25c-19.7-2.2-37.2,2.8-51.4,17c-13.2,13.2-20.2,29.7-23.8,47.7c-6.1,30.1,5.9,57.3,32,73
		c14.2,8.5,29.7,12.7,46.1,13.6c5.1,0.3,10.1,0,15.3,0c0,1.4-0.9,1.8-1.6,2.4c-15.6,13.5-33,24-53,29.6c-15.3,4.2-30.8,5-45.9-0.2
		c-30.8-10.6-50.6-32.1-60.9-62.7c-0.6-1.9-0.3-3.3,1-4.7c3.6-4.1,7.8-6,13.3-5c5.6,1,8.1,0,10.7-4.6c-4.5,3.1-8.7,3.3-13.1,1.2
		c-0.7-0.3-1.6-0.2-2.3-0.3c-3.3-0.6-6.6-0.4-9.8,0c-2.5,0.3-4.1-0.1-4.2-3c0-0.8-0.4-1.5-0.5-2.3c-4.4-20.4-5.2-41-3.1-61.7
		c1.5-14.4,4.6-28.6,9.7-42.2c0.7-2,1.7-3.3,3.9-3.9c5.6-1.5,10.4-0.4,14.7,3.5c1.5,1.3,2.9,2.7,4.7,3.6c2.9,1.5,5.7,1.6,9-0.4
		c-1.9-0.4-3.5-0.6-5-1c-2.2-0.6-4.4-1.3-5.6-3.3c-2.8-4.5-7.1-7.3-11.5-10c-4.2-2.5-4.3-2.5-1.9-6.8c9.5-17.1,21.3-32.3,35.8-45.4
		c15.4-13.8,32.6-24.4,52.2-31.2c5.4-1.9,6.7-1.2,8.2,4.4c0.5,1.9,0.6,3.9-0.1,5.8c-0.8,2.1-1.7,4.2-2.3,6.3c-1,3.5-0.7,6.8,2.7,9
		c0.2,0.2,0.5,0.5,0.5,0.5c0.5-0.4,0.2-0.6-0.2-0.8c-1.3-4.9-0.6-9.3,2.8-13.2c1-1.2,1.4-3.1,1.8-4.7c0.8-3.2,1.5-6.4,2-9.7
		c0.3-1.7,0.9-2.6,2.6-2.9c5.1-0.8,10.1-1.8,15.2-2.4c15.4-1.9,30.7-1.4,46,0.8c22,3.2,43.2,9.4,63.3,19c1.9,0.9,2.2,1.9,1.6,3.7
		c-1.9,6.3-6.1,10.3-12.3,12.2c-2.8,0.8-5.6,1.6-7.9,3.5c-2.9,2.4-4.1,5.2-3.4,8.6c0.8-0.2,0.9-0.9,1.3-1.4c2.9-4.3,6.6-7,12.1-7
		c2.4,0,4.7-0.9,6.9-1.7c5.2-1.9,10-4.6,14.7-7.6c2-1.3,3.5-1.4,5.6-0.1c7.3,4.8,14.3,9.9,20.7,15.8c2.8,2.6,5.6,5.1,7.7,8.4
		c-6.3,8.6-14.7,12.2-25,11.9c-4.4-0.2-8.8,0-12.6,2.4c-2.7,1.7-5.6,3.5-5.9,7.3c-0.5,0-0.7,0.2-0.3,0.6c0.1-0.2,0.2-0.4,0.4-0.6
		c2.1-1.3,4.2-2.7,6.4-3.8c3.9-1.9,7.9-2.9,12.2-1.6c2.8,0.8,5.7,0.9,8.6,1c7.8,0.1,15.5-1.3,23-2.9c2.2-0.5,3,0.1,3.9,1.9
		c6.6,13.3,9.9,27.4,9.9,42.2c0,2.2-0.8,3.3-2.8,4.2c-5.4,2.3-10.9,3.8-16.8,4.1c-6.3,0.3-12.3-0.9-18.2-3
		c-7.5-2.7-15.1-3.3-22.6,0.1c-1.5,0.7-3.4,1.2-4.3,3.4c2.1-0.4,3.7-0.8,5.4-1c6.6-0.7,13.2-1.3,19.4,1.7c6.3,3.1,13,4.9,19.9,6.1
		c5.8,1.1,11.6,1.9,17.4,2.8c0.4,1.4,0,2.5-0.3,3.7c-2,7.5-4.6,14.8-8,21.8c-5.2,10.6-6.5,11.4-18.4,10.3c-0.7-0.1-1.3-0.2-2-0.3
		c-6.5-1.1-12.3-3.6-17.8-7.1C418.7,175.6,411.1,172.8,402.7,176.5z"/>
	<path class="st1" d="M197.4,546.4c27-6.7,54.1-10.7,82.4-11c-2.8,7-5.4,13.4-7.9,19.8c-0.6,1.4-2,1.6-3.2,2.1
		c-8.8,3.8-17.6,7.6-26.5,11.5c-1.3,0.6-2.7,0.9-4.2,2.4c5.6-0.7,10.7-1.2,15.8-1.9c1.4-0.2,2.9-0.2,4.3-0.6
		c7.1-2.3,12.3,0.8,17.7,5.2c12.6,10.4,25.6,20.3,38.6,30.2c2.3,1.8,3.4,3.7,3.7,6.5c1.1,9.9,2.3,19.9,3.5,29.8
		c0.2,1.3,0.6,2.5,1,4.4c1.2-12.3,2.5-23.9,3.6-35.6c0.2-1.7,0.8-2.9,2.1-4c15.5-12,31-24,46.5-36.1c1.5-1.2,3-1.4,4.8-1.2
		c8.7,1.2,17.5,2.2,26.7,3.4c-1-1.2-2-1.5-3-1.9c-9.3-4.1-18.5-8.2-27.9-12.2c-1.9-0.8-2.9-1.9-3.6-3.8c-2.1-5.8-4.3-11.5-6.8-18
		c28.1,3,55.6,4.6,82.4,11.2c0.3,1.8-0.8,2.3-1.5,3c-7.1,7.8-14.2,15.6-21.4,23.3c-1.8,1.9-2.3,3.7-1.5,6.3
		c4.6,15.2,6.9,30.8,5.9,46.8c-0.2,2.5-0.5,4.9-0.7,7.6c4.3,0.4,8.4,0,12.4-0.2c5.7-0.2,11.3-0.6,17-0.7c2.8,0,4.3-1.1,5.6-3.4
		c7.5-12.9,11.9-27,14.7-41.5c2-10.1,3.2-20.3,3.4-30.6c0-1.3-0.2-2.6,0.9-4c3.1,0.4,6.3,0.8,9.6,1.2c2.2,0.2,1.9,1.8,1.9,3.2
		c0.2,8.8-1.2,17.3-3.1,25.8c-9.1,38.6-27.1,72.1-57.2,98.4c-24,21-52.3,32.6-83.9,36.4c-30.1,3.6-59.7,1.5-88.4-8.7
		c-37.8-13.3-66.4-38-86.4-72.6c-14.1-24.4-22.2-50.8-23.6-79.1c-0.1-2.9,0.6-4.3,3.5-4.8c3.2-0.5,6.4-1.4,9.5-2.2
		c1.2,1,0.6,2.1,0.6,3c-0.4,17.5,1.2,34.7,6.4,51.5c2.7,8.7,6.5,16.9,11.9,24.4c1.4,2,3.1,2.8,5.6,2.9c8.7,0.3,17.4,0.9,26,1.4
		c0.9,0,1.8,0.3,2.9-0.4c-0.1-5.7-0.1-11.6,0.1-17.5c0.5-12.8,1.4-25.5,5.3-37.8c0.7-2.2-0.5-3.2-1.6-4.4
		c-7.4-8.2-14.8-16.5-22.1-24.7C198.6,548.7,197.8,548,197.4,546.4z M417.2,647.1c0.3-0.3,0.5-0.5,0.8-0.8l0.1-0.1l-0.1,0.2
		C417.6,646.5,417.3,646.6,417.2,647.1c-0.5,0-0.9,0.2-0.8,0.8c-1.8-0.1-2.7,1.4-3.9,2.3c-13,9.9-27,17.8-42.8,22.4
		c-2.2,0.6-4,0.6-6.1-0.2c-12.8-4.7-25.7-9.3-38.6-14.1c-2-0.7-3.7-0.7-5.6,0c-12.8,4.7-25.7,9.3-38.6,14c-2.1,0.8-4,0.9-6.1,0.2
		c-14.7-4.3-28-11.5-40.3-20.5c-2.5-1.8-4.8-3.8-7.3-5.7c0,0.7,0.2,1.2,0.6,1.5c12.6,14,26.9,26,43.2,35.4c1.4,0.8,2.7,1.5,3.6,3
		c4.5,7.8,10.4,14.5,16.2,21.4c1.4,1.6,2.9,2.4,5,2.5c17.6,0.9,35.3,0.9,52.9,0c2-0.1,3.5-0.7,4.8-2.2c5.8-6.8,11.7-13.6,16.3-21.3
		c0.8-1.3,1.8-2.2,3.1-2.9c9.2-5.2,17.8-11.3,25.8-18.2c6.3-5.5,12.7-11,17.8-17.8C416.8,647.8,417.1,647.6,417.2,647.1z"/>
	<path class="st1" d="M410.8,96.7c0.3-3.8,3.1-5.6,5.9-7.3c3.8-2.4,8.2-2.5,12.6-2.4c10.3,0.4,18.8-3.3,25-11.9
		c-2.1-3.4-5-5.9-7.7-8.4c-6.4-5.9-13.4-11-20.7-15.8c-2.1-1.4-3.6-1.2-5.6,0.1c-4.6,3-9.5,5.7-14.7,7.6c-2.2,0.8-4.5,1.7-6.9,1.7
		c-5.4,0-9.2,2.7-12.1,7c-0.4,0.5-0.5,1.2-1.3,1.4c-0.7-3.4,0.4-6.2,3.4-8.6c2.3-1.9,5.1-2.7,7.9-3.5c6.3-1.9,10.4-5.9,12.3-12.2
		c0.6-1.8,0.2-2.8-1.6-3.7c-20.1-9.6-41.2-15.8-63.3-19c-15.3-2.2-30.7-2.7-46-0.8c-5.1,0.6-10.1,1.7-15.2,2.4
		c-1.7,0.3-2.4,1.2-2.6,2.9c-0.5,3.2-1.2,6.5-2,9.7c-0.4,1.6-0.8,3.5-1.8,4.7c-3.4,4-4.1,8.3-2.8,13.2c-0.1,0.1-0.2,0.2-0.3,0.3
		c-3.4-2.2-3.7-5.5-2.7-9c0.6-2.1,1.5-4.2,2.3-6.3c0.7-1.9,0.6-3.9,0.1-5.8c-1.4-5.6-2.7-6.3-8.2-4.4c-19.6,6.7-36.9,17.4-52.2,31.2
		C198,72.8,186.1,88,176.7,105.1c-2.4,4.3-2.3,4.3,1.9,6.8c4.4,2.7,8.7,5.4,11.5,10c1.3,2,3.5,2.8,5.6,3.3c1.5,0.4,3,0.6,5,1
		c-3.2,2-6.1,1.9-9,0.4c-1.7-0.9-3.2-2.3-4.7-3.6c-4.2-3.8-9.1-5-14.7-3.5c-2.2,0.6-3.2,1.9-3.9,3.9c-5.1,13.7-8.2,27.8-9.7,42.2
		c-2.1,20.7-1.3,41.3,3.1,61.7c0.2,0.8,0.5,1.5,0.5,2.3c0.1,2.9,1.7,3.4,4.2,3c3.3-0.4,6.5-0.6,9.8,0c0.8,0.1,1.7,0,2.3,0.3
		c4.3,2.1,8.5,1.9,13.1-1.2c-2.6,4.6-5.1,5.6-10.7,4.6c-5.5-1-9.8,0.9-13.3,5c-1.2,1.4-1.6,2.8-1,4.7c10.3,30.6,30.1,52.1,60.9,62.7
		c15.1,5.2,30.6,4.5,45.9,0.2c20.1-5.5,37.4-16.1,53-29.6c0.6-0.6,1.6-1,1.6-2.4c-5.1,0-10.2,0.2-15.3,0
		c-16.4-0.9-31.9-5.1-46.1-13.6c-26.1-15.7-38.1-42.9-32-73c3.7-18,10.7-34.5,23.8-47.7c14.2-14.2,31.7-19.2,51.4-17
		c21.5,2.4,40.2,11,56.5,25c7.3,6.3,12.5,13.8,13.9,23.6c0.6,4.7,0.1,9.2-1,13.7c-4.7,7.8-6.9,10.1-11.1,11.6
		c4.9-20.7-13.1-44.9-31.7-53c-14.5-6.3-29.8-8.8-45.5-6.2c-13.7,2.3-24.5,9.5-31.6,21.5c-9.6,16.3-13,34.2-11.3,52.8
		c1.5,16.1,10.7,27.9,24.2,36.5c11.7,7.5,24.8,11.4,38.3,14.1c3.4,0.7,6.8,0.9,10.1,1.7c3.4,0.8,6.5,0.3,9.2-1.9
		c0.1,2.4,1.3,3.3,3.8,3.2c3.4-0.2,6.8,0,10,0c0.5,1.6-0.3,2.3-0.7,3.1c-3.7,6.7-8.1,13-13.1,18.7c-1.5,1.7-1.6,3-0.7,4.9
		c2.4,5.3,6,9.5,10.4,13.2c12.2,10.2,25,19.7,37.6,29.4c12,9.2,24.2,18.2,35.2,28.6c2.1,2,4.3,3.9,5.6,6.6
		c5,10.7,12.8,19.2,21.9,26.5c3.1,2.5,6.3,5.2,10.4,6.1c6.9,3.3,14.2,3.5,21.6,2.9c12.1-1.1,21.9-7,30.2-15.5
		c3.5-3.6,5.2-7.7,5.7-12.6c2.6-26.6-0.8-52.2-10.8-77c-4.2-10.4-8.3-20.8-12.4-31.2c-1.6-4.2-0.2-8,2.1-11.5
		c4.6-7.1,5.4-14.6,2.6-22.5c-2.8-8-6.5-15.4-13.3-20.8l0.1,0.1c0-1.2-1-1.7-1.7-2.4l0.1,0.1c-0.2-0.2-0.5-0.5-0.7-0.7
		c-1.5-1.6-3-3.2-4.6-4.8c0.2-0.2,0.3-0.4,0.5-0.6c1.8,1.4,3.6,2.8,5.3,4.2c9.3,7.5,17.3,16.1,22.6,27c3.7,7.7,4.3,15.3-0.4,22.2
		c-4.5,6.5-3.4,12.3-0.8,18.8c4.1,10.1,8,20.4,11.5,30.7c7.3,21.5,10.7,43.6,9.5,66.4c-0.9,16.5-9.2,27.6-24.1,34
		c-12,5.2-24.5,7.1-37.4,4.5c-4.5-0.9-8.5-2.7-12.3-5.2c-9.2-6.3-17.8-13.3-24.3-22.4c-5.9-8.1-13.2-14.6-20.8-20.9
		c-14-11.4-27.9-22.9-41.8-34.4c-2-1.7-4.3-3-6.6-4.3c-3.3-1.7-6.5-3.5-9.7-5.3c-11.4-6.3-15.7-10.3-22.8-21c-1.8,0.5-3,2-4.4,3
		c-18.7,14.3-39.7,21.7-63.2,20.8c-31.2-1.3-56.3-15.2-75.8-39.2c-15.4-19-24.1-41-28.3-64.8c-5.4-30.6-5-61.2,2.9-91.3
		c11.7-44.6,36.7-80.1,75.8-105.1c21.9-14,46-22.1,71.8-24.8c40.9-4.3,80.4,1.8,118.2,18c24.6,10.6,44.5,27,57.2,51.2
		c10.1,19.1,13.6,39.7,13.2,61.1c-0.4,21.5-4.6,42.3-11.9,62.6c-2,5.5-4,6.9-10,6.9c-8.1,0.1-15.5-2.8-22.6-6.3
		c-4.4-2.2-8.8-4.4-12.3-7.8c-7.3-6.9-16-9.9-25.7-10.6c8.5-3.6,16-0.8,23.1,3.7c5.5,3.5,11.3,6.1,17.8,7.1c0.6,0.1,1.3,0.2,2,0.3
		c11.9,1.1,13.2,0.4,18.4-10.3c3.4-7,6-14.3,8-21.8c0.3-1.1,0.7-2.3,0.3-3.7c-5.8-0.9-11.6-1.7-17.4-2.8c-6.9-1.2-13.6-3-19.9-6.1
		c-6.1-3-12.8-2.4-19.4-1.7c-1.7,0.2-3.3,0.6-5.4,1c1-2.1,2.8-2.7,4.3-3.4c7.5-3.4,15.1-2.7,22.6-0.1c5.9,2.1,11.9,3.3,18.2,3
		c5.9-0.3,11.4-1.7,16.8-4.1c2-0.9,2.7-2,2.8-4.2c0-14.9-3.2-28.9-9.9-42.2c-0.9-1.8-1.7-2.4-3.9-1.9c-7.6,1.6-15.2,3-23,2.9
		c-2.9,0-5.8-0.1-8.6-1c-4.3-1.2-8.4-0.3-12.2,1.6C415,94.1,413,95.5,410.8,96.7L410.8,96.7z"/>
	<path class="st0" d="M425.4,405.1c-2.1,0-3.3,0-4.6,0c-121.2,0-242.5,0-363.7-0.1c-3.1,0-5,0.8-6.7,3.5
		c-14.1,22.2-26.4,45.3-33.5,70.8c-6.7,23.9-8.7,47.9-1.3,72c2.5,8.2,6.2,15.9,11.5,23c13.7-5.4,27.4-10.5,41.2-15
		c45.1-14.8,91.2-25.9,138.1-33.3c39.1-6.2,78.4-10.3,118-10.4c25.6,0,51,2.2,76.4,5.2c30,3.5,59.7,8.4,89.2,14.9
		c43.2,9.6,85.7,21.8,126.8,38.4c0.1,0,0.3,0,0.8,0c4.1-5,7-11,9.4-17.3c7.8-20.4,8.1-41.4,4.1-62.6c-5.5-29.3-18.6-55.4-33.8-80.8
		c-3.9-6.5-8.1-8.6-15.6-8.4c-21.6,0.6-43.2,0.2-64.8,0.2c-1.1,0-2.3,0-4.3,0c3.4-3.2,5.6-6.4,7.1-10c0.9-2.1,2.6-1.4,4.1-1.4
		c17.9,0,35.8,0,53.8,0c5.7,0,11.3,0.1,17,0c1.9,0,3.2,0.5,4.2,2.1c18,27.1,33.3,55.6,41,87.5c4.9,20.3,6.4,40.8,2,61.5
		c-3.2,14.6-8.7,28.2-18.6,39.6c-3.2,3.7-3.3,3.6-7.9,1.8c-48.4-19-98-33.9-149-44.3c-40.2-8.2-80.8-13.3-121.8-15.4
		c-25.9-1.3-51.6,0-77.3,2.3c-28.5,2.5-56.8,6.7-84.8,12.3c-52.8,10.5-104.2,25.8-154.3,45.6c-2.4,1-3.9,0.9-5.8-1.1
		c-9.5-10.2-15-22.5-18.5-35.8c-6.4-24.5-4.3-48.9,2.5-73c8.2-29.4,22.5-55.8,39.4-81c1.1-1.7,2.3-2.3,4.2-2.1c1.2,0.1,2.4,0,3.6,0
		c119.5,0,239.1,0,358.6-0.1c2.9,0,4.9,0.7,6.6,3.2C420.4,399.5,422.7,401.9,425.4,405.1z"/>
	<path class="st1" d="M299.4,385.5c4.7,0.3,9.4,0.7,14.1,1c0,0.2,0,0.3,0,0.5c-87.1,0-174.2,0-261.3,0
		c7.4-18.9,83.2-93.2,109.7-107.4c5.3,8.9,11.9,16.9,19.7,23.8c-0.2,0.5-0.3,1-0.5,1.5c-4.5,14.2-4.2,27.8,5.2,40.1
		c3.7,4.9,8.1,9,13.1,12.5c13.6,9.5,28.9,15,44.7,19.1C262.3,381.3,280.6,384.7,299.4,385.5z"/>
	<path class="st0" d="M155.3,464.3c-5.7,6-11.4,12-17.2,18c-0.8,0.8-1.5,2.1-2.9,1.6c-1.4-0.5-1-2-1.2-3.1c-0.8-5.3-1.7-10.7-2.5-16
		c-1.4-0.1-1.3,1.1-1.6,1.8c-3.7,9-7.1,18.1-11,27.1c-1.4,3.2-1.5,5.9,0.8,8.6c0.6,0.6,1.3,1.4,1.1,2.7c-17.6,0-35.3,0-53.4,0
		c2.5-6.3,4.9-12.2,7.2-18.2c6.6-16.5,13.2-33,19.7-49.5c0.8-2.1,1.9-3,4.3-3c5.5,0.2,11,0.1,16.5,0.1c0.4,1.8-0.6,3.1-1.1,4.4
		c-7.3,18.3-14.5,36.7-22.1,54.9c-1.8,4.4-0.7,7.1,2.3,10.2c5.1-12.8,10.2-25.3,15.2-37.9c3.8-9.5,7.7-19,11.4-28.6
		c0.9-2.3,2.1-3.2,4.6-3.1c4.3,0.2,8.7,0.2,13,0c2.4-0.1,3.2,0.7,3.5,3c0.8,6.4,1.8,12.7,2.9,19.5c3-2.1,5-4.5,7.1-6.7
		c4.6-4.6,9.1-9.2,13.5-13.9c1.5-1.6,3-2.1,5.2-2c5.5,0.2,11,0.1,16.5,0.1c0.7,1.3-0.1,2.2-0.5,3.1c-7.3,18.3-14.5,36.7-22.1,54.9
		c-1.9,4.6-2.1,8.2,1.9,11.6c1.1-0.1,1.4-1.3,1.9-2.1c15.1-21.6,30.2-43.1,45.2-64.8c1.5-2.2,3.1-3,5.8-3c7.1,0.2,14.1,0.1,21,0.1
		c0.6,1.3-0.1,1.7-0.4,2.2c-6.3,8.2-6.4,15.9,0,24.1c2,2.5,2.3,4.7,1.7,7.8c-2.3,12.1-7.1,23.4-11.7,34.7c-0.5,1.3-1.1,2.3-2.8,2.2
		c-4.6-0.1-9.2,0-14.5,0c3.8-17.2,7.5-34.1,11.2-50.9c-0.3-0.1-0.5-0.3-0.8-0.4c-5.1,6.9-10.2,13.8-15.4,20.8
		c2.8,1.1,5.2-0.3,7.7,0.5c-0.2,2.5-1.3,4.7-1.9,7.1c-0.3,1.5-1.4,1.7-2.7,1.7c-2-0.1-4,0.2-5.9-0.1c-2.8-0.5-4.4,0.7-5.7,3
		c-1.6,2.9-3.3,5.7-5.2,8.4c-1.5,2-1.7,3.6,0,5.5c0.9,1.1,1.5,2.4,2.5,4c-19.1,0-37.8,0-57,0c1.5-3.8,2.9-7.4,4.4-11
		c3.6-9,7.3-18.1,10.9-27.1C155.2,466,155.9,465.2,155.3,464.3C155.2,464.3,155.3,464.3,155.3,464.3z"/>
	<path class="st0" d="M449.5,505c-2.4-13.6-4.7-27-7.1-40.5c-1.4,0.4-1.4,1.7-1.8,2.6c-3.6,8.9-7,17.9-10.8,26.7
		c-1.4,3.3-1.5,5.9,0.8,8.6c0.6,0.7,1.2,1.4,1.2,2.6c-8.6,0-17.2,0-25.9,0c-0.8-0.9,0.1-1.7,0.4-2.5c8.6-21.6,17.3-43.3,25.9-64.9
		c1-2.5,2.2-3.4,4.9-3.2c5.4,0.2,10.8,0.1,16.6,0.1c2.6,12.7,5.2,25.4,7.9,38.2c1.5-0.3,1.4-1.5,1.8-2.4
		c4.4-10.9,8.9-21.7,13.1-32.6c1-2.6,2.3-3.3,4.9-3.2c5.4,0.2,10.8,0.1,16.1,0.1c0.2,1.7-0.6,2.8-1.1,4
		c-7.2,18.1-14.3,36.2-21.9,54.2c-1.9,4.5-2,7.9,1.8,11.3c1.3-0.8,1.3-2.3,1.8-3.6c8.3-20.7,16.6-41.3,24.7-62c1.2-3,2.7-4,6-4
		c12.6,0.2,25.3,0.1,38,0.1c1.3,0,2.6-0.3,4.2,0.5c-2.1,5.2-4.2,10.4-6.4,15.6c-0.7,1.7-2.2,1.2-3.4,1.2c-6.9,0-13.7,0.1-20.6,0
		c-2,0-3.2,0.4-3.8,2.4c-0.8,2.6-2,5.1-3.2,8.1c7.2,0,13.9,0,21.6,0c-1.8,4.4-3.3,8.2-4.9,12.1c-0.6,1.5-2,1-3.1,1
		c-5.4,0-10.8,0.1-16.2,0c-2,0-3.1,0.6-3.7,2.5c-1.2,3.6-2.7,7.1-4.3,11.1c11,0,21.6,0,32.7,0c-1,2.1-2.7,2.9-4,3.6
		c-4,2.2-6.7,5.3-7.7,9.9c-0.5,2.1-1.6,2.9-3.9,2.9c-23.1-0.1-46.1-0.1-69.2-0.1C450.5,505.3,450.3,505.2,449.5,505z"/>
	<path class="st0" d="M312.6,444.4c-9.9,1.6-12.3,4.1-13.1,14c-0.1,0.8-0.1,1.5-0.2,2.4c-7.1-6.2-8.1-15.1-2.3-22.1
		c4.9-5.9,11.1-10,18.8-11.5c9.7-1.9,19.4-1.9,28.9,1.2c12,3.9,16,11.4,16.8,24.8c0.1,1.2-0.5,2.3-0.9,3.4
		c-1.7,4.1-3.7,8.2-4.9,12.5c-1.8,6.3-6.2,10.2-11.6,13.2c-1.1,0.6-2.3,1.3-3.6,2c0.7,3.7,2.1,7.1,3.2,10.6
		c1.1,3.3,2.2,6.7,3.5,10.6c-5.1,0-9.6,0-14.2,0c-1.9,0-2-1.4-2.4-2.6c-1.8-5.2-3.5-10.5-5.2-15.7c-0.5-1.6-0.8-3.3-3.3-3.1
		c-2.1,0.2-4.2-0.3-4.9,2.7c-0.6,2.4-1.6,4.8-2.8,6.9c-1.8,3.3-1.8,6.1,0.8,9c0.6,0.6,1.3,1.3,1.2,2.6c-8.7,0-17.4,0-26.6,0
		c3-7.5,5.9-14.7,8.7-21.8c5-12.7,10-25.4,15-38.2c0-0.3,0.1-0.7,0-0.9C313.1,443.9,312.8,444.1,312.6,444.4z M323.6,470.8
		c3,0,5.4-0.1,7.7,0c3.4,0.2,5.8-1.3,7.8-3.8c2.5-3,3.5-6.7,3.9-10.5c0.2-2.2-0.5-4.3-2.7-4.6c-3.1-0.3-6.4-1.1-9.4,0.8
		c-0.2,0.1-0.3,0.4-0.4,0.7C328.3,459,326.1,464.6,323.6,470.8z"/>
	<path class="st0" d="M305.2,449c0.6,3,0.5,5.2-0.4,7.3c-1.8,4.2-3.9,8.4-5.1,12.8c-1.9,6.5-6.4,10.5-12.1,13.3
		c-2.7,1.4-3.4,2.8-2.2,5.4c0.8,1.8,1.1,3.8,1.9,5.6c1.1,2.6,0.9,4.9-0.3,7.5c-2.1,4.4-2,4.5-6.8,4.4c-5.4,0-4.3,0.6-6-4.2
		c-1.7-4.7-3.2-9.5-4.7-14.2c-0.6-1.8-1-3.1-3.4-3c-2.2,0.1-4.2-0.1-4.8,2.8c-0.2,0.9-0.6,1.7-1,2.6c-2.4,5.1-5.3,10.3,1.4,15.7
		c-9.9,0-18.6,0-27.8,0c8.1-20.2,16-40.2,24-60.3c-9.3-0.5-11.4,1.9-14.8,15.7c-6.4-5.5-7.6-14.3-2.5-21.1c4.3-5.7,10.1-9.8,17-11.6
		c10.2-2.7,20.6-2.5,30.8,0.4c3.4,1,6.6,2.6,9.3,4.9c0,1.6-1.3,2.2-2.1,3.2c-8.1,9.7-5,18.9,1.4,26.3c0.8,1,1.9,1.5,3.1,1
		c1.4-0.5,1.7-1.7,1.8-3.1C302,456.7,302.1,452.8,305.2,449z M267.7,470.8c2.7,0,4.9-0.1,7.1,0c5.1,0.3,8.1-2.4,10.2-6.5
		c1-2,1.6-4.2,2-6.4c0.5-2.4,0.2-4.5-2-5.8c-1.4-0.9-9.1-0.5-9.9,0.4c-0.2,0.2-0.2,0.5-0.3,0.7C272.5,458.9,270.2,464.6,267.7,470.8
		z"/>
	<path class="st0" d="M375.6,505.1c-5.4,0-10.8,0-16.2,0c-7.9-0.1-11.1-4.2-8.6-11.9c2.5-7.6,5.6-15,8.6-22.5
		c3.3-8.3,6.7-16.6,9.8-25c3-7.9,8.5-11.6,16.9-11.4c9.1,0.2,18.2,0,27.2,0.1c1.2,0,2.4,0,3.5,0.2c6.6,0.9,9.5,5.4,7.1,11.6
		c-6.7,17.3-13.6,34.5-20.4,51.7c-2,5-5.6,7.4-11,7.4c-5.7,0-11.3,0-17,0C375.6,505.3,375.6,505.2,375.6,505.1z M379.4,489.1
		c9.5,0,10.2-0.4,13.8-9.1c2.4-5.7,4.6-11.5,6.9-17.2c0.9-2.2,1.8-4.4,2.5-6.6c0.9-3,0-4.2-3.2-4.3c-3.3-0.1-6.6,0.1-9.9,0
		c-2.9-0.1-4.9,1.2-6,3.7c-4.1,9.1-7.9,18.4-11.1,27.8c-1.6,4.5-0.5,5.7,4.2,5.7C377.5,489.1,378.5,489.1,379.4,489.1z"/>
	<path class="st0" d="M529.5,505.2c0.9-1.7,1.8-2.2,2.7-2.7c4.2-2.4,7.2-5.7,7.9-10.6c0.3-2.3,1.7-2.8,3.9-2.8
		c8.3,0.1,16.6,0,24.9,0.1c2.6,0,4.6-0.7,5.9-3.1c1.3-2.4,0.3-4.4-1-6.2c-2.7-3.9-6.4-6.6-10.2-9.2c-3.7-2.5-7.4-5.1-9.9-8.9
		c-2.9-4.3-4-8.7-1.6-13.7c1.8-3.7,3.1-7.5,4.5-11.4c0.6-1.5,1.4-2.2,3.2-2.2c14.9,0,29.8,0,44.6-0.1c0.2,0,0.5,0.1,1.3,0.4
		c-2.1,5.3-4.2,10.7-6.3,16c-0.6,1.5-2,1.1-3.1,1.1c-7.2,0-14.5,0-21.7,0c-1.3,0-2.6-0.3-4,0.4c-0.9,3.5,1.1,6,3.5,8.1
		c2.4,2.1,5,3.9,7.5,5.8c2.3,1.7,4.6,3.5,6.6,5.6c6.7,7.2,7.7,17.6,2.6,25.9c-2.9,4.7-7.2,7.5-12.7,7.6
		C562.1,505.3,546,505.2,529.5,505.2z"/>
	<path class="st0" d="M537.5,591.6c-1.9,1.3-4.1,0.9-6.1,0.9c-11.1-0.1-22.2,0.5-33.3,1c-1,0.1-2.1,0.2-3.4-0.4
		c2.8-12.2,5.5-24.4,4.9-37.5c18.2,3.8,35.4,9.5,52.9,14.4c-2.3,1.5-4.4-0.2-6.5-0.1c-2.1,0.1-4-1.5-7-0.4
		c25.9,1.2,48.2,12.6,71.6,20.2C586.2,590.2,561.8,592,537.5,591.6c-0.9-0.7-1.7-0.6-2.7,0C535.8,591.8,536.7,592.1,537.5,591.6z
		 M568.3,580.4c2.4-0.5,4.4,1.3,6.9,0.6C572.8,581.5,570.7,579.5,568.3,580.4z M525.8,580.5c2.4-0.7,4.5,1.2,6.9,0.5
		C530.3,581.6,528.2,579.5,525.8,580.5z M559.4,575.6c-2.1,0.1-4.3-1.6-6.7-0.7C554.9,574.4,557,575.8,559.4,575.6z M569.5,586.6
		c-2.4,0.5-4.5-1.3-6.9-0.7C565,585.5,567.1,587.4,569.5,586.6z M517.5,575.9c-2.1,0.3-3.9-1.8-6.4-1.1
		C513.3,575.1,515.4,575.5,517.5,575.9z M542.9,579.5c2.2-0.3,4.2,1.6,6.5,0.7C547.2,580.5,545.2,579.2,542.9,579.5z M528.1,570.9
		c0,0,0-0.1,0-0.1c-0.4,0-0.9,0-1.3,0c0,0,0,0.1,0,0.1C527.2,570.9,527.7,570.9,528.1,570.9z M510.3,581.2c-0.6-0.3-1.1-0.3-1.8,0
		C509.1,581.2,509.6,581.2,510.3,581.2z"/>
	<path class="st0" d="M141.8,591.6c-6.2,1.1-12.3,2-18.7,0.6c-2.5-0.6-5.5,0.7-8.2,0.3c-7.9-1-15.9-0.1-23.9-1.2
		c-3.3-0.5-6.8,0.7-10.2,0.2c-9.1-1.4-18.3-0.2-27.5-1.1c-6-0.6-12.3-0.3-18.6-0.6c36-13.6,72.7-25,110.6-34.3
		c0,6.7,0.4,12.9,1.3,19.1c0.9,6.2,2.1,12.4,3.9,18.8c-3.8,0.6-7.5-0.2-11.9,0.2C140.2,592.5,141,592.1,141.8,591.6
		c0.9-0.1,2-0.1,3.2-0.2C143.7,590.8,142.8,591.9,141.8,591.6z M132.3,585c0-0.1,0-0.2,0-0.2c-3.8,0.6-7.7,1.2-11.5,1.8
		c0,0.1,0,0.2,0.1,0.4C124.6,586.3,128.4,585.6,132.3,585z M134.1,574.8c0-0.1,0-0.2-0.1-0.4c-3.8,0.7-7.5,1.3-11.3,2
		c0,0.1,0,0.1,0,0.2C126.5,576,130.3,575.4,134.1,574.8z M110,585c0-0.1,0-0.2,0-0.3c-3.8,0.6-7.6,1.3-11.5,1.9c0,0.1,0,0.2,0.1,0.3
		C102.4,586.3,106.2,585.7,110,585z M55.1,586.6c0,0.1-0.1,0.2-0.1,0.4c3.6-0.6,7.2-1.2,10.7-1.9c0-0.1,0-0.2,0-0.3
		C62.2,585.4,58.7,586,55.1,586.6z M133,568.4c0-0.1,0-0.2-0.1-0.2c-3.8,0.6-7.6,1.2-11.4,1.9c0,0.1,0,0.2,0,0.3
		C125.4,569.7,129.2,569,133,568.4z M117.3,573.7c-3.7,0.6-7.4,1.2-11.1,1.9c2,0.7,3.6-0.8,5.5-0.6
		C113.6,575.2,115.4,573.7,117.3,573.7z M76.6,586.9c2-0.4,4.1-0.7,6.4-1.2C80.5,585.1,78.6,586.9,76.6,586.9z M126.1,591.2
		c1.7,0.5,2.5,0.5,3.5,0C128.6,591.2,127.8,591.2,126.1,591.2z M119.2,580.4c-0.6-0.1-1.3-0.8-2,0.1
		C118,580.5,118.6,580.5,119.2,580.4z M96.5,573.9c-0.5-0.2-1-0.2-1.5,0.1C95.5,574.2,96,574.3,96.5,573.9z M137,564.5
		c-0.7-0.3-1.2-0.4-1.7-0.1C135.7,564.8,136.2,564.7,137,564.5z"/>
	<path class="st0" d="M46.1,489c7.5,0,14.8,0,22.4,0c-0.2,3.4-1.9,6-2.9,8.7c-0.9,2.5-1.4,5.6-3.2,7.1c-2,1.6-5.3,0.5-8.1,0.5
		c-8.3,0-16.6-0.1-24.9-0.2c-0.9,0-1.8-0.1-2.7-0.2c-4.2-0.7-5.7-2.8-4.6-6.9c0.7-2.7,1.7-5.3,2.6-7.9c4.9-13.9,10.3-27.6,16.5-41
		c0.7-1.4,1.5-2.8,2.1-4.3c3.2-7.6,8.2-11.4,17.1-10.6c8.6,0.8,17.4,0.2,26,0.2c1.3,0,2.6-0.3,4.2,0.4c-2.1,5.2-4.2,10.4-6.2,15.6
		c-0.6,1.5-1.8,1.2-3,1.2c-6.2,0-12.4,0-18.6,0c-1.6,0-2.6,0.3-3.3,2c-4.4,11.1-8.8,22.2-13.3,33.4C46.2,487.6,46.3,488.2,46.1,489z
		"/>
	<path class="st0" d="M450.6,405.3c-4.2-0.9-7.3-3.6-10.4-6.1c-9.1-7.3-16.9-15.8-21.9-26.5c-1.2-2.7-3.5-4.6-5.6-6.6
		c-11.1-10.4-23.3-19.3-35.2-28.6c-12.6-9.7-25.4-19.2-37.6-29.4c-4.4-3.7-8-7.9-10.4-13.2c-0.9-1.9-0.8-3.3,0.7-4.9
		c5-5.8,9.3-12.1,13.1-18.7c0.4-0.8,1.2-1.4,0.7-3.1c-3.2,0-6.6-0.1-10,0c-2.4,0.1-3.6-0.9-3.8-3.2c5.5-5.1,12.3-7.9,20.1-10.5
		c-3.3,6.4-4.2,12.6-4.2,19c0,8.6,2.5,16.2,8.1,22.9c9.8,12,21.3,22.3,32.7,32.6c10.8,9.8,22,19.3,32.2,29.7
		c2.5,2.5,4.8,5.2,6.9,8.1c0.8,1.2,1.7,2.4,1.9,3.9c1,7.4,5.2,13.1,9.4,18.9C441.3,395.3,446.1,400.1,450.6,405.3z"/>
	<path class="st1" d="M326.4,320.9c6.1,5.4,13.5,8.5,20.6,12.1c6.6,3.3,6.6,3.3,2.4,9.2c-6.5,9.3-10.7,19.2-10,30.8
		c0.3,4.8,1.6,9.4,4,13.6c-1.1,0.3-1.4-0.4-1.9-0.8c-0.5-0.4-1-0.8-1.5-1.2l-0.2-0.1c-4.1-5.2-7.7-10.6-9.7-17
		C325.4,352.3,324.3,336.7,326.4,320.9z"/>
	<path class="st0" d="M299.4,385.5c-18.7-0.8-37.1-4.2-55.2-8.9c-15.8-4.2-31.2-9.6-44.7-19.1c-5-3.5-9.4-7.6-13.1-12.5
		c-9.4-12.4-9.7-26-5.2-40.1c0.2-0.5,0.3-1,0.5-1.5c2.6,1.8,6.1,3,7.6,5.5c1.5,2.4-1.1,5.6-1.6,8.5c-2.3,12.8,1.5,23.6,10.3,32.9
		c7.2,7.6,16.1,12.7,25.5,16.9c14.5,6.5,29.7,10.4,45.2,13.6C278.8,382.7,289.1,383.9,299.4,385.5z"/>
	<path class="st0" d="M556.8,512.9c0.4,1.9,0.4,3.7-0.2,6c-6.6,0-13.3,0-20,0c0,0.5,0,0.9,0,1.4c6.6,0.8,13.2,0,19.9,0.4
		c0.9,1.9,0.5,3.8,0.3,6c-6.7,0-13.2,0-19.8,0c-1.1,2.6-0.2,5.2-0.8,7.8c-2,0.8-4.2,0.3-6.7,0.3c0-7.3,0-14.5,0-22
		C538.6,512.9,547.7,512.9,556.8,512.9z"/>
	<path class="st0" d="M326.4,320.9c-2.1,15.8-1,31.4,3.8,46.7c2,6.4,5.6,11.8,9.7,17c-6.6-4.3-11-10.4-14.7-17.2
		c-7.8-14.6-8.8-30.4-7.4-46.5c0.2-2.3,0.6-4.6,0.9-7.5C321.7,316.1,324,318.5,326.4,320.9z"/>
	<path class="st0" d="M449.8,261c-5.7,0.8-10.7,0.8-15.8-0.3c-3.1-0.7-5.2-2.5-6-5.6c-0.5-1.9-1.3-3.9-1.2-5.8
		c0.6-7.3-2.9-13.2-6-19.2c-1.3-2.4-2.5-4.9-3.5-7.5C429.1,234.4,441.1,246,449.8,261z"/>
	<path class="st0" d="M582.1,528.5c-0.8,2.1-1.3,3.3-1.7,4.5c-0.4,1.3-1.1,1.9-2.5,1.9c-5.4-0.1-10.8,0-16.4,0c0-7.5,0-14.7,0-22.2
		c8.7,0,17.5,0,26.2,0c-0.7,5.7-1,6-6.2,6c-4.2,0-8.4,0-12.8,0c0,3.4,0,6.3,0,9.8C573,528.5,577.2,528.5,582.1,528.5z"/>
	<path class="st1" d="M255.7,226.4c-4.8-8.5-4.8-8.6,4-12c17.4-6.8,35.3-11.8,53.9-15c-1.3,1.9-3.4,2.2-5.3,3
		c-2.1-0.7-3.8,0.7-5.6,1.4C286.5,210.2,270.9,217.8,255.7,226.4z"/>
	<path class="st0" d="M91.4,519.1c1.3-0.3,1.2-1.6,1.6-2.5c1.6-3.8,3.8-4.9,7.9-3.9c2.7,0.7,3.2,3.8,0.5,6.2
		c-1.9,1.7-2.4,3.2-1.1,5.5c4.3-3.5,5.8-9.8,11.7-12.4c0,5,0,9.2,0,13.6c-1.4,0.2-2.7,1-3.5-0.6c-0.9-2-2.5-1.3-3.6-0.8
		c-4.4,1.9-4.4,2-8.3,1.4c-0.9-1.2,0-2.9-1.2-4.2c-2.2,0.8-1.1,5.8-5.1,4.2c-1.1-1.2,1.3-2.5-0.3-3.5l-0.1,0.1
		c1.6,0.1,1.4-0.7,0.8-1.7l0,0.1C92,520.6,91.8,519.9,91.4,519.1L91.4,519.1z M99.3,516.4c-2.1-0.4-2.1-0.4-2.9,1.7
		C97.9,518.3,98.9,517.9,99.3,516.4z M108.1,521.1c0.4-0.3,0.8-0.6,0.6-1.2c-0.1-0.4-0.4-0.6-0.8-0.2c-0.3,0.3-0.5,0.6-0.6,0.9
		C107.2,520.9,107.5,521.2,108.1,521.1z"/>
	<path class="st0" d="M58,515.9c0.8-0.7,1.5-1.5,2.3-2.1c1.8-1.3,3.9-1.8,5.9-0.8c2.4,1.2,1.1,3.5,1.3,5.3l0.1-0.1
		c-1,0.6-1.3,1.4-0.8,2.5l0-0.1c-1.6,0.7-1.8,2.6-3.1,3.7c-3.4,2.7-6.4,2.4-8.9-1.5c-3.3,2.5-6.8,5-11,2c1.1-4.4,5.4-0.3,7.3-3.1
		c-1.3-1.6-5.4-0.6-4.3-4.3c0.8-2.7,2.6-4.3,5.3-4.7c1.9-0.2,4.3-1.1,5,2c-1.6,2.2-4.8-0.1-6.8,2.4c3.1,0.4,5.3,1.6,5.3,4.9
		C56.3,520,57.2,517.9,58,515.9z M63.8,515.9c-3.2,0-3.3,2.6-4.1,4.4c-0.4,0.8-0.8,1.8,0.4,2.3c0.8,0.3,1.6-0.2,2-0.8
		C63.1,520.1,64.2,518.3,63.8,515.9z"/>
	<path class="st0" d="M476.5,216.9c6.8,5.4,10.5,12.8,13.3,20.8c2.7,8,2,15.5-2.6,22.5c-2.3,3.5-3.7,7.2-2.1,11.5
		c-2.9-2.4-3.1-5.7-2.5-9c0.8-4.3,1.5-8.6,2.9-12.6c2.5-7.7,1-14.7-2.2-21.7C481.3,224.4,478.7,220.8,476.5,216.9z"/>
	<path class="st0" d="M499.1,391c-1-4.5-3.8-7.4-6.5-10.5c-2.1-2.4-4.2-4.7-6.2-7.1c-1.4-1.7-0.9-2.8,1.3-3.3c4-1,7.8,0.1,11.6,0.8
		c1.9,0.4,1.9,2.1,2,3.4C502.1,380,501.1,385.3,499.1,391z"/>
	<path class="st0" d="M255.7,226.4c15.2-8.6,30.8-16.2,47-22.7c1.8-0.7,3.4-2.1,5.6-1.4c-17.2,8.3-33.9,17.5-49.7,28.3
		C256.9,229.5,256.2,228,255.7,226.4z"/>
	<path class="st0" d="M79.6,519c-1.8,1-1.6,3-2.4,4.5c-0.6,1.1-0.7,2.6-2.5,2.5c-1.9-0.1-1.8-1.6-2.1-2.8c-0.2-0.7-0.1-1.6-1.1-2
		c-1.8,1.3-0.9,6-5,4.4c-0.8-1.9,2.1-3.2,0.6-5l0,0.1c1.5-0.4,2-1.1,0.8-2.5l-0.1,0.1c2.1,0.3,1.5-1.7,2-2.6c0.8-1.3,0.7-3.2,2.9-3
		c2.1,0.2,1.6,2.1,2.1,3.3c0.2,0.3,0.3,0.7,0.5,1.2c2.5-0.6,1.2-5.9,5.4-4.2c1.1,0.7-1,2.2,0.5,3l0.1-0.1c-1-0.4-1,0.1-0.9,0.9
		l0-0.1C79.3,517.2,79,518,79.6,519L79.6,519z"/>
	<path class="st0" d="M28.9,519.1c0.7,0.1,0.9-0.4,1-0.9c0.8-5.2,4.2-6.3,8.7-5.5c0.6,0.1,1.3,0.1,2.1,0.2c-0.1,5.2-5.3,1.2-6.7,4.1
		c1.1,1.3,2.7,0.3,4,1.1c-0.1,1.5-0.3,2.8-2.3,2.9c-1.3,0.1-2.9-0.6-3.8,1.3c1.5,1.2,3.2,0.3,4.6,0.9c-0.4,3.3-1.7,3.6-9,2.5
		c-0.8-1.8,2-3.1,0.7-5l-0.1,0.1C29.5,520.7,29.5,519.9,28.9,519.1L28.9,519.1z"/>
	<path class="st0" d="M28.2,520.6c-0.2,0-0.6,0-0.7,0.1c-2.2,5.6-6.7,5.7-12,5.1c1.6-4,2.9-7.8,4.5-11.5c0.6-1.5,4.7-2.2,7-1.4
		c1.9,0.6,2,2.1,1.9,3.8c0,0.8-1.1,1.6,0,2.5l0-0.1C27.7,519,27.7,519.7,28.2,520.6L28.2,520.6z M20.4,522.6c2.8-0.5,5.5-4.2,4.7-6
		c-0.6-1.2-1.8-1.3-2.4-0.1C21.7,518.3,20.9,520.3,20.4,522.6z"/>
	<path class="st0" d="M81.1,515.9c1.8-0.5,2.6-2.3,4.3-2.9c3.5-1.3,7.3,0.1,5.8,4.4c-0.2,0.6-0.5,1.2,0.2,1.7l0-0.1
		c-1.3,0-1.4,0.7-0.8,1.7l0-0.1c-1.2,0.1-1.1,0.8-0.8,1.7l0.1-0.1c-1.6,0.5-2.3,2.4-3.8,3c-1.9,0.8-3.7,1.5-5.6,0.2
		c-1.8-1.3-1.1-3-0.7-4.7c0.1-0.6,0.6-1.2-0.2-1.7l0,0.1c1.4-0.4,1.9-1.2,0.8-2.5l0,0.1C81.3,517.1,81.3,516.6,81.1,515.9
		L81.1,515.9z M82.7,522.8c3.8-1.2,4.8-2.9,4.4-7.2C83.7,516.8,83.7,519.7,82.7,522.8z"/>
	<path class="st0" d="M474.8,214.6c0.7,0.7,1.6,1.3,1.7,2.4C475.7,216.4,475.1,215.6,474.8,214.6z"/>
	<path class="st0" d="M340.2,384.6c0.5,0.4,1,0.8,1.5,1.2C341.2,385.5,340.7,385,340.2,384.6z"/>
	<path class="st0" d="M474.2,213.9c0.2,0.2,0.5,0.5,0.7,0.7C474.7,214.4,474.5,214.2,474.2,213.9z"/>
	<path class="st1" d="M410.9,96.8c-0.1,0.2-0.2,0.4-0.4,0.6C410.2,96.9,410.3,96.7,410.9,96.8L410.9,96.8z"/>
	<path class="st1" d="M273.5,53.8c0.4,0.2,0.6,0.5,0.2,0.8c0,0-0.3-0.3-0.5-0.5C273.3,54,273.4,53.9,273.5,53.8z"/>
</g>
</svg>
