<?xml version="1.0" encoding="utf-8"?>
<!-- Generator: Adobe Illustrator 21.1.0, SVG Export Plug-In . SVG Version: 6.00 Build 0)  -->
<svg version="1.1" id="Capa_1" xmlns="http://www.w3.org/2000/svg" xmlns:xlink="http://www.w3.org/1999/xlink" x="0px" y="0px"
	 viewBox="0 0 1280 416.5" style="enable-background:new 0 0 1280 416.5;" xml:space="preserve">
<style type="text/css">
	.st0{fill:#4D4D4D;}
</style>
<g>
	<g>
		<g>
			<g>
				<g>
					<g>
						<path class="st0" d="M37.3,172.5c36.7-68,100.2-142.1,175.2-166.9c15.4-3.8,35.9-8.2,49.5,2.4c12.1,9,13.8,24.4,11,38.2
							c-3.6,16.4-14.8,37.1-33.6,39.8c-3.4,0-6.2-1.2-8.4-3.6c-4.9-4.7-4.5-11.7-3.5-17.9c3.1-13,15.1-26.8,29-28.6
							c2.4-1.5,1.4-4.4,0.7-6.4c-1.8-2.9-4-5.1-7.4-5.8c-15-1.7-26.4,7.7-37.9,15.6c-43.7,35.2-75.5,80.4-102.2,125.4
							C87.9,205.1,69.4,247,64,294.3c-2.7,34.3,8.2,68,38.8,84.5c33.1,17.5,75.9,5.7,109-3.3l30.5-9.4l58.5-17.4
							c55.5-16.2,125-19.8,179.2,1.6c32.7,13.6,66.5,32.3,87.8,64.5c0,0.8,0,1.9-1,1.7c-46.4-12.7-106.9-25.2-153-3.2l-2.2-0.5
							c-14-22.4-37.6-34.8-61.7-39.6c-78.1-7.5-142.3,29.4-215.7,38.6c-37.2,3.4-77.1,2.3-103-26.2c-40.9-40.9-36.1-113-16.7-162.3
							C20.8,205.9,28.7,189,37.3,172.5z"/>
						<path class="st0" d="M145.1,196.8c19.4-35.6,49.1-79.1,90.2-92.1c11-2.5,22.8-1.4,31.3,5.9c17.7,17.6,10.8,47.9,4.8,68.6
							c0,1.2,1,2.5,2.2,2.7c15.7-0.5,28.4-7.8,39.8-18.6c24.4-27.3,50.6-63,90.3-58.8c7.4,1.2,14.7,5.5,18.5,12.4
							c10.1,20,0.2,42.1-13.5,57.4c-5.3,5.1-11.9,8.9-19.5,6.5c-3-1-5.6-4.1-6.7-7.1c-2.8-14,5.3-27,16.7-34.4
							c3.2-3.2,13-1,10.3-8.2c-2-2.9-5.1-3.2-8.3-3.2c-19.3,8-31.9,27.8-43.1,44.3c-14.1,22.1-25.5,45.6-33,70.4
							c-2.1,9-4.6,20.6,0.6,28.9c3.9,5.2,10.3,7.5,16.9,5.8c19.1-7.5,35.9-22.9,50.5-38.7c33.4-40.1,51.2-89.8,95.9-122.4
							c13.9-9.6,33.5-17,50.2-8.1c2.7,1,4.9,4.6,8.3,3.2c2.7-2.7,4.6-8.4,10-7.1c12.3,0.2,26.5-0.4,39.2,0.8l0.8,1.2l-3.6,8.6
							l-69.5,141.1c-0.7,1.5-0.9,3.5-0.5,5.2c1.2,2,3.7,1.9,5.6,1.2c10-5.7,17.8-16.3,24.8-25.3c6.1-8.4,11.6-17.2,16-26.5
							c1.9-2.7,4.1-6.1,7.8-5.5c3.9,0.5,8.8-1.2,11.7,1.6c-4.4,11.8-11.4,22.6-17.5,33.7c-18.9,29-43.5,62.7-78.2,71.4
							c-5.7,0.7-12.8,1.1-17.2-3.1c-6.7-5.1-7.1-13.2-8.9-20.5c-0.7-0.9-1.9-1-2.9-0.7c-14.8,13.3-30,26.6-50.8,24
							c-6.4-1.4-12.5-6.3-15.3-12.4c-5.4-10.3-2.8-23.7-3.1-35.2c-0.5-1.4-2.2-0.8-2.9-0.3c-22.6,22.2-47,42.3-76.9,47.9
							c-13.9,1.6-25.9-2.5-35.1-12.3c-22.4-29.3-4.7-67.8,7.1-96.3c0.5-1.3,0.3-3.2-1.3-3.6c-8.1,0.6-15.9,2-23.7,3.1l-2.7,3
							c-18.2,33.7-37.9,69.5-70.6,94.6c-13.6,9.8-33.7,16.5-49.6,7.4c-16.5-11.4-18-31.7-15.9-50.4
							C128.2,235.7,135.9,215.9,145.1,196.8z M196.8,195.2c-9.5,19.2-19.2,38.6-19.7,61.5c1,4.2,3.5,9.1,8.2,10.3
							c5.1,1.4,9.3-1.3,13.2-3.8c18.6-15.7,31.6-37.1,42.1-57.7c0.9-2,2.4-4.6,1.2-6.8c-11.1-4.4-21.9-12.1-30.5-21.7l-1.9-0.3
							c-1.7,0.3-2.4,2-3.6,3.2L196.8,195.2z M225.9,156c0.6,10.1,10.1,19,19,22.4c2.2,0.7,5.7,2.4,7.6-0.3
							c3.4-6.4,5.5-13.5,7.2-20.6c1.7-9.3,3.1-21.8-5.8-27.9c-3-1.7-7.6-1.9-10.8-0.4C232.9,134.3,225.6,144.6,225.9,156z
							 M454.8,234.8c-2.6,8.4-6.5,17.6-3.8,26.9c0.8,1.9,2.9,3.2,4.7,3.7c7.6,0.2,12.7-6.7,17.6-12.1c22.3-30.9,39.3-64.1,54.6-97.8
							c2.6-7.1,6.6-13.7,6.5-21.6c-0.2-1.7-1.8-2.9-3.2-3.7c-3.4-1.5-6.6,0.8-9.3,2.2c-30,23.1-46.2,56.1-61.2,87.5L454.8,234.8z"/>
						<path class="st0" d="M599.3,148c6.6-13.2,12.3-26.8,20.6-39.3c3.4-3.7,8.6-3.5,13.2-4l33.3,0.5l1.4,1.4
							c-5.6,13.3-11.8,26.5-18.7,39.3c-1.7,3.4-5.3,6.6-9.2,7.1c-13.5,0.3-27.9,1.1-40.7-0.1C597.8,151.4,599,149.6,599.3,148z"/>
						<path class="st0" d="M632.7,215.6c23.2-47.9,51-94.1,90.6-134.9C761.6,42.5,803.1,11.5,853.4,2c13.7-2,29.1-0.7,39.5,8.6
							c2,1.7,4.4,3.4,7.3,2.4c36.1-14.4,86.1-19.5,122.2-1.4c20.9,10.2,40.8,23.3,60.9,35.9c2.5,1.4,1.3,4.1,0,5.6
							c-11.5,12.8-21.2,26-31.6,39.3c-1.2,1.2-3,0.7-4.2,0l-53.1-36.5c-24.8-16.8-53.3-28.6-85.6-23.3c-3.6,1.8-1.9,6.3-2.4,9.6
							c0.7,33.1-11,62-27,88.3c-12.7,18.4-27.5,37.6-49.2,43.8c-9.5,2-18.6-0.9-24.3-8.5c-15.8-24.1-1.8-53.4,9.7-74.9
							c13.3-23.3,33.8-45.2,56-62c0.5-0.8,1.5-1.7,0.9-2.7c-2.2-2.2-5.9-0.9-8.6-0.4c-36,12-64.9,43.9-91.5,74.1
							c-47.5,58.5-83.6,121.9-104.1,191.7c-6.3,26.2-14.9,66.4,11.7,84.7c23.4,12.6,46-3.6,63.6-18.7c26.8-27.3,44.8-58.8,52.2-94.5
							c1.2-10.6,4.1-25.2-5.6-32.5c-8.8-3.9-16.1,3.3-22,9.4c-13.8,16.5-19.6,36.3-22,57.6c-6.1,5.1-13.4,8.2-19.8,13.1
							c-12.2,8.4-24.2,19.7-33.9,31c-1.2,0.3-1.4-1-1.7-1.7c-1.4-39.2,12.6-72.8,34.2-103c17.1-19.9,39.2-36.9,65.9-30.5
							c11.7,3.1,19.4,15.4,21.6,26.4c4.3,36.9-11.2,69.1-27.9,99.1c-26.9,42.2-69.3,84.8-123,79.7c-20.6-1.3-39.8-15.5-48.6-34.5
							c-20.3-40.5-6.3-92.5,7.4-131.7L632.7,215.6z M815.5,145.7c0.5,4.6,2.3,9.5,7.1,11.2c9.1,2.6,16.4-4.2,23.2-9.4
							c24.4-25.8,39.2-55.6,43.1-89.9c0-5.1,1.7-11.5-1.1-15.9c-2-0.3-4.2,0.5-5.9,1.7c-16.4,10.9-31.9,26.9-43.1,43.1
							C827,104.5,816.3,123.1,815.5,145.7z"/>
						<path class="st0" d="M849.8,260.5c19.5-25.8,45.5-53.9,78.3-56c8.3,0.2,15.5,3.6,20.6,10.6c14,20.7,2.2,47.2-2.9,68.1
							c-0.5,1.9,0.8,3.2,2.2,3.7c6.8,1,14.5,0.1,20.5-3l2.5-3.2c23.6-67.2,58.6-129.6,100.2-189.1c26-34.4,59.2-69.9,97.8-86.5
							c9.1-3.2,22.3-7,31.1-0.2c9.8,8,7,21.8,4.5,32.5c-1,9.5-11.5,10.4-18.5,12.6c-0.3-0.2-0.7,0-1-0.3c0.2-6.1,3.4-11.5,4.6-17.4
							c0.4-3.2,0.9-5.9-0.5-9c-1.7-3-5.4-2-7.9-1.2c-13,6.4-23.6,18-33.6,29.3c-37.3,43.3-64.4,91.4-89.2,140
							c-8.2,16.9-16.7,33.6-23.3,51.1c-0.2,1,0.2,1.7,1,2.4c5.7-0.1,9.2-6.1,13.6-9.1c32.9-29.8,59.6-64,84.2-98.8
							c5.3-2.5,11.3-2.5,17.4-3l1.2,0.3c-0.4,4.7-4.4,8.4-6.6,12.7c-27.5,39.6-58.8,77.6-96.7,112.1l-27.5,22.6
							c-5.8,5.1-6,12.8-8.9,19.2c-5.3,17.4-10.6,35.1-11.3,54.2c0.2,3.2,1.3,6.3,4,8c7.3,3.2,13-3.7,18.1-8.4
							c37.2-43,53.6-95.7,99-134.2c14.9-11.8,34.6-21.9,53.8-13c3.4,1.2,5.9,5.6,10,3.6c2.9-2,3.1-6.6,7.1-6.4
							c13.4-0.1,27.6-0.6,40.4,0.5c1.2,1,0.3,2.7,0,3.9l-9.2,18.6l-56.9,114.7c-2.6,5.2-6,10.8-5.6,16.7c0.8,2.5,3.5,2.7,5.7,2.2
							c10.7-5.9,18.5-15.7,25.4-25.6c7-9.8,12.6-20.1,19.2-30c3.6-1.7,8.5-1,12.3-0.5c2.4,2.2-0.7,5.1-1.2,7.6
							c-16.7,34.6-40,72.4-76.4,91.5c-8.5,4.2-20.1,8-29.4,2.9c-7.4-5.1-6.7-14.4-10.1-21.5c-0.7-1-2.4-0.9-3.2-0.4
							c-15.1,13.5-31.4,28.6-52.5,22.8c-13.2-6.1-14.6-21.3-15.6-34.4c-0.7-0.5-0.3-1.5-1.2-2l-1.7,0.7
							c-14.8,17.7-33.4,39.8-58.3,37.7c-9.5-0.7-17.7-9.9-20.6-18.3c-8.7-27.6,0.5-57.8,6.7-84.3c0-1.5-1.7-3.1-3-3.2l-20.8,0.3
							l-3.4,3.9c-15.3,30-32.2,59-58.6,84.1c-13.9,12.3-31,22.5-50.1,16.9c-15.9-6.8-20-24.1-20-40.3
							C809,328.1,827.3,293.5,849.8,260.5z M855.2,352.3c0.3,5.7,3.2,11.7,9.1,13.6c3.9,1.4,8.1-0.3,11.5-2
							c19.5-14.5,31.1-36.7,41.6-57c1-2,1.9-5.2-0.8-6.8c-10.1-5.1-19.9-13.1-28-22.1c-1-1-2.9-1.2-4.1-0.5
							c-7.3,9.8-12.1,20.6-17.2,31.4C861.5,322.6,855.2,336,855.2,352.3z M904.2,257.4c0.6,10.3,8.9,20,18.3,23.4
							c1.9,0.7,5.2,1.5,6.6-0.8c5.8-13.2,11.3-28.2,8.3-43.4c-1.2-3.6-4.2-7.1-7.9-8.3c-3.7-1-7.6,0.1-10.8,1.7
							C909.2,236.2,904.6,246.5,904.2,257.4z M1090.5,347.7c-0.4,4.9-1.6,11,2.1,14.7c2,2,5.2,2.2,7.8,1.4
							c10-5.2,16.5-15.8,22.6-24.6c20.4-31.7,35.4-65.6,49.4-100.1c0.5-3,1.4-7.3-1.5-9.3c-8.3-3.9-14.7,5.2-20.8,9.6
							c-27,26.8-41.3,59.2-54.7,91.8L1090.5,347.7z"/>
						<path class="st0" d="M1129.9,95.6l18-23.3l2.7-2.4c52.1-1,92.7-32,129.4-68.5c-0.2,4.9-2.4,9.5-4.1,13.8
							c-24,56.5-82.3,106.2-145.4,107l-14.9-0.2c-2.7-0.7-0.8-3.4-0.2-4.7L1129.9,95.6z"/>
					</g>
				</g>
			</g>
		</g>
	</g>
	<path class="st0" d="M1195.6,394.1c0-7.1,5.3-12.4,12.2-12.4c6.8,0,12.1,5.3,12.1,12.4c0,7.2-5.3,12.5-12.1,12.5
		C1200.9,406.5,1195.6,401.3,1195.6,394.1z M1207.7,409c8.1,0,15.1-6.3,15.1-15c0-8.6-7-14.9-15.1-14.9c-8.2,0-15.2,6.3-15.2,14.9
		C1192.6,402.7,1199.5,409,1207.7,409z M1204.6,395.2h3l4.5,7.5h2.9l-4.9-7.6c2.5-0.3,4.5-1.7,4.5-4.7c0-3.4-2-4.9-6.1-4.9h-6.6
		v17.2h2.6V395.2z M1204.6,393v-5.3h3.6c1.8,0,3.8,0.4,3.8,2.5c0,2.6-2,2.8-4.2,2.8H1204.6z"/>
</g>
</svg>
