<?xml version="1.0" encoding="utf-8"?>
<!-- Generator: Adobe Illustrator 21.1.0, SVG Export Plug-In . SVG Version: 6.00 Build 0)  -->
<svg version="1.1" id="Capa_1" xmlns="http://www.w3.org/2000/svg" xmlns:xlink="http://www.w3.org/1999/xlink" x="0px" y="0px"
	 viewBox="0 0 720 720" style="enable-background:new 0 0 720 720;" xml:space="preserve">
<style type="text/css">
	.st0{fill:#4D4D4D;}
</style>
<path class="st0" d="M360,0C161.2,0,0,161.2,0,360c0,198.8,161.2,360,360,360c198.8,0,360-161.2,360-360C720,161.2,558.8,0,360,0z
	 M226.7,301.3h-61.8v57.8h61.8v18.8h-61.8v76.6h-21.6V282.6h83.4V301.3z M339.8,301.3h-71.9v57.8h71.9v18.8h-71.9v57.8h71.9v18.8
	h-93.5V282.6h93.5V301.3z M452.4,440.7c-10.5,10.5-23.3,15.7-38.5,15.7c-15.3,0-28.2-5.4-38.8-16.1c-8.3-8.2-13.4-18.8-15.3-31.9
	l20.8-7.5c1.3,12.5,4.8,21.6,10.6,27.3c6.4,6.4,13.9,9.6,22.7,9.6c8.8,0,16.5-3.3,23.1-9.9c6.6-6.6,9.9-14.7,9.9-24.4
	c0-9.7-3.2-17.8-9.7-24.3c-6.5-6.4-14.2-11.5-22.9-15.2c-12.4-4.1-22.3-9.8-29.7-17.3c-7.5-7.5-11.2-16.5-11.2-27.1
	c0-10.4,3.9-19.5,11.7-27.3c7.8-7.8,17.4-11.8,29-11.8c11.4,0,21.1,4,29.3,12.1c4.2,4.2,7.5,10,9.9,17.5l-19.4,7.5
	c-2.4-6.4-4.5-10.6-6.5-12.5c-3.9-4-8.4-6-13.4-6c-4.9,0-9.3,1.9-13.2,5.8c-3.9,3.9-5.8,8.8-5.8,14.8c0,5.9,2,10.9,6,15
	c4.2,4,9.8,7.6,17,11c13.7,4.5,25.2,11.3,34.4,20.5c10.6,10.5,15.9,22.9,15.9,37.3C468.1,417.8,462.9,430.2,452.4,440.7z
	 M581.6,301.3h-71.9v57.8h71.9v18.8h-71.9v57.8h71.9v18.8h-93.6V282.6h93.6V301.3z"/>
</svg>
