<?xml version="1.0" encoding="utf-8"?>
<!-- Generator: Adobe Illustrator 21.1.0, SVG Export Plug-In . SVG Version: 6.00 Build 0)  -->
<svg version="1.1" id="Capa_1" xmlns="http://www.w3.org/2000/svg" xmlns:xlink="http://www.w3.org/1999/xlink" x="0px" y="0px"
	 viewBox="0 0 1280 493.4" style="enable-background:new 0 0 1280 493.4;" xml:space="preserve">
<style type="text/css">
	.st0{fill:#4D4D4D;}
</style>
<g>
	<g>
		<path class="st0" d="M473.5,140.5c2.4-16,4.8-32.1,7.2-48.1c2.3-15.2,4.6-30.4,6.9-45.7c2-13.6,4-27.2,6.1-40.7
			c0.4-2.6-0.2-4.6-2.6-5.9C447.4,0,403.7,0,360,0c-0.4,0.6-1,0.4-1.5,0.4c-17.9,1-35.6,3.6-52.7,9.1
			c-35.9,11.6-61.8,34.4-76.6,69.3c-7.5,17.7-10.9,36.4-13.6,55.3c-2.3,16.2-4.7,32.4-7.2,48.5c-1.4,9.2-2.7,18.5-1.4,27.8
			c2.3,16.7,10,30.1,24.2,39.4c10.7,7,22.6,9.7,35.2,9.7c32.3,0,64.6,0,96.8,0c1.8,0,2.5,0.3,2.2,2.3c-1.3,8-2.3,16-3.5,24
			c-0.7,4.9,0.8,6.8,5.8,6.8c25.2,0,50.3,0,75.5,0c0.8,0,1.5,0,2.3-0.1c3-0.3,5.1-2,5.8-5c0.4-1.6,0.6-3.3,0.8-4.9
			c2.4-16.1,4.8-32.2,7.3-48.3c2.4-16,4.8-32.1,7.3-48.1C468.9,170.9,471.2,155.7,473.5,140.5z M465.3,155
			c-1.3,8.4-2.6,16.8-3.9,25.2c-1.8,11.7-3.5,23.3-5.2,35c-1.7,11.3-3.4,22.5-5.1,33.8c-1.7,11.5-3.4,23.1-5.3,34.6
			c-0.6,4,0.3,3.4-3.9,3.4c-23.9,0-47.8,0-71.8,0c-2,0-2.4-0.4-2.1-2.4c1.5-9.8,2.7-19.5,4.1-29.3c0.2-1.1-0.2-1.4-1.1-1.3
			c-0.5,0-1,0-1.5,0c-33.4,0-66.8,0.2-100.2-0.1c-11.9-0.1-23.3-3.1-33.6-9.2c-12.2-7.3-19-18.3-21.8-32c-2.2-11-1.7-21.9,0.1-32.9
			c1.9-11.5,3.5-23,5.2-34.6c2.7-17.9,4.8-36,10.7-53.3c6.5-18.9,16.2-35.8,30.8-49.7c13.6-13,29.7-21.6,47.6-27.2
			c15-4.7,30.5-7.1,46.2-8c4.4-0.2,8.7-0.4,13-0.4c39.1,0,78.3,0,117.4-0.1c2,0,2.4,0.6,2.2,2.5c-2.9,18.9-5.8,37.8-8.6,56.7
			c-0.2,1.6-0.9,1.7-2.2,1.5c-6.9-1.1-13.8-1.9-20.7-2.6c-7.8-0.8-15.7-1.6-23.5-2.3c-10.3-1-20.6-1.6-30.9-2.8
			c-19.2-2.1-38.3-1.6-57,4.4c-22.9,7.4-39.4,21.9-49.6,43.7c-4.5,9.5-6.2,19.5-6.1,29.7c0.3,17,5.5,32.1,18.3,43.8
			c9.2,8.5,20.2,12.8,32.8,12.5c5.3-0.1,10.4-1.2,15.7-3.4c-4.7-1.8-8.9-3.6-12.7-6.4c-11.7-8.4-15.9-21-11.7-35.1
			c2.5-8.6,7.2-15.9,13-22.7c7.1-8.2,15.2-15.3,24.7-20.6c4.7-2.6,9.5-4.7,15-5.2c1-0.1,1.9-0.1,2.9,0.1c4.2,0.7,5.3,3.4,2.8,6.8
			c-2.1,2.9-5.1,4.8-8.1,6.6c-2.7,1.5-5.5,3.1-8.4,3.9c-7.2,2-12.8,6.3-18.4,10.9c-6.1,5.1-11.5,10.8-15.1,17.9
			c-9.2,17.9,3.9,38.6,22.2,40.7c9.4,1.1,18.2-1.1,26.9-4.4c12.4-4.7,23.7-11.5,34.5-19.2c4.5-3.2,9.3-5.2,14.6-6.4
			c8.6-1.9,17.4-3.1,26.2-4C465.5,153,465.5,153.8,465.3,155z"/>
		<path class="st0" d="M731.2,112c-1.3-10.2-6.2-18.2-15.3-23.3c-7.2-4-15-5.8-23-7c-1.4-0.2-1.5-0.6-1.4-1.8
			c1.2-9,2.5-17.9,3.4-26.9c1-9.8,0.1-19.5-4.2-28.5c-6.2-13-17.1-19.8-30.7-22.8C656.7,1,653.3,0.6,650,0c-47.4,0-94.8,0-142.3,0
			c-3.2,1-4.6,3.3-5.1,6.6c-1.9,13-3.9,26.1-5.9,39.1c-2.4,16-4.8,32.1-7.2,48.1c-2.3,15.1-4.5,30.2-6.8,45.2
			c-2.4,16-4.8,32.1-7.3,48.1c-2.4,16.1-4.9,32.2-7.3,48.3c-0.9,6-1.9,12-2.6,18c-0.5,3.9,1.2,6.2,4.9,7c1.1,0.2,2.2,0.3,3.3,0.3
			c56.5,0,113.1,0,169.6,0c7.6,0,15.2-0.8,22.6-2.7c13-3.3,24.5-9.3,33.9-18.9c12.2-12.5,18.4-27.8,21.3-44.7
			c2.9-17.2,5.7-34.4,8.6-51.7C731.2,132.5,732.6,122.3,731.2,112z M499.6,66.3c2.3-14.8,4.5-29.6,6.8-44.4
			c0.7-4.7,1.6-9.4,2.1-14.1c0.2-1.9,1-2,2.5-2c22.5,0,45.1,0,67.6,0c0,0,0,0,0,0c22.4,0,44.8-0.1,67.2,0.1
			c7.6,0.1,15.1,1.4,22.2,4.4c11.8,5,18.1,14.2,20.2,26.6c1.5,8.8,0.6,17.5-0.6,26.2c-0.6,4.6-0.7,4.6-5.4,4.6c-16,0-32.1,0-48.1,0
			c-1.6,0-2.2-0.5-2.8-1.9c-1.9-4.7-5.8-6.8-10.6-7.6c-1.6-0.3-3.2-0.3-4.7-0.3c-11.6,0-23.2,0-34.8-0.1c-1.9,0-3,0.3-2.9,2.5
			c0,1.6-0.6,3.3-0.7,4.9c-0.1,1.8-0.7,2.5-2.7,2.5c-24.3-0.1-48.7-0.1-73-0.1c-0.3,0-0.7,0-1,0C499.6,67.7,499.4,67.3,499.6,66.3z
			 M686.1,74.6c-0.6,2.8-0.7,5.7-1,8.6c-0.1,1.5-0.7,2.2-2.4,2.1c-8.3-0.1-16.6,0-24.9,0c-8.2,0-16.4-0.1-24.7,0
			c-1.8,0-2.1-0.6-1.8-2.2c0.4-2.2,0.9-4.5,1.1-6.7c0.1-1.1,0.6-1.3,1.6-1.4c8.9-0.4,17.8-0.8,26.7-1.2c7.9-0.4,15.7-0.7,23.5-1.2
			C685.8,72.6,686.5,72.7,686.1,74.6z M625.1,85.2c-0.2,1.1-1,1-1.8,1c-12.3,0.6-24.5,1.2-36.8,1.8c-2,0.1-4,0.2-6.2,0.4
			c1.1-7.9,2.2-15.5,3.3-23.2c0.1-1.1,0.5-1.4,1.6-1.4c11.1,0,22.2,0,33.4,0.1c5,0.1,7.9,3.2,8.3,8.2
			C627.1,76.6,625.7,80.9,625.1,85.2z M499,81.3c10.3-0.4,20.5-0.8,30.8-1.3c14.1-0.7,28.1-1.3,42.2-2c0.7,0,1.4,0,2.1-0.1
			c1-0.1,1.4,0.3,1.2,1.3c0,0.1,0,0.3,0,0.4c-0.5,5.7-0.5,5.7-6.2,5.7c-11.2,0-22.4,0-33.6,0c-12.2,0-24.3,0-36.5,0
			c-0.8,0-2.3,0.7-2.2-1.2C497,82.7,496.9,81.4,499,81.3z M496.6,99.2c11.9-0.3,23.7-0.9,35.6-1.4c13.1-0.5,26.2-1.1,39.3-1.7
			c9.4-0.4,18.8-0.8,28.1-1.2c16.5-0.7,33-1.4,49.4-2.1c9-0.4,17.9-0.8,26.9-1.2c7.8-0.4,15.6-0.7,23.4-1.1c3-0.2,5.8,0.2,8.6,1.4
			c4.4,1.9,8.5,4.3,11.7,7.9c0.7,0.8,1.4,1.6,1.9,2.9c-0.9,0-1.5,0-2.2,0c-74.3,0-148.6,0-222.9,0c-0.7,0-2.3,1-2.3-0.9
			C494.2,100.5,494.5,99.3,496.6,99.2z M722.5,146.5c-0.8,5-1.6,9.9-2.5,14.9c-1.9,11.4-3.6,22.9-5.8,34.3
			c-2.5,13.3-7.4,25.7-16.3,36.2c-9.4,11.1-21.6,17.3-35.7,20.3c-7,1.5-14.2,2.1-21.4,2.1c-27.1,0-54.2,0-81.3,0
			c-28.7,0-57.4,0-86,0c-1.7,0-2.3-0.1-2-2.2c2-12.5,3.8-24.9,5.7-37.4c1.9-12.4,3.7-24.8,5.6-37.2c1.1-7.4,2.3-14.9,3.3-22.3
			c0.2-1.3,0.9-1.3,1.9-1.3c8.2-0.3,16.4-0.6,24.6-0.9c14-0.6,28-1.1,42-1.7c3-0.1,6.1-0.2,9.1-0.4c1.3-0.1,1.6,0.2,1.4,1.6
			c-1.9,11.3-3.7,22.6-5.5,33.9c-0.4,2.7-0.5,2.7,2.4,2.7c15.6,0,31.2-0.2,46.9,0.1c14.1,0.2,23.3-6.6,29.4-18.6
			c3-5.9,4.2-12.4,5-18.9c0.5-3.9,0.5-3.9,4.3-4.1c10.1-0.4,20.3-0.8,30.4-1.2c10.6-0.4,21.1-0.8,31.7-1.3c3.7-0.1,7.3-0.1,11-0.5
			C722.7,144.3,722.7,145,722.5,146.5z M566.4,180.7c1.7-9.6,3.2-19.2,4.8-28.8c0.2-1.6,0.7-2.2,2.5-2.3c18.7-0.5,37.4-1.2,56.1-1.9
			c2.3-0.1,4.6-0.1,6.8-0.2c0.8,0,1.5,0,1.2,1.2c-1.2,5.4-1.7,10.9-3.7,16.1c-3.1,7.9-7.9,14-16.2,16.9c-2,0.7-4.1,1-6.3,1
			c-7.2,0-14.4,0-21.6,0c-7.3,0-14.5,0-21.8,0C566.6,182.9,566,182.7,566.4,180.7z M725,129.2c-0.5,3-0.9,6-1.2,9
			c-0.1,1-0.6,1.3-1.5,1.2c-0.6,0-1.1,0-1.7,0c-38.2,0-76.4,0-114.7,0c-38.4,0-76.7,0-115.1,0c-2.4,0-2.6-0.4-2-2.6
			c0.3-1,1-0.8,1.6-0.8c7.2-0.3,14.5-0.6,21.7-0.9c14.3-0.6,28.7-1.1,43-1.7c10.1-0.4,20.1-0.8,30.2-1.2c14.5-0.6,29-1.1,43.5-1.7
			c10.4-0.4,20.8-0.8,31.2-1.2c14.1-0.6,28.1-1.1,42.2-1.7c6.8-0.3,13.7-0.5,20.5-0.9C724.9,126.7,725.3,127.4,725,129.2z
			 M720,121.6c-37.2,0-74.4,0-111.5,0c-38.2,0-76.4,0-114.7,0c-2.6,0-2.7-0.2-2.2-2.7c0.2-1.1,0.7-1.5,1.8-1.5
			c8.3-0.1,16.6-0.3,24.9-0.5c11.9-0.3,23.7-0.5,35.6-0.8c11-0.3,21.9-0.6,32.9-0.8c11.5-0.3,22.9-0.6,34.4-0.8
			c11-0.3,21.9-0.6,32.9-0.8c11.5-0.3,23.1-0.6,34.6-0.8c10.9-0.3,21.8-0.6,32.7-0.8c4-0.1,4,0,4.1,4
			C725.7,121.6,725.7,121.6,720,121.6z"/>
		<path class="st0" d="M1130,96.7c-3.7-1.2-7.8-0.1-10,3c-0.8,1.2-1.7,1.5-3.1,1.5c-21.2,0-42.4,0-63.7-0.1c-1.9,0-2.6,0.6-3,2.3
			c-1.2,4.5-2.5,8.9-3.8,13.3c-2.1,7.1-4.2,14.2-6.3,21.3c-0.1,0-0.2,0-0.4-0.1c2.1-35.8,4.2-71.5,6.4-107.3c-0.1,0-0.2-0.1-0.4-0.1
			c-9.8,26.6-19.5,53.2-29.3,79.8c-0.1,0-0.2,0-0.3-0.1c-1.6-14.1-3.2-28.2-4.8-42.4c-0.8,0.5-0.9,1.1-1.1,1.7
			c-4.5,10-9.1,19.9-13.5,30c-0.8,1.9-1.8,2.4-3.8,2.4c-29.7-0.1-59.5,0-89.2-0.1c-1.5,0-2.1,0.4-2.6,1.8
			c-3.1,8.2-6.2,16.4-9.4,24.5c-0.2,0.5-0.2,1.2-1.1,1.5c1.5-20.6,2.9-41.1,4.3-61.6c-0.1,0-0.2,0-0.3,0c-7,15.9-13.9,31.8-21,48
			c0-4.1-0.1-7.8,0.1-11.6c0.1-1.7-0.4-2.1-2-2.1c-15.1,0.1-30.3,0-45.4,0c-0.7,0-1.4,0-2.5,0c0.8-1.4,1.4-2.4,2.1-3.5
			c10.8-16.3,26.2-26.3,44.6-32.3c16.2-5.3,33-6.5,49.9-5.8c7.7,0.4,15.2,1.5,22.9,2.4c13,1.5,26,2.7,38.9,4.1
			c6.2,0.6,12.4,1.4,18.6,1.7c5.2,0.3,7.5-1.9,8.2-7c2.6-18.3,5.1-36.5,7.7-54.8c0.6-4.4-1.1-6.5-5.6-7.2c-0.8,0-1.5,0.1-2.3,0.1
			c-39.7,0-79.3,0-119,0c-0.9,0-1.8,0-2.7-0.1c-5.5,0-10.9,0.4-16.3,0.9c-15.8,1.4-31.3,4.3-46.3,9.6C794,21.7,770.7,41.2,756,70.5
			c-9.4,18.6-14,38.5-16.8,59c-2.3,16.3-4.7,32.5-7.3,48.7c-1.6,10.3-2.9,20.5-1.4,30.9c1.7,11.2,5.4,21.6,13.2,30
			c13,14.1,30,19.7,48.4,20c31.4,0.6,62.8,0.2,94.1,0.2c0.5,0,1,0,1.5,0c1-0.1,1.4,0.3,1.2,1.3c-1.2,7.9-2.3,15.9-3.6,23.7
			c-1,5.8,1.3,8.8,7.2,8.8c24.9,0,49.8,0,74.7,0c4.3,0,6.6-1.9,7.3-6.1c0.8-4.8,1.5-9.5,2.3-14.3c2.6-16.6,5.1-33.1,7.7-49.7
			c2.7-17.4,5.4-34.8,8.1-52.2c1.9-12,3.8-24,5.6-36c0.8-5.4-1.3-7.7-6.8-7.7c-25.1,0-50.2,0-75.3,0c-1.2,0-2.4,0-3.5,0.2
			c-2.5,0.4-4,2-4.4,4.6c-2.5,16.1-5,32.2-7.5,48.3c-0.2,1.5-0.7,2.1-2.4,2.1c-17.4-0.1-34.7-0.1-52.1,0c-1.3,0-2.4-0.4-3.5-1
			c-24.6-14.3-32.9-43.7-22.8-69.8c0.4-1,0.9-1.4,2-1.4c14.3,0,28.6,0,42.9,0c1.3,0,1.6,0.4,1.6,1.7c-0.3,10.6-0.6,21.1-0.8,31.7
			c-0.1,3.4,0,6.8,0,10.8c6.4-14.6,12.5-28.7,18.7-42.7c0.2,0.1,0.3,0.1,0.5,0.2c-1.6,22.8-3.2,45.5-4.8,68.3
			c0.5-0.4,0.7-0.8,0.9-1.2c8.1-21.3,16.3-42.6,24.4-63.9c0.7-1.7,0.9-4,2.2-5c1.4-1.1,3.7-0.3,5.6-0.3c28.5,0,57.1,0,85.6,0
			c1.6,0,2.3-0.5,2.9-1.9c1.5-3.5,3.1-6.9,4.7-10.4c0.2-0.5,0.2-1.2,1-1.4c1.7,15.6,3.5,31.2,5.2,46.8c0.1,0,0.3,0,0.4,0
			c7.6-20.6,15.2-41.3,22.7-61.9c0.1,0,0.2,0.1,0.3,0.1c-2.4,40.9-4.8,81.8-7.3,122.8c0.8-0.9,0.8-1.9,1.1-2.8
			c8.8-30.1,17.7-60.2,26.5-90.3c0.4-1.5,1.1-2,2.6-2c19.4,0.1,38.7,0.1,58.1,0c1.5,0,2.3,0.3,3.1,1.6c2.1,3.3,6.1,4.5,9.8,3.4
			c3.7-1.1,6.2-4.4,6.3-8.3C1136.1,101.6,1133.6,97.9,1130,96.7z M810.7,121.7c-4,21.3,1.1,40.1,16.5,55.7c3.4,3.5,7.4,6.2,11.5,8.8
			c2,1.2,4,1.7,6.3,1.7c13.5,0.1,26.9,0.2,40.4,0.5c5.9,0.1,11.9,0.1,17.8,0.3c1.5,0.1,2-0.4,2.2-1.9c2-13,4-26,6-39.1
			c0.6-4.2,1.3-8.3,1.8-12.5c0.2-1.6,0.7-2.3,2.6-2.3c24.5,0.1,49.1,0.1,73.6,0c2,0,2.5,0.6,2.2,2.4c-3.4,22.3-6.9,44.6-10.3,66.9
			c-3.3,21.8-6.6,43.6-9.9,65.5c-0.8,5.6-1.8,11.2-2.5,16.8c-0.2,1.9-0.9,2.2-2.6,2.2c-9.2-0.1-18.4,0-27.6,0c-15.1,0-30.3,0-45.4,0
			c-2,0-2.3-0.6-2.1-2.4c1.4-9.4,2.7-18.8,4.1-28.3c0.2-1.6,0-2.3-1.9-2.3c-17.1,0.1-34.3,0-51.4,0c-16.5,0-32.9,0.3-49.4-0.1
			c-12.1-0.3-23.7-3.2-34.1-9.6c-11.7-7.1-18.3-17.8-21.1-30.9c-2.2-10.6-2.1-21.2-0.3-31.9c2.1-12.4,3.7-25,5.6-37.4
			c2.6-16.8,4.5-33.6,9.8-49.9c12.6-38.8,37.6-65.3,76.5-78.3c12.5-4.2,25.5-6.7,38.6-8c8.8-0.9,17.6-1.2,26.5-1.2
			c38,0,75.9,0,113.9,0c2.8,0,2.8,0,2.4,2.7c-2.4,16.5-4.8,33-7.2,49.6c-0.7,4.6-0.6,4.5-5.3,4c-7.6-0.8-15.2-1.5-22.9-2.3
			c-9.2-0.9-18.4-1.7-27.6-2.8c-13.9-1.6-27.7-3.6-41.7-3c-22.7,1-44.2,5.9-63.1,19.1C826,85.7,814.6,101.3,810.7,121.7z"/>
	</g>
	<path class="st0" d="M490.6,472.3c4.1-7,7.9-13.3,11.6-19.8c0.9-1.5,1.8-2.1,3.5-2.1c4.1,0.1,8.1,0,12.3,0
		c-2.3,10-4.5,19.8-6.8,29.6c-0.9,3.8-1.8,7.5-2.6,11.3c-0.2,1.1-0.7,1.4-1.8,1.4c-3.6-0.1-7.2-0.1-10.8,0c-1.6,0.1-1.5-0.6-1.2-1.7
		c1.1-4.4,2.1-8.9,3.1-13.3c0.1-0.5,0.1-0.9-0.1-1.5c-0.9,1.9-1.8,3.7-2.7,5.6c-1.5,3.2-3,6.5-4.5,9.7c-0.4,0.9-0.9,1.2-1.8,1.2
		c-1.4-0.1-2.8,0-4.1,0c-3.2,0-3.2,0-3.2-3.3c0-4.3,0-8.6,0-13c-0.2,0-0.4-0.1-0.7-0.1c-0.6,2.5-1.2,5-1.8,7.6
		c-0.6,2.5-1.2,5-1.7,7.5c-0.2,1-0.6,1.4-1.6,1.4c-4.1-0.1-8.1,0-12.5,0c1-4.4,1.9-8.6,2.9-12.9c2.1-9.1,4.2-18.1,6.2-27.2
		c0.4-1.8,1.1-2.3,2.9-2.2c3.4,0.1,6.8,0.1,10.2,0c1.6-0.1,2.2,0.2,2.4,2c0.7,6.2,1.6,12.3,2.4,18.5
		C490.3,471.2,490.4,471.5,490.6,472.3z"/>
	<path class="st0" d="M871.2,472.2c-1.5,6.6-2.9,12.7-4.3,18.8c-0.3,1.3-0.7,1.9-2.2,1.9c-3.9-0.2-7.9-0.1-12-0.1
		c1.3-5.9,2.6-11.7,4-17.4c1.8-7.7,3.5-15.3,5.3-23c0.3-1.3,0.6-2,2.2-1.9c3.4,0.2,6.8,0.1,10.1,0c1.3,0,1.9,0.3,2.4,1.6
		c2.7,6.6,5.4,13.2,8.3,20.2c1.3-5.8,2.6-11.1,3.8-16.5c0.4-1.7,0.4-4.1,1.5-5c1.1-0.9,3.4-0.3,5.2-0.3c2.3,0,4.6,0,6.8,0
		c0.9,0,1.5,0,1.2,1.3c-3.1,13.2-6.2,26.4-9.1,39.7c-0.3,1.2-0.8,1.3-1.8,1.3c-3.6,0-7.2-0.1-10.8,0c-1.2,0-1.7-0.4-2.1-1.4
		c-2.4-5.6-5-11.2-7.5-16.8C872,473.9,871.7,473.2,871.2,472.2z"/>
	<path class="st0" d="M324.9,493.2c-3.4,0-6.9,0.2-10.3-0.8c-4.5-1.3-6.6-3.8-6.4-8.6c0.4-8.5,2.4-16.6,5.7-24.4
		c1.8-4.3,5.2-7.1,9.7-8.2c7-1.8,14.1-1.9,21.1-0.3c4.8,1.1,7.2,4,6.9,8.9c-0.5,8.6-2.3,17.1-6,24.9c-3,6.3-8.7,7.9-15.1,8.4
		C328.7,493.3,326.8,493.2,324.9,493.2z M336.4,462.9c0.2-4-0.9-5-4-4.8c-2.7,0.2-3.9,2-4.6,4.1c-2,6-3.5,12.1-4.3,18.3
		c-0.5,4,1,5.2,4.9,4.4c1.9-0.4,2.8-1.7,3.4-3.3C334.1,475.3,335.4,468.7,336.4,462.9z"/>
	<path class="st0" d="M551.3,492.8c2.8-12.3,5.6-24.5,8.5-36.6c0.4-1.9,0.2-4.4,1.6-5.3c1.3-0.9,3.6-0.3,5.5-0.3
		c6.3,0.1,12.7-0.5,19,0.7c6.8,1.2,9.3,4.2,8.9,11.1c-0.4,7-2.1,13.8-5,20.2c-2.7,6.1-7.7,9-14.1,9.7
		C567.6,493.2,559.5,492.6,551.3,492.8z M569.9,484.9c2.9,0.1,5.6-1.2,6.9-4.5c2.2-5.6,3.6-11.4,4-17.5c0.2-3.1-1-4.4-4.2-4.6
		c-0.7-0.1-1.4,0-2.1-0.1c-1.3-0.2-1.7,0.4-2,1.6c-1.7,7.5-3.4,15.1-5.2,22.6C566.8,485,566.9,485,569.9,484.9z"/>
	<path class="st0" d="M1017.4,473.5c3.4,2.5,3.2,6,2.9,9.5c-0.2,3-1.2,6-1.1,9c0,0.9-0.5,0.8-1.1,0.8c-3.9,0-7.7,0-11.6,0
		c-1.5,0-1.1-1-1-1.7c0.4-2.7,0.9-5.3,1.4-7.9c0.2-1,0.1-1.9-0.1-2.9c-0.6-3-3.6-4.6-6.4-3.3c-0.7,0.3-0.6,1-0.8,1.6
		c-1,4.2-2,8.4-2.9,12.7c-0.2,1.1-0.6,1.6-1.9,1.5c-4-0.1-8,0-12.2,0c1-4.5,2-8.9,3-13.3c2.1-9,4.2-18,6.2-27c0.3-1.6,0.9-2.1,2.6-2
		c7.1,0.3,14.2-0.4,21.3,0.8c8.3,1.4,11.1,5.7,8.7,13.8C1023.2,468.8,1021.2,471.8,1017.4,473.5z M1003.4,470.4
		c5.4-0.2,8.5-4.1,7.6-9.2c-0.2-1.2-0.9-2-2-2.4c-0.8-0.3-1.8-0.3-2.6-0.5c-1.5-0.3-2.2,0.2-2.5,1.8c-0.5,2.8-1.1,5.5-1.9,8.2
		C1001.5,470.1,1001.7,470.8,1003.4,470.4z"/>
	<path class="st0" d="M387,473.5c3.4,2.7,3.1,6.3,2.8,9.8c-0.3,2.9-1.1,5.7-1.1,8.6c0,0.8-0.4,0.9-1,0.9c-3.9,0-7.7-0.1-11.6,0
		c-1.4,0-1.2-0.9-1-1.6c0.4-2.7,0.9-5.3,1.4-7.9c0.2-1,0.1-1.9-0.1-2.9c-0.6-3.1-3.5-4.6-6.4-3.4c-0.7,0.3-0.6,1-0.8,1.6
		c-1,4.2-2,8.5-2.9,12.7c-0.2,0.9-0.4,1.6-1.7,1.6c-4.1-0.1-8.1,0-12.5,0c1.2-5.2,2.3-10.3,3.5-15.3c1.9-8.3,3.8-16.5,5.7-24.8
		c0.4-1.6,0.9-2.2,2.7-2.2c7.1,0.3,14.2-0.4,21.3,0.8c8.2,1.4,11,5.7,8.6,13.7C392.6,469.2,391,471.2,387,473.5z M372.8,470.4
		c4.7-0.1,6.4-1.5,7.4-5.8c1-4.4-0.3-6.1-4.9-6.3c-1.3-0.1-1.6,0.4-1.9,1.5c-0.6,2.9-1.2,5.8-2,8.6
		C371,470.1,371.2,470.8,372.8,470.4z"/>
	<path class="st0" d="M247,464.6c0.2-1.4,0.5-2.7,0.6-4c0.1-0.8,0.3-1.9-0.9-2.3c-1.1-0.3-2.3-0.2-3,0.8c-1.8,2.9-2.1,5.4,0.8,7.4
		c1.5,1.1,3.2,1.9,4.8,2.8c2,1.1,4,2.1,5.7,3.7c2.3,2.1,3.3,4.7,2.7,7.8c-1.6,8.1-5.4,11.7-14,12.2c-4.5,0.3-9,0.6-13.4-0.3
		c-6.6-1.4-9.8-7.9-7.2-13.9c0.3-0.6,0.7-0.6,1.1-0.6c4.6,0,9.2,0,13.9,0c-0.2,1.6-0.4,3.1-0.6,4.6c-0.1,0.8,0,1.7,1,2.1
		c1.1,0.3,2,0.1,2.8-0.7c1.8-2.1,1.6-5.2-0.4-7c-1.4-1.3-3.1-2-4.8-2.9c-0.3-0.2-0.6-0.3-0.9-0.5c-6.4-3.3-8.2-6-7.6-10.9
		c0.8-6.6,4.3-10.6,10.7-12.1c5.2-1.2,10.4-1.4,15.6-0.4c6.8,1.3,9.9,6.5,8.2,13.2c-0.2,0.7-0.4,0.9-1.1,0.9
		C256.4,464.5,251.7,464.6,247,464.6z"/>
	<path class="st0" d="M812.9,478.7c-1.6,7.1-5.9,11.7-12.7,13.5c-6.6,1.8-13.4,1.6-20.1,0.2c-4.7-1-7-3.9-6.8-8.8
		c0.3-8.5,2.2-16.8,6-24.5c1.8-3.7,4.8-6.3,8.7-7.5c6.9-2.1,14-2.5,21-0.6c6,1.6,8.6,6.2,7.5,12.2c-0.2,1-0.4,1.5-1.6,1.5
		c-4.1-0.1-8.2-0.1-12.2,0c-1.3,0-1.4-0.4-1.2-1.5c0.3-1.8,0.6-3.9-1.7-4.7c-2.4-0.8-4.8,0.1-6.1,2.3c-0.6,1-1,2.1-1.4,3.2
		c-1.7,5.5-3.1,11-3.8,16.7c-0.2,1.6-0.5,3.4,1.4,4.3c1.8,0.8,4.6,0.1,5.9-1.4c0.9-1.1,1.4-2.4,1.8-3.7c0.2-0.6,0.3-1.1,1.1-1.1
		C803.4,478.7,808.1,478.7,812.9,478.7z"/>
	<path class="st0" d="M655,464.6c-1.9,0-3.9,0-5.8,0c-1.1,0-2,0-1.3-1.5c0.1-0.1,0-0.3,0-0.4c0.1-1.7,0.3-3.4-1.6-4.3
		c-1.8-0.8-4.7-0.1-5.8,1.5c-1.3,1.7-1.9,3.7-2.4,5.7c-1.3,4.8-2.5,9.6-3.2,14.5c-0.2,1.7-0.6,3.6,1.2,4.6c1.7,1,4.9,0.2,6.2-1.5
		c0.5-0.7,1.1-1.5,1.3-2.3c0.3-2.1,1.5-2.4,3.4-2.3c3.5,0.2,7.1,0.1,10.6,0c1.7-0.1,1.7,0.5,1.3,1.9c-2.2,6.8-7,10.7-13.8,12
		c-6.1,1.2-12.4,1.2-18.5-0.2c-4.8-1.1-7-4-6.9-9c0.2-8.1,2.1-15.8,5.4-23.2c3-6.8,8.8-9.4,15.7-10c4.9-0.5,9.8-0.7,14.6,0.7
		c6,1.8,8.8,6.6,7.4,12.7c-0.2,0.9-0.7,1-1.4,1C659.3,464.5,657.1,464.6,655,464.6z"/>
	<path class="st0" d="M659.8,492.8c5.7-10.3,11.3-20.3,16.8-30.3c1.9-3.5,3.9-7,5.8-10.5c0.6-1.1,1.2-1.6,2.5-1.5
		c3.5,0.1,6.9,0.1,10.4,0c1.3,0,1.8,0.3,1.9,1.7c1.2,12.8,2.4,25.6,3.7,38.3c0.2,1.9-0.3,2.4-2.2,2.3c-3.2-0.2-6.4-0.2-9.5,0
		c-1.7,0.1-2-0.5-2-2.1c0.1-4.4,0-4.1-4.3-4.5c-4.6-0.4-7.9,0.6-8.9,5.5c-0.2,0.9-0.9,1-1.7,1C668.3,492.7,664.2,492.8,659.8,492.8z
		 M680.3,478.6c2.1,0,3.9,0,5.6,0c0.6,0,1.2,0,1.2-0.8c-0.1-4.3,0.2-8.5-0.3-13.2C684.5,469.5,682.4,473.9,680.3,478.6z"/>
	<path class="st0" d="M262.6,492.8c2.3-9.9,4.5-19.7,6.8-29.5c0.9-3.8,1.8-7.6,2.6-11.5c0.2-0.8,0.3-1.3,1.3-1.3
		c7.2,0.2,14.5-0.5,21.7,0.8c1.1,0.2,2.2,0.5,3.2,0.9c4.9,1.7,7.2,5.3,6.6,10.6c-0.9,8.4-6,13.8-14.8,15.5c-2.9,0.6-5.9,1-8.8,0.9
		c-1.4-0.1-1.9,0.4-2.1,1.8c-0.7,3.5-1.6,7-2.4,10.5c-0.2,0.8-0.2,1.4-1.3,1.4C271.2,492.7,267,492.8,262.6,492.8z M281.3,471.5
		c5.7,0.6,8.5-1.5,9.5-7.1c0.7-4.2-0.8-6-5.2-6.1c-0.9,0-1.3,0.1-1.5,1.1C283.2,463.4,282.2,467.4,281.3,471.5z"/>
	<path class="st0" d="M515.5,492.8c2.2-9.5,4.3-18.9,6.5-28.2c1-4.2,1.9-8.3,2.8-12.5c0.3-1.2,0.8-1.6,2.1-1.6
		c8.4,0.1,16.9,0.1,25.3,0c1.4,0,1.8,0.3,1.3,1.7c-0.7,2.1-0.4,5-1.7,6.2c-1.5,1.3-4.4,0.3-6.6,0.4c-2.3,0.1-4.6,0-6.8,0
		c-0.8,0-1.3,0.2-1.5,1c-0.5,2.4-1,4.7-1.6,7.2c3.5,0,6.9,0,10.5,0c-0.6,2.6-1.1,5-1.6,7.4c-0.2,0.9-0.8,0.9-1.5,0.9
		c-2.6,0-5.1,0.1-7.7,0c-1.3-0.1-1.8,0.4-2,1.7c-0.3,2.1-0.9,4.2-1.5,6.2c-0.3,1,0,1.3,1.1,1.3c4-0.1,8,0,12,0
		c1.2,0,1.6,0.3,1.2,1.5c-0.7,2.2-0.3,5.3-1.9,6.5c-1.4,1.1-4.2,0.3-6.5,0.3c-6.6,0-13.1,0-19.7,0
		C517,492.8,516.3,492.8,515.5,492.8z"/>
	<path class="st0" d="M836.6,467c3.2,0,6.2,0,9.2,0c1,0,1.4,0.2,1.1,1.3c-0.5,1.9-1,3.7-1.3,5.6c-0.2,1.3-0.8,1.5-1.9,1.4
		c-2.6-0.1-5.1,0-7.7,0c-1,0-1.4,0.3-1.6,1.3c-0.5,2.6-1.2,5.1-1.8,7.8c5,0,9.8,0,14.8,0c-0.6,2.6-1.2,4.9-1.6,7.3
		c-0.2,0.9-0.7,1-1.5,1c-8.7,0-17.4,0-26.1,0c-1.7,0-1.1-1-0.9-1.7c2.5-10.9,5-21.9,7.6-32.8c0.5-2.1,1-4.2,1.4-6.3
		c0.2-1,0.6-1.5,1.8-1.5c8.6,0.1,17.3,0,25.9,0c1,0,1.4,0.2,1,1.3c0,0.1,0,0.1,0,0.2c-0.5,2.2-0.4,5-1.8,6.4
		c-1.3,1.4-4.2,0.3-6.4,0.4c-2.3,0.1-4.6,0-6.8,0c-0.9,0-1.5,0.1-1.7,1.2C837.8,462.3,837.1,464.6,836.6,467z"/>
	<path class="st0" d="M985.1,450.6c-0.6,2.4-1.2,4.6-1.6,6.9c-0.2,1.1-0.7,1.3-1.6,1.3c-3.9,0-7.9,0-11.8,0c-1.2,0-1.9,0.2-2.1,1.6
		c-0.3,2.2-1,4.3-1.5,6.7c3.1,0,6,0.1,9,0c1.5-0.1,1.6,0.5,1.3,1.7c-0.5,1.7-0.9,3.5-1.2,5.2c-0.2,1.2-0.7,1.5-1.9,1.5
		c-2.6-0.1-5.1,0-7.7,0c-1,0-1.4,0.2-1.6,1.3c-0.4,2.1-0.9,4.2-1.5,6.2c-0.3,1.2-0.2,1.7,1.3,1.6c4.3-0.1,8.7,0,13.2,0
		c-0.6,2.6-1.2,4.9-1.7,7.4c-0.2,1-0.8,0.9-1.5,0.9c-8.6,0-17.3,0-25.9,0c-1.3,0-1.4-0.4-1.2-1.5c2-8.3,3.8-16.7,5.8-25
		c1.1-4.6,2.2-9.3,3.2-13.9c0.3-1.3,0.6-1.9,2.2-1.9c8.4,0.1,16.7,0.1,25.1,0.1C983.9,450.5,984.4,450.6,985.1,450.6z"/>
	<path class="st0" d="M949.3,450.5c-0.6,2.5-1.1,4.7-1.5,6.9c-0.2,1.1-0.7,1.4-1.8,1.4c-2.8-0.1-5.7,0.1-8.5-0.1
		c-2-0.2-2.6,0.7-2.9,2.4c-2.2,9.9-4.5,19.7-6.7,29.6c-0.3,1.5-0.9,2.1-2.5,2c-3.9-0.2-7.7-0.1-11.8-0.1c1.4-6.1,2.8-12,4.1-17.9
		c1.1-4.8,2.1-9.5,3.3-14.3c0.4-1.7-0.1-1.8-1.5-1.8c-3,0.1-6.1,0-9.1,0c-1,0-1.3-0.2-1-1.3c0.6-2.2,0.4-5.2,1.9-6.6
		c1.4-1.4,4.3-0.4,6.6-0.4C928.3,450.5,938.7,450.5,949.3,450.5z"/>
	<path class="st0" d="M403.2,492.8c2.5-10.7,4.9-21.2,7.3-31.7c0.5-2.3,0.5-2.3-1.9-2.3c-2.7,0-5.4-0.1-8.1,0
		c-1.7,0.1-1.8-0.6-1.4-1.9c0.2-0.8,0.4-1.6,0.6-2.4c1-4,1-4,5-4c10.6,0,21.2,0,31.7,0c0.8,0,1.5,0,2.5,0c-0.6,2.6-1.2,5-1.7,7.4
		c-0.2,1-0.8,0.9-1.5,0.9c-3,0-6.1,0.1-9.1,0c-1.5-0.1-2,0.4-2.3,1.8c-2.3,10.2-4.7,20.3-7,30.4c-0.3,1.4-0.8,1.8-2.1,1.8
		C411.3,492.7,407.3,492.8,403.2,492.8z"/>
	<path class="st0" d="M708.2,492.8c1.4-6,2.7-11.8,4-17.7c1.7-7.6,3.6-15.2,5.2-22.8c0.3-1.4,0.8-1.9,2.3-1.8c3.9,0.1,7.8,0,11.9,0
		c-2.6,11.4-5.2,22.6-7.8,33.9c4.7,0,9.3,0,14,0c-0.6,2.6-1.1,5-1.6,7.4c-0.1,0.7-0.4,0.9-1.1,0.9
		C726.2,492.8,717.3,492.8,708.2,492.8z"/>
	<path class="st0" d="M595.6,492.8c1.6-7,3.2-13.8,4.7-20.6c1.5-6.5,3.1-13,4.5-19.5c0.4-1.7,1-2.2,2.7-2.1c3.4,0.2,6.8,0.1,10.1,0
		c1.2,0,1.4,0.3,1.2,1.4c-3.1,13.2-6.1,26.4-9.1,39.6c-0.2,1-0.7,1.2-1.7,1.2C603.9,492.7,599.9,492.8,595.6,492.8z"/>
	<path class="st0" d="M1221.7,403.4c0.1,0.1,0.1,0.1,0.2,0.2c0,0,0,0.1,0,0.2c-0.1,0.2-0.2,0.2-0.2,0
		C1221.6,403.6,1221.6,403.5,1221.7,403.4z"/>
	<path class="st0" d="M285.3,381.9c-12.9,0.1-25.8,0.1-38.8,0c-2.7,0-2.9-0.3-3-2.7c0.7-2.8,1-5.6,1.2-8.4c0.4-2.5,0.8-5,1.1-7.4
		c-9,0-17.9,0-26.9,0c-0.6,2.4-0.7,4.9-1,7.4c-0.4,2.5-0.7,5-1.1,7.5c-0.1,0.5-0.4,0.9-0.4,1.4c-1,7.6-1.9,15.2-3.1,22.7
		c-0.3,1.8,0.1,2,1.7,2c22.4,0,44.8-0.1,67.1,0c1.9,0,2.3-0.7,2.5-2.3c0.8-5.9,1.6-11.9,2.5-17.8
		C287.7,382.6,287.3,381.9,285.3,381.9z M248.1,346.4c0.1-0.3,0.3-0.5,0.3-0.8c0.7-5.3,1.4-10.6,2.1-15.9c0.8-5.1,1.6-10.2,2.1-15.3
		c0.7-1.7,0.6-3.6,0.8-5.4c0.1-1-0.5-1.3-1.4-1.3c-7.9,0-15.8,0-23.7,0c-1.1,0-1.7,0.5-1.8,1.6c-0.1,1.6-0.7,3.1-0.4,4.7
		c-0.6,1.6-0.6,3.2-0.8,4.8c-0.6,3.6-1.1,7.3-1.6,11h0c-0.1,1.2-0.1,2.3-0.3,3.5c-0.7,4.3-1.2,8.7-1.8,13c-0.4,2.9-0.9,5.8-1.3,8.7
		c-0.4,2.8-0.8,5.6-1.1,8.3c9,0,17.9,0,26.9,0c0.3-2.6,0.7-5.2,1-7.8C247.6,352.5,247.9,349.4,248.1,346.4z M210.7,321
		c-0.9-4-3.3-6.9-6.6-9.1c-5.9-4-12.8-4.9-19.6-5.3c-6.4-0.4-12.8,0-19.3-0.1c-7.9-0.1-15.6,1-22.9,4.2c-4.7,2.1-8.7,5.2-11.2,9.9
		c-2.1,2.6-3.3,5.7-4.6,8.7c-0.7,2.6-2,5.1-2.1,7.8c8.2,0,16.5,0,24.7,0c-8.2,0-16.5,0-24.7,0c-0.7,2.2-1.3,4.3-1.3,6.6
		c-0.6,2.3-0.9,4.7-1.1,7.1c9,0,18,0,26.9,0c0.7-2.2,0.7-4.4,0.9-6.6c0.5-2.2,1-4.4,1.6-6.6c-0.2-0.2-0.3-0.3-0.5-0.4
		c0.2,0.1,0.4,0.2,0.5,0.4c1.3-3.5,3.6-6,7-7.5l0,0c4.2-1,8.4-0.8,12.7-0.9c3.6-0.1,7.1,0.5,10.5,1.7l0,0c3.1,2.2,3.4,5.4,3.4,8.7
		c9.1,0,18.2,0,27.3,0c0.6-3,0.4-6.1,0.4-9.1C212.1,327.4,212.1,324.1,210.7,321z M1268.7,307.8c-11.8,0-23.6,0-35.4,0
		c-1.4,0-2,0.5-2.5,1.7c-0.9,2.1-1.8,4.2-2.7,6.2h0c-1.8,4.3-3.6,8.6-5.4,12.8c14.9,0,29.9,0,44.8,0c0.7-4.1,1.4-8.2,1.7-12.4
		c0.8-2.3,0.8-4.7,1.2-7C1270.7,307.7,1269.6,307.8,1268.7,307.8z M361.7,354.9c-0.1,0.9-0.2,1.7-0.3,2.6c8.2,0,16.4,0,24.6,0
		c-8.2,0-16.4,0-24.6,0c-0.4,3-0.9,6.1-1.3,9.1h0c-0.4,1.9-0.8,3.9-1.3,5.8c-0.5,2.2-1.4,4.3-2.7,6.2l0,0c-3.1,2.9-6.9,4-11,4
		c-6.5,0.1-13,0-19.4,0.1c-1.9,0-2.5-0.8-2.2-2.6c0.2-1.2,0.3-2.5,0.4-3.7c-8.8,0-17.6,0-26.5,0c-1.2,8.6-2.5,17.2-3.8,25.8
		c-0.2,1.5,0.1,2,1.8,2c16.1-0.1,32.2,0,48.3,0c4.8,0,9.5-0.4,14.2-1.2c9.9-1.8,18.1-6.2,23-15.5c1.4-2.6,2.2-5.5,3.3-8.2
		c1.5-4,2.1-8.2,2.8-12.5h0c0.7-3,1-6,1.3-9.1c0.8-3.7,1.2-7.5,1.6-11.3c-9,0-18,0-27,0C362.5,349.5,362.1,352.2,361.7,354.9z
		 M384.9,315.2c-1.1-1.6-2.8-2.4-4.5-3.2c-5.7-3.1-12-4.1-18.3-4.2c-16.8-0.2-33.6-0.1-50.4-0.1c-4.4,0-4.4,0-5.4,4.4
		c-0.2,1-0.2,2.1-0.2,3.1c-0.4,2.6-0.8,5.3-1.2,7.9c-0.4,2.8-0.8,5.5-1.2,8.3h0c-0.4,3-0.8,6.1-1.2,9.1c-0.4,3-0.8,6.1-1.3,9.1
		c-0.4,2.9-0.8,5.8-1.2,8.7c-0.5,2.7-0.9,5.5-1,8.2c-0.7,3.3-1.2,6.6-1.5,10c8.8,0,17.6,0,26.5,0c0.7-3.3,1-6.6,1.4-9.9
		c0.7-2.7,0.6-5.6,1.1-8.3h0c0.7-2.9,1.1-5.8,1.2-8.7c0.7-3,1-6.1,1.3-9.1c0.7-3,1.1-6,1.2-9.1c0.4-1.7,1.5-2.2,3.3-2.1
		c6.5,0.1,13,0.1,19.4,0c1.7,0,3.4,0.3,5,0.9c3.6,1.2,5.2,3.5,5.4,7.4c9.2,0,18.5,0,27.7,0c0.2-4.9-0.3-9.8-1.6-14.5
		C388.8,320,387.1,317.5,384.9,315.2z M363,346.8c9,0,18,0,27,0c0.3-0.5,0.4-1.2,0.4-1.8c0.2-2.4,0.5-4.9,0.7-7.3
		c-9.2,0-18.5,0-27.7,0C363.4,340.7,363.2,343.7,363,346.8z M183,357.2c9,0,18.1,0,27.1,0c1-5.8,1.8-11.6,2.2-17.4
		c-9.1,0-18.2,0-27.3,0C184.9,345.6,183.7,351.3,183,357.2z M115.4,307.7c-14,0-28,0.1-42,0c-6.6-0.1-13,0.5-19.4,1.7
		c-5.1,1-10,2.4-14.5,5c-4.7,2.2-9,5.1-12.4,9.1c-2.4,2.3-4.4,4.8-5.8,7.9c-2,3-3.6,6.1-4.5,9.6c-1.1,2.8-1.9,5.7-2.4,8.7
		c-0.7,2.7-1.1,5.5-1.3,8.3c7.8,0,15.6,0,23.5,0c0.1-2.7,0.5-5.3,1-7.9c1.2-3,2.4-6,4.1-8.7c2.7-3.4,5.6-6.6,9.1-9.1
		c0.4-0.2,0.8-0.3,1.1-0.5c7.5-4.9,15.9-6.7,24.7-7c5.9-0.2,11.8,0.5,17.7,1.1c5.7,0.7,11.3,1.2,17,1.8c4,0.4,4.2,0.1,4.2-4.1
		c0.8-2.7,1.1-5.5,1.2-8.3c0.7-1.7,0.5-3.5,0.9-5.2C118.2,307.7,117.1,307.7,115.4,307.7z M890,0.4c39.7,0,79.3,0,119,0
		c0.8,0,1.5,0,2.3-0.1c0.1-0.1,0.1-0.2,0-0.3h-124c0,0.1,0,0.2,0.1,0.3C888.2,0.3,889.1,0.4,890,0.4z M10,377
		c-0.7,2.6-0.9,5.2-0.8,7.8c0.4,8.2,3.3,14.8,11.3,18.2c3.6,1.6,7.5,2.3,11.5,2.3c12.9,0,25.8,0,38.7,0c1,0,2.1-0.1,3,0.5
		c0.2,1.3,0,2.6-0.2,3.9c-0.4,2.5-0.7,5.1-1,7.6c-0.1,1,0.1,1.5,1.3,1.5c8.6,0,17.3,0,25.9,0c1,0,1.4-0.4,1.6-1.4
		c0.6-4.2,1.3-8.4,1.9-12.7c0.3-1.6,0.5-3.3,0.8-4.9c1-7.1,2.1-14.2,3.1-21.2c0.7-2.1,0.7-4.4,1-6.6c0.6-3.7,1.2-7.5,1.8-11.2
		c0.2-1,0.1-1.7-1.3-1.7c-8.7,0-17.4,0-26.1,0c-0.7,0-1.4,0.1-1.5,1c-0.6,4-1.1,7.9-1.7,11.9c-0.6,2.1-0.8,4.4-1,6.6
		c-0.7,3-0.7,3-3.7,3c-6.9-0.1-13.9-0.4-20.8-0.3c-2.9,0-5.2-0.8-7.4-2.6c-0.9-0.7-1.8-1.5-2.7-2.2c-2.5-3-4.7-6.1-6-9.8
		c-0.9-2.8-1.2-5.7-1.3-8.7c-7.8,0-15.6,0-23.5,0c-0.6,3-1.2,6-1.3,9.1C10.8,370.3,10.2,373.7,10,377z M181.5,367.8L181.5,367.8
		c-0.7,3.2-1.4,6.4-2.9,9.3l0,0c-2.5,3.5-6,4.9-10.1,5.3c-5.1,0.4-10.2,0.6-15.2-0.4c-2.6-0.5-4.8-1.8-6.1-4.2c-9.5,0-19,0-28.4,0
		c-0.1,3.1,0.1,6.2,0.7,9.3c1.4,7.7,5.6,13,13.1,15.7c3.9,1.4,7.9,2.2,11.9,2.4c9.5,0.7,19,0.7,28.5,0c6.2-0.5,12.2-1.7,17.7-4.7
		c8.9-4.8,13-13,15.6-22.2l0,0c1.2-3.2,1.7-6.6,2.2-10c0.5-3.7,1-7.5,1.6-11.2c-9,0-18.1,0-27.1,0
		C182.5,360.7,182,364.3,181.5,367.8z M146.6,368.8c-9,0-18.1,0-27.1,0c-0.8,3-0.4,6.1-0.7,9.1c9.5,0,19,0,28.4,0
		C146,374.9,146.5,371.8,146.6,368.8z M147.7,359.6L147.7,359.6c0.6-2.9,1-5.8,1.2-8.7c-9,0-18,0-26.9,0c-0.4,2.9-0.8,5.8-1.2,8.7
		c-0.5,3-1.1,6-1.2,9.1c9,0,18.1,0,27.1,0C147,365.7,147.4,362.7,147.7,359.6z M533,325.6c-0.8-2.9-1.7-5.8-2.5-8.7
		c-0.7-2.6-1.4-5.2-2.1-7.7c-0.2-0.9-0.7-1.4-1.7-1.4c-12.3,0-24.7,0-37,0c-1.1,0-1.4,0.4-1.5,1.4c-0.3,2.6-0.8,5.1-1.2,7.7
		c-0.2,2.9-0.6,5.8-1.2,8.7c-0.3,2.6-0.6,5.2-0.9,7.9c16.9,0,33.7,0,50.6,0C534.6,330.9,533.8,328.2,533,325.6z M1145.7,353.4
		c-0.4,2.9-0.8,5.8-1.2,8.7c-0.4,2.9-0.8,5.8-1.2,8.7c-0.5,2.6-0.9,5.2-1,7.8c8.6,0,17.2,0,25.8,0c0.4-2.6,0.8-5.2,1.2-7.9
		c0.4-2.8,0.7-5.5,1.1-8.3c0.6-2.9,1-5.8,1.2-8.7c0.8-2.6,0.5-5.3,1.2-7.9c-8.6,0-17.2,0-25.7,0
		C1146.5,348.4,1146.1,350.9,1145.7,353.4z M721.8,353.8c-0.3-2.8-1.4-5.2-3-7.4c-2.2-3.1-5.6-4.6-9-5.7c-3.5-1.2-3-1-3-4.2l0,0
		c0.9-4.3,1.7-8.5,1.6-12.9c0.1-2.7-0.1-5.4-1.2-7.9c-1-2-2.3-3.7-4.3-4.9c-3.7-2.2-7.9-2.9-12.1-3c-16.9-0.1-33.7,0-50.6,0
		c-0.4,0-0.8,0-1.2,0c-0.6,0-1,0.2-1.1,0.9c-0.3,2.3-0.6,4.6-0.8,6.9c-0.4,2.6-0.8,5.3-1.2,7.9c-0.4,2.6-0.9,5.2-0.9,7.9
		c-0.1,0.5-0.3,0.9-0.4,1.4c-0.7,4.5-1.4,9.1-2,13.6c-0.3,2.5-0.6,5-0.9,7.4c-0.5,3-0.9,6-1.4,9.1c-0.4,2.6-0.7,5.3-1.1,7.9h0
		c-0.4,2.6-0.8,5.3-1.2,7.9l28.8,0c0.3-2.6,0.7-5.3,1-7.9h0c0.3-1.7,0.6-3.4,0.8-5.1c0.1-1,0.4-1.9,1.4-2.4
		c-0.2-0.1-0.4-0.2-0.7-0.3c0.2,0.1,0.5,0.2,0.7,0.3c9.8,0,19.7,0,29.5,0c1,0,2.1,0.1,3,0.4l0,0c0.8,1.8-0.1,3.6-0.1,5.4
		c0,0.9-0.2,1.9-0.4,2.8c-0.8,2.6-1.8,5-3.8,7l0,0c-2.8,2.3-6.1,3-9.6,3c-6.3-0.1-12.7,0-19,0c-3.3,0-3.3,0-2.8-3.2
		c-9.6,0-19.2,0-28.8,0c-1.2,8.5-2.4,16.9-3.6,25.4c-0.2,1.5,0.3,1.6,1.4,1.6c22.3,0,44.6,0.1,66.9-0.1c7.8-0.1,15-2.3,20.3-8.5
		c4.2-5,6.1-11,6.7-17.5h0c0.3-2.3,0.6-4.7,0.9-7c0.4-3.1,0.7-6.1,1.1-9.2C722.4,360.2,722.4,357,721.8,353.8L721.8,353.8z
		 M688.5,336c-0.3,1.9-0.6,3.8-0.9,5.7c-0.2,1.5-0.9,2.3-2.7,2.3c-6.8-0.1-13.5,0-20.3,0c-2.6,0-2.9-0.5-2.6-3.1
		c0.5-3.1,0.8-6.2,1.1-9.4c1.3-3.7,1.3-3.7,5.4-3.7c4,0,8,0,12,0c4.5,0,6.8,1.9,7.5,6.5C688.3,334.8,688.4,335.4,688.5,336
		L688.5,336z M805.7,308.2c-4.6-1.1-9.3-1.9-14-1.7c-10,0.3-20-0.8-29.8,1.2c-7.4,1.5-14.1,4.2-18.9,10.4c25.6,0,51.2,0,76.7,0
		c-0.5-0.8-0.9-1.7-1.5-2.5C815.1,311.4,810.5,309.5,805.7,308.2z M793.5,353.8c-0.5,2.6-0.9,5.2-1,7.8c-0.4,2.2-0.7,4.5-1.1,6.7h0
		c-0.7,2.8-1.3,5.6-2.5,8.3c-2.1,3.6-5.4,5.2-9.3,5.7c-5.5,0.7-11.1,0.8-16.6-0.4c-4-0.9-6.3-3.6-6.4-7c0.1-3.3,0.3-6.7,0.4-10
		c0-0.7,0.2-1.3,0.4-2c0.5-3.2,1.1-6.3,1.3-9.5h0c0.4-2.5,0.8-5,1.2-7.4h0c0.6-3.8,1.4-7.5,2.9-11c0.3-0.7,1-1.1,1.3-1.8
		c3.6-2.8,7.7-3.9,12.2-3.7c3.6,0.2,7.2-0.3,10.7,0.3c3.4,0.6,6.1,2,7.8,5.1c0,0,0.1-0.1,0.1-0.1c0,0-0.1,0-0.1,0.1
		c0.6,3.3,0.4,6.6,0.1,9.9 M732.8,345.9c-0.6,2.5-1,5-1.2,7.5c-0.5,3.2-1.1,6.4-1.6,9.6c-0.2,4-1.1,8-1.1,12.1
		c-0.3,3.4-0.1,6.8,0.3,10.1c1,7.7,4.2,13.8,11.7,17c4.2,1.8,8.7,2.8,13.2,3.1c9.7,0.7,19.3,0.7,29,0c6.2-0.5,12.3-1.8,17.8-4.8
		c9.3-5.2,13.4-13.9,15.8-23.7c1-2.7,1.4-5.5,1.8-8.3h0c0.3-2.2,0.7-4.4,1-6.6c0.3-2.6,0.7-5.2,1-7.9 M820.6,353.8
		c0.6-2.9,1-5.8,1.2-8.7c0.4-0.4,0.3-1,0.4-1.6c0.2-3.1,0.5-6.2,0.7-9.2c-0.3-3-0.5-6.1-0.8-9.1c-0.5-2.5-1.2-4.9-2.5-7.1
		c-25.6,0-51.2,0-76.7,0c-1.9,2.1-3.3,4.5-4.5,7.1c-0.7,2.4-2.2,4.5-2.5,7c-1.7,4.4-2.6,9-3,13.6 M794.7,344.7
		c-0.4,3-0.8,6.1-1.2,9.1 M889.6,307.8c-0.7,0-1.3,0.2-1.6,0.8c-1.4,2.3-3.1,4.5-4.1,7.1c-1.9,2.4-3.6,4.9-4.6,7.9
		c-0.8,0.1-1.1,0.8-1.4,1.4c-2.6,4.2-5.1,8.5-7.7,12.8c-0.8,1.3-1.6,2.7-2.5,4c-0.4,0.7-0.9,1.4-1.9,1.3c-1-0.1-1.2-1-1.5-1.8
		c-0.9-2.4-1.3-5-2.5-7.3h0c-0.4-2.5-1.5-4.8-2.5-7.1c0.1-1-0.4-1.9-0.6-2.8c-0.5-2-1.7-3.8-1.9-5.9c-1-2.9-2-5.7-2.9-8.6
		c-0.4-1.3-1-1.8-2.5-1.8c-5.4,0.1-10.8,0-16.1,0c-3.5,0-7,0-10.6,0c-0.8,0-1.9-0.1-1.3,1.3c1.5,2.9,2.2,6.2,3.9,9.1
		c1.1,3.1,2.3,6.2,3.7,9.1c0.6,2.5,1.7,4.8,2.9,7.1c1.3,3.5,2.4,7.1,4.1,10.4c0.8,2.4,1.8,4.8,2.9,7.1c0.7,2.3,1.6,4.4,2.6,6.6
		c1.2,3.1,2.2,6.2,3.7,9.1c1.3,2.5,1.1,5.1,0.5,7.7c-0.1,0.6-0.1,1.2-0.1,1.8c-0.4,2.2-0.7,4.3-1.1,6.5c-0.9,6.3-1.8,12.7-2.7,19
		c-0.1,1-0.3,1.9,1.3,1.8c7.9-0.1,15.9,0,23.8,0c0.9,0,1.4-0.1,1.5-1.2c1.2-8.7,2.4-17.5,3.6-26.2c0.6-3.4,0.6-7.1,3.1-9.9
		c2.1-2.6,3.9-5.5,5.7-8.3c1.8-2.1,3.2-4.6,4.7-7c2-2.1,3.4-4.7,4.9-7.1c1.8-2,3-4.4,4.6-6.6c0.9-1.3,1.9-2.5,2.7-3.8
		c2.3-3.4,4.5-6.8,6.8-10.3c2.1-2.4,3.8-5.1,5.4-7.9c2-2.1,3.5-4.7,5.2-7.1c0.6-0.8,0.4-1.2-0.7-1.2
		C907.6,307.8,898.6,307.8,889.6,307.8z M1144.8,316.9c1.8-2.3,3.9-4.3,4.4-7.5c0.2-1.4-0.2-1.7-1.5-1.7c-8.3,0-16.5,0-24.8,0
		c-0.8,0-1.4,0.2-1.9,1c-1.3,2.3-2.7,4.6-4.1,6.9c-2.2,3.6-4.4,7.2-6.6,10.8c-1.9,3.2-3.9,6.4-5.8,9.5c-1.1,1.8-2.1,3.6-3.3,5.4
		c-0.5,0.8-0.9,1.8-2.1,1.6c-1.2-0.2-1.3-1.2-1.5-2c-1-2.8-1.8-5.6-2.6-8.4c-8.7,0-17.3,0-26,0c8.7,0,17.3,0,26,0
		c-0.7-2.2-1.7-4.3-2.1-6.6c-1.1-2.9-2.2-5.8-3.3-8.7c-0.5-2.9-1.8-5.6-2.6-8.5c-0.2-0.9-0.9-1.1-1.8-1.1c-9.1,0-18.2,0-27.3,0
		c-1.3,0-1.4,0.5-1,1.5c1.2,2.8,2.4,5.7,3.6,8.5c0.8,2.9,2.2,5.5,3.3,8.3c0.6,2.5,1.9,4.7,2.9,7c1.5,3.7,2.7,7.6,4.5,11.2
		c0.9,2.4,1.7,4.8,2.9,7.1h0c0.7,2.5,1.8,4.8,2.9,7.1c0.9,2.8,2,5.6,3.3,8.3c1.2,2.6,1.7,5.3,0.9,8.1c-0.2,0.7-0.2,1.5-0.3,2.2
		c-0.2,0.8-0.4,1.6-0.5,2.4c-1.1,7.8-2.1,15.6-3.2,23.4c-0.2,1.2,0,1.6,1.3,1.6c7.9,0,15.8-0.1,23.6,0c1.3,0,1.7-0.5,1.8-1.6
		c1.1-8.6,2.3-17.2,3.4-25.8c0.8-3.6,0.7-7.4,3.4-10.3c2.1-2.6,3.9-5.4,5.7-8.3c1.7-2.1,3.1-4.4,4.6-6.6c1.8-2.4,3.6-4.8,5.1-7.5
		c2-2.5,3.7-5.2,5.4-7.9l0,0c2.5-3,4.4-6.4,6.6-9.5C1140.5,323.6,1142.8,320.4,1144.8,316.9z M1048.9,307.7
		c-19.9,0.6-39.8-1.3-59.7,1.3c-4.9,0.7-9.7,1.9-14.1,4.1c-3.9,1.4-7.4,3.6-10.6,6.2c-2.5,2.1-5.1,4.2-6.8,7.1
		c-2.1,1.8-3.5,4.1-4.6,6.7c-1.5,2.3-2.7,4.8-3.3,7.5c-1.5,3-2.1,6.3-2.8,9.6c-0.8,3.8-1.4,7.7-1.8,11.6c-0.5,3.3-1.1,6.6-1.6,10
		c-0.5,2.4-0.8,4.9-1,7.4c-0.7,2.7-0.5,5.4-0.3,8c0.8,7.9,4.6,13.6,12.3,16.4c3.3,1.2,6.8,1.8,10.3,1.8c12.8,0,25.6,0,38.4,0
		c0.5,0,1,0,1.5,0c1.6,0,2.4,0.7,2.1,2.5c-0.5,3-0.8,6-1.3,9c-0.3,1.6,0.1,2,1.7,2c8.2-0.1,16.5-0.1,24.7,0c1.9,0,2.3-0.7,2.5-2.3
		c0.7-5.1,1.5-10.2,2.3-15.3c1.1-7.2,2.1-14.5,3.2-21.7c1-4.4,1.3-8.8,2-13.3c0.7-2,0.6-4.2,1.1-6.3c0.2-0.9-0.6-0.8-1.1-0.8
		c-8.8,0-17.7,0-26.5,0c-0.8,0-1.2,0.3-1.4,1.1c-0.3,2-0.8,3.9-0.8,5.9c-1,4.4-1.6,8.8-2.1,13.3c-0.2,1.7-1.1,2.2-2.8,2.2
		c-5.8-0.2-11.7,0-17.5-0.2c-4.1-0.1-8.5,0.5-11.8-2.9v0c-2.4-2.2-4.6-4.6-6.3-7.3c-1.5-3-2.6-6.2-3.2-9.6
		c-0.2-3.8-0.1-7.5,0.8-11.2c1.3-3.3,2.6-6.5,4.5-9.5v0c2.2-2.6,4.4-5.3,7.1-7.5c3.7-2.4,7.6-4.5,11.6-6.2c0.9,0.1,1.6-0.2,2.4-0.5
		c3.3-1.1,6.8-1.7,10.3-2c8-0.6,15.9,0.5,23.8,1.3c5.6,0.6,11.3,1.2,16.9,1.8c0.9,0.1,1.1-0.5,1.2-1.1c0.6-4.3,1.2-8.5,1.7-12.8
		c0.3-1.4,0.6-2.8,0.8-4.2C1050.8,308.5,1050.6,307.7,1048.9,307.7z M549.6,372.8c-0.1,0.8-0.4,1.3-1.3,1.3c-0.8,0-1.2-0.5-1.4-1.2
		c-0.2-0.7-0.5-1.4-0.7-2.1c-8.3,0-16.5,0-24.8,0c0.8,2.6,1.5,5.3,2.3,7.9c2.3,8.2,4.6,16.3,6.9,24.5c0.3,1,0.9,1.2,1.8,1.2
		c12.3,0,24.6,0,36.9,0c1,0,1.4-0.2,1.6-1.3c1.1-8.3,2.2-16.5,3.4-24.8c0.6-2.7,0.9-5.5,1.1-8.3c-8.4,0-16.9,0-25.3,0
		C549.9,370.9,549.7,371.9,549.6,372.8z M1138.6,403c-0.2,1.4,0.5,1.4,1.5,1.4c7.6,0,15.2,0,22.8,0c1.4,0,1.8-0.5,1.8-1.8
		c0.1-1.4,0.4-2.9,0.6-4.3c0.9-6.5,1.8-13.1,2.7-19.6c-8.6,0-17.2,0-25.8,0c-0.1,0.3-0.2,0.5-0.3,0.8
		C1140.9,387.3,1139.8,395.2,1138.6,403z M543.5,361.6c-0.8-3.8-2-7.5-3.3-11.2c-0.6-3.2-1.8-6.3-2.7-9.5c-0.7-2.5-1.4-5-2.1-7.5
		c-16.9,0-33.7,0-50.6,0c-0.5,2.8-1.1,5.5-1.2,8.3c-0.5,3.2-1.2,6.3-1.3,9.5c-0.6,2.9-1.1,5.8-1.2,8.7c-0.4,2.5-0.8,5-1.1,7.5
		c-0.4,3-0.8,6.1-1.3,9.1c-0.2,0.6-0.4,1.2-0.4,1.8c-1.1,8-2.2,16-3.3,24c-0.2,1.5,0,2.1,1.7,2c6.1-0.1,12.3,0,18.4-0.1
		c1.6,0,3.7,0.7,4.8-0.3c1.1-0.9,0.7-3,0.9-4.5c1.1-7.6,2.1-15.3,3.1-22.9c0.7-2.9,1-5.8,1.2-8.7c0.4-2.6,0.8-5.2,1.2-7.9
		c0.4-2.8,0.7-5.5,1.1-8.3c0.5-3.3,1-6.7,1.4-10c0.2-0.9,0.3-1.9,0.5-2.8c0.1-0.8,0.5-1.5,1.3-1.6c1-0.1,1.4,0.6,1.6,1.5
		c0.2,0.9,0.6,1.7,0.8,2.5l0,0c0.9,3.3,1.6,6.7,2.8,10c1,3.6,2,7.2,3,10.7c0.8,2.9,1.7,5.8,2.5,8.7c8.3,0,16.5,0,24.8,0
		C545.3,367.8,544.4,364.7,543.5,361.6z M1191.3,310c0.1-2.2-1-2.2-2.6-2.2c-10.1,0-20.1,0.2-30.2-0.1c-3.2-0.1-5.1,0.9-6.5,3.7
		c-0.6,1.2-0.5,2.4-1,3.5c-0.1,0.7-0.1,1.4-0.2,2c-0.6,4-1.3,8-1.5,12c14.9,0,29.9,0,44.8,0c-0.7-4.7-1.4-9.4-2.1-14.1
		C1191.8,313.2,1191.3,311.6,1191.3,310z M428.1,332.8c0.3-3.4,0.3-3.4,3.7-3.4c14.1,0,28.3,0,42.4,0c2,0,2.8-0.6,2.5-2.5
		c0.9-3.8,1.5-7.7,1.6-11.6c0.7-1.7,0.4-3.5,0.9-5.2c0.7-2.3-0.4-2.3-2.1-2.3c-23.2,0-46.3,0.1-69.5,0c-2.1,0-2.9,0.7-3.1,2.6
		c-0.1,1.5-0.3,3-0.5,4.5c-0.6,4-1.1,8-1.7,12c-0.4,2.5-0.8,5-1.2,7.5c-0.4,3.2-0.8,6.4-1.3,9.5c-0.4,2.9-0.8,5.8-1.2,8.7
		c-0.6,2.2-0.6,4.4-0.9,6.6c-0.4,2.8-0.8,5.5-1.2,8.3c-0.5,3.4-0.9,6.9-1.4,10.3c8.8,0,17.7,0,26.5,0c0.5-3.5,1.2-6.9,1.3-10.4
		c0.1-2.7,1.8-2.9,4-2.9c12.7,0.1,25.4,0,38.1,0c5.4,0,5.4,0,5.5-5.4c0.6-2.2,0.7-4.4,0.9-6.6c0.2-1.5,0.3-3,0.8-4.4
		c0.6-2.1-0.4-2.3-2.1-2.3c-13.7,0.1-27.4,0-41.1,0c-1.5,0-2.8-0.1-2.8-2.1c0.7-3.1,1.1-6.3,1.3-9.5
		C428.2,333.9,428,333.3,428.1,332.8z M1219.8,335.5c-1.1,2.2-2.2,4.3-2.9,6.6c0.9,0.3,1.8,0.4,2.7,0.4c-0.9,0-1.8-0.1-2.7-0.4
		c-1.2,2.6-2.5,5.1-3.4,7.9c-1.5,3-2.9,6-4,9.2c-1.4,3.2-2.8,6.4-4.1,9.5c-0.6,1.3-1.2,2.6-1.8,3.9c-0.3,0.7-0.7,1.2-1.6,1.1
		c-0.9-0.1-1-0.7-1.3-1.4c-0.3-0.9-0.3-1.9-0.5-2.8c-0.3-3.2-0.9-6.4-1.5-9.6c-0.3-3.9-1.1-7.7-1.7-11.6c-0.2-3.6-1.1-7.2-1.7-10.8
		c0-3-1-5.8-1.3-8.7c-14.9,0-29.9,0-44.8,0c-0.7,2.9-1.1,5.8-1.3,8.7c-0.7,2.7-1.1,5.5-1.2,8.3c8.6,0,17.2,0,25.7,0
		c0.3-1,0.4-2,0.5-3c0.1-0.8,0.4-1.5,1.4-1.5c1.1,0,1.4,0.6,1.5,1.6c0.2,1.8,0.6,3.7,0.8,5.5h0c0.3,3.9,1,7.8,1.6,11.6
		c0.1,3.2,0.8,6.4,1.3,9.5c0.3,2.8,0.6,5.6,1.2,8.3c0,0.1,0,0.3,0,0.4c1.1,8.3,2.3,16.7,3.4,25c0.1,1.1,0.8,1.1,1.6,1.1
		c8,0,16,0,24,0c0.8,0,1.4-0.1,1.8-1c3.4-8.4,6.9-16.7,10.4-25c1.4-2.8,2.6-5.8,3.7-8.8c1.8-3.2,2.7-6.7,4.2-9.9
		c1.6-3.1,2.7-6.4,4.1-9.6c1.2-2.4,2.2-4.9,3-7.5c1.5-0.8,2.5-0.5,2.9,1.2c-0.6,2.9-1.1,5.8-1.3,8.7c-0.6,2.6-0.9,5.2-1.2,7.9
		c-0.4,2.9-0.8,5.8-1.2,8.7c-0.4,2.9-0.8,5.8-1.2,8.7c-0.1,0.6-0.4,1.2-0.4,1.8c-1.1,7.8-2.1,15.6-3.2,23.4
		c-0.2,1.2,0.2,1.4,1.3,1.4c7.7,0,15.5,0,23.2,0c1,0,1.4-0.3,1.6-1.4c1.1-8.4,2.3-16.8,3.4-25.2h0c0.8-2.8,0.6-5.8,1.2-8.7
		c0.6-2.9,1-5.8,1.2-8.7h0c0.7-2.6,0.7-5.3,1.1-7.9c0.4-2.9,0.8-5.8,1.2-8.7c0.4-2.8,0.8-5.5,1.2-8.3c0.3-2.4,0.6-4.7,0.9-7.1
		c-14.9,0-29.9,0-44.8,0C1221.8,330.8,1220.5,333.1,1219.8,335.5z M391.6,402.4c-0.3,1.7,0.3,2,1.9,2c23.7,0,47.4-0.1,71.1,0
		c2.2,0,2.6-0.8,2.9-2.6c0.7-5.6,1.5-11.2,2.4-16.8c0.3-1.6,0-2.3-1.9-2.3c-14,0.1-27.9,0-41.9,0c-5.1,0-5.1,0-4.4-5
		c-8.8,0-17.7,0-26.5,0c-0.1,0.3-0.2,0.5-0.3,0.8C393.8,386.6,392.8,394.5,391.6,402.4z M582.5,307.8c-7.4,0-14.8,0-22.2,0
		c-1.1,0-1.5,0.4-1.7,1.5c-0.4,3.4-1,6.8-1.6,10.1h0c-0.3,2.4-0.5,4.7-0.8,7.1c-0.4,2.9-0.8,5.8-1.2,8.7c-0.4,2.8-0.8,5.5-1.2,8.3
		c-0.5,2.6-0.8,5.2-0.9,7.8c-0.6,2.9-1.1,5.8-1.2,8.7c-0.5,3.3-1,6.7-1.5,10c8.4,0,16.9,0,25.3,0c0.7-3.1,1-6.3,1.3-9.5
		c0.7-2.9,1-5.8,1.2-8.7l0,0c0.8-2.7,0.7-5.6,1.2-8.3c0.9-2.7,0.6-5.6,1.2-8.3c0.4-2.9,0.8-5.8,1.2-8.7c0.3-2.3,0.9-4.7,0.8-7.1
		c0.9-3.4,1.1-6.9,1.6-10.3C584.2,307.9,583.4,307.8,582.5,307.8z"/>
	<g>
		<path class="st0" d="M1096.5,166.7c-20.7,0.1-37.5,16.9-37.5,37.6c0,20.9,16.8,37.6,37.6,37.6c20.9,0,37.8-16.7,37.8-37.5
			C1134.4,183.6,1117.3,166.6,1096.5,166.7z M1096.5,234.4c-16.8-0.1-30-13.7-29.9-30.7c0.1-16.1,13.9-29.6,30.2-29.5
			c16.7,0.1,30.1,13.8,29.9,30.6C1126.6,221.1,1112.9,234.5,1096.5,234.4z"/>
		<path class="st0" d="M1096.2,191.8c-2.1,0-4.2,0.1-6.2,0c-1.5-0.1-2,0.4-2.4,1.8c-1.2,4.2-2.5,8.3-3.9,13c-1.4-4.8-2.7-9-3.9-13.2
			c-0.3-1.2-0.8-1.6-2-1.5c-2,0.1-4,0.1-6,0c-1.4-0.1-1.7,0.4-1.7,1.7c0.1,6.6,0,13.3,0,19.9c0,3.5,0,3.4,3.4,3.5
			c1.3,0,1.6-0.4,1.6-1.6c-0.1-3.3,0-6.6,0-9.9c0-2.4,0-4.8,0-7.2c2.1,5.6,3.8,11.1,5.4,16.8c0.5,1.7,1.2,2,2.9,2.1
			c1.7,0,2.2-0.7,2.6-2.1c1.6-5.5,3.4-11,5.1-16.5c0.2,0,0.3,0,0.5,0c0,0.6,0,1.3,0,1.9c0,4.1,0,8.2,0,12.2c0,4.6,0,4.6,4.7,4.4
			c1,0,1.3-0.3,1.3-1.3c0-7.5,0-15.1,0-22.6C1097.5,192.1,1097.1,191.8,1096.2,191.8z"/>
		<path class="st0" d="M1119.2,207.1c-0.3-0.8-0.5-1.3,0.5-1.9c2.9-1.9,3.8-4.6,3.1-7.9c-0.7-3-3-5.1-6.3-5.3c-4-0.2-8-0.1-12-0.2
			c-1.4,0-1.8,0.4-1.7,1.7c0.1,6.3,0,12.6,0,18.9c0,4.6,0,4.5,4.5,4.5c1.1,0,1.6-0.3,1.5-1.5c-0.1-2.4,0-4.8,0-7.3
			c0-0.5-0.2-1,0.7-1.2c2.4-0.5,3.4,0.1,4.3,2.3c0.3,0.6,0.5,1.3,0.8,1.9c0.7,1.8,1,4.5,2.4,5.3c1.5,0.9,4,0.2,6.2,0.2
			c0-0.1,0.1-0.2,0.1-0.3C1121.8,213.4,1120.5,210.3,1119.2,207.1z M1114.6,202.3c-1.7,0.3-3.4,0.2-5.1,0.3c-0.7,0-0.8-0.4-0.8-0.9
			c0-0.8,0-1.5,0-2.3c0-3.3,0-3.3,3.3-3.2c0.8,0,1.6,0.1,2.5,0.2c1.5,0.3,2.2,1.3,2.3,2.7C1116.8,200.8,1116.1,202.1,1114.6,202.3z"
			/>
	</g>
	<g>
		<path class="st0" d="M585.1,298.6c-8.9,0-17.8,0-26.8,0c-5,0-7.9,2.5-8.6,7.4c-0.9,6.4-1.7,12.7-2.6,19.1
			c-0.4,3.1-0.9,6.2-1.4,9.4c-0.4-0.3-0.6-0.6-0.7-0.9c-2.7-9.4-5.5-18.8-8.2-28.2c-1.4-4.9-3.8-6.7-8.8-6.7c-16.1,0-32.1,0-48.2,0
			c-24.9,0-49.8,0-74.7,0c-6,0-8.8,2.5-9.5,8.6c-0.2,1.7-0.3,3.5-0.9,5.4c-2.7-3.7-5.8-6.5-9.7-8.6c-7.1-3.8-14.9-5.2-22.8-5.3
			c-18.5-0.2-36.9-0.1-55.4-0.1c-5.4,0-8.2,2.3-9,7.7c-1.7,12.2-3.4,24.3-5.1,36.5c-1.3,9.5-2.7,19-4,28.5c-0.2,1.1-0.6,1.4-1.7,1.4
			c-10.5,0-21,0-31.5,0c-1.1,0-1.7,0-1.5-1.5c2-13.6,3.8-27.2,5.7-40.8c1.1-7.7,2.3-15.3,3.1-23c0.6-5.2-2.9-8.8-8.1-8.8
			c-9.7,0-19.4,0-29,0c-4.5,0-7.5,2.7-8.1,7.2c-0.3,2-0.6,3.9-0.9,6.1c-1.4-2-2.7-3.7-4.3-5.1c-6.6-5.9-14.6-8.1-23.1-9
			c-9.7-1-19.5-0.7-29.2-0.3c-8,0.3-15.7,1.8-23,5.4c-3.8,1.9-7.1,4.4-10.3,7.6c0-0.7,0-1.1,0-1.5c0.8-7.2-2.1-10.4-9.4-10.4
			c-15.3,0-30.7,0-46,0c-7.1,0-14.1,0.6-21,2.1c-22.1,5-36.9,18-43.7,39.8C4,350,3.4,359.8,1.6,369.4c-0.5,3.1-0.6,6.3-1.6,9.3
			c0,3.3,0,6.6,0,10c0.6,0.3,0.4,0.8,0.4,1.3c0.8,4.8,2.4,9.2,5.3,13.1c6.4,8.2,15.2,11.2,25.1,11.5c9.5,0.3,18.9,0.1,28.4,0.1
			c4.2,0,4.2,0,3.8,4.1c-0.5,5.3,2.7,9.3,7.8,9.3c10.4,0.1,20.9,0.1,31.3,0c4.1,0,7-2.6,7.8-6.7c0.5-2.5,0.8-5,1.2-7.6
			c0.8-5,1.5-9.9,2.3-15.2c1.6,2,2.6,3.9,4.2,5.5c6,6.2,13.6,8.9,21.8,9.9c12.9,1.5,25.8,1.5,38.7,0c9.6-1.1,18.3-4.5,25.4-11.4
			c0.1-0.1,0.3-0.1,0.5-0.1c0,0.4,0.1,0.8,0,1.1c-1.3,5.6,2.7,10.2,9.2,10.2c26.6-0.2,53.1-0.1,79.7-0.1c17.8,0,35.5,0.1,53.3,0
			c9.5-0.1,18.7-1.5,27.3-5.8c3.2-1.6,6-3.8,8.9-6.3c-0.1,0.9-0.1,1.4-0.2,1.9c-1,6.3,2.2,10.3,8.6,10.3c33.3,0,66.6,0,99.9,0
			c3.4,0,6.8,0,10.2,0c4.8,0,7.9-2.7,8.5-7.5c1-7.3,2-14.6,3-22c0.3-2.1,0.6-4.2,1-6.3c0.5,0.4,0.6,0.7,0.7,1
			c2.7,9.5,5.4,19.1,8.2,28.6c1.2,4.2,3.9,6.2,8.2,6.2c13.6,0,27.2,0,40.9,0c4.8,0,7.8-2.5,8.5-7.3c0.8-5.3,1.5-10.7,2.2-16
			c2-14.4,4-28.7,6.1-43.1c1.8-13.1,3.7-26.1,5.5-39.2C594.3,302.3,590.8,298.6,585.1,298.6z M114.4,339c-0.6,3.2-1.1,6.4-1.5,9.6
			c-0.1,1.1-0.6,1.3-1.5,1.3c-5.2,0-10.5,0-15.7,0c-4.9,0-9.8,0-14.7,0c-5.2,0-8,2.4-8.8,7.6c-0.7,4.4-1.4,8.7-2,13.1
			c-0.2,1.3-0.5,1.9-2,1.8c-4.3-0.2-8.7-0.3-13-0.3c-1.7,0-2.9-0.5-4.1-1.6c-5.9-5.4-7.1-14.2-2.9-21.8c4.2-7.6,11-11.5,19.2-13.6
			c6.1-1.5,12.3-1.6,18.5-1c9.1,1,18.1,1.9,27.2,2.8C114.3,337.2,114.7,337.5,114.4,339z M114.7,330.6c-8.8-1-17.6-1.8-26.4-2.8
			c-11.7-1.3-23.1-0.7-33.6,5.2c-9.9,5.7-15.8,14.2-15.7,25.9c0.1,8.1,3.8,14.5,10.8,18.9c0.7,0.4,1.4,0.8,2.3,0.8
			c7.1,0.1,14.2,0.2,21.3,0.4c1.5,0,2-0.4,2.2-1.9c0.8-6,1.9-12,2.7-18c0.3-2,1-2.8,3.1-2.8c9.5,0.1,19.1,0,28.6,0.1
			c2.7,0,3,0.3,2.6,3c-2.7,17.7-5.4,35.3-8.1,53c-0.3,2.3-0.7,4.5-1,6.8c-0.2,1.5-0.8,2.2-2.4,2.2c-9.8,0-19.6,0-29.4,0
			c-1.8,0-2.5-0.8-2.2-2.5c0.4-3,0.8-6,1.3-9c0.2-1.5-0.2-1.8-1.7-1.8c-12.5,0.1-25,0.1-37.5,0c-4.5,0-8.8-0.9-12.9-2.8
			c-8.5-3.9-11.9-11.1-12.3-20c-0.3-6.3,1.2-12.3,2.1-18.5c1.1-7.7,1.9-15.5,4-23c5.9-20.5,19.5-32.6,40.2-36.9
			c5.9-1.2,11.9-1.7,17.9-1.7c6.9,0,13.8,0,20.7,0c8.6,0,17.3,0,25.9,0c3.1,0,3.2,0.1,2.8,3.2c-1,6.7-2,13.4-2.9,20.1
			C117.2,330.4,116.4,330.8,114.7,330.6z M204.2,390.6c-5.7,10.4-15.2,14.9-26.4,16.7c-6.4,1-12.8,0.9-20.9,0.9
			c-6.1,0-13.8,0.2-21.4-1.7c-9.6-2.4-16.3-7.8-18.4-17.9c-0.9-4.4-1.3-8.9-0.8-13.4c1.3-13.9,2.9-27.9,6.2-41.5
			c0.8-3.3,2.1-6.4,3.4-9.5c5.2-11.4,14.5-17.4,26.5-19c14-1.9,28.1-1.9,42.1,0.2c1.8,0.3,3.5,0.9,5.2,1.4
			c9.4,3.2,14,10.2,15.2,19.8c1,7.4,0.3,14.7-0.8,22.1c-1.4,8.9-2.1,18-4.2,26.8C208.7,380.7,206.9,385.8,204.2,390.6z M290.3,382.3
			c-0.7,5.3-1.5,10.5-2.2,15.8c-0.3,2.3-0.8,4.5-0.9,6.8c-0.1,1.8-0.9,2.1-2.5,2.1c-12,0-23.9,0-35.9,0c-11.7,0-23.5,0-35.2,0
			c-3.1,0-3.3-0.2-2.9-3.1c3.3-23.6,6.6-47.1,9.9-70.7c1.2-8.4,2.4-16.8,3.4-25.2c0.3-2,0.9-2.8,3.1-2.7c8.8,0.1,17.6,0.1,26.3,0.1
			c3.1,0,3.3,0.1,2.9,3.1c-1.6,11.3-3.2,22.5-4.8,33.8c-1.7,12-3.4,23.9-5.1,35.9c-0.3,1.8,1,1.3,1.8,1.3c12.7,0,25.4,0,38.1,0
			c0.4,0,0.8,0,1.2,0C290.4,379.3,290.7,379.6,290.3,382.3z M383.5,388.6c-5.1,10-13.7,15-24.3,17.1c-4.9,0.9-9.8,1.3-14.8,1.3
			c-7.7,0-15.3,0-23,0c-9.3,0-18.7,0-28,0c-2.5,0-2.9-0.4-2.5-2.9c2.7-19.1,5.4-38.3,8.1-57.4c1.8-13.1,3.7-26.2,5.5-39.4
			c0.2-1.4,0.6-2.1,2.2-2.1c18.9,0.1,37.7,0,56.6,0.1c4.6,0,9.2,0.9,13.6,2.3c10,3.1,15.1,10,16.4,20.2c0.9,7.2,0.3,14.3-0.8,21.5
			c-1.4,8.8-2.1,17.7-4.2,26.4C387.2,380.1,385.6,384.4,383.5,388.6z M467.1,407c-12.6,0-25.3,0-37.9,0c-12.6,0-25.2,0-37.7,0
			c-2.8,0-3.1-0.4-2.7-3.2c2.5-17.5,4.9-35,7.4-52.5c2.1-14.8,4.2-29.5,6.2-44.3c0.2-1.6,1.1-1.8,2.4-1.8c11.2,0,22.4,0,33.6,0
			c13.8,0,27.5,0,41.3,0c2.8,0,2.9,0.2,2.5,3c-1,7.1-2.1,14.2-3,21.3c-0.2,1.9-1,2.4-2.8,2.4c-14.4-0.1-28.9,0-43.3-0.1
			c-1.9,0-2.4,0.6-2.5,2.3c-0.2,2.5-0.5,5-1,7.4c-0.4,1.7,0.2,1.9,1.7,1.9c13.8-0.1,27.6,0,41.5,0c2.9,0,3.1,0.2,2.7,3.1
			c-0.8,6.2-1.8,12.4-2.5,18.7c-0.2,1.8-1.1,2.2-2.8,2.2c-14,0-27.9,0-41.9-0.1c-1.9,0-2.5,0.6-2.6,2.4c-0.3,3-0.7,5.9-1.2,8.8
			c-0.2,1.5,0.2,1.9,1.7,1.8c14.7-0.1,29.3,0,44,0c2.9,0,3.1,0.3,2.7,3.1c-1,7.2-2.1,14.3-3,21.5C469.4,406.6,468.7,407,467.1,407z
			 M586.9,307.8c-0.9,6.3-1.8,12.6-2.7,18.9c-2,14.3-4,28.6-6,42.9c-1.7,11.9-3.3,23.8-5,35.7c-0.2,1.3-0.7,1.8-2,1.8
			c-13.6,0-27.2,0-40.8,0c-1.4,0-1.7-0.8-2-1.9c-3.7-13-7.4-26-11.1-39c-1.8-6.3-3.6-12.6-5.4-18.9c-0.1-0.5-0.1-1.1-0.8-1.5
			c-1.3,9.1-2.6,18.2-3.8,27.2c-1.5,10.7-3,21.5-4.5,32.2c-0.2,1.4-0.8,1.9-2.1,1.9c-8.8,0-17.6,0-26.3,0c-2.1,0-2.5-0.5-2.2-2.7
			c1-7.2,2.1-14.3,3.1-21.5c2-14.3,4-28.6,6-42.8c1.5-11,3.1-22,4.6-33c0.2-1.3,0.7-1.7,2-1.7c13.5,0,27,0,40.4,0c1.5,0,2,0.8,2.3,2
			c5.5,18.9,11,37.9,16.5,56.8c0.2,0.7,0.4,1.3,0.6,2c0.1,0,0.2-0.1,0.3-0.1c1.1-7.8,2.2-15.6,3.3-23.4c1.7-11.9,3.3-23.8,5-35.7
			c0.2-1.2,0.7-1.6,1.9-1.6c8.9,0,17.8,0.1,26.7,0C586.9,305.2,587.1,306.2,586.9,307.8z"/>
		<path class="st0" d="M1271.6,298.6c-13.4,0-26.8,0-40.2,0c-3.9,0-6.6,1.7-8.1,5.3c-3.9,9-7.8,18.1-11.7,27.1
			c-1.8,4.2-3.6,8.4-5.6,12.9c-0.1-0.5-0.2-0.7-0.2-0.9c-1.9-12.5-3.8-25-5.7-37.4c-0.7-4.3-3.6-6.9-7.9-7c-23.7,0-47.4,0-71.1,0
			c-2.9,0-5.2,1.3-6.7,3.7c-1.2,1.9-2.3,3.8-3.4,5.7c-3,4.9-6,9.9-9.2,15.1c-2.1-6.3-4.1-12.2-6.1-18.1c-1.6-4.9-3.9-6.5-9-6.5
			c-26.1,0-52.1,0-78.2,0c-5.9,0-11.9,0.1-17.8,0.9c-10.4,1.4-20.2,4.5-28.9,10.4c-13.8,9.5-20.8,23.1-23.7,39.1
			c-1.8,9.7-3.2,19.5-4.5,29.3c-1.1,8.3-0.3,16.5,4.6,23.6c6.2,9.1,15.5,12.3,25.9,12.6c9.6,0.3,19.2,0.1,28.8,0.1
			c3.9,0,3.9,0,3.3,3.9c-0.8,5.3,2.7,9.4,8.1,9.5c10.2,0,20.5,0,30.7,0c4.5,0,7.6-2.7,8.3-7.1c3.1-20.5,6.2-40.9,9.3-61.4
			c0.8-5.5-2.5-9.5-8.1-9.6c-10.3-0.1-20.6-0.1-30.9,0c-4.7,0-7.6,2.7-8.3,7.3c-0.7,4.5-1.5,9-2,13.5c-0.2,1.4-0.7,1.8-2.1,1.8
			c-4.1-0.2-8.2-0.4-12.2-0.2c-2.6,0.1-4.3-0.9-5.9-2.7c-1.2-1.3-2.1-2.7-2.8-4.3c-3.4-8-0.6-17.7,7.1-23.8c6.7-5.3,14.6-7.4,23-7.5
			c11.9-0.1,23.6,2.1,35.5,3.1c4.5,0.4,8.4,0.1,10.7-4.5c0.2,0.3,0.4,0.5,0.5,0.7c5,12.5,10,24.9,15.1,37.4c0.4,1,0.4,2,0.3,3
			c-1.4,10.1-2.8,20.2-4.3,30.3c-0.8,5.5,2.6,9.5,8.1,9.5c9.5,0,19.1,0,28.6,0c4.6,0,7.6-2.7,8.2-7.3c1.3-9.2,2.6-18.3,3.8-27.5
			c0.4-2.8,0.9-5.4,2.7-7.9c4.1-5.6,7.9-11.5,11.8-17.2c2-2.9,3.9-5.7,6.2-9.1c-0.1,1.2-0.1,1.8-0.2,2.4c-1,7.1-2,14.2-3,21.3
			c-1.7,12.1-3.5,24.2-5.1,36.3c-0.7,4.8,2.9,8.9,7.8,8.9c9.5,0,19.1,0,28.6,0c4.2,0,7.2-2.7,7.9-6.8c0.3-1.9,0.6-3.9,0.9-5.8
			c0.6,1.9,0.8,3.7,1.1,5.5c0.6,4.4,3.7,7.1,8.2,7.1c9.3,0,18.5,0,27.8,0c4,0,6.6-1.8,8.2-5.4c0.5-1.3,0.8-2.7,1.9-3.9
			c0.4,6.7,3.1,9.3,9.6,9.3c8.9,0,17.8,0,26.8,0c4.4,0,7.4-2.4,8.1-6.8c2.2-15.4,4.4-30.7,6.6-46.1c2.5-17.4,4.9-34.9,7.4-52.3
			C1280.7,302.7,1277.3,298.6,1271.6,298.6z M1221.8,403.7c-0.1,0.2-0.2,0.2-0.2,0c0-0.1,0-0.2,0.1-0.4c0.1,0.1,0.1,0.1,0.2,0.2
			C1221.9,403.6,1221.8,403.7,1221.8,403.7z M1273.3,307.9c-3.4,24.1-6.8,48.1-10.2,72.2c-1.2,8.2-2.3,16.4-3.4,24.6
			c-0.2,1.6-0.7,2.3-2.5,2.3c-8.8-0.1-17.7,0-26.5,0c-2.2,0-2.6-0.4-2.3-2.8c2.2-15.9,4.5-31.7,6.7-47.6c0.1-0.5,0.1-1.1,0.2-1.9
			c-0.8,0.5-0.9,1.2-1.1,1.8c-6.7,16-13.5,32-20.2,48c-0.7,1.7-1.6,2.5-3.6,2.5c-8.6-0.1-17.1-0.1-25.7,0c-2.1,0-2.7-0.7-3-2.6
			c-2.2-16.4-4.5-32.7-6.7-49c-0.1-0.7-0.3-1.4-0.6-2.7c-1.6,11.6-3.2,22.7-4.7,33.7c-0.9,6.2-1.7,12.4-2.6,18.7
			c-0.2,1.4-0.9,1.9-2.3,1.9c-8.9-0.1-17.8,0-26.8,0c-2.1,0-2.5-0.5-2.2-2.7c2.6-18.4,5.2-36.8,7.7-55.2c1.3-9.4,2.7-18.9,4-28.3
			c0.1-0.8,0.2-1.6,0.2-2.6c-0.9,0.4-1.1,1.1-1.5,1.6c-11.4,16.6-22.7,33.3-34.1,49.9c-2,3-1.7,6.5-2.2,9.8
			c-1.3,8.3-2.4,16.7-3.5,25c-0.2,1.9-1,2.5-2.9,2.5c-8.8-0.1-17.7,0-26.5,0c-2.6,0-2.8-0.4-2.5-2.9c1.5-10.7,3-21.3,4.5-32
			c0.1-0.7,0-1.4-0.3-2c-8.2-20.3-16.4-40.5-24.6-60.8c-0.1-0.3-0.3-0.6-0.7-1.4c-0.6,3.9-1.1,7.4-1.6,10.8c-0.5,3.2-1,6.4-1.4,9.6
			c-0.2,1.8-0.9,2.5-2.8,2.3c-8.8-1-17.6-1.8-26.4-2.8c-11.4-1.3-22.5-0.7-32.9,4.8c-11.2,5.9-17.6,17-16.2,28.8
			c0.8,7.3,4.6,12.9,10.9,16.7c0.6,0.4,1.2,0.6,1.9,0.6c7.1,0.1,14.2,0.2,21.3,0.4c1.6,0,2.1-0.6,2.3-2c0.9-6.1,1.9-12.3,2.8-18.4
			c0.2-1.7,0.9-2.2,2.5-2.2c9.5,0.1,19.1,0,28.6,0c3.3,0,3.5,0.1,3,3.4c-3,19.8-6,39.6-9,59.4c-0.3,1.8-1.1,2.2-2.7,2.2
			c-9.6,0-19.2,0-28.8,0c-2.4,0-2.8-0.6-2.5-2.9c0.4-2.9,0.7-5.9,1.3-8.8c0.3-1.5-0.2-1.7-1.5-1.7c-12.6,0-25.2,0.1-37.7,0
			c-6.5-0.1-12.8-1.6-17.9-6c-6.1-5.2-8-12.4-7.2-19.9c1.4-12.7,2.7-25.4,6-37.8c5.8-21.8,20.5-33.9,42.4-37.8
			c5.7-1,11.5-1.3,17.3-1.3c14.7,0,29.4,0,44.2,0c12.3,0,24.5,0,36.8,0c1.7,0,2.4,0.5,2.9,2.1c3.4,10.3,6.9,20.6,10.5,31.4
			c3.2-5.3,6.3-10.3,9.3-15.3c3.4-5.5,6.8-11.1,10.1-16.6c0.6-1.1,1.4-1.5,2.6-1.5c23.2,0,46.3,0,69.5,0c1.5,0,2.1,0.5,2.3,1.9
			c2,13,3.9,26.1,5.9,39.1c1,6.7,2,13.4,3,20.1c0,0.3,0.2,0.5,0.4,1.1c2-4.6,3.9-8.9,5.7-13.1c6.8-15.8,13.6-31.5,20.4-47.3
			c0.6-1.3,1.3-1.8,2.8-1.8c13.1,0.1,26.1,0,39.2,0C1273.3,305.2,1273.6,305.7,1273.3,307.9z"/>
		<path class="st0" d="M919.6,298.5c-10.2,0.1-20.5,0.1-30.7,0c-4-0.1-6.8,1.5-8.8,5c-3.8,6.5-7.8,12.9-11.7,19.3
			c-0.7-0.7-0.8-1.6-1.1-2.3c-1.8-5.3-3.5-10.6-5.3-15.9c-1.4-4.2-3.9-6.1-8.3-6.1c-10.7,0-21.4,0-32.1,0c-2.3,0-4.4,0.6-6,2.3
			c-0.7,0.8-1.3,0.6-2.2,0.3c-2.8-1.2-5.7-2.1-8.7-2.5c-14.1-2.1-28.3-2.1-42.3-0.3c-16.8,2.1-28.5,11.2-34.3,27.3
			c-1.5,4.2-2.6,8.5-3.7,13.1c-2.2-2.1-4.4-3.8-6.9-5c-0.9-0.4-0.7-1-0.6-1.7c0.3-2.2,0.6-4.4,0.8-6.6c0.4-6.9-0.7-13.4-5.5-18.7
			c-5.5-6.1-12.7-7.9-20.4-8c-18.2-0.1-36.4-0.1-54.5,0c-4.4,0-7.5,2.6-8.2,6.9c-1.3,8.7-2.5,17.5-3.7,26.2
			c-3.5,24.4-6.9,48.8-10.4,73.2c-0.8,5.9,2.5,9.8,8.5,9.8c22.5,0,45.1,0,67.6,0c7.2,0,14.1-1.2,20.5-4.8c5-2.8,8.9-6.7,11.9-11.8
			c5.4,9.7,14.2,13.9,24.4,15.4c14.4,2,28.8,2,43.1-0.3c9.3-1.5,17.7-5.3,24-12.7c6.8-7.9,10.1-17.4,11.9-27.4
			c1.3-7.3,2.3-14.7,3.5-22.6c2.9,7.2,5.6,13.9,8.3,20.6c0.2,0.6,0.2,1.1,0.1,1.6c-0.3,2.2-0.7,4.4-1,6.6
			c-1.2,8.2-2.4,16.4-3.4,24.6c-0.7,5.7,2.7,9.5,8.4,9.5c9.5,0,18.9,0,28.4,0c4.4,0,7.4-2.5,8-6.8c1.3-8.5,2.4-17.1,3.7-25.6
			c0.5-3.3,0.4-6.6,2.5-9.7c13.7-19.9,27.3-39.9,40.9-59.8c2-2.9,2.5-5.8,0.9-9C925.9,299.6,923,298.5,919.6,298.5z M724.9,357.6
			c-0.3,9.9-1.4,19.7-3.8,29.3c-3.6,13.9-13.7,21.2-28.8,21.3c-11,0-22,0-33,0c-11.6,0-23.2,0-34.8,0c-3.1,0-3.2-0.1-2.8-3.1
			c3.1-21.9,6.2-43.9,9.3-65.8c1.5-10.7,3-21.3,4.5-32c0.2-1.4,0.7-2,2.2-2c18,0,35.9,0,53.9,0.1c1.9,0,3.7,0.2,5.6,0.6
			c9.9,1.9,14.9,8.6,14,18.7c-0.3,3.8-1,7.5-1.5,11.3c-0.1,1.1-0.2,1.8,1.2,2.3C720.2,341.2,725.2,347.9,724.9,357.6z M823.7,351.7
			c-1.1,7.8-1.9,15.6-3.7,23.3c-1.9,8.3-4.8,16.2-10.8,22.5c-5.6,5.9-12.8,8.7-20.6,9.7c-13.7,1.7-27.4,2-41.1-0.3
			c-7.6-1.3-14.3-4.4-18.1-11.7c-3-5.9-3.4-12.3-3.2-18.8c0.3-8.9,2.1-17.7,3.2-26.5c0.9-6.9,2.1-13.8,4.3-20.4
			c4.8-14.5,14.7-22.5,29.7-24.6c6.5-0.9,13-0.8,19.4-0.8c7.8,0,15.6-0.2,23.3,1.7c11.7,2.9,17.7,10,18.9,21.9
			C825.9,335.7,824.8,343.7,823.7,351.7z M920.7,308.5c-13.7,20.1-27.3,40.2-41.2,60.1c-1.9,2.7-2.1,5.6-2.6,8.5
			c-1.3,9.1-2.6,18.3-3.8,27.5c-0.2,1.8-0.9,2.3-2.6,2.3c-8.9-0.1-17.8,0-26.7,0c-2.6,0-2.9-0.3-2.6-2.9c1.4-10.2,2.8-20.4,4.3-30.5
			c0.2-1.5,0.2-2.9-0.4-4.4c-8.1-20-16.2-40.1-24.3-60.2c-0.2-0.4-0.4-0.9-0.5-1.3c-0.6-1.7-0.2-2.3,1.6-2.4c1.3,0,2.6,0,3.9,0
			c9.1,0,18.2,0.1,27.4,0c1.7,0,2.4,0.6,2.9,2.1c3.2,9.8,6.5,19.5,9.7,29.3c0.2,0.6,0.4,1.1,0.8,2.1c6.5-10.7,12.8-21,19-31.4
			c0.9-1.5,1.9-2,3.6-2c10,0.1,19.9,0,29.9,0.1c0.8,0,2-0.5,2.5,0.5C922.1,306.8,921.3,307.7,920.7,308.5z"/>
		<path class="st0" d="M354.8,332.2c-3.8-0.6-7.6-0.2-10.8-0.3c-3.4,0-6.1,0.1-8.9-0.1c-1.8-0.1-2.3,0.6-2.5,2.2
			c-1.1,8.5-2.3,16.9-3.5,25.4c-0.9,6.3-1.8,12.6-2.6,18.9c-0.1,0.8-0.7,2,1.1,1.9c6.4-0.2,12.8,0.3,19.2-0.3c5.6-0.6,8-2.6,9.4-8
			c1.2-4.5,1.7-9.1,2.3-13.6c0.8-6.4,2.2-12.8,2.2-19.3C360.8,334.5,359.3,332.9,354.8,332.2z M354.2,340.6
			c-1.1,9.8-2.4,19.6-4.2,29.3c-0.4,2.3-1.6,3.4-4,3.6c-2.1,0.2-4.1,0-5.8,0.1c-2,0-3.5-0.1-5,0c-1.3,0.1-1.5-0.4-1.3-1.6
			c1.2-8.1,2.3-16.1,3.4-24.2c0.4-2.7,0.8-5.3,1.1-8c0.1-0.9,0.3-1.5,1.4-1.5c4.1,0.1,8.3,0.1,12.4,0.1
			C353.8,338.5,354.4,339,354.2,340.6z"/>
		<path class="st0" d="M176.1,332.2c-3.9-0.5-7.7-0.5-11.6-0.2c-7.5,0.6-9.5,2.4-11.2,9.8c-1,4.4-1.5,8.8-2.1,13.3
			c-0.8,6.3-2.2,12.5-1.9,18.9c0.2,3.4,1.2,4.7,4.5,5.5c2.7,0.7,5.5,0.5,8.2,0.5c1.9,0,3.7,0.1,5.6,0c6.1-0.4,8.7-2.5,10.3-8.3
			c1-3.6,1.5-7.3,1.9-11c0.9-7.1,2.4-14.2,2.5-21.4C182.3,334.4,180.9,332.9,176.1,332.2z M175.8,340.9c-0.7,6.6-1.7,13.1-2.6,19.7
			c-0.4,3.3-1,6.7-1.8,10c-0.4,1.5-1.2,2.4-2.8,2.6c-3.9,0.5-7.8,0.4-11.8,0.2c-1.5-0.1-1.1-1.2-1-2c0.4-4.1,0.8-8.2,1.5-12.3
			c0.9-5.7,1.4-11.4,2.7-17c0.5-2.1,1.5-3.2,3.7-3.4c1.9-0.2,3.9-0.1,5.8-0.1c1.4,0,2.9,0,4.3,0
			C175.5,338.4,175.9,339.2,175.8,340.9z"/>
		<path class="st0" d="M688.7,366.2c-4.3,0.1-8.6,0-12.8,0c-4.2,0-8.4,0-12.6,0c-1.4,0-2.1,0.1-2.2,1.8c-0.3,3.2-0.8,6.4-1.3,9.6
			c-0.3,1.5,0.1,1.7,1.5,1.7c5.2-0.1,10.4-0.2,15.5,0c10.1,0.4,12.4-3.8,13.4-11.7C690.2,366.4,689.9,366.1,688.7,366.2z"/>
		<path class="st0" d="M666.4,341.4c2.9-0.1,5.8,0,8.7,0c2.9,0,5.8,0,8.7,0c0.7,0,1.4,0.1,1.5-0.9c0.1-1.8,0.6-3.5,0.5-5.3
			c-0.2-3.1-1.5-4.7-4.6-4.8c-4.6-0.2-9.2,0-13.9-0.1c-0.9,0-1.1,0.4-1.2,1.2c-0.3,2.7-0.7,5.5-1.2,8.2
			C664.7,340.9,664.9,341.5,666.4,341.4z"/>
	</g>
</g>
</svg>
