<?xml version="1.0" encoding="utf-8"?>
<!-- Generator: Adobe Illustrator 21.1.0, SVG Export Plug-In . SVG Version: 6.00 Build 0)  -->
<svg version="1.1" id="Capa_1" xmlns="http://www.w3.org/2000/svg" xmlns:xlink="http://www.w3.org/1999/xlink" x="0px" y="0px"
	 viewBox="0 0 1280 312.9" style="enable-background:new 0 0 1280 312.9;" xml:space="preserve">
<style type="text/css">
	.st0{fill:#4D4D4D;}
	.st1{font-family:'Neuron-Bold';}
	.st2{font-size:19.3647px;}
</style>
<g id="XMLID_28_">
	<g id="XMLID_51_">
		<path id="XMLID_57_" class="st0" d="M311.5,132.6C300.8,69.3,263.4,27.3,202.4,6.7C191.8,3.1,180.7,2,169.8,0
			c-9.2,0-18.4,0-27.6,0c-8.6,2.2-17.6,2.8-26.2,5.4C60.3,22,23.8,58,6.6,113.5c-3.2,10.3-5.1,21-5.5,31.8c0,1.3,0.1,2.6-1.1,3.5
			c0,4,0,8.1,0,12.1c2,8,1.6,16.3,3.2,24.4c16.5,86,99.9,142,185.4,124.3C270,292.8,325.3,214.6,311.5,132.6z M285.8,162.4
			c-2.9,66.5-57.5,123.4-129.6,122.9c-71.8-0.5-129-59.1-128-129.4C27.6,85.8,86.6,25.3,161,27.5C230.3,29.5,289,87.9,285.8,162.4z"
			/>
		<g id="XMLID_52_">
			<path id="XMLID_55_" class="st0" d="M175.3,178.6c0-18.9-0.1-37.8,0.1-56.7c0-3.4-0.5-4.9-4.4-4.7c-8.8,0.3-17.6,0-26.4,0
				c-13.3,0-13.3,0-13.3,13.5c0,9.6,0,10,9.5,9.6c5.4-0.2,6.2,1.8,6.2,6.6c-0.2,29.2,0,58.4-0.2,87.6c0,4.4,1.4,5.6,5.5,5.5
				c6-0.2,12.1-0.2,18.1,0.1c3.9,0.2,5.3-0.8,5.2-5.2C175.1,216,175.3,197.3,175.3,178.6z"/>
			<path id="XMLID_53_" class="st0" d="M161.5,102.4c9.1,0,16-7,16.1-16.5c0-9.1-7.3-16.5-16.3-16.4c-9,0.1-16.3,7.6-16.3,16.7
				C144.9,95.2,152.3,102.4,161.5,102.4z"/>
		</g>
	</g>
	<g id="XMLID_30_">
		<path id="XMLID_48_" class="st0" d="M644.2,202.6c-8-2.9-16.4-3.7-24.9-2.4c-9.4,1.4-18.8,3.5-28.4,2.7c-2.7-0.2-5.4-1.1-6.1-3.9
			c-0.7-3.1,2-4.4,4.3-5.6c1.3-0.7,2.7-1.1,4.1-1.6c7.4-2.5,15.2-2.4,22.8-3.1c32.2-3.2,48.3-31.4,38.8-62.8
			c-1.1-3.8-5.7-7.2-4.2-10.5c1.4-3.2,6-5.1,9.2-7.6c1.2-0.9,2.6-1.7,0.8-3.4c-3.9-3.6-7.4-8.7-12-10.2c-3.1-1-5.3,5.7-8.5,8.4
			c-0.1,0.1-0.2,0.3-0.3,0.4c-1.3,2-2.7,2.2-5,1c-11.3-6-23.4-6.9-35.8-4.6c-22.4,4.2-37.7,26.2-34.9,48.7c2,16.3,9.6,28.1,25.3,36
			c-5.3,1.6-9.2,3-12.7,5.4c-5.3,3.6-9,8-8.1,15c0.9,7.6,4.8,12.5,12,14.7c6.2,1.9,12.5,2.5,19,1.6c9.6-1.3,19.1-3.9,28.9-2.8
			c9.9,1.1,15.6,7.3,14.5,16.2c-0.8,6-4.9,9.3-9.9,11.6c-14.6,6.6-29.1,5.3-43.5-1.2c-4.3-1.9-8.7-7.2-12.3-5.7
			c-3.8,1.6-5.7,7.7-8.8,11.5c-3.1,3.7-1.7,5.4,1.8,7.3c6.8,3.6,13.8,6.7,21.3,8.5c21.2,5,41.5,4.1,59.8-9.3
			c10.5-7.7,14-18.6,12.2-31.1C661.9,214.3,655.1,206.6,644.2,202.6z M588.4,130.2c4.8-10.7,15.6-16.4,27-14.4
			c10.1,1.8,19,12,19.9,22.9c0.1,1.6,0,3.3,0,4.9c-0.1,15-6.7,25-18.3,27.8c-10.7,2.6-20.9-1.3-26.5-10.8
			C584.7,151,583.7,140.7,588.4,130.2z"/>
		<path id="XMLID_45_" class="st0" d="M784.6,116.5c-14.7,16.5-17.8,36.1-15.5,57c1.6,14.1,7.7,26.1,18.2,36
			c21.8,20.6,57.8,15.9,77.7,4c2.8-1.7,3.7-3.5,1.6-6.6c-2.5-3.6-4.5-7.5-6.9-11.6c-1.4,1-2.3,1.6-3.2,2.2
			c-28.7,19.7-60.8,5.9-65.7-28.3c-0.6-4.5,0.1-7,5.5-6.3c3.6,0.5,7.3,0.1,11,0.1c22,0,44.1,0,66.1,0c2.3,0,4.8,0.5,5.3-3
			c2.4-17.1-0.3-32.8-12.3-46.1C850.3,96,808.6,89.5,784.6,116.5z M854.6,147.9c-9.9-0.2-19.8-0.1-29.7-0.1
			c-9.4,0-18.7-0.3-28.1,0.1c-5.3,0.2-5.6-1.8-4.5-6.1c4.4-16.5,19-26.6,37.1-25.2c16.2,1.3,27.7,12.2,28.9,27.1
			C858.6,146.9,857.9,147.9,854.6,147.9z"/>
		<path id="XMLID_42_" class="st0" d="M1257,151.6c-1.7-16.7-6.6-31.9-20.5-42.8c-19.3-15.2-62.2-17.4-80.4,17
			c-8.1,15.3-9.3,31.7-7.1,48.7c3.1,23.4,16.7,46.3,47.2,49.1c22.3,2,40.7-4.9,52.4-24.9c6.7-11.5,8.9-24.3,8.4-37.6
			C1257,157.8,1257.3,154.7,1257,151.6z M1228.2,191.5c-6.5,11.5-16.6,16-29.5,14.8c-11.5-1.1-19.8-7.1-23.6-17.9
			c-6.3-17.6-6.9-35.6,0.2-53.1c5.6-13.9,16.8-20.7,30.5-19.5c14,1.2,23.7,10,27.1,24.8c1.5,6.6,2.4,13.3,2.3,20.2
			C1234.8,171.4,1233.6,181.9,1228.2,191.5z"/>
		<path id="XMLID_41_" class="st0" d="M538.1,131.3c-2.5-16.8-12.3-28.8-27-31.6c-18.1-3.5-34.3-0.5-46.3,16.3
			c-1.2-2.7-2.2-4.8-3.1-7c-3.5-8.5-3.5-8.2-12.4-8.5c-4.4-0.1-6,0.9-5.9,5.7c0.2,33.2,0.1,66.3,0.2,99.5c0,5.1-1.7,11.9,0.9,14.8
			c3,3.5,10,0.5,15.2,1.2c4.7,0.6,5.4-1.5,5.4-5.6c-0.1-25.3,0.4-50.6-0.3-75.9c-0.3-9.1,3.8-14,10.5-18.1c2.3-1.4,4.8-2.7,7.3-3.7
			c17-6.5,32,1.6,34.6,18.8c0.8,5.2,1.1,10.6,1.1,15.9c0.1,21.1,0.2,42.2-0.1,63.3c-0.1,4.5,1.3,5.8,5.6,5.4c3.6-0.3,7.4-0.3,11,0
			c3.6,0.3,4.7-0.9,4.7-4.5c-0.2-14.9,0.1-29.7-0.1-44.6C539,158.8,540.1,145,538.1,131.3z"/>
		<path id="XMLID_40_" class="st0" d="M1053.6,161.8c-6-4.4-12.6-7.4-19.3-10.5c-5.5-2.6-11.2-4.6-16.1-8.3c-5.3-4-8-11.1-6.3-16.4
			c2.1-6.8,7.6-8.9,13.9-9.8c7.7-1.1,14.9,0.7,21.7,4.3c8.1,4.4,8.1,4.4,10.8-4.2c3.3-10.6,3.3-10.6-7.3-14.1
			c-14.4-4.8-28.9-6.7-43.5-0.5c-8.9,3.8-15.3,9.9-17.6,19.7c-3.4,14.6,2,25.8,13.5,34.6c6.8,5.2,14.6,8.3,22.2,11.9
			c5.5,2.6,10.8,5.5,14.8,10.2c8.6,10.2,3.6,23.9-9.4,26.6c-5.2,1.1-10.1,0.6-15.1-1c-7.1-2.1-13.4-5.9-20.2-10.1
			c-2.2,6-4.3,11.6-6.5,17.2c-1.1,2.6,0.2,3.6,2.2,4.6c17.2,8.3,35.1,10.5,53.3,4.4c12.7-4.2,20.5-13.3,21.9-26.9
			C1068.2,180.6,1064.5,169.8,1053.6,161.8z"/>
		<path id="XMLID_39_" class="st0" d="M951.5,156.4c-8.6-4.6-18.1-7.3-26.1-12.9c-5.9-4.1-8.7-10.9-7.2-16.6
			c1.5-5.7,6.6-9.2,14.1-10.2c9.9-1.3,18.4,2.1,26.3,7.5c2.2,1.5,3.3,2,4.1-1.2c1.1-4.3,2.4-8.4,3.9-12.6c1-2.7,0.2-4.1-2.4-5.1
			c-13.2-4.9-26.4-8.5-40.7-6.1c-20.6,3.6-32.4,20.4-26.9,39.4c3,10.3,10.4,16.9,19.5,22.1c8.3,4.7,17.5,7.7,25.3,13.1
			c7.9,5.5,11,12.7,8.9,20.8c-1.8,6.7-7.6,10.6-17.1,11.3c-2,0.1-4-0.2-6-0.5c-9.2-1.4-17-6.2-25.1-11.2c-2,5.3-3.5,10.4-5.7,15.1
			c-1.9,4-0.5,5.8,3,7.4c14.5,6.6,29.5,8.5,45.1,5.7c18.9-3.5,30.3-17.9,29-36.1C972.4,171.8,963.7,162.9,951.5,156.4z"/>
		<path id="XMLID_38_" class="st0" d="M709.6,118.5c-0.5-3.1-0.5-5.8-0.5-8.5c0.1-9.4,0.1-9.4-9.1-9.4c-2,0-4.1,0.2-6-0.1
			c-5-0.8-6.1,1.3-6,6c0.2,33.2,0.1,66.4,0.1,99.7c0,4.9-1.6,11.5,0.9,14.3c2.9,3.3,9.7,0.5,14.7,1.1c4.4,0.5,5.5-0.9,5.5-5.3
			c-0.2-21.5-0.3-42.9,0-64.4c0.2-13.2,5-24.4,16.3-31.9c8.7-5.7,17.6-4.3,26.4,0.9c3-6.9,5.8-13.4,8.7-20.2
			C739.4,95.4,721.9,99,709.6,118.5z"/>
		<path id="XMLID_37_" class="st0" d="M1121.5,161c0-18.5-0.1-37.1,0.1-55.6c0-3.8-1-5.1-4.9-5c-9.2,0.3-18.3,0.3-27.5,0.1
			c-3.9-0.1-5.4,0.6-5.3,5c0.1,12.7-0.1,12.8,12.5,13.2c3.6,0.1,4.3,1.5,4.2,4.6c-0.2,8.4,0,16.9,0,25.3c0,22.7,0.1,45.5-0.1,68.2
			c0,3.9,1,5.2,4.9,4.8c3.6-0.3,7.4-0.3,11,0c4,0.3,5.3-0.8,5.3-5C1121.4,198.1,1121.5,179.5,1121.5,161z"/>
		<path id="XMLID_36_" class="st0" d="M409.1,168.1L409.1,168.1c0-26.3-0.1-41,0.1-59.7c0-3.4-0.8-6.2-4.3-6.1
			c-8.8,0.3-17.6-0.5-26.4-0.9c-5.3-0.3-7.3,0.4-7.1,6.2c0.5,11.4,0.1,11.4,11.4,11.2c4.4-0.1,5.5,1.1,5.5,5.4
			c-0.2,27.1-0.1,54.2,0,81.3c0,5.2-2.3,12.1,1.1,15.2c3.4,3,10.2,0.4,15.4,0.9c3.8,0.3,4.5,2.4,4.4-1.1
			C409,201.9,409.1,181.2,409.1,168.1z"/>
		<path id="XMLID_35_" class="st0" d="M399.5,55.1c-7.2,0-12.9,5.7-13,12.9c-0.1,7.1,6.4,13.6,13.3,13.4c7.2-0.2,12.8-5.9,12.8-13.1
			C412.6,60.6,407.1,55,399.5,55.1z"/>
		<path id="XMLID_34_" class="st0" d="M1112.2,55.1c-7.7,0-13.2,5.5-13.2,13.1c0.1,7.1,6,13.1,12.9,13.1c7.2,0,13.2-6.1,13.1-13.5
			C1124.9,60.5,1119.5,55.1,1112.2,55.1z"/>
		<path id="XMLID_31_" class="st0" d="M1266.9,55.3c-7.4,0-13.2,5.7-13.2,12.8c0,7.3,5.9,13,13.2,13c7.4,0,13.1-5.7,13.1-13
			C1280,61,1274.3,55.3,1266.9,55.3z M1266.9,78.4c-5.8,0-10-4.5-10-10.2c0-5.6,4.2-10.2,9.9-10.2c5.7,0,9.9,4.6,9.9,10.3
			C1276.7,73.9,1272.6,78.4,1266.9,78.4z"/>
	</g>
	<text id="XMLID_29_" transform="matrix(1 0 0 1 1261.6099 73.3541)" class="st0 st1 st2">R</text>
</g>
</svg>
