<?xml version="1.0" encoding="utf-8"?>
<!-- Generator: Adobe Illustrator 21.1.0, SVG Export Plug-In . SVG Version: 6.00 Build 0)  -->
<svg version="1.1" id="Capa_1" xmlns="http://www.w3.org/2000/svg" xmlns:xlink="http://www.w3.org/1999/xlink" x="0px" y="0px"
	 viewBox="0 0 1280 300.3" style="enable-background:new 0 0 1280 300.3;" xml:space="preserve">
<style type="text/css">
	.st0{fill-rule:evenodd;clip-rule:evenodd;fill:#4D4D4D;}
</style>
<g>
	<path class="st0" d="M143.4,213.2l-1.1,26.6H0c1.4-29.8,2.2-71,2.2-123.7C2.2,70.8,1.4,33.5,0,4.4h33.6
		c-1.4,24.4-2.2,61.6-2.2,111.8c0,41.2-0.7,74.3-2,99.1C65.6,215.2,103.6,214.6,143.4,213.2L143.4,213.2z M1280,239.3h-34.4
		c1.8-39.1,2.7-80.3,2.7-123.7c0-42.7-0.9-79.9-2.7-111.8h34.4c-1.7,32.9-2.5,70.2-2.5,111.8C1277.5,159.3,1278.3,200.5,1280,239.3
		L1280,239.3z M1209.6,3.9c0,10-15.2,49.2-45.7,117.6c-30.4,68.4-45.7,107.7-45.7,117.9h-23.5c0-9.3-14.4-48.3-43.1-117
		c-28.7-68.7-43.1-108.2-43.1-118.5h34.4c0,9.4,11,42.9,32.9,100.5c21.9,57.6,32.9,90.5,32.9,98.8h1.8c0-9.4,11.1-42.2,33.3-98.5
		c22.2-56.2,33.3-89.9,33.3-100.8H1209.6L1209.6,3.9z M940.9,139.5L940.9,139.5c-28.3-70.8-42.5-108.4-42.5-112.8h-2
		c0,3.7-14.6,41.4-43.9,112.8H940.9L940.9,139.5z M1010.2,239.3c0-6.6-14.8-45.8-44.5-117.4C936,50.3,921.2,11,921.2,3.9h-41.9
		c0,7.2-15.6,47.2-46.6,119.8c-31.1,72.6-46.7,111.2-46.7,115.7h36.5c0-8.7,7.5-34.1,22.4-76.1h104.3c15.2,42.7,22.8,68.1,22.8,76.1
		H1010.2L1010.2,239.3z M774,210.6l-2.3,26.9c-14.8,4.5-31,6.7-48.5,6.7c-41.5,0-72.6-11.4-93.5-34.1
		c-20.9-22.7-31.3-50.5-31.3-83.3c0-34.4,11.6-64,34.9-88.9c23.3-24.9,54.6-37.3,93.8-37.3c10.9,0,22.3,1.6,34.4,4.9l-5.1,28.8
		c-13.9-4.3-26.2-6.5-37.1-6.5c-29.2,0-51.3,9-66.4,27.1c-15.1,18.1-22.6,40.2-22.6,66.4c0,26.7,8.7,49.5,26,68.5
		c17.3,19.1,41.3,28.6,72,28.6C740.1,218.3,755.3,215.7,774,210.6z"/>
	<path class="st0" d="M816.9,299.5h-4.5v-24c0-3.5-0.3-6-0.9-7.5c-0.6-1.4-1.5-2.5-2.7-3.2c-1.2-0.7-2.7-1.1-4.4-1.1
		c-2.4,0-4.4,0.7-6,2c-1.6,1.3-2.7,3.1-3.4,5.5c-0.7,2.3-1,5.4-1,9.2v19.1h-4.5V275c0-2.7-0.2-4.8-0.7-6.3c-0.5-1.5-1.3-2.7-2.5-3.5
		c-1.2-0.8-2.7-1.3-4.6-1.3c-3.2,0-5.8,1.3-7.8,4c-2,2.7-2.9,6.3-2.9,10.9v20.7h-4.5v-38.8h4.5v5.6c3.2-4.3,7.2-6.5,11.9-6.5
		c4.9,0,8.4,2.2,10.3,6.5c3.4-4.3,7.5-6.5,12.1-6.5c7.7,0,11.5,4.4,11.5,13.3V299.5L816.9,299.5z M519.7,213.2v-26.6h26.7v26.6
		H519.7L519.7,213.2z M519.7,0H402.3l-245,239.6H245L429.5,53.3h36.9v53.3h26.6v26.6h26.6v26.7h-26.6v-26.7h-26.6v53.3h26.6v26.6
		h-26.6v-26.6h-84.2l-51.2,53.3h188.8h26.7v-26.6H573v26.6h26.6v-26.6H573v-26.6h-26.6v-26.6H573v-26.7h-26.6v-26.6H573V79.9h-26.6
		v26.6h-26.7V79.9h-26.6V53.3h26.6V26.6h26.7v26.6H573V26.6h26.6V0H573h-26.6H519.7L519.7,0z M860.8,280.7H831
		c0.1,5,1.3,8.9,3.6,11.7c2.3,2.8,5.5,4.2,9.5,4.2c5.6,0,9.6-3.1,11.8-9.4l4.5,0.8c-1.5,4.4-3.7,7.6-6.4,9.5
		c-2.7,1.9-6.1,2.9-10.2,2.9c-5.5,0-9.8-1.8-12.9-5.4c-3.1-3.6-4.6-8.6-4.6-14.8c0-6.3,1.6-11.2,4.7-14.8c3.1-3.6,7.4-5.4,12.9-5.4
		C855.1,259.8,860.7,266.8,860.8,280.7L860.8,280.7z M855.9,276.9L855.9,276.9c-0.7-8.9-4.7-13.4-12.1-13.4c-3.3,0-6.2,1.2-8.5,3.5
		c-2.3,2.3-3.7,5.6-4.1,9.9H855.9L855.9,276.9z M890.3,262.2l-1.8,3.9c-2.3-1-4.1-1.5-5.2-1.5c-0.9,0-1.7,0.1-2.5,0.4
		c-0.8,0.3-1.5,0.7-2.1,1.4c-0.7,0.6-1.2,1.4-1.7,2.2c-0.5,0.8-0.8,1.8-1.1,2.8c-0.2,1-0.5,2.5-0.7,4.5c-0.2,2-0.3,3.8-0.3,5.4v18.2
		h-4.5v-38.8h4v7.9c1.9-5.8,4.9-8.7,9.1-8.7C885.5,259.8,887.8,260.6,890.3,262.2L890.3,262.2z M927.4,286.9
		c-1.5,4.4-3.6,7.7-6.3,10c-2.7,2.3-6.4,3.4-11,3.4c-3.5,0-6.5-0.7-9-2.1c-2.5-1.4-4.5-3.7-6.1-6.9c-1.6-3.1-2.3-6.9-2.3-11.3
		c0-2.8,0.3-5.3,1-7.6c0.7-2.3,1.4-4.1,2.3-5.5c0.9-1.4,2-2.6,3.2-3.6c1.2-1,2.7-1.8,4.4-2.5c1.7-0.7,3.9-1,6.7-1
		c8.4,0,14,3.9,16.6,11.8l-4.8,0.7c-1.7-5.8-5.7-8.7-11.9-8.7c-2,0-3.8,0.4-5.4,1.1c-1.6,0.7-2.9,1.8-4,3.3
		c-1.1,1.4-1.9,3.1-2.5,5.1c-0.6,1.9-0.8,4.1-0.8,6.5c0,5.1,1.1,9.3,3.4,12.4c2.2,3.1,5.4,4.7,9.5,4.7c5.9,0,10.1-3.5,12.6-10.4
		L927.4,286.9L927.4,286.9z M968.7,299.5h-5c-0.7-1.8-1.2-3.8-1.4-5.9c-4.2,4.5-9.5,6.8-15.8,6.8c-2.3,0-4.4-0.4-6.2-1.2
		c-1.8-0.8-3.3-2-4.4-3.6c-1.1-1.6-1.6-3.6-1.6-5.9c0-1.6,0.2-3.1,0.8-4.4c0.5-1.3,1.3-2.4,2.3-3.4c1-1,2.4-1.8,4.2-2.5
		c1.8-0.7,5-1.4,9.5-2c5.1-0.7,8.7-1.5,10.8-2.3c0-2.2-0.1-3.9-0.2-5.1c-0.1-1.2-0.5-2.3-1.2-3.3c-0.7-1-1.8-1.8-3.3-2.4
		c-1.5-0.6-3.3-0.8-5.4-0.8c-6.7,0-10.7,2.9-12.1,8.6l-4.6-0.7c1.4-7.6,7-11.5,16.7-11.5c3,0,5.6,0.3,7.7,1c2.1,0.7,3.6,1.7,4.6,3
		c1,1.3,1.7,2.8,2,4.7c0.3,1.9,0.5,4.5,0.5,7.7l-0.1,10.9c-0.1,2.9,0.1,5.2,0.4,6.7C967.1,295.5,967.7,297.3,968.7,299.5
		L968.7,299.5z M961.9,281.1L961.9,281.1v-2.5c-2.6,1-6.7,2-12.3,2.9c-2.9,0.5-5.1,1.1-6.5,1.6c-1.4,0.6-2.4,1.3-3.1,2.4
		c-0.7,1-1,2.3-1,3.7c0,2.1,0.8,3.8,2.3,5.1c1.6,1.3,3.6,1.9,6.1,1.9c1.5,0,2.9-0.2,4.3-0.6c1.4-0.4,2.8-0.9,4.2-1.7
		c1.3-0.8,2.5-1.7,3.4-2.7c0.9-1.1,1.6-2.4,2-4.1C961.7,285.5,961.9,283.5,961.9,281.1L961.9,281.1z M1012.3,299.5h-4.5v-5.9
		c-4.1,4.5-8.9,6.7-14.6,6.7c-2.7,0-5-0.5-7.2-1.4c-2.1-0.9-3.9-2.4-5.5-4.3c-1.5-1.9-2.7-4.1-3.5-6.6c-0.8-2.5-1.2-5.3-1.2-8.3
		c0-5.8,1.5-10.5,4.5-14.3c3-3.7,7.3-5.6,12.8-5.6c6,0,10.8,2.4,14.5,7.2V246h4.5V299.5L1012.3,299.5z M1007.9,280L1007.9,280
		c0-4.9-1.3-8.9-3.8-11.9c-2.6-3-6-4.5-10.3-4.5c-4,0-7.2,1.6-9.5,4.7c-2.3,3.1-3.5,7.1-3.5,11.9c0,4.7,1.2,8.6,3.6,11.7
		c2.4,3.1,5.6,4.7,9.7,4.7c4.4,0,7.8-1.5,10.2-4.4C1006.7,289.3,1007.9,285.2,1007.9,280L1007.9,280z M1056,280.2
		c0,6.4-1.5,11.3-4.5,14.9c-3,3.5-7.3,5.3-12.8,5.3c-2.7,0-5-0.5-7.1-1.4c-2.1-0.9-3.9-2.3-5.5-4.2c-1.6-1.8-2.7-4-3.5-6.4
		c-0.8-2.4-1.2-5.1-1.2-8.1c0-3.1,0.3-5.8,1-8.3c0.7-2.4,1.7-4.5,3.1-6.3c1.4-1.8,3.1-3.2,5.2-4.3c2.1-1.1,4.8-1.6,8.1-1.6
		c5.3,0,9.5,1.7,12.6,5.1C1054.4,268.4,1056,273.5,1056,280.2L1056,280.2z M1051.3,280.2L1051.3,280.2c0-3.5-0.5-6.4-1.5-9
		c-1-2.5-2.4-4.4-4.3-5.7c-1.8-1.3-4-1.9-6.7-1.9c-4,0-7.1,1.5-9.3,4.4c-2.2,3-3.3,6.9-3.3,11.9c0,4.9,1.1,9,3.4,12.1
		c2.2,3.1,5.3,4.6,9.3,4.6c1.8,0,3.5-0.3,5-1c1.5-0.7,2.8-1.7,3.9-3.1c1.1-1.4,2-3.2,2.6-5.2C1051,285.2,1051.3,282.8,1051.3,280.2
		L1051.3,280.2z M1079.8,299.5c-2,0.4-3.6,0.6-4.8,0.6c-1.8,0-3.3-0.3-4.5-0.9c-1.3-0.6-2.2-1.5-2.8-2.7c-0.6-1.2-0.9-3.3-0.9-6.4
		v-26h-5.4v-3.5h5.4v-9.9l4.6-2.9v12.8h7.3v3.5h-7.3v25.4c0,1.8,0.1,3.2,0.3,4.1c0.2,0.9,0.7,1.6,1.4,2c0.7,0.4,1.6,0.7,2.6,0.7
		c0.8,0,2-0.2,3.6-0.5L1079.8,299.5L1079.8,299.5z M1118.5,280.7h-29.8c0.1,5,1.3,8.9,3.5,11.7c2.3,2.8,5.5,4.2,9.5,4.2
		c5.6,0,9.6-3.1,11.8-9.4l4.5,0.8c-1.5,4.4-3.6,7.6-6.4,9.5c-2.8,1.9-6.1,2.9-10.2,2.9c-5.5,0-9.8-1.8-12.9-5.4
		c-3.1-3.6-4.7-8.6-4.7-14.8c0-6.3,1.6-11.2,4.7-14.8c3.1-3.6,7.4-5.4,12.9-5.4C1112.7,259.8,1118.4,266.8,1118.5,280.7
		L1118.5,280.7z M1113.5,276.9L1113.5,276.9c-0.7-8.9-4.7-13.4-12.1-13.4c-3.4,0-6.2,1.2-8.5,3.5c-2.3,2.3-3.7,5.6-4.1,9.9H1113.5
		L1113.5,276.9z M1160.1,286.9c-1.5,4.4-3.6,7.7-6.3,10c-2.8,2.3-6.4,3.4-11,3.4c-3.5,0-6.5-0.7-9-2.1c-2.5-1.4-4.5-3.7-6.1-6.9
		c-1.5-3.1-2.3-6.9-2.3-11.3c0-2.8,0.3-5.3,1-7.6c0.7-2.3,1.4-4.1,2.3-5.5c0.9-1.4,2-2.6,3.2-3.6c1.2-1,2.7-1.8,4.4-2.5
		c1.7-0.7,4-1,6.7-1c8.4,0,14,3.9,16.5,11.8l-4.8,0.7c-1.7-5.8-5.7-8.7-11.9-8.7c-2,0-3.8,0.4-5.4,1.1c-1.6,0.7-2.9,1.8-4,3.3
		c-1.1,1.4-1.9,3.1-2.5,5.1c-0.5,1.9-0.8,4.1-0.8,6.5c0,5.1,1.1,9.3,3.4,12.4c2.2,3.1,5.4,4.7,9.5,4.7c5.9,0,10.1-3.5,12.6-10.4
		L1160.1,286.9L1160.1,286.9z M1199.6,299.5h-4.6v-24.1c0-4.2-0.8-7.2-2.4-8.9c-1.6-1.8-3.8-2.7-6.6-2.7c-1.5,0-2.9,0.3-4.2,0.8
		c-1.3,0.5-2.5,1.3-3.6,2.2c-1.1,1-2,2.1-2.6,3.4c-0.6,1.3-1.1,2.7-1.3,4.3c-0.2,1.5-0.4,4.3-0.4,8.2v16.8h-4.6v-38.8h4.6v5.7
		c3.5-4.4,7.6-6.6,12.5-6.6c8.8,0,13.2,4.8,13.2,14.3V299.5L1199.6,299.5z M1213.4,252.8h-4.6V246h4.6V252.8L1213.4,252.8z
		 M1213.4,299.5L1213.4,299.5h-4.6v-38.8h4.6V299.5L1213.4,299.5z M1259.7,299.5h-5c-0.7-1.8-1.2-3.8-1.4-5.9
		c-4.2,4.5-9.5,6.8-15.8,6.8c-2.3,0-4.4-0.4-6.2-1.2c-1.8-0.8-3.3-2-4.4-3.6c-1.1-1.6-1.6-3.6-1.6-5.9c0-1.6,0.2-3.1,0.8-4.4
		c0.5-1.3,1.3-2.4,2.3-3.4c1-1,2.4-1.8,4.2-2.5c1.8-0.7,4.9-1.4,9.5-2c5.1-0.7,8.7-1.5,10.8-2.3c0-2.2-0.1-3.9-0.2-5.1
		c-0.1-1.2-0.5-2.3-1.2-3.3c-0.7-1-1.8-1.8-3.3-2.4c-1.5-0.6-3.3-0.8-5.4-0.8c-6.7,0-10.7,2.9-12.1,8.6l-4.6-0.7
		c1.4-7.6,7-11.5,16.7-11.5c3,0,5.6,0.3,7.7,1c2.1,0.7,3.6,1.7,4.6,3c1,1.3,1.7,2.8,2,4.7c0.3,1.9,0.5,4.5,0.5,7.7l-0.1,10.9
		c-0.1,2.9,0.1,5.2,0.4,6.7C1258,295.5,1258.7,297.3,1259.7,299.5L1259.7,299.5z M1252.8,281.1L1252.8,281.1v-2.5
		c-2.6,1-6.7,2-12.3,2.9c-2.9,0.5-5.1,1.1-6.5,1.6c-1.4,0.6-2.4,1.3-3.1,2.4c-0.7,1-1,2.3-1,3.7c0,2.1,0.8,3.8,2.3,5.1
		c1.6,1.3,3.6,1.9,6.1,1.9c1.5,0,2.9-0.2,4.3-0.6c1.4-0.4,2.8-0.9,4.2-1.7c1.3-0.8,2.5-1.7,3.4-2.7c0.9-1.1,1.6-2.4,2-4.1
		C1252.6,285.5,1252.8,283.5,1252.8,281.1z"/>
</g>
</svg>
