<?xml version="1.0" encoding="utf-8"?>
<!-- Generator: Adobe Illustrator 21.1.0, SVG Export Plug-In . SVG Version: 6.00 Build 0)  -->
<svg version="1.1" id="Capa_1" xmlns="http://www.w3.org/2000/svg" xmlns:xlink="http://www.w3.org/1999/xlink" x="0px" y="0px"
	 viewBox="0 0 720 720" style="enable-background:new 0 0 720 720;" xml:space="preserve">
<style type="text/css">
	.st0{fill:#D8D8D8;}
	.st1{fill:#F4CD00;}
	.st2{fill:#4D4D4D;}
	.st3{fill:#666666;}
	.st4{fill:#D23020;}
	.st5{fill-rule:evenodd;clip-rule:evenodd;fill:#FFFFFF;}
</style>
<g>
	<g>
		<circle class="st0" cx="360" cy="360" r="360"/>
		<path class="st1" d="M360,360"/>
	</g>
	<g>
		<circle class="st2" cx="360" cy="360" r="349.5"/>
		<path class="st2" d="M360,360"/>
	</g>
	<g>
		<circle class="st0" cx="360" cy="360" r="265.9"/>
		<path class="st1" d="M360,360"/>
	</g>
	<g>
		<circle class="st2" cx="360" cy="360" r="253.2"/>
		<path class="st2" d="M360,360"/>
	</g>
	<g>
		<circle class="st3" cx="360" cy="360" r="241.2"/>
		<path class="st4" d="M360,360"/>
	</g>
	<g>
		<circle class="st0" cx="360" cy="360" r="229.7"/>
		<path class="st1" d="M360,360"/>
	</g>
	<path class="st2" d="M384.1,160.2c-3.1,4.5-9.4,8.8-15.7,9.6c-4.9,3.6-9.6,8.5-14.6,11.2c-0.7-3.4,1.1-7.9,1.6-12.1
		C360.4,156.9,373.6,161.1,384.1,160.2z"/>
	<path class="st2" d="M404.8,163.6c-1.1,10.3-8.1,19.8-17.3,25.3c-11.5,4.7-24.5,7-33,17.3h-1.6c-2.3-10.8,2.7-21.5,12.1-27.8
		c9.7-2,18.4-6.3,27.8-9.6C397.1,167.8,400.8,156.4,404.8,163.6z"/>
	<path class="st2" d="M305.2,177.5c-3.4,10.3-1.6,22.7,2.5,32.1c4.9,5.8,9.2,11,15.7,14.6c0-3.4-3.8-7.6-6.1-11.2
		c-6.7-13.7-5.4-28.3-4.3-44.2l1.8-1.6c6,7.2,7,18,13.7,26c13.9,7.8,16.6,24.2,14.8,39c2.9,15.2,11.9,27.8,12.1,44l-1.6,5.2
		c-1.8-3.4-3.6-8.1-6.1-12.1c-4.1-10.6-5.4-22.6-12.1-32.1c-4.3-4.3-5.1-11-11.4-13.7c-2.3,1.6,1.8,4-0.7,6c-7-0.4-9-7.4-14.8-10.3
		c-12.1-6.9-24-16.8-25.1-31.2c1.1-6.5,0.5-13.9,6.9-18.2c7-1.3,12.5-5.8,19.1-7.8C311.9,167.6,305.4,171.9,305.2,177.5z"/>
	<path class="st2" d="M346.7,167.9c4,10.1,0,20.9,0,31.2c-12.5-9.6-27.6-20.4-26.9-37.2C328.3,165.2,340.9,158.5,346.7,167.9z"/>
	<path class="st2" d="M437.7,171.5c-10.3,8.7-20.4,18-21.7,31.9c1.8,6-3.1,10.3-1.6,14.8c16.8-13.2,44.6-4.2,56.3-26
		c3.8-4.5,10.1,1.1,14.6,2.5c6.1,7,16.4,10.5,18.2,20.8c-5.2,3.1-11.6-1.6-17.3-2.5c-17.3-3.2-26.2,17-44.2,9.6
		c-9.9,1.3-21.1,3.1-26,13c-7.6,15.3-9.6,32.8-16.4,48.5c-1.8,1.3-5.2,1.3-6.9,0l-1.8-3.6c11.6-16.4,11.2-37.9,18.2-56.3
		c-5.6-2.7-9.4,4.3-14.8,4.3c-5.8,2.9-12.5,7.6-15.5,13.9c1.1,12.1,0.5,24.7,6.9,34.6v6.1c-6.5-1.3-12.3,2.3-16.4-2.7
		c8.8-20.8-12.3-49.8,14.8-60.6c12.3-2.9,21.7-13.4,26-25.1l0.7-30.3C419.8,164.3,431.7,164.1,437.7,171.5z"/>
	<path class="st2" d="M282.6,175c-6.5,16.1-22,28.3-16.4,49.3c1.6,15.9,16.2,30.3,31.2,34.6c14.6,0.4,20,15,26.7,25.3l0.9,4.3
		l-5.2-0.9c-9.9-7.6-19.7-19.7-34.6-17.3c-20.8-9.7-33.6-29.8-37.2-51.1c0.4-14.1,2.2-29.2,13.9-37.4c5.6-3.6,12.4-3.2,18.2-6.9
		H282.6z"/>
	<path class="st2" d="M461.1,189.6c0.4,6-3.1,9.2-7.8,11.4c-12.6-0.5-23.6,3.1-33,10.3c-1.4-0.5-0.5-2.3-0.9-3.4
		c4.9-10.3,12.4-24.9,26-25.1C451.2,173.3,459.3,184.5,461.1,189.6z"/>
	<path class="st2" d="M404.8,187.1c0,7.2-6.3,11.9-8.7,18.2c-9.9,8.5-27.2,6.5-31.2,22.6c-5.1,18.6,5.8,35.2,0.9,52.7h-0.9
		c1.8-11.9-5.4-20.9-10.5-29.4c-5.6-11.2-8.1-28.7,0-39.9c14.6-11.5,34.1-11.4,47.6-25.1C403,186.2,404.3,186,404.8,187.1z"/>
	<path class="st2" d="M285.2,210.5c10.6,23.8,42.9,17.3,50.3,43.3c4.3,9.4,6.7,19.8,6.9,31l-1.6,1.8c-7.4-7.2-9-19.7-19.1-25.1
		c-10.5-3.2-20.6-7.2-30.3-12.1c-14.1-15-13.9-36.6-15.5-55.6C281.9,196.6,283.7,204.2,285.2,210.5z"/>
	<path class="st2" d="M245.5,236.5c8.7,12.6,22.7,24.5,29.4,39c1.1,7.9-6.3,12.6-5.2,20.8l-1.8,1.6c-5.1-8.7-11.4-18.4-17.3-27.6
		c-4.3-3.2-9.2-5.1-13.7-7.8c-15.7-10.1-6.5-29.6-7.9-45.1c-1.1-4.2-1.8-10.5,0.9-13.9C237.5,212.7,235,227.5,245.5,236.5z"/>
	<path class="st2" d="M222,211.2c-2,16.6-8.8,38.4,6.1,51.2c7.9,2.2,15.7,5.1,18.9,13c-1.1,3.4,2,6.1,0.9,8.7
		c-3.6,0.2-3.6-3.6-6.9-4.3c-10.8-6-22.2-10.3-35.5-9.6c-4.3-1.6-5.1-6.1-6.1-9.6c0-2.2,0.2-6.7-0.9-9.6c-2.3-10.1-0.2-20.6,7-27.6
		C211.9,219.7,213.7,211.1,222,211.2z"/>
	<path class="st2" d="M512.2,221.7c3.1,5.2,12.3,10.5,10.5,17.3c-17.1-5.1-38.3-8.8-56.3-3.4c-9,0.4-16.6,4.5-23.5,9.6
		c-9.6,2.9-18.4,9.2-25.1,17.3c-2.3,0.5-2,4.7-5.2,5.1c-2.5-2.3,1.3-4,0-6.9c5.6-13.2,14.8-27.2,30.3-29.4
		c14.4-12.8,33.9-0.7,50.2-7C499.6,223.7,506,220.6,512.2,221.7z"/>
	<path class="st2" d="M526.1,245.9c-7.6,5.1-18.2,6.5-26.9,11.4c-13,5.4-22-8.8-35.5-7.8c-4.5-0.4-9.7,0.5-13.9-0.9
		c12.8-11,33.6-11.5,50.3-9.6C508.8,241.4,516.9,244.8,526.1,245.9z"/>
	<path class="st2" d="M192.6,266.8c2.3,5.4,7,9,11.2,12.1c11.9,0.9,28.9-3.4,35.6,10.3c6.9,9.7,15.5,16.8,27.8,17.3
		c0.5,3.8,2.3,7,1.6,11.4c-7,0.5-11.2-6-18.2-6.1c-14.1-9.9-37.2,2.2-50.2-10.3l-19.1-17.3c-2.2,4,2.2,7.8,4.3,11.2
		c6.1,14.1,22.7,13.4,34.6,19.1l8.7,0.7c0.7,4.1-4,2.9-6,4.3c-20.8,10.8-35.7-7.6-52-15.5c-2.9-10.1,2-20.2-0.9-30.3
		c6.1-1.3,5.1,8.5,9.6,6.9c-2.3-10.1-1.1-23.3,3.4-32.8c1.8-1.8,5.4-4.3,6.1,0L192.6,266.8z"/>
	<path class="st2" d="M516.5,265c7.2-2,11.7-9.7,19.1-11.2c-6.5,9.9-12.8,20.8-22.6,28.5c-13.2,1.3-25.4-5.2-38.1-7.8
		c-12.8-1.8-27.1,0.4-38.3-5.2c-14.4-4-20,13.2-31.9,15.5c4.1-10.1,15.2-18,23.3-26C460.9,237.8,483.3,284.9,516.5,265z"/>
	<path class="st2" d="M558.9,297.9l2.7,18.2c-18.4-12.1-41-14.1-60.6-3.4c-15.9-0.4-27.4-11.2-39.9-19.9c-3.4,2.9,2,6.9,2.5,10.3
		c7.2,11.9,20.4,17,33,20c4.9,3.2,11.9,3.8,15.5,8.7c13.9,17.9,33.7,25.3,53.8,30.3c1.1,6,1.3,12.5,1.6,18.9c-7,3.2-12.1-4.2-18.2-6
		c-7.8-4.3-16.8-12.6-22.4-20c-11.6-7.6-15.5-20.8-30.3-21.7c-15.7,0.5-29.1-6.3-39-17.3c-0.4-8.7-3.2-17.3-0.9-26
		c-1.3-1.3-4.2-3.4-1.8-5.2c13.2,2.9,25.1,9,39.9,7.9c18.6-2.5,37-5.4,52-16.6C555.8,280.5,554,291,558.9,297.9z"/>
	<path class="st2" d="M161.4,306.5c8.5,10.6,19.1,19.5,30.3,25.3c21.8,3.6,38.6-10.8,58.1-15.7c13.5-0.5,22,11,34.6,13
		c2.2,2.9,5.6,1.6,7.8,4.3c-4.1,2.9-12.1-1.4-17.3,0c-12.8-0.2-27.6-0.5-38.1,7l2.5,2.5c16.6,2.9,33.4,2.9,48.5-3.4
		c5.2,4.5,1.3,13.2,0,19c-3.1,2-6.1-1.6-9.6-1.6c-14.8,1.3-28.9,3.8-42.4,7.8c-34.1-5.2-34.1,42.4-66.8,42.4
		c-4.3-0.5-9.7,1.6-13-1.6c3.2-10.3-5.4-15.5-5.2-24.4c12.3,3.1,27.6,6.1,38.3-2.5c12.1-10.8,20.8-27.2,35.4-35.5
		c-3.2-3.6-8.1,1.1-12.1-1.8c-13.2,1.1-31.9,9.6-42.4-3.4c-1.8-11.2-11.2-19.8-10.5-31.2H161.4z"/>
	<path class="st2" d="M561.6,329.1c7.9,6.5,9.7,18.2,7.8,28.7l-1.8,1.6c-7.4-16.6-29.1-9.7-40.6-21.7c-7.6-5.4-17.7-10.6-21.7-18.9
		c4.3-1.8,8.1,2.7,12.1,4.3C530.6,328.9,547.2,325.8,561.6,329.1z"/>
	<path class="st2" d="M416.9,324.7c-2.3,6.3-1.3,16.2-10.5,17.3c-6.5,2-11-11.4-16.4-1.6c-1.1,3.8,2.9,13.4-3.4,14.6
		c-4.3-8.5-8.7-16.6-13-25.1c3.6-0.4,7.9,2.3,12.1,3.4c6-3.6,8.5-9.2,14.8-12.1C405.9,322.4,411.8,322.4,416.9,324.7z"/>
	<path class="st2" d="M471.4,341.2c12.4,6.9,23.3-5.8,35.5,0.9c-15,1.1-25.4,19.5-43.3,13c-0.2-3.1-3.6-2-5.2-3.4
		c-6-11.9-19.1-13.7-30.3-17.3c1.1-3.6,6.1-5.2,9.6-6.9c5.4,0,9.2-7.2,14.8-4.3C457.3,330.3,463.5,337.4,471.4,341.2z"/>
	<path class="st2" d="M333.7,331.8c1.8,0.4,3.8,1.4,5.2,3.4c3.4,0,6.3-6.7,9.6-1.8c-5.4,8.1-9.2,16.4-8.7,26.9
		c-1.6,0-2.3-1.8-3.4-2.5c-0.7-5.1-6.3-9.7-1.8-14.8l-1.8-1.8c-2.3,0.9-4,3.6-6,5.2c-6.1,1.8-10.8-2.3-13.9-6
		c-0.7-3.1-1.8-6.9-5.2-7.9c-0.4-5.4,6.5-3.8,9.6-6C323.4,326.9,330.5,324.7,333.7,331.8z"/>
	<path class="st2" d="M204.7,354.2c-2.5,4.7-9.4,2.9-13,7c-7.2,6-16.2,13.4-26.9,10.3c-11-5.6-14.4-17.5-13.9-29.4l0.9-0.9
		c-2.3-1.6,0.9-2.9,0-5.1l1.8-2.7C165,350.4,185,359,204.7,354.2z"/>
	<path class="st2" d="M462,361.2c4.5,3.1,11.4,5.2,16.4,1.6c8.7-1.8,14.1-14.1,24.2-9.4c5.6-2.2,10.5,3.4,15.7,5.1
		c13.2,13.4,26.2,28.9,45.8,30.3c-13,5.4-25.1-1.8-36.5-6c-8.7-7-19.9-15.2-30.3-9.6c-7,8.8-17.5,13.2-28.5,10.5
		c-10.1-4.3-19.7-10.5-29.4-15.7c-0.7-8.7-5.4-16.6-6.1-24.2C443.8,347.7,451.5,357.2,462,361.2z"/>
	<path class="st2" d="M287,365.5c-0.7,7.8-6.5,14.3-13,18.9c-11,4.3-21.8,0.9-32.8,5.2c-9.6,8.3-14.6,19.7-21.7,29.4
		c-4.7,3.2-8.1,7.6-13.9,9.6c-15.7,10.6-29.1-5.2-42.4-10.3v-0.9c27.6,1.4,51.2-12.6,66.6-35.5c8.1-5.6,19.1-3.4,28.7-5.2
		c9.4-1.3,17.9-5.4,25.1-12.1C284.6,364.8,286.3,363.9,287,365.5z"/>
	<path class="st2" d="M482.8,386.3c7.6-0.4,14.4,3.4,18.2,8.7c0.2,0.9-0.5,1.3-0.9,1.8c0.9,1.8,2.2-0.4,3.4,0
		c9.6,4.5,17.3,12.6,26,19c-4,1.3-5.8-2.2-8.7-3.4c-15-11-33.9-1.3-50.2,0c-5.8-1.3-12.3-0.4-16.6-5.2c-5.9-1.1-10.3-5.8-15.5-8.7
		c-4.7-3.1-9.6-6.3-14.8-8.7c-0.7-8.1,10.3-8.1,13-14.6C449.4,385.2,466.3,395.7,482.8,386.3z"/>
	<path class="st2" d="M555.5,396.7c4.2,0.5,8.7,1.4,10.5,6c-1.8,15-13.5,26.2-16.6,39.9c-2.2-7.4-2.3-15.3-6.9-21.7
		c-11.5-14.1-30.3-20.2-36.5-38.1l0.9-3.4C519.9,392.8,536.9,402.2,555.5,396.7z"/>
	<path class="st2" d="M296.5,386.3c-0.5,9-8.3,11.7-14.8,16.4c-9.6,3.8-20.8,6.5-26,16.4c-3.2,12.8,4.1,32.1-9.6,41.7
		c-11.5,9.6-21.7,18.6-31.9,29.4c3.6-13,13.5-23.5,18.9-35.6c17.1-15.2-11.2-50.9,21.7-55.4c11.9-4.2,25.3-4.5,33.9-16.4
		C291.7,380.1,295.5,383.4,296.5,386.3z"/>
	<path class="st2" d="M379.7,383.8c4.5,0,8.8,2.7,11.2,6c-0.2,7.4-6.9,12.1-13,14.8c-3.1,4.9-8.7,9.9-5.2,16.4
		c4.5,9.4,15.7,7.2,24.4,8.7c10.5,2.2,19.1-2.3,25.1-10.5c-1.6-0.7-0.7-2.7-0.9-4.3l0.9-0.7c10.3,6.5,23.8,7.8,32.8,15.5
		c2.2,3.4,5.1,7.2,8.7,10.5c8.7,11,21.8,20,26,32.8c-0.4,7.4-6,12.8-5.2,20.8c-4.5,8.8,4.3,14.6,8.7,20.8c-4.3,6.3-9.7,8.5-15.5,13
		l-2.5-1.6c-5.4-13.5-12.4-30.5-0.9-43.3c1.3-6.7,4.1-13.7,0-20c-5.6-11-17.3-11-24.4-20.8c-7.6-3.1-14.1-8.7-20.8-13.9
		c-1.1,4,2.9,7.9,5.2,11.4c13,12.3,41,20.6,31.2,44.9c-10.3,16.2,5.8,36.8-7,52h-1.6c-0.9-7.2-5.2-13-5.2-20.8
		c-5.1-3.8-3.6-11.2-2.5-16.4c4.5-7.9,2.3-19.5,1.6-28.5c-6.3-13.7-17.9-22-26.9-33c-4-0.9-8.7-5.6-12.1-2.5c3.1,5.4,8.8,7.9,13,13
		c7.4,5.6,16.8,8.1,19.1,18.2c2.2,14.4-7.4,24.4-5.2,39c-1.4,13.4,5.1,23.5,11.2,33.7c1.6,3.4-2.2,5.6-4.3,6.9
		c-5.8,1.3-7.6-7.4-13-6.9c-7.2,11-19.5,14.1-30.3,18.2c1.8-4.9,4.3-9.2,7.9-13c8.7-16.1,15.2-33.2,14.6-52.9
		c-1.1-10.3-0.4-21.1-7.8-28.7c-3.2-8.7-7.6-16.8-9.6-26c-6.3-4.5-12.3,2.2-19.9,0c-12.8,2.9-25.1-11.6-35.5,0.9
		c-7.6,1.1-15.5,1.1-22.6,3.4c2,6.9,14.8,11.4,8.7,19.1c-7,9.6-15.7,17.7-21.7,28.5c-6.3,6.3-8.8,15.7-11.2,24.4
		c-0.5,14.6,4.2,28.3,4.3,41.5c-7.4-14.3-18.6-31.8-10.5-50.2c-0.4-11-5.8-22.4-2.5-33c10.3-10.5,22.2-17.3,26.9-31
		c-1.4-1.4-3.6-4.2-5.2-1.8c-6.3,6.1-11.4,11.9-17.3,16.4c-10.6,9.2-8.1,23.6-12.1,35.6c-2.5,17.7-1.1,37.2-11.4,52
		c-7.4-0.7-12.1-7.9-19.9-7.8c-4.1-2.2-8.8-5.1-11.4-9.6c-1.4-2.3-0.5-5.8-0.7-8.7c9.7-7.6,26-14.3,26.7-28.5
		c4.9-11.2,0.5-25.8,6.1-36.5c-1.1-2-2.5,0-3.4,0.9c-5.6,6.3-4,15.7-8.7,22.6c0,7.8-6.7,13-7,20.8c-7.2,10.3-15.9,17.3-26.7,22.6
		c1.1-6.1,8.3-9.6,11.2-14.8c11.7-19.9,20.8-41.9,15.5-67.5c5.1-21.1,30.7-21.5,38.3-39.9c1.4-3.1,4.9-3.1,6.9-0.9
		c3.2,4,6.5,7.8,6.9,13c-1.3,15.9-18.8,27.2-28.5,37.2l0.9,0.9c7.8-5.4,17.3-6.7,25.1-12.1c12.1-6.3,28.2,2.3,39.9-5.2
		c5.6-3.2,11.9-6.7,13-13.9c-6-13.5-27.2-7.9-28.7-25.1c7.9-6.3,18.4,2,25.3-6.9C365.3,385.2,372.1,387,379.7,383.8z"/>
	<path class="st2" d="M445.4,407.9c18.8,11.5,41.7,12.3,60.6,22.6c8.7,7.9,12.3,19,10.5,30.3c-3.6,12.3,14.8,20.8,2.5,31.2
		c-3.2,2.9-4.3,8.3-8.7,9.4c-1.3-17.5,2.7-39.2-8.7-53.6c-14.8-19.5-39.2-19.7-58.8-29.4c-8.8-5.4-20.2-11.9-24.2-21.7l0.7-2.7
		C429.5,395.7,437.5,403.6,445.4,407.9z"/>
	<path class="st2" d="M231.6,414.1c-1.1,9-7.6,18-2.7,27.6c2,15.3-15.3,20.6-16.4,34.6c-4.3,4.5-2.7,11.7-4.3,17.3
		c-7.4-1.6-8.8-7.9-11.2-13.9c-0.2-10.8,2.7-20,7.8-28.5c-4.7-2.9-8.8,0.7-13.9-1.8c-7.6-4.5-13.5-8.8-19.9-14.6
		c10.3-0.7,21.5,4.9,32.8,1.6C216.2,435,221.7,419.7,231.6,414.1z"/>
	<path class="st2" d="M544.3,445.1c-2.2,13-9.4,23.8-16.6,34.6c-8.1-18,0.7-46.6-22.4-55.4c-4-2-8.3-4.5-10.5-8.7
		C511.5,425.1,542.3,418.8,544.3,445.1z"/>
	<path class="st2" d="M488,448.7c15.3,9.4,17.5,28.3,14.6,45.8c0.7,4.3,6.3,8.7,1.8,13c-2.7,2.5-6,2.9-8.7,0.9
		c-15-16.1,7.9-39.7-9.6-55.4c-2.9-5.1-9.4-8.5-11.2-13.9C480.6,441.1,482.9,445.5,488,448.7z"/>
	<path class="st2" d="M415.1,472.9c1.1,4.1,2.2,10.6-1.6,13.9c-3.2,11.9-4.2,24.9-6.1,37.2c-0.4-15.7-4.7-29.8-13-42.4
		c-4.9-6.3-12.1-12.6-14.6-19.1c10.3-2.7,14.4-11.2,20.8-18.9C410.6,450.3,397.2,470.7,415.1,472.9z"/>
	<path class="st2" d="M353.7,462.4c-5.8,12.3-17.9,20.2-13,35.5c8.1,7.6,19.7,18.2,13.7,32.1c-1.8,6.7-2.7,13.9-6,19.9
		c1.4,3.8-2.7,5.2-1.8,8.7c-3.1-6.3-0.9-16.1-5.2-22.6c0-3.6-5.1-4.9-5.1-8.7l-17.3-17.3c-2-5.4,2.7-11,6-14.6
		c8.8-10.8,17.1-21.8,17.3-36.4C346.7,458.8,351,458.8,353.7,462.4z"/>
	<path class="st2" d="M370.2,464.2c-5.1,5.6-7.2,12.6-12.1,18.2c0,5.8-4,12.1,0,17.3c6.9,10.6,25.3,10.3,26,25.1
		c-0.4,13.9-7.9,25.6-20.9,30.3l-6.9,6.1c-4.3-5.4,0.7-12.6,2.5-18.2c2-8.7,7.6-19.1,1.8-27.8c-5.1-10.6-18.6-19.7-12.1-32.8
		c3.8-6.3,6-13.2,11.2-19.1C362.8,462.3,367.8,461.4,370.2,464.2z"/>
	<path class="st2" d="M374.5,464.2c10.1,25.6,32.8,48,27.6,78c-0.4,3.2-3.8,5.4-4.3,8.7c-4,5.1-10.1,5.4-14.6,9.6
		c-1.1-0.2-2.9,0.5-3.4-0.9c7-15.2,15.3-32.8,9.4-50.2c-7-10.5-17.7-14.1-20.8-26.9c0.2-6.5,2.9-12.1,4.3-18.2H374.5z"/>
	<path class="st2" d="M338.9,550c1.3,2.7,1.3,7,0,9.6c-2.2,0.9-2.9-1.8-4.3-2.5c-6.9-1.6-17.7,0.5-19.1-8.7
		c-1.4-13.4-0.2-27.8-4.3-39.9C318.7,522.3,330.3,536.6,338.9,550z"/>
	<path class="st5" d="M95.3,222l9.8,10.5l-16.6,37.2l-2.7-1.2l0.5-1.2c1.3-2.8,1.3-4.9,0.2-6.2c-0.5-0.7-1.4-1.2-2.6-1.8L56.2,247
		c-3.3-1.5-5.8-0.4-7.4,3.3l-0.6,1.3l-2.7-1.2L56,226.8l2.7,1.2l-0.9,2c-1.5,3.4-0.7,5.9,2.6,7.3L88.9,250c1.3,0.6,2.2,0.7,2.9,0.4
		c0.7-0.3,1.3-1.1,1.8-2.4l3.9-8.8c1.1-2.6,1.1-5.1-0.1-7.7c-0.5-1.2-1.7-3.4-3.4-6.6L95.3,222z"/>
	<path class="st5" d="M99.8,171.3c-2.1-1-3.7-1.5-4.6-1.6c-1.6-0.1-2.9,0.7-3.9,2.2l-9,13.9l14.4,9.3l6.7-10.3
		c1.1-1.7,1.6-3.2,1.4-4.4c-0.2-1.2-1.2-2.3-2.9-3.4l1.6-2.5l12.7,8.3l-1.6,2.5c-2.3-1.5-4.1-1.7-5.5-0.7c-0.8,0.6-1.8,1.8-2.8,3.4
		l-6.1,9.4l11.5,7.4c1.2,0.8,2,1.2,2.6,1.2c0.8,0.1,1.6-0.4,2.2-1.4l6.9-10.6c1.5-2.3,2.1-4.3,1.7-6.1c-0.3-1.6-1.4-3.4-3.5-5.4
		l1.6-2.4l9.5,7.2l-24.8,38.3l-2.5-1.6l1.7-2.6c2.1-3.3,1.7-6-1.3-7.9l-25.4-16.5c-1.9-1.2-3.5-1.6-4.7-1.1
		c-1.1,0.4-2.3,1.6-3.6,3.7l-0.4,0.6l-2.5-1.6l22.8-35.1l9.6,5.4L99.8,171.3z"/>
	<path class="st5" d="M124.1,161.1c-5.2-5.4-7.5-11.7-7-19c0.5-7.3,3.9-13.9,10-19.8c5.7-5.5,12-8.4,18.7-8.7
		c6.7-0.3,12.6,2.1,17.5,7.3c3.8,3.9,6,8.4,6.8,13.6c0.7,5,0,10-2.4,14.9c-1.6,3.4-4,6.7-7.1,9.7c-3.6,3.5-7.6,6-11.9,7.6
		c-4.8,1.7-9.4,1.9-13.9,0.7C130.6,166.3,127.1,164.2,124.1,161.1z M129.6,150.6c5,5.1,10.2,8.2,15.8,9.1c5.5,0.9,10.2-0.5,14-4.2
		c4.8-4.6,5.9-10.2,3.2-16.6c-1.2-2.9-3.1-5.7-5.6-8.2c-4.5-4.7-9.4-7.5-14.7-8.6c-5.6-1.2-10.4,0.2-14.3,4c-4.7,4.6-6,9.9-3.8,16.1
		C125.3,145.1,127.1,147.9,129.6,150.6z"/>
	<path class="st5" d="M177.9,93.5l14.8,24.6c1.6,2.6,3.4,3.7,5.4,3.3c1.1-0.2,2.5-0.9,4.2-1.9l1.5,2.5l-15.7,9.4l-1.5-2.5l0.4-0.2
		c1.7-1,2.7-2,3.1-3c0.5-1.1,0.3-2.5-0.7-4.1l-17.9-29.8c-1.9-0.1-4,0.4-6.1,1.7l-1.5-2.5l13.4-8l43.2,11.7l-11.8-19.7
		c-1.8-2.9-3.5-4.2-5.3-3.8c-1,0.2-2.4,0.9-4.2,2l-0.6,0.4l-1.5-2.5l16.7-10l1.5,2.5l-0.6,0.4c-1.7,1-2.8,1.9-3.4,2.6
		c-0.9,1.2-0.9,2.5,0,3.9l20.9,34.8l-3.5,2.1L177.9,93.5z"/>
	<path class="st5" d="M271,52c-1.1-2.1-1.9-3.5-2.7-4.1c-1.2-1.1-2.7-1.3-4.5-0.7l-15.7,5.4l5.6,16.2l11.7-4
		c1.9-0.7,3.2-1.5,3.8-2.6c0.6-1.1,0.5-2.6-0.2-4.5l2.8-1l4.9,14.3l-2.8,1c-0.9-2.6-2.2-3.9-4-3.9c-1.1,0-2.5,0.3-4.3,0.9l-10.6,3.6
		l4.5,12.9c0.4,1.3,0.9,2.2,1.3,2.5c0.6,0.6,1.5,0.7,2.6,0.3l11.9-4.1c2.6-0.9,4.3-2.1,5.1-3.7c0.7-1.4,0.9-3.5,0.6-6.4l2.7-0.9
		l3,11.5l-43.1,14.8l-1-2.8l2.9-1c3.7-1.3,5-3.6,3.8-7.1l-9.9-28.6c-0.7-2.1-1.8-3.4-3.1-3.8c-1.1-0.3-2.8-0.1-5.1,0.7l-0.7,0.2
		l-1-2.8l39.6-13.6l4.3,10.2L271,52z"/>
	<path class="st5" d="M300,81.9l-4-13.3l2.9-0.5c3.6,7.1,8.5,10.1,14.5,9.1c3.4-0.5,5.7-2.1,7-4.8c0.6-1.2,0.7-2.5,0.5-3.9
		c-0.4-2.6-2.2-4.7-5.3-6.4c-1.1-0.6-3.9-1.6-8.2-3.1c-4.3-1.4-7.4-2.8-9.3-4.1c-3-2.1-4.7-4.8-5.3-8.2c-0.4-2.8,0-5.3,1.5-7.6
		c1.3-2.2,3.3-3.9,5.9-5.2c1.8-0.9,3.8-1.5,6-1.8c2.5-0.4,4.7-0.5,6.7-0.3c3.1,0.3,4.8,0.5,4.9,0.5c0.6-0.1,1.1-0.5,1.5-1.1L321,31
		l3.3,11.9l-2.9,0.5c-1.2-2.8-3.1-4.9-5.5-6.4c-2.5-1.6-5.3-2.1-8.3-1.6c-1.8,0.3-3.3,0.9-4.6,2c-1.5,1.2-2.2,2.7-1.9,4.4
		c0.3,2.1,2,3.9,5,5.3c2.5,0.9,4.9,1.7,7.4,2.6c4.8,1.7,8.4,3.5,11,5.4c3.3,2.4,5.2,5.5,5.8,9.2c0.9,5.4-1.2,9.8-6.1,13.3
		c-2.3,1.6-4.9,2.7-7.7,3.1c-1.8,0.3-4.2,0.3-7.5-0.1c-3.2-0.3-5.1-0.4-5.7-0.3c-0.7,0.1-1.2,0.6-1.4,1.5L300,81.9z"/>
	<path class="st5" d="M377.5,38.2L374,66.7c-0.4,3.1,0.4,5,2.2,5.9c1,0.5,2.5,0.9,4.5,1.1l-0.4,2.9l-18.1-2.2l0.4-2.9l0.4,0.1
		c2,0.2,3.4,0.1,4.3-0.4c1.1-0.6,1.8-1.8,2-3.6l4.2-34.6c-1.5-1.3-3.4-2.1-5.8-2.4l0.4-2.9l15.5,1.9l26.9,35.9l2.8-22.8
		c0.4-3.4-0.2-5.5-1.8-6.2c-1-0.4-2.5-0.8-4.5-1l-0.7-0.1l0.4-2.9l19.3,2.4l-0.4,2.9l-0.7-0.1c-2-0.2-3.4-0.2-4.3,0
		c-1.4,0.4-2.2,1.4-2.4,3.1l-4.9,40.3l-4.1-0.5L377.5,38.2z"/>
	<path class="st5" d="M475.9,60.9c0.4-2.3,0.5-3.9,0.3-4.9c-0.3-1.6-1.4-2.6-3.2-3.2l-15.8-5.1L452,64l11.7,3.8
		c2,0.6,3.5,0.7,4.6,0.2c1.1-0.5,2-1.7,2.6-3.7l2.8,0.9L469,79.6l-2.8-0.9c0.8-2.6,0.6-4.5-0.8-5.5c-0.8-0.6-2.2-1.3-4-1.9
		l-10.6-3.5l-4.2,13c-0.4,1.3-0.6,2.2-0.5,2.8c0.1,0.8,0.8,1.4,1.9,1.8l12,3.9c2.6,0.9,4.7,0.9,6.3,0.1c1.4-0.7,2.9-2.3,4.3-4.8
		l2.7,0.9l-4.5,11.1l-43.4-14.1l0.9-2.8l3,1c3.8,1.2,6.2,0.1,7.3-3.3l9.4-28.8c0.7-2.1,0.6-3.8-0.2-4.9c-0.7-0.9-2.2-1.8-4.5-2.5
		l-0.7-0.2l0.9-2.8l39.8,12.9l-2.7,10.7L475.9,60.9z"/>
	<path class="st5" d="M537.9,109.1l-1.5,2.5c-1.6-0.9-2.9-1.4-4-1.3c-1.1,0.2-2.2,1-3.1,2.6l-5.8,9.7c-7.6-0.9-14.1-2.9-19.4-6.1
		c-10.6-6.4-15.8-14.2-15.4-23.4c0.2-4.4,1.5-8.7,4-12.9c3.6-6,8.8-9.6,15.6-10.8c6.8-1.2,13.6,0.2,20.5,4.4c2.9,1.8,6.1,4.4,9.7,8
		c1.5,1.5,2.5,2.5,3,2.8c0.9,0.5,1.7,0.6,2.5,0.3l1.6,1l-7.1,11.9l-2.6-1.6c1.5-5.2,0.9-9.8-1.9-13.7c-1.3-1.9-3.1-3.5-5.3-4.9
		c-6.3-3.8-12.6-3.7-18.8,0.4c-2.9,1.9-5.5,4.6-7.5,8.1c-3.2,5.3-4.3,10.6-3.5,15.9c0.8,5.3,3.5,9.3,8.1,12c2.7,1.7,5.4,2.5,7.9,2.5
		l5.4-8.9c1.2-2,1-3.8-0.7-5.4c-0.9-0.8-2.6-2-4.9-3.5l1.5-2.5L537.9,109.1z"/>
	<path class="st5" d="M559.4,129.8l-7.9,8.4c-2.5,2.7-2.3,5.4,0.6,8.1l1.7,1.5l-2,2.2l-19.5-18.2l2-2.2l0.9,0.8
		c1.7,1.6,3.1,2.4,4.3,2.6c1.4,0.2,2.8-0.5,4.3-2.1l20.4-21.9c1.5-1.6,2.2-3,2.1-4.2c-0.1-1.2-1-2.6-2.6-4.1l-1.2-1.1l2-2.2l7.6,6.2
		c4,3.3,7.2,5.9,9.5,8.1c4.1,3.9,7.1,7.2,8.9,9.9c1.8,2.8,2.8,5.5,2.9,8.2c0.1,3.4-0.9,6.3-3.2,8.8c-4.2,4.5-9.7,4.9-16.5,1.3
		c0.3,2.2,0.2,5.3-0.3,9.3c-0.3,2.5-0.6,6.2-0.9,11.1c0.1,2.2,0.4,4,1.1,5.5c0.6,1.3,1.6,2.8,3.2,4.6l-1.9,2.1
		c-0.9-0.7-2-1.7-3.5-3.1c-4.3-4-7-7.4-8-10.2c-0.6-1.5-0.9-3.1-0.9-4.9c-0.1-2,0.1-4.4,0.5-7.4l0.9-7.4c0.2-1.8,0.2-3.7,0-5.8
		L559.4,129.8z M576.4,111.5l-14.8,15.9l2.2,2c3.3,3.1,6.2,4.9,8.8,5.4c3.3,0.7,6.3-0.4,9.2-3.5c4.9-5.3,4.1-11-2.5-17.1
		L576.4,111.5z"/>
	<path class="st5" d="M598.6,164.6c6.1-4.3,12.7-5.6,19.8-3.9c7.1,1.7,13.1,6,18,12.9c4.6,6.5,6.5,13.1,5.7,19.8
		c-0.8,6.7-4.1,12.1-9.9,16.2c-4.4,3.1-9.3,4.6-14.5,4.6c-5.1,0-9.9-1.6-14.4-4.7c-3.2-2.1-6-5-8.5-8.6c-2.9-4.1-4.8-8.5-5.6-12.9
		c-0.9-5-0.4-9.6,1.5-13.9C592.5,170.3,595.1,167.1,598.6,164.6z M608.1,171.8c-5.8,4.1-9.7,8.8-11.4,14.2c-1.8,5.3-1.1,10.1,2,14.5
		c3.8,5.5,9.1,7.4,15.9,5.8c3.1-0.8,6.1-2.2,9-4.2c5.3-3.7,8.9-8.1,10.8-13.2c2-5.3,1.5-10.3-1.7-14.8c-3.8-5.4-8.9-7.5-15.3-6.3
		C614.2,168.3,611.1,169.6,608.1,171.8z"/>
	<path class="st5" d="M617.9,237.6l12.1-6.9l1.1,2.7c-6.1,5.1-7.9,10.5-5.6,16.2c1.3,3.2,3.4,5.1,6.2,5.7c1.3,0.3,2.6,0.1,3.9-0.4
		c2.4-1,4.1-3.2,5-6.6c0.3-1.2,0.7-4.1,1.2-8.7c0.4-4.5,1.1-7.8,1.9-9.9c1.4-3.4,3.6-5.7,6.8-7c2.6-1.1,5.2-1.1,7.7-0.3
		c2.4,0.8,4.5,2.3,6.3,4.5c1.3,1.5,2.3,3.3,3.1,5.4c0.9,2.3,1.5,4.5,1.8,6.5c0.4,3.1,0.6,4.8,0.7,4.9c0.2,0.5,0.7,0.9,1.4,1.2
		l0.6,1.5l-10.9,5.9l-1.1-2.7c2.4-1.8,4.1-4.1,5-6.8c0.9-2.8,0.8-5.6-0.3-8.4c-0.7-1.7-1.7-3-3-4c-1.6-1.2-3.1-1.5-4.7-0.9
		c-2,0.8-3.3,2.8-4,6c-0.3,2.6-0.6,5.2-0.8,7.8c-0.6,5-1.5,9-2.8,11.9c-1.6,3.8-4.1,6.3-7.7,7.8c-5,2-9.8,1.1-14.3-2.9
		c-2.1-1.9-3.7-4.1-4.8-6.8c-0.7-1.6-1.2-4.1-1.6-7.3c-0.4-3.2-0.7-5.1-1-5.7c-0.3-0.7-0.8-1-1.7-1L617.9,237.6z"/>
	<path class="st5" d="M70.9,368.4l2.1,0l0.2,13.9l-2.1,0l0-0.4c0-1.7-0.4-3-1-3.7c-0.7-0.8-1.9-1.2-3.5-1.1l-13.3,0.2
		c-4.7,0.1-8.3-1.2-10.8-3.8c-2.4-2.5-3.6-6.2-3.7-11c-0.1-4.5,0.8-8.2,2.5-11c2.1-3.3,5.3-4.9,9.6-5l16-0.3c1.4,0,2.4-0.3,2.9-0.9
		c0.5-0.5,0.7-1.5,0.7-2.9l0-0.9l2.1,0l0.3,16.8l-2.1,0l0-0.9c0-2.5-1.3-3.8-3.7-3.7l-16,0.3c-4,0.1-6.6,1.7-7.8,5
		c-0.6,1.4-0.8,3-0.8,4.8c0.1,3.2,0.9,5.7,2.6,7.5c1.8,1.9,4.2,2.8,7.4,2.7l13-0.2c2.5,0,4.2-0.7,4.9-1.9c0.4-0.7,0.5-1.5,0.5-2.6
		L70.9,368.4z"/>
	<path class="st5" d="M67.6,393.5l-20,3.2c-2.2,0.3-3.3,1.2-3.6,2.7c-0.1,0.8-0.1,1.9,0.1,3.3l-2.1,0.3l-2-12.7l2.1-0.3l0,0.3
		c0.2,1.4,0.6,2.3,1.1,2.8c0.6,0.6,1.6,0.9,2.9,0.7l24.3-3.8c0.6-1.2,0.8-2.7,0.5-4.4L73,385l1.7,10.9l-19.1,25.2l16-2.5
		c2.4-0.4,3.7-1.2,3.9-2.5c0.1-0.7,0.1-1.8-0.2-3.3l-0.1-0.5l2.1-0.3l2.2,13.6l-2.1,0.3l-0.1-0.5c-0.2-1.4-0.5-2.3-0.8-2.9
		c-0.5-0.9-1.4-1.2-2.5-1l-28.3,4.5l-0.5-2.9L67.6,393.5z"/>
	<path class="st5" d="M78.9,428.9l2-0.5l4.4,16.5l-2,0.5l-0.2-0.9c-0.7-2.6-2.4-3.6-4.9-2.9l-20.5,5.5c-1.4,0.4-2.3,1-2.7,1.7
		c-0.4,0.8-0.4,1.9,0,3.3l0.2,0.8l-2,0.5L48.7,437l2-0.5l0.2,0.7c0.7,2.5,2.2,3.4,4.6,2.8l20.7-5.5c1.4-0.4,2.3-0.9,2.8-1.7
		c0.4-0.7,0.5-1.8,0.1-3.2L78.9,428.9z"/>
	<path class="st5" d="M60.7,477.3l20.7-22c0.8-0.9,1.4-1.6,1.7-2c0.6-0.9,1-1.7,1-2.4c0-0.6-0.2-1.4-0.6-2.4l-0.1-0.4l1.9-0.8
		l7,17.2l-1.9,0.8l-0.3-0.8c-1.1-2.6-2.2-3.8-3.5-3.3c-0.6,0.2-1.4,0.8-2.2,1.7l-13.4,14.5l21.1,0.3c1.2,0,1.9-0.5,2-1.6
		c0.1-0.8-0.1-1.8-0.5-2.9l-0.4-1l1.9-0.8l5.1,12.6l-1.9,0.8l-0.1-0.4c-0.7-1.8-2-2.9-3.7-3.2c-0.8-0.2-2.1-0.3-3.8-0.3L62,480.4
		L60.7,477.3z"/>
	<path class="st5" d="M108.1,514.2c1.3-1,2.2-1.8,2.5-2.4c0.6-1,0.6-2-0.1-3.2l-5.7-10.2l-10.6,5.9l4.2,7.6c0.7,1.3,1.5,2,2.3,2.3
		c0.8,0.3,1.8,0,3.1-0.7l1,1.8l-9.4,5.2l-1-1.8c1.7-0.9,2.4-2,2.3-3.2c-0.1-0.7-0.5-1.7-1.2-2.9l-3.8-6.9l-8.4,4.7
		c-0.9,0.5-1.4,0.9-1.6,1.2c-0.3,0.5-0.3,1.1,0.1,1.9l4.3,7.8c0.9,1.7,2,2.7,3.2,3.1c1.1,0.3,2.6,0.2,4.5-0.4l1,1.8l-7.7,3.5
		l-15.6-28.2l1.8-1l1.1,1.9c1.3,2.4,3.1,3,5.4,1.8l18.7-10.4c1.4-0.8,2.1-1.6,2.2-2.6c0.1-0.8-0.3-2-1.1-3.4l-0.3-0.5l1.8-1
		l14.3,25.8l-6.5,4.2L108.1,514.2z"/>
	<path class="st5" d="M110.7,538.6l-6.5,4.9c-2.1,1.6-2.3,3.5-0.6,5.7l1,1.3l-1.7,1.3l-11.3-15l1.7-1.3l0.5,0.7
		c1,1.3,1.9,2.1,2.7,2.3c0.9,0.3,2,0,3.2-0.9l16.9-12.7c1.2-0.9,1.9-1.8,2-2.7c0.1-0.9-0.4-1.9-1.3-3.2l-0.7-0.9l1.7-1.3l4.5,5.3
		c2.4,2.8,4.3,5,5.6,6.8c2.4,3.2,4.1,5.9,5,8c0.9,2.1,1.2,4.2,1,6.1c-0.3,2.4-1.4,4.3-3.3,5.7c-3.4,2.6-7.3,2.2-11.6-1.1
		c-0.1,1.6-0.5,3.7-1.3,6.4c-0.5,1.7-1.2,4.2-2,7.6c-0.2,1.5-0.2,2.8,0.1,4c0.2,1,0.8,2.2,1.6,3.6l-1.6,1.2
		c-0.5-0.6-1.2-1.5-2.1-2.6c-2.5-3.3-3.9-6-4.3-8.1c-0.2-1.1-0.2-2.2,0-3.5c0.2-1.4,0.6-3.1,1.2-5.1l1.5-5c0.3-1.2,0.6-2.6,0.7-4
		L110.7,538.6z M124.7,528l-12.2,9.2l1.3,1.7c1.9,2.5,3.7,4.1,5.5,4.8c2.2,0.9,4.5,0.5,6.8-1.3c4.1-3.1,4.2-7.1,0.4-12.2L124.7,528z
		"/>
	<path class="st5" d="M122.9,575.8l6.1-7.7l1.5,1.5c-2.6,5-2.4,9,0.6,12.1c1.7,1.8,3.6,2.5,5.6,2.1c0.9-0.2,1.7-0.6,2.5-1.3
		c1.3-1.3,1.8-3.2,1.5-5.6c-0.1-0.9-0.6-2.9-1.5-6c-0.9-3.1-1.4-5.4-1.4-7c0-2.6,0.9-4.7,2.6-6.4c1.4-1.4,3.1-2.1,5-2.2
		c1.8-0.1,3.6,0.3,5.4,1.3c1.2,0.7,2.4,1.6,3.5,2.7c1.2,1.3,2.2,2.5,2.9,3.8c1.1,1.9,1.7,3,1.7,3c0.3,0.3,0.7,0.4,1.2,0.4l0.8,0.8
		l-5.5,6.8l-1.5-1.5c1.1-1.9,1.6-3.8,1.5-5.8c-0.1-2.1-0.9-3.9-2.4-5.4c-0.9-0.9-1.9-1.6-3-1.9c-1.3-0.4-2.4-0.2-3.3,0.7
		c-1.1,1.1-1.4,2.7-1,5c0.5,1.8,1,3.5,1.5,5.3c0.9,3.4,1.4,6.3,1.3,8.5c-0.1,2.9-1,5.2-3,7.1c-2.8,2.7-6.1,3.3-10.2,1.9
		c-1.9-0.7-3.5-1.7-4.9-3.2c-0.9-0.9-1.9-2.3-3-4.3c-1.1-2-1.8-3.1-2.1-3.4c-0.4-0.4-0.8-0.4-1.4-0.2L122.9,575.8z"/>
	<path class="st5" d="M164.9,573.9l1.3-1.6l13.1,11l-1.3,1.6l-0.7-0.6c-2.1-1.8-4-1.6-5.7,0.5L157.9,601c-0.9,1.1-1.3,2.1-1.2,3
		c0.1,0.9,0.8,1.8,1.9,2.7l0.6,0.5l-1.3,1.6l-13.1-11l1.3-1.6l0.6,0.5c2,1.7,3.8,1.6,5.4-0.3l13.8-16.4c0.9-1.1,1.4-2.1,1.3-2.9
		c-0.1-0.9-0.6-1.7-1.7-2.7L164.9,573.9z"/>
	<path class="st5" d="M180,587.3l1.2-1.7c1.1,0.7,2.2,1.3,3.2,2l2.2,1.4c0.2,0.1,0.8,0.5,1.9,1.2c2.4,1.5,4.5,2.8,6.1,4
		c5.7,4,9.4,7.5,11.2,10.5c2.1,3.5,2.7,7.3,1.8,11.2c-0.5,2-1.4,3.9-2.6,5.8c-2.7,3.8-6.3,6.2-10.9,7c-5.1,0.9-11.1-1.1-18-5.9
		l-13.9-9.7l1.2-1.7c1.4,1,2.5,1.5,3.3,1.6c1.1,0.1,2-0.5,2.9-1.8l11.9-16.9c1.4-2,1.7-3.5,1-4.6C182,588.8,181.2,588.1,180,587.3z
		 M190.2,594.4l-14.3,20.5c-1,1.5-1.5,2.6-1.3,3.2c0.2,0.7,1.1,1.6,2.7,2.8c4.5,3.1,8.6,4.1,12.6,3c3.2-1,6-3,8.2-6.3
		c2.6-3.8,3.6-7.5,3-11.2c-0.6-3.6-3.1-6.8-7.3-9.8C192.5,595.8,191.3,595,190.2,594.4z"/>
	<path class="st5" d="M230.3,639.6l-10.6-4.9l-4.7,4.7c-1.1,1.1-1.6,2-1.4,2.8c0.2,0.7,1.4,1.6,3.5,2.6l0.6,0.3l-0.9,1.9l-12.9-6
		l0.9-1.9l0.7,0.3c1.3,0.6,2.6,0.7,3.8,0.2c0.8-0.4,1.9-1.2,3.1-2.4l19.1-19.3l0.1-1.7l7.2,3.3l-1.8,29.2c-0.1,1.7,0,3,0.3,3.9
		c0.4,1.1,1.2,2.1,2.5,2.8l-0.9,1.9l-15.8-7.4l0.9-1.9l1.7,0.8c1.4,0.7,2.5,0.8,3.1,0.3c0.6-0.4,1-1.4,1.1-2.9L230.3,639.6z
		 M230.4,636.4l0.8-13.4l-9.4,9.4L230.4,636.4z"/>
	<path class="st5" d="M254.6,630.6l0.6-2c1.2,0.3,2.5,0.6,3.7,0.9l2.5,0.7c0.2,0.1,0.9,0.2,2.2,0.5c2.8,0.7,5.1,1.3,7.1,1.9
		c6.7,2,11.3,4.2,13.9,6.5c3.1,2.7,4.8,6.1,5.1,10.1c0.2,2.1-0.1,4.2-0.7,6.3c-1.4,4.5-4.1,7.8-8.3,10c-4.5,2.4-10.9,2.4-19-0.1
		l-16.3-5l0.6-2c1.6,0.5,2.8,0.7,3.6,0.5c1-0.2,1.8-1.1,2.2-2.6l6-19.8c0.7-2.3,0.6-3.9-0.5-4.7C256.9,631.4,255.9,631,254.6,630.6z
		 M266.5,634.2l-7.3,23.9c-0.5,1.7-0.6,2.9-0.2,3.5c0.4,0.6,1.5,1.2,3.4,1.8c5.2,1.6,9.5,1.2,12.9-1.1c2.8-1.9,4.7-4.7,5.9-8.5
		c1.3-4.4,1.1-8.3-0.6-11.6c-1.7-3.2-5-5.6-10-7.1C269.1,634.8,267.7,634.4,266.5,634.2z"/>
	<path class="st5" d="M311.5,646.1l0.2-2.1c1.3,0,2.5,0.1,3.8,0.1l2.6,0.1c0.2,0,0.9,0,2.2,0.1c2.9,0.1,5.3,0.2,7.3,0.4
		c6.9,0.6,11.9,1.8,14.9,3.5c3.6,2,6,5,7.1,8.8c0.6,2,0.8,4.1,0.6,6.3c-0.4,4.7-2.4,8.5-6,11.5c-3.9,3.3-10.1,4.6-18.6,3.9
		l-16.9-1.5l0.2-2.1c1.7,0.1,2.9,0.1,3.6-0.3c1-0.5,1.5-1.5,1.7-3l1.8-20.6c0.2-2.4-0.3-3.9-1.4-4.5
		C314,646.5,312.9,646.3,311.5,646.1z M323.9,647.3l-2.2,24.9c-0.2,1.8,0,2.9,0.5,3.4c0.5,0.5,1.8,0.8,3.7,1
		c5.4,0.5,9.5-0.8,12.4-3.7c2.3-2.4,3.6-5.6,4-9.5c0.4-4.6-0.6-8.3-3-11.2c-2.3-2.8-6.1-4.4-11.2-4.8
		C326.6,647.2,325.2,647.2,323.9,647.3z"/>
	<path class="st5" d="M384.6,654.3c-0.3-1.6-0.6-2.7-0.9-3.3c-0.6-1-1.6-1.4-2.9-1.4l-11.7,0.4l0.4,12.1l8.7-0.3
		c1.5-0.1,2.5-0.4,3.1-1c0.6-0.6,0.9-1.6,0.8-3.1l2.1-0.1l0.4,10.7l-2.1,0.1c-0.1-1.9-0.7-3.1-1.9-3.5c-0.7-0.2-1.8-0.3-3.1-0.3
		l-7.9,0.3l0.3,9.6c0,1,0.2,1.6,0.4,2c0.3,0.5,0.9,0.8,1.7,0.7l8.9-0.3c1.9-0.1,3.3-0.6,4.2-1.5c0.8-0.8,1.4-2.2,1.7-4.2l2-0.1
		l-0.3,8.4l-32.2,1.1l-0.1-2.1l2.2-0.1c2.8-0.1,4.1-1.4,4-4l-0.7-21.3c-0.1-1.6-0.5-2.6-1.3-3.2c-0.7-0.4-1.9-0.6-3.6-0.6l-0.5,0
		l-0.1-2.1l29.5-1l0.8,7.7L384.6,654.3z"/>
	<path class="st5" d="M447.4,652.9l0.4,2c-1.3,0.3-2.2,0.7-2.7,1.3c-0.5,0.6-0.6,1.6-0.4,2.8l1.7,7.8c-4.4,3.2-8.7,5.3-13,6.2
		c-8.6,1.8-15,0.3-19.2-4.7c-2-2.3-3.4-5.2-4.1-8.6c-1-4.8-0.1-9.2,2.9-13.1c2.9-3.9,7.2-6.4,12.7-7.6c2.4-0.5,5.3-0.7,8.8-0.5
		c1.5,0.1,2.5,0.1,2.9,0c0.7-0.1,1.2-0.5,1.4-1l1.3-0.3l2,9.6l-2.1,0.4c-1.7-3.4-4.2-5.5-7.6-6.2c-1.6-0.3-3.3-0.3-5.1,0
		c-5.1,1.1-8.3,4.2-9.5,9.2c-0.6,2.4-0.6,5,0,7.8c0.9,4.2,2.9,7.5,5.8,9.9c3,2.3,6.3,3.1,10,2.3c2.2-0.5,4-1.3,5.3-2.5l-1.5-7.2
		c-0.4-1.6-1.3-2.5-2.9-2.5c-0.9,0-2.3,0.2-4.2,0.5l-0.4-2L447.4,652.9z"/>
	<path class="st5" d="M471.9,626.9l-0.7-1.9l13-5l0.7,1.9l-0.4,0.1c-1.6,0.6-2.7,1.3-3.1,2.2c-0.5,0.9-0.5,2.2,0.1,3.7l4.8,12.4
		c1.7,4.4,1.7,8.2,0.1,11.4c-1.6,3.1-4.6,5.5-9.1,7.2c-4.2,1.6-8,2.1-11.2,1.4c-3.8-0.8-6.4-3.3-8-7.3l-5.7-14.9
		c-0.5-1.3-1.1-2.1-1.8-2.4c-0.7-0.3-1.7-0.2-3,0.3l-0.9,0.3l-0.7-1.9l15.7-6l0.7,1.9l-0.9,0.3c-2.4,0.9-3.1,2.5-2.2,4.8l5.7,14.9
		c1.4,3.7,3.9,5.6,7.4,5.6c1.6,0,3.1-0.3,4.8-0.9c3-1.1,5.1-2.8,6.2-5c1.2-2.3,1.2-4.9,0-7.9l-4.7-12.2c-0.9-2.4-2.1-3.7-3.4-4
		c-0.7-0.1-1.6,0-2.6,0.4L471.9,626.9z"/>
	<path class="st5" d="M516,626l-10.2,5.7l1.1,6.6c0.2,1.6,0.7,2.5,1.4,2.8c0.7,0.3,2.1-0.1,4.2-1.3l0.6-0.3l1,1.8l-12.4,6.9l-1-1.8
		l0.7-0.4c1.3-0.7,2-1.7,2.3-2.9c0.2-0.9,0.2-2.2-0.1-3.9l-4.4-26.8l-1.3-1.1l6.9-3.8l22.5,18.6c1.3,1.1,2.4,1.8,3.3,2
		c1.1,0.3,2.4,0.2,3.7-0.4l1,1.8l-15.2,8.4l-1-1.8l1.6-0.9c1.4-0.8,2.1-1.5,2.1-2.3c0-0.8-0.6-1.6-1.7-2.6L516,626z M513.5,624
		l-10.4-8.6l2.1,13.1L513.5,624z"/>
	<path class="st5" d="M522.9,600.2l-1.3-1.6c0.9-0.9,1.9-1.7,2.8-2.5l1.9-1.7c0.1-0.1,0.7-0.6,1.7-1.5c2.1-1.9,3.9-3.5,5.5-4.8
		c5.4-4.4,9.8-7,13.1-7.9c4-1,7.7-0.6,11.2,1.4c1.8,1,3.4,2.4,4.8,4.1c3,3.6,4.2,7.8,3.7,12.5c-0.5,5.1-4.1,10.3-10.7,15.7
		l-13.2,10.7l-1.3-1.6c1.3-1.1,2.1-2,2.4-2.7c0.4-1,0.1-2.1-0.9-3.3l-13-16.1c-1.5-1.9-2.9-2.6-4.2-2.2
		C524.9,598.8,524,599.3,522.9,600.2z M532.6,592.4l15.7,19.4c1.1,1.4,2.1,2.1,2.8,2.1c0.7,0,1.9-0.6,3.4-1.9
		c4.2-3.4,6.3-7.2,6.3-11.3c0-3.4-1.3-6.6-3.8-9.6c-2.9-3.6-6.2-5.6-9.9-6c-3.6-0.4-7.4,1.1-11.5,4.3
		C534.5,590.5,533.5,591.5,532.6,592.4z"/>
	<path class="st5" d="M587.3,568l-8,8.6l3.1,5.9c0.7,1.4,1.5,2.1,2.2,2.2c0.8,0.1,2-0.8,3.6-2.5l0.5-0.5l1.5,1.4l-9.7,10.4L579,592
		l0.6-0.6c1-1.1,1.4-2.2,1.3-3.5c-0.1-0.9-0.5-2.1-1.3-3.7l-12.4-24.1l-1.5-0.6l5.4-5.8l27.2,10.7c1.6,0.6,2.8,0.9,3.7,0.9
		c1.2,0,2.3-0.5,3.4-1.6l1.5,1.4L595,578l-1.5-1.4l1.3-1.4c1.1-1.1,1.5-2.1,1.3-2.9c-0.2-0.7-1-1.4-2.4-1.9L587.3,568z M584.3,566.9
		l-12.5-4.9l6.1,11.8L584.3,566.9z"/>
	<path class="st5" d="M622.2,528.6l5.2,8.7l-16.9,23.2l-1.7-1.2l0.5-0.7c1.3-1.8,1.6-3.2,1.1-4.3c-0.3-0.5-0.8-1.1-1.5-1.6
		L591.5,540c-2.1-1.5-3.9-1.1-5.6,1.2l-0.6,0.8l-1.7-1.2l10.7-14.7l1.7,1.2l-0.9,1.2c-1.6,2.1-1.3,3.9,0.7,5.4l17.9,13
		c0.8,0.6,1.4,0.8,1.9,0.7c0.5-0.1,1-0.6,1.6-1.4l4-5.5c1.2-1.6,1.5-3.4,1.1-5.3c-0.2-0.9-0.7-2.6-1.4-5.1L622.2,528.6z"/>
	<path class="st5" d="M632.5,504l-5.7,10.2l4.4,5c1,1.2,1.9,1.7,2.7,1.6c0.7-0.1,1.7-1.2,2.9-3.3l0.3-0.6l1.8,1l-6.9,12.4l-1.8-1
		l0.4-0.7c0.7-1.3,0.8-2.5,0.4-3.7c-0.3-0.9-1-2-2.2-3.2l-17.9-20.4l-1.7-0.3l3.8-6.9l29,3.8c1.7,0.2,3,0.2,3.9,0
		c1.2-0.3,2.1-1.1,2.9-2.3l1.8,1l-8.4,15.2l-1.8-1l0.9-1.6c0.8-1.4,0.9-2.4,0.5-3.1c-0.4-0.7-1.3-1.1-2.8-1.3L632.5,504z
		 M629.3,503.6l-13.3-1.8l8.8,10L629.3,503.6z"/>
	<path class="st5" d="M623.8,479.4l-1.9-0.8l6.4-15.7l1.9,0.8l-0.3,0.7c-1,2.4-0.2,4.1,2.3,5.1l21.7,8.8c4.9,2,8.3,5,10,9
		c1.2,2.9,1.2,6-0.2,9.3c-1.4,3.6-3.1,5-5,4.2c-0.9-0.4-1.5-1-1.8-2c-0.3-0.9-0.3-1.8,0.1-2.7c0.3-0.7,0.7-1.2,1.3-1.6
		c0.2-0.1,0.8-0.4,1.9-0.9c1-0.4,1.6-0.9,1.8-1.2c0.7-1.6-0.6-3.1-3.9-4.4l-28.7-11.6c-2.5-1-4.2-0.3-5.2,2.2L623.8,479.4z"/>
	<path class="st5" d="M656.4,445l-3.4,11.2l5.3,4c1.3,1,2.2,1.3,3,1c0.7-0.3,1.4-1.6,2.1-3.9l0.2-0.6l2,0.6l-4.2,13.6l-2-0.6
		l0.2-0.8c0.4-1.4,0.3-2.6-0.4-3.7c-0.5-0.8-1.4-1.7-2.8-2.7l-21.7-16.2l-1.7,0.1l2.3-7.6l29.1-2.3c1.7-0.1,3-0.4,3.8-0.8
		c1.1-0.5,1.9-1.5,2.4-2.9l2,0.6l-5.1,16.7l-2-0.6l0.6-1.8c0.5-1.5,0.4-2.5-0.1-3.1c-0.5-0.6-1.5-0.8-3-0.6L656.4,445z M653.2,445.3
		l-13.4,1l10.7,8L653.2,445.3z"/>
	<path class="st5" d="M662.1,412l8.1,1.1c2.6,0.4,4.1-0.9,4.4-3.7l0.2-1.6l2.1,0.3l-2.6,18.6l-2.1-0.3l0.1-0.9
		c0.2-1.6,0.1-2.8-0.2-3.5c-0.5-0.9-1.4-1.4-3-1.6l-20.9-2.9c-1.5-0.2-2.6,0-3.3,0.5c-0.7,0.6-1.1,1.6-1.3,3.2l-0.2,1.1l-2.1-0.3
		l0.6-6.9c0.3-3.6,0.5-6.6,0.8-8.8c0.6-4,1.3-7,2.1-9.2c0.9-2.2,2.1-3.8,3.6-5c1.9-1.5,4.1-2,6.4-1.7c4.3,0.6,6.7,3.6,7.4,9
		c1.2-1.1,3-2.3,5.5-3.6c1.5-0.8,3.8-2.1,6.7-4c1.2-0.9,2.1-1.9,2.7-2.9c0.5-0.9,1-2.1,1.4-3.7l2,0.3c-0.1,0.8-0.2,1.9-0.4,3.3
		c-0.6,4.1-1.5,7-2.7,8.8c-0.6,0.9-1.4,1.7-2.4,2.5c-1.1,0.8-2.6,1.7-4.4,2.7l-4.6,2.5c-1.1,0.6-2.2,1.4-3.3,2.4L662.1,412z
		 M644.6,409.5l15.2,2.1l0.3-2.1c0.4-3.1,0.3-5.6-0.4-7.3c-0.9-2.2-2.8-3.5-5.7-3.9c-5.1-0.7-8,2.1-8.9,8.4L644.6,409.5z"/>
</g>
</svg>
