<?xml version="1.0" encoding="utf-8"?>
<!-- Generator: Adobe Illustrator 21.1.0, SVG Export Plug-In . SVG Version: 6.00 Build 0)  -->
<svg version="1.1" id="Capa_1" xmlns="http://www.w3.org/2000/svg" xmlns:xlink="http://www.w3.org/1999/xlink" x="0px" y="0px"
	 viewBox="0 0 602 720" style="enable-background:new 0 0 602 720;" xml:space="preserve">
<style type="text/css">
	.st0{fill:#4D4D4D;}
</style>
<g id="XMLID_125_">
	<path id="XMLID_135_" class="st0" d="M579.7,376.6c-11.5-8.9-13.4-21.5-12.9-34.6c1.2-29.5-10.7-50.7-38-62.8
		c-2-0.9-4.5-1.5-4.5-4.3c0-2.8,2.2-3.5,4.4-4.3c28.9-11.3,40.8-33.3,39.9-63.4c-0.4-12.3,2.3-23.6,13.1-31.4c3-2.2,4.9-5.2,3.3-9.2
		c-1.6-4.1-4.8-6.5-8.9-6c-14.9,1.7-24.9-6.3-34.2-16.1c-18.2-19.3-39.6-27.6-66-19.9c-6.7,1.9-11.5-2.9-9.3-9.5
		c8.8-26.7,0.3-48.3-19.1-66.9c-9-8.7-16.1-18.4-14.1-32.1c0.6-4.2-0.9-7.8-4.9-9.5c-4.3-1.9-8.2-0.5-11.1,3.2
		c-5.3,6.7-12.5,9.5-20.8,10.7c-5.8,0.8-11.5,0.8-17.3,0.6c-23.8-0.9-42.3,8.2-55,28.7c-4.9,7.9-11.9,7.5-16.8-0.8
		c-12.6-21.3-31.6-31.1-55.9-31.2C237,17.4,223.3,15.9,213.8,3c-2-2.8-5.4-3.7-8.7-2.4c-3.6,1.4-5.9,4.2-5.4,8.2
		c1.9,14.5-5.7,24.5-15.6,33.4c-20.9,18.8-28.6,41.2-18.9,68.3c1,2.7,1.1,4.6-1.1,6.9c-2.4,2.5-4.5,1.3-6.9,0.4
		c-26.6-9.7-49.6-4.1-69.4,16.1c-9.3,9.4-19.7,16.5-34,14.5c-4.3-0.6-7.6,1.1-9.2,5.3c-1.7,4.4,0.7,7.5,3.8,10
		c7.2,5.8,10.7,13.4,11.2,22.5c0.3,5.1,0.8,10.2,0.8,15.3c0.1,28.4,13.1,48.2,39.1,59.3c2.5,1.1,5.6,1.2,7.2,4.4
		c-1.2,0.7-2.1,1.6-3.3,2c-33.7,13.5-44.1,28.6-44.6,64.6c-0.2,12.6-2.6,24.2-13.7,32.2c-3.1,2.2-4.4,5.6-2.7,9.4
		c1.6,3.5,4.4,5.4,8.4,5.3c6.1-0.2,12.2-0.2,17.8,2.8c7.8,4.1,13.7,10.5,19.8,16.6c13.1,13.1,28.5,20,47.4,19.5
		c10.7-0.3,20.1-4.9,30.2-7.9c0.2,1.4,0.5,2.1,0.3,2.5c-16.6,30.8-10,57.2,14.7,80.6c9,8.5,14.8,18.5,12.9,31.6
		c-0.6,4.3,1.5,7.4,5.6,9.1c3.9,1.6,7.1,0,9.4-2.8c8.1-10.1,19.1-12.2,31.1-11.7c10,0.4,19.9,0.1,29.5-2.8
		c22.4-6.8,34.7-23,41.9-47.1c10.3,36.8,33,53.2,68.5,53c12.7-0.1,25,2.3,33.1,14c2.3,3.3,6,3.6,9.6,2.3c4.3-1.6,5.5-5.2,5.1-9.3
		c-0.7-8,0.7-15.4,6.1-21.6c4.6-5.3,9.7-10.3,14.5-15.4c15-15.7,21.5-34,15.9-55.5c-1.8-7-4.9-13.6-7.9-21.8
		c13.7,7.8,27,13,41.8,11.6c15.6-1.4,28.6-8.4,39.8-19.4c10-9.9,20.4-18.7,36.2-15.5c3.7,0.7,6.7-1.7,8.2-5.4
		C584.1,382,582.6,378.8,579.7,376.6z M368.9,219.1c-27.9,25.4-36.7,56.6-29.6,93.2c4.4,22.9,9.7,45.7,11.8,69
		c0.3,3.1,1.4,6.1-0.1,9.9c-10-11.7-15.5-25.2-21-38.8c-3.3-8-6.4-16-9.9-23.9c-1.2-2.8-2.7-6.4-6.5-6.3c-3.6,0.2-5.1,3.6-6.4,6.5
		c-3.8,8.8-7.4,17.7-11,26.6c-5,12.4-10.4,24.6-20.5,36.7c0.5-18.5,3.6-34.6,6.7-50.7c3-15.7,6.4-31.3,7.6-47.3
		c1.9-26.9-7.1-49.7-25.6-68.9c-3.5-3.6-7.3-7-12.5-12c12.8,1.3,21.9,5,30.4,11c30,21.5,32.8,21.6,62.2,0.3
		c8.5-6.1,17.9-9.7,28.3-11.2C373.4,216.7,370.5,217.6,368.9,219.1z M293.4,204.1c0.1-10.9,9.4-20.1,20.2-20.1
		c11.1,0,19.6,8.8,19.6,20.3c0,11.6-8.4,20.1-19.8,20C302.5,224.3,293.3,215,293.4,204.1z M431.9,188.6c-1.7,5.5-3.8,10.9-7.1,15.7
		c-1.2,1.8-2.2,4.4-4.8,4.2c-3.2-0.3-0.3-4.3-2.9-5.3c-0.5,0.2-1.1,0.4-1.5,0.7c-3.2,2.8-5,10-9.5,7.6c-4.1-2.2-2-9.1,0-13.2
		c4.2-8.7-0.5-10.9-7.5-13.2c-57.3-18.9-114-17-170.7,2.9c-7.1,2.5-9.1,5.6-6.5,12.5c1.5,4.1,3.8,10.1-0.4,12.2c-4,2-6-4.4-8.8-7.2
		c-0.9-0.9-1.6-1.9-2.7-3.3c-2.9,1.5-0.5,5-3.1,6.8c-7.2-5.1-9.3-13.2-11.4-21c-1.6-5.9,1.1-7.2,6.4-2.6c0.4-6.5-2.7-12,0.1-18.2
		c6.1,2,9.1,7.1,11.2,12.1c3,7,6.4,7.6,13.2,4.6c22.8-10.3,46.6-17.6,71.5-21.5c30.9-4.9,59.8,2.5,88.3,13
		c6.3,2.3,12.6,4.9,18.6,7.8c4.5,2.2,6.7,1,9.1-3.2c2.9-5.1,5.8-14,11.5-12.2c5.6,1.8-0.2,10.1,0.4,15.4c2.9,1.8,4.4-3.7,6.6-1.2
		C433.6,183.8,432.6,186.4,431.9,188.6z"/>
	<g id="XMLID_126_">
		<path id="XMLID_134_" class="st0" d="M0,720h38.2v-74.3c0,0-0.4-4.5,6-4.5s15,0,15,0V720h38.2v-78.8h25V720h38.2v-98.3H26.3
			c0,0-26.3,0.3-26.3,15.2C0,651.7,0,720,0,720z"/>
		<polygon id="XMLID_133_" class="st0" points="335.3,621.7 373.5,621.7 373.5,677.9 417.2,677.9 417.2,621.7 451.5,621.7 
			451.5,720 417.2,720 417.2,699.7 373.5,699.7 373.5,720 335.3,720 		"/>
		<path id="XMLID_130_" class="st0" d="M287.5,621.7c-7.8,0-24.8,0-40.9,0s-33.1,0-40.9,0c-17.1,0-19.2,21.1-19.2,21.1V720h35.1
			v-20.3h25h24.9V720h35.1v-77.1C306.5,642.9,304.6,621.7,287.5,621.7z M271.4,677.9h-24.9h-25c0,0,0-24.6,0-31.9
			c0-7.2,10.3-6.3,10.3-6.3s6.9,0,14.8,0s14.8,0,14.8,0s10.1-0.9,10.1,6.3C271.4,653.3,271.4,677.9,271.4,677.9z"/>
		<path id="XMLID_127_" class="st0" d="M581.8,621.7c-7.8,0-24.8,0-40.9,0s-33.1,0-40.9,0c-17.1,0-20.4,21.1-20.4,21.1V720H517
			v-20.3h23.9h26.8V720H602v-77.1C602,642.9,598.9,621.7,581.8,621.7z M567.7,677.9h-26.8H517c0,0,0-24.6,0-31.9
			c0-7.2,9.1-6.3,9.1-6.3s6.9,0,14.8,0s14.8,0,14.8,0s12-0.9,12,6.3C567.7,653.3,567.7,677.9,567.7,677.9z"/>
	</g>
</g>
</svg>
