<?xml version="1.0" encoding="utf-8"?>
<!-- Generator: Adobe Illustrator 21.1.0, SVG Export Plug-In . SVG Version: 6.00 Build 0)  -->
<svg version="1.1" id="Capa_1" xmlns="http://www.w3.org/2000/svg" xmlns:xlink="http://www.w3.org/1999/xlink" x="0px" y="0px"
	 viewBox="0 0 1280 223.8" style="enable-background:new 0 0 1280 223.8;" xml:space="preserve">
<style type="text/css">
	.st0{fill:#4D4D4D;}
</style>
<g id="XMLID_63_">
	<path id="XMLID_89_" class="st0" d="M102.5,139.7v29.1c0,35-17.5,55-51.3,55c-33.8,0-51.3-20-51.3-55V55C0,20,17.5,0,51.3,0
		c33.8,0,51.3,20,51.3,55v21.3H70V52.8c0-15.6-6.9-21.6-17.8-21.6c-10.9,0-17.8,5.9-17.8,21.6V171c0,15.6,6.9,21.3,17.8,21.3
		c10.9,0,17.8-5.6,17.8-21.3v-31.3H102.5z"/>
	<path id="XMLID_84_" class="st0" d="M234.7,221.3H200l-5.9-39.7h-42.2l-5.9,39.7h-31.6l35-218.8h50.3L234.7,221.3z M156.3,151.9
		h33.1L172.8,41.3L156.3,151.9z"/>
	<path id="XMLID_82_" class="st0" d="M296.9,0c33.5,0,50.6,20,50.6,55v6.9h-32.5v-9.1c0-15.6-6.3-21.6-17.2-21.6
		s-17.2,5.9-17.2,21.6c0,45,67.2,53.5,67.2,116c0,35-17.5,55-51.3,55c-33.8,0-51.3-20-51.3-55v-13.4h32.5V171
		c0,15.6,6.9,21.3,17.8,21.3s17.8-5.6,17.8-21.3c0-45-67.2-53.5-67.2-116C246.3,20,263.5,0,296.9,0z"/>
	<path id="XMLID_79_" class="st0" d="M478.9,221.3h-34.7l-5.9-39.7H396l-5.9,39.7h-31.6l35-218.8h50.3L478.9,221.3z M400.4,151.9
		h33.1L417,41.3L400.4,151.9z"/>
	<path id="XMLID_77_" class="st0" d="M616.1,157.9L639.5,2.5h47.8v218.8h-32.5V64.4l-23.8,156.9h-32.5L572.9,66.6v154.7h-30V2.5
		h47.8L616.1,157.9z"/>
	<path id="XMLID_75_" class="st0" d="M746.7,94.7h47.2V126h-47.2v64.1h59.4v31.3h-93.8V2.5h93.8v31.3h-59.4V94.7z"/>
	<path id="XMLID_72_" class="st0" d="M899.3,221.3c-1.9-5.6-3.1-9.1-3.1-26.9V160c0-20.3-6.9-27.8-22.5-27.8h-11.9v89.1h-34.4V2.5
		h51.9c35.6,0,51,16.6,51,50.3V70c0,22.5-7.2,37.2-22.5,44.4c17.2,7.2,22.8,23.8,22.8,46.6v33.8c0,10.6,0.3,18.4,3.7,26.6H899.3z
		 M861.8,33.8V101h13.4c12.8,0,20.6-5.6,20.6-23.1V56.3c0-15.6-5.3-22.5-17.5-22.5H861.8z"/>
	<path id="XMLID_69_" class="st0" d="M953,2.5h34.4v187.6h56.6v31.3h-91V2.5z"/>
	<path id="XMLID_66_" class="st0" d="M1056.2,55c0-35,18.4-55,52.2-55c33.8,0,52.2,20,52.2,55v113.8c0,35-18.4,55-52.2,55
		c-33.8,0-52.2-20-52.2-55V55z M1090.6,171c0,15.6,6.9,21.6,17.8,21.6c10.9,0,17.8-5.9,17.8-21.6V52.8c0-15.6-6.9-21.6-17.8-21.6
		c-10.9,0-17.8,5.9-17.8,21.6V171z"/>
	<path id="XMLID_64_" class="st0" d="M1229,0c33.5,0,50.6,20,50.6,55v6.9h-32.5v-9.1c0-15.6-6.3-21.6-17.2-21.6
		c-10.9,0-17.2,5.9-17.2,21.6c0,45,67.2,53.5,67.2,116c0,35-17.5,55-51.3,55c-33.8,0-51.3-20-51.3-55v-13.4h32.5V171
		c0,15.6,6.9,21.3,17.8,21.3c10.9,0,17.8-5.6,17.8-21.3c0-45-67.2-53.5-67.2-116C1178.4,20,1195.6,0,1229,0z"/>
</g>
</svg>
