<?xml version="1.0" encoding="utf-8"?>
<!-- Generator: Adobe Illustrator 21.1.0, SVG Export Plug-In . SVG Version: 6.00 Build 0)  -->
<svg version="1.1" id="Capa_1" xmlns="http://www.w3.org/2000/svg" xmlns:xlink="http://www.w3.org/1999/xlink" x="0px" y="0px"
	 viewBox="0 0 556.6 720" style="enable-background:new 0 0 556.6 720;" xml:space="preserve">
<style type="text/css">
	.st0{fill:#4D4D4D;}
	.st1{fill:#FFFFFF;}
	.st2{fill:#797979;}
	.st3{fill:url(#SVGID_1_);}
	.st4{fill-rule:evenodd;clip-rule:evenodd;fill:#4D4D4D;}
</style>
<g>
	<g>
		<path class="st0" d="M161.1,613.4h-25.9v-9h7v-33.3l-18.7,42.4H115l-17.7-42.1v33.1h7.4v9H79.4v-9h7v-39.1h-7v-9h23.3l16.7,40.5
			l17.7-40.5h24v9h-6.8v39.1h6.8V613.4z"/>
		<path class="st0" d="M192.6,613.4h-26v-9h7v-39.1h-7v-9h26v9h-6.9v39.1h6.9V613.4z"/>
		<path class="st0" d="M265.2,565.3h-7v48.1l-11.1,0l-29.7-37.6v28.6h6.9v9h-26v-9h7v-39.1h-7v-9H216l30.1,38.2v-29.2h-6.8v-9h25.9
			V565.3z"/>
		<path class="st0" d="M319.2,556.3v17.2h-12.1v-7.6h-15.8v14.2h18.3v8.7h-18.3v15h15.8v-7.7h12.1v17.2h-47v-9h7v-39.1h-7v-9H319.2z
			"/>
		<path class="st0" d="M378.7,613.4l-14.8,0l-20.1-25.7v16.7h5.3v9h-24.2v-9h7v-39.1h-7v-9h29.4c6.4,0,11.8,1.7,16.2,5.2
			c4.4,3.5,6.6,8.2,6.6,14.1c0,3.4-0.9,6.6-2.7,9.6c-2.1,3.4-4.8,5.6-8.1,6.5c-0.8,0.2-1.4,0.4-1.8,0.5c-1.2,0.4-2.2,0.6-2.9,0.7
			l9.9,11.4l7.2,0V613.4z M365,575.2c0-2.9-1.2-5.2-3.6-6.8c-2.4-1.6-5.3-2.4-8.7-2.4h-9v20.8h7.5c3.9,0,7.1-0.8,9.5-2.5
			C363.6,582.2,365,579.2,365,575.2z"/>
		<path class="st0" d="M452,584.6c0,8.3-3.3,15.4-9.8,21.2c-6.5,5.9-14.4,8.8-23.6,8.8c-9.1,0-17-2.9-23.5-8.6
			c-6.5-5.7-9.8-12.7-9.8-21.1c0-8.3,3.3-15.4,9.9-21.3c6.6-5.9,14.4-8.8,23.5-8.8c9.1,0,17,2.9,23.5,8.7
			C448.7,569.3,452,576.3,452,584.6z M439.7,584.6c0-5.2-2-9.6-6.1-13.3c-4-3.7-9-5.5-14.9-5.5c-5.7,0-10.7,1.9-14.8,5.6
			c-4.1,3.7-6.2,8.2-6.2,13.4c0,5.3,2,9.8,6.1,13.5c4.1,3.7,9,5.6,14.8,5.6c5.8,0,10.8-1.9,14.9-5.6
			C437.6,594.5,439.7,589.9,439.7,584.6z"/>
		<path class="st0" d="M487.5,559.8v-3.5h9.1V572h-10.8c0-2.3-1-4.1-2.9-5.4c-1.9-1.4-4.2-2-6.7-2c-1.7,0-3.4,0.7-5,2.1
			c-1.6,1.4-2.4,2.9-2.4,4.6c0,3.4,2.6,6,7.9,7.8c4.9,1.7,9.8,3.4,14.7,5c5.3,2.6,7.9,6.5,7.9,11.7c0,6-1.9,10.6-5.7,13.9
			c-3.8,3.3-8.8,4.9-15,4.9c-2.9,0-5.3-0.4-7.1-1.2c-1.3-0.5-2.9-1.7-4.8-3.3v3.3h-9.5v-16.9h11c1,3.4,1.8,5.5,2.3,6.2
			c1.3,1.9,3.6,2.9,6.6,2.9c3.3,0,5.8-0.7,7.5-2c1.6-1.3,2.5-3.2,2.5-5.5c0-3.2-2.6-5.8-7.8-7.9c-9.6-3.7-14.4-5.6-14.5-5.7
			c-5.3-3-7.9-7.2-7.9-12.5c0-4.6,1.7-8.5,5.3-11.7c3.5-3.2,7.9-4.8,13.3-4.8c2.5,0,4.8,0.3,6.8,0.9
			C484.2,557.1,485.9,558.2,487.5,559.8z"/>
	</g>
	<g>
		<path class="st0" d="M550.7,670.7c-3.6-5-8-8.8-12.5-12.3c-5-3.8-8.6-6.6-10.4-8.7c-0.9-1-1.4-1.9-1.7-2.7
			c-0.3-0.8-0.5-1.8-0.5-3.3c0-2.7,0.9-4.7,1.8-5.8c1-1.1,1.9-1.5,3.4-1.6c1.4,0,2.1,0.4,2.8,1l0.3,0.2c0,0,0.1,0.1,0.1,0.1
			c0.7,0.7,2.2,3.1,2.8,5.2c0.6,2.3,1.9,4.4,3.5,5.8c1.7,1.4,3.6,2.6,6.6,2.6c1.1,0,2.6-0.3,3.8-0.9c1.1-0.6,2-1.4,2.6-2.2
			c1.1-1.4,1.4-2.5,1.6-3.4c0.3-1.2,0.3-2,0.4-2.7c0-0.7,0-1.3,0-2c0-0.5,0-0.6,0-0.8c-0.1-1-0.3-2.8-0.5-5c-0.2-2-0.5-4.2-0.6-5.2
			c0-0.4-0.1-0.6-0.1-0.8c-0.2-0.9-0.3-1.2-0.5-1.7c-0.3-0.7-0.5-1.4-1.1-2.4c-0.3-0.5-0.6-1-1.2-1.7c-0.6-0.7-1.4-1.6-3.4-2.4
			c-0.4-0.2-0.9-0.3-1.3-0.4c0,0-0.8-0.2-1.7-0.4c-2.8-0.7-7.7-2-13.1-2c-9.6-0.1-17.3,3.6-22.1,8.7c-5.3,5.5-8.3,13-8.3,21.1
			c0,7.1,2.3,13.5,5.9,18.6c3.6,5.2,8.3,9.3,13.4,13.1c5.5,4,8.2,7.1,9.5,9.1c1.2,2.1,1.3,3,1.4,4.6c0,3-0.9,5-1.9,6.2
			c-1.1,1.1-2.2,1.7-3.9,1.7c-0.3,0.1-2.2-0.3-3.8-1.4c-1.6-1-2.9-2.4-3.7-4.1c-0.9-2.2-1.7-4.2-2.7-6c-0.5-0.9-1-1.8-1.8-2.8
			c-0.4-0.5-0.9-1.1-1.8-1.8c-0.9-0.6-2.4-1.6-4.9-1.7c-1.4,0-2.4,0.4-3.2,0.7c-0.3,0.2-0.6,0.3-0.9,0.4c-1-2.8-2.2-6.1-3.4-9.6
			c-3.1-8.7-6.6-19-9.5-27.7l0-0.1c-2.1-6.2-4.1-11.7-4.8-14.4l-0.1-0.4c-0.6-1.6-0.9-2.7-1.8-4.1c-0.5-0.7-1.1-1.7-2.4-2.6
			c-1.3-1-3.4-1.6-4.9-1.6c-1.2,0-2.6,0.3-3.6,0.8c-1.5,0.7-2.3,1.5-2.9,2.1c-0.6,0.6-0.9,1-1.3,1.4c-0.2,0.2-0.5,0.7-0.7,0.9
			c-0.6,1-1.1,2-1.7,3.1c-0.6,1-1.2,2.1-1.3,2.3l-0.2,0.4c-0.5,0.8-1,2-1.2,3.1c-0.1,0.5-0.1,0.9-0.1,1.2l-0.2,0.4
			c-2.5,6.6-6.9,18.9-11.1,30.3c-2,5.5-3.9,10.8-5.5,15.2c-0.6-0.6-1.3-1.1-2.2-1.5c-1.1-0.5-2.4-0.8-3.6-0.8c-1.9-0.1-4,0.8-5,1.7
			c-1.6,1.3-2,2-2.5,2.8c-0.5,0.7-0.9,1.5-1.5,2.5l-0.1,0.2c-1.2,2.3-2.3,4-3.4,5.3c-1.1,1.3-2.3,2.3-4,3.2l-0.3,0.2
			c-1.2,0.8-2.9,1.4-4.5,1.7c-1.6,0.3-3,0.4-3.7,0.4c-3,0-7.4-1-11.3-3.3c-4-2.4-7.6-5.9-10.1-11.3l0-0.1c-1.9-4.1-3.2-9.4-3.2-16.5
			c0-7.4,2.4-14.3,6.3-18.9c3.9-4.7,8.9-7.4,15.6-7.4c2.5,0,4.5,0.3,6.6,0.9c2,0.6,4,1.6,6.3,3.4c0.2,0.2,0.6,0.8,0.9,1.6
			c0.5,1,0.9,2.2,1.2,3.4l0.1,0.5c0.4,1.2,0.8,2.4,1.5,3.7c0.4,0.7,0.8,1.4,1.7,2.3c0.5,0.5,1.1,1,2,1.5c0.9,0.5,2.3,1,3.9,1
			c2.2,0,4.1-0.9,5.4-1.9c1.9-1.5,2.7-3.2,3.3-4.7c0.5-1.5,0.7-3.1,0.7-4.6c0-0.2,0-0.5,0-0.7l0-0.3c-0.1-1.4-0.3-3.4-0.5-5.3
			c-0.2-1.9-0.3-3.8-0.3-4.5c0-2.4-0.5-4.8-1.8-6.9c-0.7-1.1-1.6-2.1-2.8-2.9c-1-0.6-2.2-1.2-3.7-1.4l0,0c-0.5-0.1-1.8-0.5-3.2-1
			c-1.4-0.4-3-0.9-4.8-1.2c-4.7-1.2-9.9-2.1-14.8-2.1c-11.6-0.1-24.3,3.2-35.4,12.9l-0.1,0.1c-1.3,1.2-2.7,2.7-4.1,4.4
			c-0.1-1.8-0.1-3.9-0.1-6.6c0-0.5-0.1-1-0.1-1.4c-0.4-1.7-0.9-2.6-1.6-3.8c-0.4-0.6-0.8-1.1-1.7-1.9c-0.4-0.4-1-0.8-1.8-1.2
			c-0.8-0.4-1.9-0.8-3.5-0.8c-0.5,0-0.9,0-1.3,0.1c-0.5,0-1.9,0.1-3.4,0.2c-1.8,0.1-3.9,0.1-5.7,0.1h-16.5c-4.5,0-7.9-0.2-11.2-0.3
			c-0.4-0.4-0.8-0.8-1.3-1.2c-1.2-0.9-2.9-1.5-4.7-1.5c-1.7,0-3.4,0.6-4.1,1c-0.8,0.4-1.1,0.7-1.5,0.8l-0.7,0.4
			c-0.1,0.1,0,0-0.4,0.2c-0.4,0.1-1.3,0.3-2.8,0.4c-4.5,0.1-19.7,0.2-25.4,0.2c-7.1,0-12.9-0.1-17.2-0.2c-3.4-0.1-5.9-0.2-7.3-0.4
			l-0.3-0.3c-0.1-0.2-0.3-0.5-1-1.3c-0.5-0.5-1.2-1.2-2.3-1.8c-1.1-0.6-2.6-0.9-3.8-0.9c-2.2,0-3.5,0.7-4.5,1.3
			c-1.5,0.9-2.3,1.8-3.2,3c-0.8,1.2-1.6,2.7-1.7,5.3c0,1.3-0.1,2.7-0.3,4c-0.3-0.9-0.5-1.6-0.7-2.2l-0.1-0.4
			c-0.6-1.6-0.9-2.7-1.8-4.1c-0.5-0.7-1.1-1.7-2.4-2.6c-1.2-1-3.4-1.6-4.9-1.6c-1.2,0-2.6,0.3-3.6,0.8c-1.5,0.7-2.4,1.5-2.9,2.1
			c-0.6,0.6-0.9,1-1.3,1.4c-0.2,0.2-0.5,0.7-0.7,0.9c-0.6,1-1.1,2-1.7,3.1c-0.6,1-1.2,2.1-1.3,2.3l-0.2,0.3c-0.5,0.8-1,2-1.2,3.1
			c-0.1,0.5-0.1,0.9-0.1,1.2l-0.2,0.4c-2.5,6.6-6.9,18.9-11.1,30.3c-2,5.5-3.9,10.8-5.5,15.2c-0.6-0.6-1.3-1.1-2.2-1.5
			c-1.1-0.5-2.4-0.8-3.6-0.8c-1.9-0.1-4,0.8-5,1.7c-1.6,1.2-2,2-2.5,2.8c-0.5,0.7-0.9,1.5-1.5,2.5l-0.1,0.2c-1.2,2.3-2.3,4-3.4,5.3
			c-1.1,1.3-2.3,2.3-4,3.2l-0.3,0.2c-1.2,0.8-2.9,1.4-4.5,1.7c-1.6,0.3-3,0.4-3.7,0.4c-3,0-7.4-1-11.3-3.3c-4-2.4-7.6-5.9-10.1-11.3
			l0-0.1c-1.9-4.1-3.2-9.4-3.2-16.5c0-7.4,2.4-14.3,6.3-18.9c3.9-4.7,8.9-7.4,15.6-7.4c2.5,0,4.5,0.3,6.6,0.9c2,0.6,4,1.6,6.3,3.4
			c0.2,0.2,0.6,0.8,0.9,1.6c0.5,1,0.9,2.2,1.2,3.4l0.1,0.5c0.4,1.2,0.8,2.4,1.5,3.7c0.4,0.7,0.8,1.4,1.7,2.3c0.5,0.5,1.1,1,2,1.5
			c0.9,0.5,2.3,1,3.9,1c2.2,0,4.1-0.9,5.4-1.9c1.9-1.5,2.7-3.2,3.3-4.7c0.5-1.5,0.7-3.1,0.7-4.6c0-0.2,0-0.5,0-0.7l0-0.3
			c-0.1-1.4-0.3-3.4-0.5-5.3c-0.2-1.9-0.3-3.8-0.3-4.5c0-2.4-0.5-4.8-1.8-6.9c-0.7-1.1-1.6-2.1-2.8-2.9c-1-0.6-2.2-1.2-3.7-1.4l0,0
			c-0.5-0.1-1.8-0.5-3.2-1c-1.4-0.4-3-0.9-4.8-1.2c-4.7-1.2-10-2.1-14.8-2.1c-11.6-0.1-24.3,3.2-35.4,12.9l-0.1,0.1
			c-3.2,2.9-6.7,7.3-9.7,13.1c-2.8,5.6-5,12.6-5.2,20.5c-2.7-7.7-5.6-16.1-8-23.4l0-0.1c-2.1-6.2-4-11.7-4.8-14.4l-0.1-0.4
			c-0.6-1.6-0.9-2.7-1.8-4.1c-0.5-0.7-1.1-1.7-2.4-2.6c-1.3-1-3.4-1.6-4.9-1.6c-1.2,0-2.6,0.3-3.6,0.8c-1.5,0.7-2.3,1.5-2.9,2.1
			c-0.6,0.6-0.9,1-1.3,1.4c-0.2,0.2-0.5,0.7-0.7,0.9c-0.6,1-1.1,2-1.7,3.1c-0.6,1-1.2,2.1-1.3,2.3l-0.2,0.3c-0.5,0.8-1,2-1.2,3.1
			c-0.1,0.5-0.1,0.9-0.1,1.2l-0.2,0.4c-2.5,6.6-6.9,18.9-11.1,30.3c-1.6,4.5-3.2,8.8-4.6,12.6c-0.6-0.1-1.2-0.2-1.8-0.2
			c-1.9,0-4,0.8-5.1,1.7c-1.8,1.4-2.4,2.4-2.9,3.2c-0.5,0.8-0.9,1.4-1.3,2l-0.1,0.1c-3.3,5.3-5.3,7.7-5.9,8.2
			c-0.3,0.2-0.2,0.2-0.4,0.3c-0.2,0.1-0.9,0.2-2.1,0.4l-0.3,0l0,0l0,0c-0.2,0-0.9,0.1-1.8,0.1c-3.1,0.1-8.2,0.1-11.1,0.1
			c-1.8,0-3.8-0.1-5.7-0.1c2.2-3.9,4.9-8.8,7.8-14.1c6-10.8,13.2-23.5,18.8-33.2c2.4-4,4.5-7.5,6.2-10.1c0.8-1.3,1.5-2.5,2.1-3.3
			c0.3-0.4,0.5-0.7,0.7-1c0.1-0.1,0.1-0.2,0.2-0.2c0,0,0,0,0,0l0,0l0.4-0.5c1-1.3,1.6-2.6,2.1-3.9c0.5-1.3,0.7-2.5,0.7-3.8
			c0-1.2-0.3-2.5-0.9-3.8c-0.9-1.9-2.6-3.2-4.1-3.9c-1.5-0.6-2.8-0.8-3.8-0.8c-0.7,0-1.4,0.1-2,0.2c-0.3,0-1.7,0.1-3.3,0.2
			c-5.2,0.2-14.1,0.4-20.1,0.4c-6.7,0-14.2-0.2-17.2-0.4c-0.4,0-0.8-0.1-1-0.1c-0.7-0.7-1.4-1.2-2.1-1.6c-0.5-0.3-1-0.6-1.6-0.8
			c-0.3-0.1-0.7-0.2-1.1-0.4c-0.5-0.1-1-0.3-2-0.3c-2.8,0-5.1,1.3-6.6,2.9c-1.4,1.5-2.2,3.3-2.4,5.1c-0.5,2.2-1.4,5.4-2.3,8.2
			c-0.5,1.4-0.9,2.7-1.2,3.8c-0.2,0.5-0.3,1-0.5,1.4c-0.1,0.4-0.2,0.7-0.3,1.1h0c-0.4,1.5-0.7,2.9-0.7,4.4c0,1.7,0.3,3.6,1.5,5.7
			c1.2,2,3.8,4,7.2,4c1.9,0,3.2-0.6,4.2-1.1c1.5-0.9,2.5-1.9,3.3-2.9c0.8-1,1.4-2.1,1.9-3.3c1.3-2.7,2.4-4,3.1-4.6
			c0.7-0.6,1.1-0.8,1.9-1c0.4-0.1,1.7-0.2,2.9-0.3c1.4-0.1,2.8-0.1,3.4-0.1c2,0,5.5,0,9.1,0.1c-4.2,7.6-10.6,18.8-16.6,29.2
			c-3.7,6.5-7.3,12.7-10.2,17.5c-1.4,2.4-2.7,4.6-3.7,6.2c-1,1.6-1.8,2.9-2.1,3.3L6,696.3c-1.1,1.8-2.3,3.5-3.3,5.1
			c-0.5,0.8-1,1.5-1.4,2.4c-0.2,0.4-0.5,0.9-0.7,1.6C0.3,706,0,706.9,0,708.4c0,1.7,0.5,3.2,1.1,4.4c1,1.8,2.2,2.9,3.5,3.7
			c1.3,0.8,2.8,1.4,5,1.4c1.3,0,5.7,0,10.6,0c2.4,0,10.2,0.1,18.4,0.3c8.2,0.1,16.9,0.3,21.5,0.3c1.2,0,2.3-0.1,3.3-0.2
			c0.7,0.1,1.3,0.1,2,0.1c0.8,0,1.5-0.1,2.5-0.1c2.6-0.2,6.6-0.5,9.2-0.5c3.8,0,6.1,0.3,8.9,0.4c1.4,0,2.9-0.1,5-0.9
			c1-0.4,2.3-1.1,3.6-2.5c1.3-1.4,2.3-3.8,2.2-5.9c0-2-0.7-3.8-1.6-5c-1.3-1.8-2.6-2.6-3.7-3.2c-1-0.5-1.9-0.9-2.9-1.2
			c0,0,0-0.1,0-0.1c0.7-3.1,2.1-7.9,3.6-12.3c1.2,0,2.5-0.1,3.9-0.1c2.5,0,5.3-0.1,7.7-0.1c0.8,2.5,1.7,4.9,2.4,7.1
			c0.7,2.2,1.3,4.3,1.8,6c-1.2,0.4-2.4,1.1-3.5,2c-1.7,1.5-3.2,3.7-3.3,6.9c0,1.6,0.5,3.3,1.4,4.7c1.4,2.1,3.3,3.2,5,3.7
			c1.7,0.6,3.2,0.7,4.8,0.7c1.6,0,2.9-0.1,4.1-0.1c1.2-0.1,2.3-0.1,3.9-0.1c4.4,0,9.7,0.6,14.1,0.6c2.1,0,3.9-0.1,6.4-1.3
			c1.2-0.6,2.6-1.7,3.5-3.2c0.4-0.6,0.7-1.3,0.9-1.9c1.2,0.8,2.5,1.5,3.9,2.3c6.4,3.3,14.4,5.8,23.7,5.8c5.4,0,10.5-0.7,14.6-1.5
			c2-0.4,3.8-0.8,5.3-1.3c0.2-0.1,0.4-0.1,0.6-0.2c1.2,0.7,2.2,1,3.1,1.1c1.1,0.2,2,0.3,2.9,0.3c0.8,0,1.5-0.1,2.5-0.1
			c2.6-0.2,6.6-0.5,9.2-0.5c3.8,0,6.1,0.3,8.9,0.4c1.4,0,2.9-0.1,5-0.9c1-0.4,2.3-1.1,3.6-2.5c1.3-1.4,2.3-3.8,2.2-5.9
			c0-2-0.7-3.8-1.6-5c-1.3-1.8-2.6-2.6-3.7-3.2c-1-0.5-1.9-0.9-2.9-1.2c0,0,0-0.1,0-0.1c0.7-3.1,2.1-7.9,3.6-12.3
			c1.2,0,2.5-0.1,3.9-0.1c2.5,0,5.3-0.1,7.7-0.1c0.8,2.5,1.7,4.9,2.4,7.1c0.7,2.2,1.3,4.3,1.8,6c-1.2,0.4-2.4,1.1-3.5,2
			c-1.7,1.5-3.2,3.7-3.3,6.9c0,1.6,0.5,3.3,1.4,4.7c1.4,2.1,3.3,3.2,5,3.7c1.7,0.5,3.2,0.7,4.8,0.7c1.6,0,2.9-0.1,4.1-0.1
			c1.2-0.1,2.3-0.1,3.9-0.1c4.4,0,9.7,0.6,14.1,0.6c0.7,0,1.3,0,2-0.1c1.1,0.2,2.2,0.3,3.3,0.3c1,0,1.6-0.1,2.6-0.2
			c2.6-0.2,6.6-0.7,10.2-0.7c2.2,0,5,0.1,7.4,0.3c1.2,0.1,2.3,0.1,3.2,0.2c0.4,0,0.8,0.1,1.1,0.1c0.4,0,0.6,0,1,0
			c0.9,0,2.2,0,4.2-0.6c1-0.3,2.4-0.8,3.9-2.2c0.7-0.7,1.5-1.7,2-2.8c0-0.1,0.1-0.2,0.1-0.3c0.3,0.7,0.6,1.3,1,1.9
			c0.9,1.3,2.1,2.2,3.1,2.7c1.6,0.8,2.8,1,3.7,1.1c1,0.1,1.8,0.1,2.5,0.1c2.5,0,4.5-0.2,6.3-0.3c1.8-0.1,3.6-0.3,6.4-0.3
			c9,0,17.7,0.2,24.3,0.5c3.3,0.1,6.1,0.2,8.1,0.3c1,0,1.9,0.1,2.5,0.1c0.7,0,1,0,1.5,0c2.3-0.1,3.4-0.7,4.2-1.1
			c1.2-0.7,1.8-1.2,2.4-1.7c0.6-0.5,1-1,1.6-1.8h0c0,0,0,0,0,0c0,0,0,0,0-0.1h0c0.5-0.7,0.6-1.1,0.8-1.4c0.6-1.2,0.9-2.2,1.4-3.6
			c0.1-0.4,0.3-0.9,0.4-1.4c2.6,2.3,5.8,4.5,9.6,6.5c6.4,3.3,14.4,5.8,23.7,5.8c5.4,0,10.5-0.7,14.6-1.5c2-0.4,3.8-0.8,5.3-1.3
			c0.2-0.1,0.4-0.1,0.6-0.2c1.2,0.7,2.2,1,3.1,1.1c1.1,0.2,2,0.3,2.9,0.3c0.8,0,1.5-0.1,2.5-0.1c2.6-0.2,6.6-0.5,9.2-0.5
			c3.8,0,6.1,0.3,8.9,0.4c1.4,0,2.9-0.1,5-0.9c1-0.4,2.3-1.1,3.6-2.5c1.3-1.4,2.3-3.8,2.2-5.9c0-2-0.7-3.8-1.6-5
			c-1.3-1.8-2.6-2.6-3.7-3.2c-1-0.5-1.9-0.9-2.9-1.2c0,0,0-0.1,0-0.1c0.7-3.1,2.1-7.9,3.6-12.3c1.2,0,2.5-0.1,3.9-0.1
			c2.5,0,5.3-0.1,7.7-0.1c0.8,2.5,1.7,4.9,2.4,7.1c0.7,2.2,1.3,4.3,1.8,6c-1.2,0.4-2.4,1.1-3.5,2c-1.7,1.5-3.2,3.7-3.3,6.9
			c0,1.6,0.5,3.3,1.4,4.7c1.4,2.1,3.3,3.2,5,3.7c1.7,0.6,3.2,0.7,4.8,0.7c1.6,0,2.9-0.1,4.1-0.1c1.2-0.1,2.3-0.1,3.9-0.1
			c4.4,0,9.7,0.6,14.1,0.6c1.2,0,2.3-0.1,3.6-0.3c1.9,0.5,3.8,0.9,5.6,1.3c2.4,0.4,4.5,0.7,6.6,0.7c3.5,0,7-0.6,10.4-1.6
			c3.4-1,6.6-2.4,9.5-4.6c8.1-6.2,12.2-15.4,12.2-24.3C556.6,682.2,554.2,675.7,550.7,670.7z M357.7,651c0.3,0.6,0.7,1.3,1.4,2
			c-0.6,0.2-1.3,0.5-1.8,0.8c-1.8,1-2.7,2.3-3.4,3.3c-0.7,1.1-1.1,2-1.5,3.1l0,0.1c-0.1,0.3-0.2,0.6-0.3,0.8c-1.1,0.1-3,0.1-5.5,0.1
			h-0.4c0-3.2,0.1-7.3,0.1-10.9c0-2.1,0.1-4.1,0.1-5.7c1.7,0,3.3,0.1,4.8,0.1c1.9,0.1,3.5,0.2,4,0.3c0.2,0,0.4,0.1,0.6,0.1
			c0.2,0.4,0.4,1,0.7,2.2C356.6,648.3,356.9,649.5,357.7,651z M364.5,693.7L364.5,693.7c-1,2.1-1.9,3.2-2.5,3.7
			c-0.6,0.5-1,0.7-1.8,1l-0.2,0c-0.4,0.1-2.6,0.3-4.4,0.4c-1.9,0.1-3.6,0.1-4.1,0.1c-2,0-3.9-0.1-5.4-0.3c0-0.3-0.1-0.6-0.1-0.9
			c-0.2-1.5-0.2-3.2-0.2-4.6c0-1.8,0-4.1,0-6.6c0-1.9,0-3.8,0-5.5c1.5,0,2.9,0.1,4.2,0.2l0.1,0c0.7,0,1.2,0.1,1.7,0.1
			c0.1,0.2,0.1,0.4,0.2,0.6c0.4,1.4,0.9,2.6,1.8,4c0.5,0.7,1.1,1.5,2.2,2.4c1.1,0.8,2.8,1.8,5.2,1.8c2.2,0,4.3-1,5.6-2.1
			c0,0,0.1-0.1,0.1-0.1c0.1,0.4,0.3,0.7,0.4,1.1c-0.5,0.5-0.8,1-1.1,1.5C365.5,691.5,365,692.5,364.5,693.7z M255.6,656
			c2-0.6,3.6-2,4.4-3.2c0.8-1.1,1.4-2.2,1.8-3.3c0.8-1.7,1.5-2.9,1.9-3.6c0.1-0.2,0.2-0.4,0.3-0.5c0.1-0.1,0.1-0.1,0.2-0.2
			c0.1,0,0.2-0.1,0.4-0.1c0.5-0.1,1.2-0.1,2.1-0.1c0.7,0,3.6,0.1,6.5,0.2c0.2,0,0.4,0,0.6,0c0,2.3,0,4.7,0,8.6
			c0,9-0.6,33.6-0.8,40.5c-0.1,2.2-0.2,3.8-0.3,4.8c0,0.1,0,0.2,0,0.3c-0.3,0.1-0.7,0.3-1.3,0.4l-0.3-0.1c-1.2-0.3-1.8-0.5-2-0.6
			c-0.1,0-0.1,0-0.1,0c0,0-0.1-0.1-0.2-0.2c-0.4-0.5-1.5-2.5-3-6.5l0-0.1c-0.9-2.2-3.5-9.5-6.5-18.1c-1.9-5.5-4.1-11.7-6.1-17.7
			C253.8,656.4,254.7,656.3,255.6,656z M310.9,703.6c-0.5,0.6-1.1,1.4-1.5,2.4c-0.4-0.9-0.9-1.6-1.3-2.2c-1.3-1.6-2.4-2.2-3.5-2.9
			c-1.1-0.6-2.2-1-3.4-1.3c-0.9-0.2-1.6-0.4-2.1-0.6c0-0.3-0.1-0.8-0.1-1.3c-0.2-1.6-0.3-5.6-0.4-10.6c-0.1-5.1-0.1-11.4-0.1-18.3
			c0-7.7,0-16.9,0-23.5c1.2,0,2.5,0,3.7,0c1.2,0,2.3,0,3.2,0c0.9,0,1.6,0,1.6,0l0.1,0c0.7,0,1.3,0.1,1.8,0.1c0,0.1,0,0.1,0,0.2
			c0.2,1.9,0.4,3.2,1.2,5.3c0.4,1,1.2,2.3,2.7,3.6c1.5,1.3,3.8,1.9,5.3,1.9c1.1,0,2-0.2,2.9-0.5c0,2.3,0,5,0,8.5
			c0,14.7-0.6,28.8-0.9,33.5c0,0.5-0.1,0.9-0.1,1.2l0,0c-0.5,0.2-1.3,0.4-2.3,0.6l-0.1,0c-1.2,0.3-2.4,0.7-4,1.5
			C312.8,701.8,311.9,702.4,310.9,703.6z"/>
		<g>
			<path class="st1" d="M63.9,626.8c1.3-0.3,1.9,0.1,1.9,0.6c0,0.5-0.2,1.7-1.3,3.2c-1.5,1.7-5,7.9-9.9,15.7
				C43.1,666,26,697.2,23.1,702.4c-0.3,0.5-0.1,1.3,0.4,1.7c1.1,0.8,10.1,1.4,16.7,1.4c3.9,0,12.2,0,14.2-0.4
				c5.4-0.8,7.1-1.4,13.9-12.4c1.3-2.1,1.9-3.4,2.9-3.4c0.7,0,1,1.2,1,2.8c0,2.1-2.4,8.1-5.6,16.4c-0.6,1.2-1.7,2.2-6.5,2.2
				c-8.9,0-34.7-0.5-39.9-0.5c-4.9,0-9.3,0-10.6,0c-0.8,0-1.9-0.8-1.9-1.8c0-1,2.4-4.1,4.8-8.1c4.1-6.2,35.1-60.2,37.8-65.9
				c0.6-0.9,0-1.7-0.4-1.8c-4.4-0.5-15.8-0.6-20.3-0.6c-1.9,0-6.6,0.3-8.2,0.6c-3.4,0.9-6.8,3-10.1,9.8c-0.9,2.1-1.9,2.8-2.5,2.8
				c-0.7,0-1.6-1.2-0.7-4.4c0.3-1.3,3.4-9.7,4.5-15.2c0.1-1,0.8-1.7,1.5-1.7c0.3,0,1.3,0.5,1.8,1.2c1.2,1.4,2.6,1.7,5.6,1.9
				c3,0.1,10.6,0.4,17.7,0.4C47.6,627.5,61.4,627.2,63.9,626.8z"/>
			<path class="st1" d="M103.8,634c0.9,3.2,2.8,8.6,4.9,14.9c5.8,17.5,14.2,41.3,16.1,46.2c3.7,9.8,5.5,10.8,10.5,12.1
				c1.8,0.6,2.7,1.2,2.7,2c0,0.8-0.8,1.6-3.6,1.6c-3.7,0-9.2-0.6-14.1-0.6c-3.6,0-5.2,0.2-8,0.2c-2.8,0-3.5-0.8-3.5-1.4
				c0-0.6,0.7-1.6,2.7-1.9c5.4-1.2,4.9-3.6,4.5-6.1c-0.9-4.9-3.7-12.8-6.3-20.5c-0.1-0.5-0.6-1.2-3.8-1.2c-6.2,0-16,0.1-18.4,0.5
				c-0.4,0-1,0.6-1.2,1c-2.9,7.8-5.8,18-5.8,21c0,1.4,0.4,3.5,5.5,5.2c1.9,0.6,3,1.3,3,2.2c0,1.2-1.7,1.6-3.1,1.6
				c-1.9,0-4.7-0.4-8.9-0.4c-4.1,0-10,0.6-11.7,0.6c-2,0-2.6-0.5-2.6-1.2c0-0.7,0.8-1.8,2.5-2.4c5.6-2,7.1-2.4,10.3-10.2
				c2.6-6.1,15.4-42.3,20.3-55.3c0.4-1,0.7-1.9,0.7-2.5c0-0.4,0-0.6,0.2-1c1-1.4,2.6-4.6,3.4-5.9c0.8-1,1.2-1.4,1.8-1.4
				C102.4,630.8,102.9,631.3,103.8,634z M107.3,672.8c-1.9-6.1-7.7-24.1-8.7-25.8c-0.3-0.7-0.6-0.8-0.9,0c-2,5.8-7.8,22.5-8.7,26.3
				c-0.1,0.5,0.1,0.8,0.6,0.8c4.5-0.1,13.8,0,17.5-0.4C107.1,673.8,107.5,673.2,107.3,672.8z"/>
			<path class="st1" d="M187.6,632.8c2.9,0.5,6.8,2,8.5,2.3c0.6,0,1.7,0.8,1.7,3.6c0,2.5,0.6,7.8,0.8,10.4c0.1,2.5-0.8,4-1.7,4
				c-0.6,0-1.2-1.3-1.8-3.1c-1-4.2-3.1-7.8-4.6-9c-6.2-4.9-11.9-6.2-17.9-6.2c-18,0-29.6,16-29.6,34.1c0,8,1.5,14.5,3.9,19.8
				c6.3,13.8,19.3,19.2,28.4,19.2c2.1,0,7.6-0.4,12.2-3.2c4.9-2.8,7.7-6.6,10.4-11.6c1.5-2.5,1.9-3.1,2.4-3.1c1.1,0,1.2,2.6,1,4
				c-0.3,3-2.9,9.4-4.5,12.1c-0.4,1.1-2.4,2.5-3.5,3.1c-1.8,0.8-10.9,3.4-20.4,3.4c-15.8,0-27.4-8.4-31.8-14
				c-4.3-5.3-9.4-13.9-9.4-27.6c0-13.7,7.6-24.6,12.3-28.8c9.6-8.4,20.1-11,30.4-11C178.3,630.8,183.3,631.7,187.6,632.8z"/>
			<path class="st1" d="M237.7,634c0.9,3.2,2.8,8.6,4.9,14.9c5.8,17.5,14.2,41.3,16.1,46.2c3.7,9.8,5.5,10.8,10.5,12.1
				c1.8,0.6,2.7,1.2,2.7,2c0,0.8-0.8,1.6-3.6,1.6c-3.7,0-9.2-0.6-14.1-0.6c-3.6,0-5.2,0.2-8,0.2c-2.8,0-3.5-0.8-3.5-1.4
				c0-0.6,0.7-1.6,2.7-1.9c5.4-1.2,4.9-3.6,4.5-6.1c-0.9-4.9-3.7-12.8-6.3-20.5c-0.1-0.5-0.6-1.2-3.8-1.2c-6.2,0-16,0.1-18.4,0.5
				c-0.4,0-1,0.6-1.2,1c-2.9,7.8-5.8,18-5.8,21c0,1.4,0.4,3.5,5.5,5.2c1.9,0.6,3,1.3,3,2.2c0,1.2-1.7,1.6-3.1,1.6
				c-1.9,0-4.7-0.4-8.9-0.4c-4.1,0-10,0.6-11.7,0.6c-2,0-2.6-0.5-2.6-1.2c0-0.7,0.8-1.8,2.5-2.4c5.6-2,7.1-2.4,10.3-10.2
				c2.6-6.1,15.4-42.3,20.3-55.3c0.4-1,0.7-1.9,0.7-2.5c0-0.4,0-0.6,0.2-1c1-1.4,2.6-4.6,3.4-5.9c0.8-1,1.2-1.4,1.8-1.4
				C236.4,630.8,236.8,631.3,237.7,634z M241.3,672.8c-1.9-6.1-7.7-24.1-8.7-25.8c-0.3-0.7-0.6-0.8-0.9,0c-2,5.8-7.8,22.5-8.7,26.3
				c-0.1,0.5,0.1,0.8,0.6,0.8c4.5-0.1,13.8,0,17.5-0.4C241.1,673.8,241.4,673.2,241.3,672.8z"/>
			<path class="st1" d="M312.9,632.9c4-0.2,6.1-1,7.6-2.2c0.8-0.5,1.1-0.7,1.6-0.7c0.6,0,1,1.1,0.4,2.8c-1.1,3.7-1.8,7.4-2.5,13.7
				c-0.1,1.1-1,2.3-1.9,2.3c-0.8,0-1.2-0.8-1.6-3.8c-0.7-6.2-2.1-6.8-9.1-7.2c-1.9-0.1-14.3-0.1-15.7,0.2c-0.6,0.1-1,1.3-1,1.6
				c0,5.6,0,19,0,29.4c0,13.9,0,25.3,0.4,29.7c0.6,5.4,1.1,6.8,8.1,8.5c1.5,0.4,3,1.3,3,2.2c0,1.3-2,1.4-3.1,1.4
				c-0.9,0-7.8-0.6-12.8-0.6c-5.6,0-11.3,0.8-12.8,0.8c-2.2,0-3.4-0.7-3.4-1.4c0-0.8,1.1-1.8,2.1-2c7.8-1.9,8.1-4,8.4-13
				c0.2-7.1,0.8-31.5,0.8-40.8c0-6.8,0-9.1,0-14.3c0-1-0.6-1.6-0.9-1.6c-2.2-0.4-12.1-0.6-13.9-0.6c-4.3,0-6.6,0.7-8.3,2.8
				c-0.4,0.4-1.8,2.3-3.7,6.2c-1,2.5-1.7,2.4-2.1,2.4c-0.7,0-1.1-1.6-1.1-2.8c0-2.3,2.1-8.8,2.1-15.8c0-0.8,1-1.9,1.7-1.9
				c0.6,0,0.6,0.8,1.8,1.9c0.3,0.4,2.1,2.2,3.8,2.3c2.9,0.4,11.9,0.7,26.2,0.7C293.1,633.1,308.3,633,312.9,632.9z"/>
			<path class="st1" d="M355.8,633c3.7,0,8.6-0.1,10.3-0.4c0.3-0.1,0.9,0.7,1,1.3c0,5.5,0.2,9,0.2,11.4c0,1.7-0.7,3.1-1.7,3.1
				c-1,0-1.6-1.7-1.8-2.9c-1.5-6.4-3.9-7.6-7.5-8.2c-2.9-0.5-11-0.7-15.9-0.5c-0.2,0-1.5,0.6-1.7,3.4c-0.2,3-0.6,25.5-0.3,27.3
				c0.1,0.5,0.2,1.2,0.8,1.2h7.3c10.5,0,11-0.5,13-6c0.7-1.8,1.3-2.5,2-2.5c0.8,0,1,1.7,0.9,2.6c-0.2,3.4-0.3,5.8-0.3,8.6
				c0,3.2,0.2,4.9,0.3,7.3c0.1,2.2-0.4,3.5-1.2,3.5s-1.6-1.3-1.9-2.6c-1.6-5.5-2-5.9-8.9-6.2c-3.6-0.2-8.1-0.2-11.1-0.2
				c-0.4,0-1,0.8-1,1.1c-0.4,2.5-0.3,13.7-0.3,18.8c0,3.5,0.4,8,1.1,10c0.4,1.4,1.3,2.4,2.1,2.6c1.9,0.4,5.7,0.8,10.2,0.8
				c1.3,0,8.2-0.1,10.6-0.8c3.6-1,6.6-3.2,9.3-8.9c1.2-2.6,1.9-3.4,2.6-3.4c0.8,0,1.1,1.9,0.9,3.2c-0.1,1-3.3,11.8-4,12.8
				c-0.3,0.5-1.3,1.4-1.9,1.4c-1.2,0-18.2-1-36.4-1c-5.9,0-8.4,0.6-12.7,0.6c-2.1,0-3.4-0.2-3.4-1.6c0-0.8,1.3-1.4,3.1-1.9
				c5.6-1.4,7.7-2.3,8.2-8.8c0.3-5,0.9-19.2,0.9-34.1c0-14.3,0.1-16.8-0.1-20.3c-0.2-5.3-1.3-6.7-6.3-7.9c-2.4-0.6-3.3-1.1-3.3-2
				c0-1.1,1.6-1.7,3.1-1.7c5.3,0,9.6,0.5,17.2,0.5H355.8z"/>
			<path class="st1" d="M427.8,632.8c2.9,0.5,6.8,2,8.5,2.3c0.6,0,1.7,0.8,1.7,3.6c0,2.5,0.6,7.8,0.8,10.4c0.1,2.5-0.8,4-1.7,4
				c-0.6,0-1.2-1.3-1.8-3.1c-1-4.2-3.1-7.8-4.6-9c-6.2-4.9-11.9-6.2-17.9-6.2c-18,0-29.6,16-29.6,34.1c0,8,1.5,14.5,3.9,19.8
				c6.3,13.8,19.3,19.2,28.4,19.2c2.1,0,7.6-0.4,12.2-3.2c4.9-2.8,7.7-6.6,10.4-11.6c1.5-2.5,1.9-3.1,2.4-3.1c1.1,0,1.2,2.6,1,4
				c-0.3,3-2.9,9.4-4.5,12.1c-0.4,1.1-2.4,2.5-3.5,3.1c-1.8,0.8-10.9,3.4-20.4,3.4c-15.8,0-27.4-8.4-31.8-14
				c-4.3-5.3-9.4-13.9-9.4-27.6c0-13.7,7.6-24.6,12.3-28.8c9.6-8.4,20.1-11,30.4-11C418.5,630.8,423.5,631.7,427.8,632.8z"/>
			<path class="st1" d="M477.9,634c0.9,3.2,2.8,8.6,4.9,14.9c5.8,17.5,14.2,41.3,16.1,46.2c3.7,9.8,5.5,10.8,10.5,12.1
				c1.8,0.6,2.7,1.2,2.7,2c0,0.8-0.8,1.6-3.6,1.6c-3.7,0-9.2-0.6-14.1-0.6c-3.6,0-5.2,0.2-8,0.2c-2.8,0-3.5-0.8-3.5-1.4
				c0-0.6,0.7-1.6,2.7-1.9c5.4-1.2,4.9-3.6,4.5-6.1c-0.9-4.9-3.7-12.8-6.3-20.5c-0.1-0.5-0.6-1.2-3.8-1.2c-6.2,0-16,0.1-18.4,0.5
				c-0.4,0-1,0.6-1.2,1c-2.9,7.8-5.8,18-5.8,21c0,1.4,0.4,3.5,5.5,5.2c1.9,0.6,3,1.3,3,2.2c0,1.2-1.7,1.6-3.1,1.6
				c-1.9,0-4.7-0.4-8.9-0.4c-4.1,0-10,0.6-11.7,0.6c-2,0-2.6-0.5-2.6-1.2c0-0.7,0.8-1.8,2.5-2.4c5.6-2,7.1-2.4,10.3-10.2
				c2.6-6.1,15.4-42.3,20.3-55.3c0.4-1,0.7-1.9,0.7-2.5c0-0.4,0-0.6,0.2-1c1-1.4,2.6-4.6,3.4-5.9c0.8-1,1.2-1.4,1.8-1.4
				C476.6,630.8,477,631.3,477.9,634z M481.5,672.8c-1.9-6.1-7.7-24.1-8.7-25.8c-0.3-0.7-0.6-0.8-0.9,0c-2,5.8-7.8,22.5-8.7,26.3
				c-0.1,0.5,0.1,0.8,0.6,0.8c4.5-0.1,13.8,0,17.5-0.4C481.3,673.8,481.6,673.2,481.5,672.8z"/>
			<path class="st1" d="M545.2,627.2c0.7,0.3,1.3,2.2,1.3,2.5c0.2,2.4,1.1,9.9,1.1,10.4c0,2.2,0,3.5-0.8,3.5c-0.9,0-2.2-0.9-2.7-2.7
				c-1.3-4.6-4.4-8.5-5.5-9.3c-2-1.8-4.7-3-8-3c-7.5,0-12.9,6.4-12.9,15.1c0,9.2,5.7,13.1,15.6,20.8c8.6,6.7,15.5,13.4,15.5,25
				c0,6.4-3.1,13.7-9.2,18.2c-3.6,2.7-10.2,4.6-15.2,4.6c-3.6,0-11.2-1.4-14.7-3.4c-1.1-0.8-2.6-3.6-2.6-4.1
				c-0.6-4.4-1.7-10.1-1.7-12.1c0-0.5,1.1-2.5,1.6-2.5c0.9,0,2.6,3.4,4.1,7.3c2.9,7.1,10.3,10.3,14.6,10.3c7.7,0,13.6-6.3,13.6-15.6
				c0-5.4-2.2-11.2-14-19.9c-9.5-7.1-16.3-14.6-16.3-25.5c0-6.1,2.4-11.9,6.2-15.7c3.5-3.6,8.7-6.3,16.6-6.3
				C537.3,624.9,543.1,626.8,545.2,627.2z"/>
		</g>
	</g>
	<g>
		<path class="st0" d="M499.4,112.2c-0.8-1-1.8-4.1-1.8-6.4c0-2.3-1.5-3.3-4.9-5.1c-3.3-1.8-3.1,2.1-3.1,0.8c0-1.3-1.5-4.4-2.8-6.7
			c-1.3-2.3-1.8-2.1-3.6-3.1c-1.8-1-2.8,0.8-4.6,1c-1.8,0.3-1.8,1.8-2.3-3.3c-0.5-5.1,0-2.6-4.1-3.6c-4.1-1-4.1-1.3-8.7-3.9
			c-4.6-2.6-2.6-1.3-2.8-5.7c-0.3-4.4,0-7.2-1.5-11.6c-1.5-4.4-2.6-6.9-4.9-9.3c-2.3-2.3-3.6-4.1-6.7-9.5c-3.1-5.4-4.9-9.3-8.2-14.1
			c-3.3-4.9-2.1-2.3-3.1-3.6c-1-1.3-7.2-2.3-7.7-3.3c-0.5-1-3.9-1.5-5.9-1.5c-2.1,0-4.6-0.3-4.6-0.3s-2.8-0.3-5.1-2.1
			c-2.3-1.8-7.2,0.5-7.2,0.5s-0.9,0.5-1.9,1V9.6h3.9V6.5h-3.9V0H401v6.5h-4.6v3.1h4.6v14.3c-0.2,0.1-0.4,0.2-0.5,0.2
			c-0.8,0.3-5.1-0.3-5.1-0.3l-3.1,0.8c0,0,0,0-2.6,1.8c-2.6,1.8-1.3,1-5.1,2.3c-3.9,1.3-3.6-0.5-8,1c-4.4,1.5,0,0-1.5,3.3
			c-1.5,3.3-3.1,1.8-7.2,3.3c-4.1,1.5-7.5,5.4-9.5,9.5c-2.1,4.1-1.3,7.2-2.8,7.2c-1.5,0-2.1,0.3-5.1,0.5c-3.1,0.3-1.3,1.8-3.1,3.9
			c-1.8,2.1-4.1,1.8-6.9,3.3c-2.8,1.5-3.3,3.1-5.4,5.1c-2.1,2.1-4.1,8.5-5.4,9.3c-1.3,0.8-3.9,0.8-4.9-0.5c-1-1.3-1.3,1-3.9,2.3
			c-2.6,1.3-2.6,4.4-4.4,6.9c-1.8,2.6-5.4,3.3-6.9,3.1c-1.5-0.3-2.6-2.8-3.9-3.1c-1.3-0.3-0.8,1.5-1.3,2.3c-0.5,0.8-1,2.6-2.3,4.1
			c-1.3,1.5-3.9,3.3-5.7,4.9c-1.8,1.5-1.3-0.3-2.3-0.8c-1-0.5-1-2.3-2.3-3.1c-1.3-0.8-1.8,0-3.1,1.8c-1.3,1.8-4.1,4.1-4.1,4.1h-78.6
			c0,0-1-2.3-1-3.1c0-0.8-2.1,0.3-2.8,0.3c-0.8,0-1,1.8-1,1.8l-1.8,0.5l-2.6-3.1c0,0-1.8-1.8-2.8-2.1c-1-0.3-1.8,0.3-4.4,1.3
			c-2.6,1-1,1-1.3,3.9c-0.3,2.8-2.3,1-3.3,0.8c-1-0.3-1.5-2.8-1.5-2.8s0,0-0.3-0.8c-0.3-0.8-1-2.1-2.3-3.1c-1.3-1-3.9-1.5-5.4-4.4
			c-1.5-2.8-2.3-4.1-3.1-5.7c-0.8-1.5-2.1-1.8-2.8-1.8c-0.8,0-2.3,0-3.1-1c-0.8-1-2.1-2.1-3.9-2.1c-1.8,0-2.3,1.8-2.3,1.8
			s-0.3,3.3-3.6,4.1c-3.3,0.8-5.7,6.4-6.4,6.2c-0.8-0.3-2.3-2.3-5.7-3.3c-3.3-1-2.6,1.3-2.6,1.3s-1-1-1.5-2.8
			c-0.5-1.8-3.6-4.1-5.9-5.4c-2.3-1.3-4.4,2.1-5.1,1.8c-0.8-0.3,0-6.2-0.5-8.7c-0.5-2.6-2.1-2.8-2.1-2.8v-3.3c0,0,1.3-0.3,2.3-1.5
			c1-1.3-1.3-7.2-4.4-6.7c-3.1,0.5-4.6,3.3-4.9,5.9c-0.3,2.6,2.3,1.8,2.3,1.8s0.8,3.3-1,4.4c-1.8,1-1.5,3.1-1.8,5.7
			c-0.3,2.6-0.5,6.4-0.5,6.4s-2.8,0.3-5.9,1.8c-3.1,1.5-1.5,5.4-4.9,6.4c-3.3,1-2.3-1.8-5.4-3.9c-3.1-2.1-2.6,0.5-5.9,2.6
			c-3.3,2.1-2.3,3.9-4.4,6.7c-2.1,2.8-2.6,0.8-3.6,0.8c-1,0-2.3,0.5-3.9,3.1c-1.5,2.6-1.5,2.1-5.4,3.3c-3.9,1.3-1.3,0.8-2.1,2.8
			c-0.8,2.1-1,1-4.6,2.1c-3.6,1-1.8,2.3-2.3,4.4c-0.5,2.1-1.3,2.8-2.6,3.3c-1.3,0.5-1.3,0-1.3,0l-1.8-2.3c0,0-1-1.3-2.8-2.6
			c-1.8-1.3-1.5,0.3-3.9,3.3c-2.3,3.1-0.5,3.9-4.1,3.6c-3.6-0.3-4.4-0.5-4.4-0.5c50.1,50.1,109.5,59.4,142.4,63.2
			c32.9,3.9,126.7-15.9,195.6-39.8c68.9-23.9,113.3-23.1,113.3-23.1S500.2,113.3,499.4,112.2z M206.2,108.6V119h-14.7v-10.4
			c0-0.1,0-0.2,0-0.4c0-4,3.3-7.2,7.4-7.2c4.1,0,7.4,3.2,7.4,7.2C206.2,108.4,206.2,108.5,206.2,108.6z M226.5,108.6V119h-14.7
			v-10.4c0-0.1,0-0.2,0-0.4c0-4,3.3-7.2,7.4-7.2c4.1,0,7.4,3.2,7.4,7.2C226.5,108.4,226.5,108.5,226.5,108.6z M246.8,108.6V119H232
			v-10.4c0-0.1,0-0.2,0-0.4c0-4,3.3-7.2,7.4-7.2c4.1,0,7.4,3.2,7.4,7.2C246.8,108.4,246.8,108.5,246.8,108.6z M267.1,108.6V119
			h-14.7v-10.4c0-0.1,0-0.2,0-0.4c0-4,3.3-7.2,7.4-7.2c4.1,0,7.4,3.2,7.4,7.2C267.1,108.4,267.1,108.5,267.1,108.6z M287.4,108.6
			V119h-14.7v-10.4c0-0.1,0-0.2,0-0.4c0-4,3.3-7.2,7.4-7.2c4.1,0,7.4,3.2,7.4,7.2C287.4,108.4,287.4,108.5,287.4,108.6z"/>
		<path class="st2" d="M44.2,129.7c0,0-11.8,347.5,229.8,419.5c0,0,190.2-56.2,225.8-422.2c0,0-2.1-1.7-26,1.7
			c-24,3.4-146.3,42.1-180.3,48.7c-33.9,6.5-96,26.4-151.5,7.9C86.6,166.7,44.2,129.7,44.2,129.7z"/>
		<path class="st1" d="M56.7,159.2c0,0,8.9,169.6,45.6,219c0,0-35-77.8-31.9-191.9c0,0,62.4,28.8,122.7,16.8
			C193.1,203,117.4,207.2,56.7,159.2z"/>
		<path class="st1" d="M323.4,181.8c0,0,93.6-25,113.1-32.2c19.5-7.2,43.9-13.4,50-13.7c0,0-14.6,145.5-55.2,205.6
			c0,0,43.2-129,40.1-188.6C471.4,152.8,360.4,183,323.4,181.8z"/>
		<g>
			<g>
				<radialGradient id="SVGID_1_" cx="259.8792" cy="341.9004" r="135.568" gradientUnits="userSpaceOnUse">
					<stop  offset="0" style="stop-color:#FFFFFF"/>
					<stop  offset="0.2713" style="stop-color:#FCFCFC"/>
					<stop  offset="0.4859" style="stop-color:#F2F2F2"/>
					<stop  offset="0.6812" style="stop-color:#E1E1E1"/>
					<stop  offset="0.8639" style="stop-color:#CACACA"/>
					<stop  offset="1" style="stop-color:#B3B3B3"/>
				</radialGradient>
				<path class="st3" d="M395.5,341.9c0,74.9-60.7,135.6-135.6,135.6c-74.9,0-135.6-60.7-135.6-135.6c0-74.9,60.7-135.6,135.6-135.6
					C334.8,206.3,395.5,267,395.5,341.9L395.5,341.9z"/>
				<path class="st0" d="M259.9,478.1c-75.1,0-136.2-61.1-136.2-136.2c0-75.1,61.1-136.2,136.2-136.2c75.1,0,136.2,61.1,136.2,136.2
					C396.1,417,335,478.1,259.9,478.1z M259.9,206.9c-74.4,0-135,60.5-135,135c0,74.4,60.5,135,135,135c74.4,0,135-60.5,135-135
					C394.8,267.5,334.3,206.9,259.9,206.9z"/>
			</g>
			<polygon class="st4" points="259.9,254.1 259.9,254.1 211.3,290 237.6,338.1 259.9,338.1 259.9,338.1 282.1,338.1 308.5,290 
				259.9,254.1 			"/>
			<polygon class="st4" points="200.2,390.2 233.6,433.3 205.7,457.5 157.2,419.1 160.2,380.1 200.2,390.2 			"/>
			<path class="st4" d="M126.8,316.9l13.7,10.1l33.4-42.5l-9.1-41.5C164.8,243,133.4,270.8,126.8,316.9L126.8,316.9z"/>
			<path class="st4" d="M236.1,210.1l24.8,9.1l18.7-9.1C279.6,210.1,263.9,205,236.1,210.1L236.1,210.1z"/>
			<path class="st0" d="M205.3,463.7l-1.2-0.2l1.5-10.1l1.2,0.2L205.3,463.7z M295.8,433.4H231v-1.2h64.8V433.4z M151.8,420.7
				l-0.3-1.2l8.6-2.5l0.3,1.2L151.8,420.7z M198.6,392.6l-1-0.7l39.5-56.7l1,0.7L198.6,392.6z M162.2,384.5
				c-20.6-29.1-22.4-58.7-22.4-59l1.2-0.1c0,0.3,1.8,29.5,22.2,58.4L162.2,384.5z M212.7,290.6l-39-5.6l0.2-1.2l39,5.6L212.7,290.6z
				 M260.5,257.1h-1.2v-41.5h1.2V257.1z"/>
			<polygon class="st4" points="319.6,390.2 286.2,433.3 314,457.5 362.6,419.1 359.6,380.1 319.6,390.2 			"/>
			<path class="st4" d="M393,316.9L379.3,327l-33.4-42.5L355,243C355,243,386.4,270.8,393,316.9L393,316.9z"/>
			<path class="st0" d="M314.4,463.7l-1.5-10.1l1.2-0.2l1.5,10.1L314.4,463.7z M368,420.7l-8.6-2.5l0.3-1.2l8.6,2.5L368,420.7z
				 M321.1,392.6l-39.5-56.7l1-0.7l39.5,56.7L321.1,392.6z M357.5,384.5l-1-0.7c20.4-28.9,22.1-58.1,22.2-58.4l1.2,0.1
				C379.9,325.8,378.1,355.4,357.5,384.5z M307,290.6l-0.2-1.2l39-5.6l0.2,1.2L307,290.6z"/>
		</g>
	</g>
</g>
</svg>
