<?xml version="1.0" encoding="utf-8"?>
<!-- Generator: Adobe Illustrator 21.1.0, SVG Export Plug-In . SVG Version: 6.00 Build 0)  -->
<svg version="1.1" id="Capa_1" xmlns="http://www.w3.org/2000/svg" xmlns:xlink="http://www.w3.org/1999/xlink" x="0px" y="0px"
	 viewBox="0 0 1113.5 720" style="enable-background:new 0 0 1113.5 720;" xml:space="preserve">
<style type="text/css">
	.st0{fill:#7B7B7B;}
	.st1{fill:#CBCBCB;}
	.st2{fill:#4D4D4D;}
	.st3{fill:url(#SVGID_1_);}
	.st4{opacity:0.8;fill:url(#SVGID_2_);}
	.st5{opacity:0.2;fill:url(#SVGID_3_);}
	.st6{fill:url(#SVGID_4_);}
	.st7{fill:url(#SVGID_5_);}
	.st8{fill:url(#SVGID_6_);}
	.st9{fill:url(#SVGID_7_);}
	.st10{opacity:5.000000e-02;}
	.st11{opacity:0.2;fill:url(#SVGID_8_);}
	.st12{fill:none;stroke:#000000;stroke-width:3.2552;stroke-miterlimit:10;}
	.st13{fill:#FFFFFF;}
	.st14{fill:none;stroke:#4D4D4D;stroke-width:2.4607;stroke-miterlimit:10;}
	.st15{fill:#FFFFFF;stroke:#4D4D4D;stroke-width:2.4607;stroke-miterlimit:10;}
</style>
<g>
	<path class="st0" d="M556.7,720C514,705.8,388,639.6,343.7,448.5c-11.8-51-27.9-154.2-27.9-252.6c39.8,0,240.9,0,240.9,0V720z"/>
	<path class="st1" d="M556.7,720c42.8-14.2,168.8-80.4,213.1-271.5c11.8-51,27.9-154.2,27.9-252.6c-39.8,0-240.9,0-240.9,0V720z"/>
	<path class="st2" d="M673.8,204.1L673.8,204.1c-0.3,0.3-0.7,0.8-1,1.2C707.9,237.1,730,283,730,334.1
		c0,96.1-77.9,174.1-174.1,174.1s-174.1-77.9-174.1-174.1c0-51.6,22.5-97.9,58.1-129.8c-0.1-0.1-0.2-0.2-0.3-0.3
		C322.8,77.8,150.5,52.5,0,87.6c0,0,37.7,3.3,45.9,4.1c173.7-21.3,283.4,44.4,338.6,103.2c-24.6,34.6-39.2,76.8-39.2,122.5
		c0,116.8,94.7,211.4,211.4,211.4c116.8,0,211.4-94.7,211.4-211.4c0-45.7-14.6-88-39.2-122.5c55.2-58.8,164.9-124.5,338.6-103.2
		c8.2-0.8,45.9-4.1,45.9-4.1C962.9,52.5,790.7,77.8,673.8,204.1z"/>
	<path class="st2" d="M1035.5,98.7c-128.6-1.8-225.8,44.3-283,94.1c-0.5,0.4-1,0.8-1.6,1.3c21.8,35.1,34.4,76.6,34.4,120.9
		c0,126.7-102.7,229.5-229.5,229.5S326.4,441.7,326.4,315c0-44.7,12.8-86.5,35-121.8c-0.2-0.1-0.4-0.3-0.5-0.4
		c-57.2-49.8-154.4-96-283-94.1c156.3,33.2,94.1,164.2,55.4,209.2c142.7-1.8,166.1,92.3,135.3,139c107.7,8.6,102.7,76.3,77.5,106.4
		c121.4-21.2,184.3,25.2,205.3,131.4l5.3,35.3l8-47.8c23.4-97.3,86.1-139.2,202.6-118.9c-25.2-30.1-30.1-97.8,77.5-106.4
		c-30.8-46.8-7.4-140.9,135.3-139C941.4,262.9,879.3,131.9,1035.5,98.7z"/>
	<g>
		
			<radialGradient id="SVGID_1_" cx="406.53" cy="245.6031" r="354.0955" gradientTransform="matrix(-1.0134 0 0 1.0147 1045.6749 -77.398)" gradientUnits="userSpaceOnUse">
			<stop  offset="0" style="stop-color:#FFFFFF"/>
			<stop  offset="0.3318" style="stop-color:#FDFDFD"/>
			<stop  offset="0.4684" style="stop-color:#F6F6F6"/>
			<stop  offset="0.569" style="stop-color:#EAEAEA"/>
			<stop  offset="0.6521" style="stop-color:#D8D8D8"/>
			<stop  offset="0.7244" style="stop-color:#C1C1C1"/>
			<stop  offset="0.7891" style="stop-color:#A5A5A5"/>
			<stop  offset="0.8482" style="stop-color:#838383"/>
			<stop  offset="0.9029" style="stop-color:#5C5C5C"/>
			<stop  offset="0.952" style="stop-color:#323232"/>
			<stop  offset="0.9981" style="stop-color:#020202"/>
			<stop  offset="1" style="stop-color:#000000"/>
		</radialGradient>
		<ellipse class="st3" cx="557.2" cy="326.2" rx="158.9" ry="159.1"/>
		
			<linearGradient id="SVGID_2_" gradientUnits="userSpaceOnUse" x1="629.3782" y1="624.793" x2="511.0032" y2="145.5221" gradientTransform="matrix(-1 0 0 1 1113.4517 0)">
			<stop  offset="0" style="stop-color:#000000"/>
			<stop  offset="0.1404" style="stop-color:#2F2F2F"/>
			<stop  offset="0.3784" style="stop-color:#787878"/>
			<stop  offset="0.592" style="stop-color:#B2B2B2"/>
			<stop  offset="0.7733" style="stop-color:#DCDCDC"/>
			<stop  offset="0.915" style="stop-color:#F5F5F5"/>
			<stop  offset="1" style="stop-color:#FFFFFF"/>
		</linearGradient>
		<path class="st4" d="M670.2,320.4c-0.1-0.5,0.3-1.1,0.8-1.1c0.5-0.1,1.1,0.3,1.1,0.8c0,0.3,4.5,27.1-2.1,72.2
			c-0.1,0.5-0.5,0.8-1,0.8c0,0-0.1,0-0.1,0c-0.5-0.1-0.9-0.6-0.8-1.1C674.7,347.2,670.3,320.7,670.2,320.4z M558.7,334.1
			c-0.3,0-0.7-0.2-0.9-0.5c-0.3-0.5-0.1-1.1,0.4-1.4c33.6-19.3,60.6-39.5,60.9-39.7c0.4-0.3,1.1-0.2,1.4,0.2
			c0.3,0.4,0.2,1.1-0.2,1.4c-0.3,0.2-27.4,20.5-61.1,39.9C559.1,334.1,558.9,334.1,558.7,334.1z M697.9,400.2
			c-1.4,2.7-2.9,5.4-4.5,8c-1.2,1.1-1.9,1.7-2,1.8c-0.2,0.1-0.4,0.2-0.6,0.2c-0.3,0-0.6-0.1-0.8-0.4c-0.3-0.4-0.3-1.1,0.2-1.4
			C690.2,408.3,693.4,405.8,697.9,400.2z M654.8,200.7c6.3,13.3,6.1,25.9,6.1,26.5c0,0.5-0.5,1-1,1c0,0,0,0,0,0c-0.5,0-1-0.5-1-1
			c0-0.2,0.3-15-7.8-29.2C652.4,198.9,653.6,199.8,654.8,200.7z M694.4,280.7c0.2-0.5,0.8-0.7,1.3-0.5c0.5,0.2,9.5,4.6,16.8,12.3
			c0.3,1.3,0.5,2.6,0.8,3.9c-7.3-9.1-18.3-14.4-18.4-14.5C694.3,281.8,694.1,281.2,694.4,280.7z M614.3,235.3
			c-0.2,0-0.4-0.1-0.6-0.2c-0.3-0.2-26.7-18.4-65.9-26.5c-0.5-0.1-0.9-0.6-0.8-1.2c0.1-0.5,0.6-0.9,1.2-0.8
			c39.6,8.2,66.3,26.7,66.6,26.9c0.4,0.3,0.6,0.9,0.2,1.4C614.9,235.1,614.6,235.3,614.3,235.3z M410.1,283.5
			c17.9-33.1,41.4-53.2,41.7-53.4c0.4-0.4,1-0.3,1.4,0.1c0.4,0.4,0.3,1-0.1,1.4c-0.2,0.2-23.5,20.1-41.2,52.8
			c-0.2,0.3-0.5,0.5-0.9,0.5c-0.2,0-0.3,0-0.5-0.1C410,284.6,409.8,284,410.1,283.5z M557.4,397.2c0.3-0.5,0.9-0.6,1.4-0.3
			c30.5,20.5,57,29.4,57.2,29.5c0.5,0.2,0.8,0.7,0.6,1.3c-0.1,0.4-0.5,0.7-0.9,0.7c-0.1,0-0.2,0-0.3-0.1
			c-0.3-0.1-26.9-9.1-57.7-29.7C557.2,398.2,557,397.6,557.4,397.2z M415.6,343.2c25.4,9.8,45.6,12.1,45.8,12.2
			c0.5,0.1,0.9,0.5,0.9,1.1c-0.1,0.5-0.5,0.9-1,0.9c0,0-0.1,0-0.1,0c-0.2,0-20.6-2.3-46.3-12.3c-0.5-0.2-0.8-0.8-0.6-1.3
			C414.6,343.2,415.1,343,415.6,343.2z M493.4,241.9c0.1-0.5,0.6-0.9,1.1-0.9c0.5,0.1,0.9,0.5,0.9,1.1c0,0.2-2.3,24.2,5.8,65.5
			c0.1,0.5-0.2,1.1-0.8,1.2c-0.1,0-0.1,0-0.2,0c-0.5,0-0.9-0.3-1-0.8C491.1,266.5,493.4,242.2,493.4,241.9z M498.8,409.9
			c0.5,0.2,0.8,0.8,0.6,1.3c-0.1,0.2-6.5,17.8-7.1,46.5c0,0.5-0.5,1-1,1h0c-0.5,0-1-0.5-1-1c0.6-29,7.1-46.9,7.2-47.1
			C497.7,410,498.3,409.7,498.8,409.9z M543.1,481.1c50.4-4.6,64.7-15.5,64.8-15.6c0.4-0.3,1-0.3,1.4,0.2c0.3,0.4,0.3,1.1-0.2,1.4
			c-0.6,0.5-14.6,11.3-65.9,16c0,0-0.1,0-0.1,0c-0.5,0-1-0.4-1-0.9C542.1,481.6,542.5,481.2,543.1,481.1z M546.2,167.6
			c1.1-0.1,2.2-0.1,3.3-0.2c-3.9,3.2-11.8,10.7-16.8,21.6c0-1.5,0-3.1,0.1-4.6C537.1,176.6,542.5,170.9,546.2,167.6z"/>
		
			<linearGradient id="SVGID_3_" gradientUnits="userSpaceOnUse" x1="533.1882" y1="401.3679" x2="601.5654" y2="501.456" gradientTransform="matrix(-1 0 0 1 1113.4517 0)">
			<stop  offset="0" style="stop-color:#FFFFFF"/>
			<stop  offset="0.1676" style="stop-color:#FDFDFD"/>
			<stop  offset="0.2668" style="stop-color:#F4F4F4"/>
			<stop  offset="0.3481" style="stop-color:#E6E6E6"/>
			<stop  offset="0.4198" style="stop-color:#D2D2D2"/>
			<stop  offset="0.4852" style="stop-color:#B8B8B8"/>
			<stop  offset="0.5459" style="stop-color:#989898"/>
			<stop  offset="0.6032" style="stop-color:#717171"/>
			<stop  offset="0.6576" style="stop-color:#454545"/>
			<stop  offset="0.7079" style="stop-color:#141414"/>
			<stop  offset="0.7268" style="stop-color:#000000"/>
		</linearGradient>
		<path class="st5" d="M609.3,430.3c0,0-26.1-8.8-51.4-26.3c0,0-23.2,8.4-55.8,12.6c0,0-5.5,12.1-6.9,44.1c0,0,27,41.7,106.2,8.8
			C601.4,469.6,608.7,458.5,609.3,430.3z"/>
		<path class="st2" d="M618.2,294.6c0,0,0.2-33.9-6-61.7c0,0,15.8-7.1,47.8-7.1c0,0,24.7,24.7,36,55.7c0,0-6.5,20.9-24.3,42.5
			C671.8,324,652.7,310.4,618.2,294.6z M613.4,426.2c45-20,56.1-37,56.1-37l22.1,19.1c0,0-2.2,15.7-35.4,43.2
			c-21.2,17.5-50.3,16.3-50.3,16.3C614.3,443.2,613.4,426.2,613.4,426.2z M451.2,231.9c0,0,5.4-27.6,29.5-41.3
			c23.8-13.5,58.5-14.2,58.5-14.2s4.4,7.3,10.7,31.7c0,0-22,8.4-55.4,35.4C494.4,243.4,480.7,237.2,451.2,231.9z M497.6,413.1
			c-23.9-25-38.3-57.1-38.3-57.1c19.3-31.8,40.3-50.8,40.3-50.8c35.9,17.7,61.4,26.3,61.4,26.3c-2.6,41.7-1.3,67.2-1.3,67.2
			C521.5,411.8,497.6,413.1,497.6,413.1z M491.3,455.7c29.7,23.4,52.9,25.9,52.9,25.9s-0.8,2.5-2.4,3.4c-1.5,0.8-11.4,3-47.1-10.6
			c-35.7-13.5-44.9-31-44.9-31C464.2,456.5,491.3,455.7,491.3,455.7z M405.8,284.3c1.7-1.7,6.5-1.7,6.5-1.7s-4.7,6-2,29.9
			c2.7,23.9,6.2,32.1,6.2,32.1s-5.5,7.5-9.7,33.2c0,0-7.8-5.8-9.7-47.8C395.7,297,403.6,286.5,405.8,284.3z"/>
		
			<linearGradient id="SVGID_4_" gradientUnits="userSpaceOnUse" x1="608.4424" y1="236.5368" x2="617.6603" y2="199.6063" gradientTransform="matrix(-1 0 0 1 1113.4517 0)">
			<stop  offset="0" style="stop-color:#FFFFFF"/>
			<stop  offset="1.260614e-02" style="stop-color:#FAFAFA"/>
			<stop  offset="0.2309" style="stop-color:#B0B0B0"/>
			<stop  offset="0.4356" style="stop-color:#717171"/>
			<stop  offset="0.6205" style="stop-color:#404040"/>
			<stop  offset="0.7821" style="stop-color:#1D1D1D"/>
			<stop  offset="0.914" style="stop-color:#080808"/>
			<stop  offset="1" style="stop-color:#000000"/>
		</linearGradient>
		<path class="st6" d="M537.2,178.9c0,0,3.9,6.7,8.1,26.7c0,0-30.1,13.9-50.5,32.4c0,0-18.3-6.7-40.3-10.4c0,0,35.1,5.7,41.1,2.3
			c11.7-6.6,24.5-16,43.6-25.7C543,202.3,537.2,178.9,537.2,178.9z"/>
		
			<linearGradient id="SVGID_5_" gradientUnits="userSpaceOnUse" x1="493.3721" y1="223.4965" x2="441.1112" y2="318.6115" gradientTransform="matrix(-1 0 0 1 1113.4517 0)">
			<stop  offset="0" style="stop-color:#FFFFFF"/>
			<stop  offset="0.7268" style="stop-color:#000000"/>
		</linearGradient>
		<path class="st7" d="M659.2,229.5c0,0-27.2,0.4-41.6,6.2c0,0,3.3,18.7,3.9,55.5c0,0,2.2-43.3,6-49.6
			C632.4,233.6,659.2,229.5,659.2,229.5z"/>
		
			<linearGradient id="SVGID_6_" gradientUnits="userSpaceOnUse" x1="440.6102" y1="382.3711" x2="513.795" y2="512.9168" gradientTransform="matrix(-1 0 0 1 1113.4517 0)">
			<stop  offset="0" style="stop-color:#FFFFFF"/>
			<stop  offset="2.356808e-02" style="stop-color:#ECECEC"/>
			<stop  offset="9.841721e-02" style="stop-color:#B5B5B5"/>
			<stop  offset="0.1759" style="stop-color:#858585"/>
			<stop  offset="0.2544" style="stop-color:#5C5C5C"/>
			<stop  offset="0.3341" style="stop-color:#3B3B3B"/>
			<stop  offset="0.4154" style="stop-color:#212121"/>
			<stop  offset="0.499" style="stop-color:#0F0F0F"/>
			<stop  offset="0.5863" style="stop-color:#040404"/>
			<stop  offset="0.6833" style="stop-color:#000000"/>
		</linearGradient>
		<path class="st8" d="M687.7,410c0,0-7.1-6.2-18.6-16c0,0-17,18.4-52.1,34c0,0,0.1,12.8-6.8,36.9c0,0,11.3-33.7,13.5-35
			c15.2-8.7,29.1-19,44.4-30.1C670.9,397.7,687.7,410,687.7,410z"/>
		
			<linearGradient id="SVGID_7_" gradientUnits="userSpaceOnUse" x1="696.0965" y1="279.2508" x2="714.6091" y2="363.2187" gradientTransform="matrix(-1 0 0 1 1113.4517 0)">
			<stop  offset="0" style="stop-color:#FFFFFF"/>
			<stop  offset="4.293096e-02" style="stop-color:#ECECEC"/>
			<stop  offset="0.1509" style="stop-color:#C2C2C2"/>
			<stop  offset="0.2649" style="stop-color:#9E9E9E"/>
			<stop  offset="0.3838" style="stop-color:#808080"/>
			<stop  offset="0.5095" style="stop-color:#6A6A6A"/>
			<stop  offset="0.6448" style="stop-color:#5A5A5A"/>
			<stop  offset="0.7968" style="stop-color:#505050"/>
			<stop  offset="1" style="stop-color:#4D4D4D"/>
		</linearGradient>
		<path class="st9" d="M407.7,286.3c0,0-5.1,21.9,5.3,57.2c0,0-6.8,14.3-7.6,28.1C405.3,371.7,393.6,313.5,407.7,286.3z"/>
		<path class="st10" d="M612.9,421.3c0,0-24.6-8.1-47.6-25.8c0,0-2.6-28.3,2.5-61.5c0,0,29.2-16.6,50-34.9c0,0-14.4,17.3-40.6,34.9
			c-8.8,5.9-9.5,56.4-5.3,60.9C585.1,408.8,612.9,421.3,612.9,421.3z"/>
		
			<linearGradient id="SVGID_8_" gradientUnits="userSpaceOnUse" x1="612.2169" y1="328.3238" x2="691.5384" y2="444.4318" gradientTransform="matrix(-1 0 0 1 1113.4517 0)">
			<stop  offset="0" style="stop-color:#FFFFFF"/>
			<stop  offset="0.1734" style="stop-color:#FDFDFD"/>
			<stop  offset="0.2759" style="stop-color:#F4F4F4"/>
			<stop  offset="0.36" style="stop-color:#E6E6E6"/>
			<stop  offset="0.4342" style="stop-color:#D2D2D2"/>
			<stop  offset="0.5018" style="stop-color:#B8B8B8"/>
			<stop  offset="0.5646" style="stop-color:#989898"/>
			<stop  offset="0.6238" style="stop-color:#717171"/>
			<stop  offset="0.68" style="stop-color:#454545"/>
			<stop  offset="0.732" style="stop-color:#141414"/>
			<stop  offset="0.7516" style="stop-color:#000000"/>
		</linearGradient>
		<path class="st11" d="M416.9,349.8c21.8,10.9,40.4,12.3,40.4,12.3c14.4,30.9,34.6,52.5,34.6,52.5c-6.4,29.3-5.9,37.8-5.9,37.8
			c-12.9,1.9-25-1.8-35.5-8.3c-18.6-16.9-33.2-38.1-42.1-62C411.1,361.4,416.9,349.8,416.9,349.8z"/>
		<path class="st10" d="M493.2,305.3c0,0-15.7,15.7-36,46.5c0,0-25.1-2.9-39.4-11.6c0,0-7.3-14.5-4.8-53.4c0,0,0.4,40.8,10.1,48.6
			c6.1,4.9,27.2,11.8,32.7,6.1C480.1,316.4,493.2,305.3,493.2,305.3z"/>
		<path class="st10" d="M615.5,292c0,0-25.7,16.6-53.1,33.9c0,0-26.4-3.7-57.8-24.7c0,0-7.4-26.8-6.1-56.2c0,0,26-21,49.7-33.9
			c0,0-43.6,28.8-45.7,37.2c-2,8.5,4.4,44,7.8,48.1c3.4,4.1,44.6,25.1,53.8,23C573.2,317.4,615.5,292,615.5,292z"/>
	</g>
	<path class="st12" d="M456.2,176.6"/>
	<g>
		<g>
			<path class="st13" d="M602,630.5h-11.4c-9.1,0-16.6,7.5-16.6,16.6v8c0,9.1,7.5,16.6,16.6,16.6H602c9.1,0,16.6-7.5,16.6-16.6v-8
				C618.7,638,611.2,630.5,602,630.5z M602.4,654.3c0,3.3-2.7,6-6,6s-6-2.7-6-6v-4c0-3.3,2.7-6,6-6s6,2.7,6,6V654.3z"/>
		</g>
		<g>
			<path class="st14" d="M602,630.5h-11.4c-9.1,0-16.6,7.5-16.6,16.6v8c0,9.1,7.5,16.6,16.6,16.6H602c9.1,0,16.6-7.5,16.6-16.6v-8
				C618.7,638,611.2,630.5,602,630.5z M602.4,654.3c0,3.3-2.7,6-6,6s-6-2.7-6-6v-4c0-3.3,2.7-6,6-6s6,2.7,6,6V654.3z"/>
		</g>
	</g>
	<g>
		<g>
			<path class="st13" d="M554.4,630.5H543c-9.1,0-16.6,7.5-16.6,16.6v8c0,9.1,7.5,16.6,16.6,16.6h11.4c9.1,0,16.6-7.5,16.6-16.6v-8
				C571,638,563.5,630.5,554.4,630.5z M554.7,654.3c0,3.3-2.7,6-6,6s-6-2.7-6-6v-4c0-3.3,2.7-6,6-6s6,2.7,6,6V654.3z"/>
		</g>
		<g>
			<path class="st14" d="M554.4,630.5H543c-9.1,0-16.6,7.5-16.6,16.6v8c0,9.1,7.5,16.6,16.6,16.6h11.4c9.1,0,16.6-7.5,16.6-16.6v-8
				C571,638,563.5,630.5,554.4,630.5z M554.7,654.3c0,3.3-2.7,6-6,6s-6-2.7-6-6v-4c0-3.3,2.7-6,6-6s6,2.7,6,6V654.3z"/>
		</g>
	</g>
	<path class="st15" d="M520.5,630.5h-19.1c0,0-5.2,6.5-8.6,7.7c0,6.2,0,14.8,0,14.8c3.4,0,9.5-5.5,9.5-5.5c0,4.6,0,24.3,0,24.3h18.1
		V630.5z"/>
	<polygon class="st2" points="549.9,0 568.7,33 605.9,40.7 580.3,68.8 584.5,106.5 549.9,90.9 515.3,106.5 519.5,68.8 493.9,40.7 
		531.1,33 	"/>
</g>
</svg>
