<?xml version="1.0" encoding="utf-8"?>
<!-- Generator: Adobe Illustrator 21.1.0, SVG Export Plug-In . SVG Version: 6.00 Build 0)  -->
<svg version="1.1" id="Capa_1" xmlns="http://www.w3.org/2000/svg" xmlns:xlink="http://www.w3.org/1999/xlink" x="0px" y="0px"
	 viewBox="0 0 1280 720" style="enable-background:new 0 0 1280 720;" xml:space="preserve">
<style type="text/css">
	.st0{fill:#4D4D4D;}
</style>
<g>
	<g>
		<g>
			<path class="st0" d="M420.8,347.2l220.4-229.9L566,321.8c0,0-3.4,5.4-13.8,1.1C532.1,314.3,502.4,301.6,420.8,347.2"/>
			<path class="st0" d="M668.6,251.8L842.5,70.4l-59.4,161.4c0,0-2.7,4.3-10.9,0.8C756.4,225.9,733,215.9,668.6,251.8"/>
			<path class="st0" d="M554.6,299.5L753.9,91.6l-68,184.9c0,0-3.1,4.9-12.5,0.9C655.3,269.8,628.4,258.3,554.6,299.5"/>
			<path class="st0" d="M735.6,2.5c0.5-5.2-2.7-0.7-2.7-0.7l-52.6,87.8l10.3-3.2l9.6,6.7l0.7,0.5L735.6,2.5z"/>
			<path class="st0" d="M521.2,441.8c-0.9,5.1,2.6,0.9,2.6,0.9l62.4-96.9l-15.5,5.8l-4.7-9.7l-0.6-0.6L521.2,441.8z"/>
			<path class="st0" d="M477.1,234.8l1.8-15.5c0,0-95.1,4.6-105.7,5.2c-10.6,0.6-10.1,2.9,0.3,3.5
				C383.9,228.7,477.1,234.8,477.1,234.8"/>
			<path class="st0" d="M796.5,234.8l4.7-15.5c0,0,95.1,4.6,105.7,5.2c10.6,0.6,10.1,2.9-0.3,3.5
				C896.1,228.7,796.5,234.8,796.5,234.8"/>
		</g>
		<g>
			<path class="st0" d="M38.2,541.6c2.6,1,8,2.4,14.6,2.4c13,0,29-7,29-32.3c0-21.6-13.8-30.8-30.1-30.8c-5.6,0-9.8,1-11.2,2.4
				c-1.6,1.2-2.2,3.6-2.2,9.4V541.6z M54.4,474.5c14.2,0,25.7,2.4,33.7,8.2c7.8,6,12.8,15.2,12.8,28.1c0,26-19.4,38.5-38.9,40.9
				c-3,0.4-6.8,0.4-9,0.2l-14.8-3.8v31.3c0,17,1.8,18,19.8,19.2v5.6H3.9v-5.6c16-1.2,17.6-2.8,17.6-19.3v-79.9
				c0-17.6-1.6-18.4-16.4-19.4v-5.6H54.4z"/>
			<path class="st0" d="M210.8,515.2c-8.6,0.6-11.9,2.5-12.5,8.5c-0.4,3.9-0.9,10-0.9,23.3v11.6c0,16.9-2.6,29.2-10.7,37.8
				c-6.7,6.9-16.3,9.9-25.8,9.9c-8.4,0-16.6-2-22.8-6.7c-8.6-6.6-12.6-17.3-12.6-34.2v-35.6c0-12.9-1.3-13.5-12.5-14.5v-4H150v4
				c-11.2,0.8-12.3,1.6-12.3,14.5v32.5c0,23.2,9.1,36.3,26.9,36.3c20.6,0,27.1-17.3,27.1-40.9v-10.7c0-13.2-0.4-19.2-1-23.6
				c-0.7-5.6-3.7-7.3-13.8-8.1v-4h34.1V515.2z"/>
			<path class="st0" d="M291.8,581.6c-0.9,4.7-3.7,18.2-5,22.6h-68.9v-4c13-1,14.2-2.1,14.2-13.9v-57c0-12.7-1.2-13.3-12.3-14.3
				v-3.8h63.8c0,3.5,0.7,13.2,1.1,20.6l-4.2,0.6c-1.3-6-2.7-9.1-4.5-12.2c-2-3.1-5.8-4.1-16.2-4.1h-10.9c-4.4,0-4.7,0.4-4.7,4.6
				v32.6h13.4c13,0,13.7-1.1,15.5-10.7h4.1v27.3H273c-1.9-10.2-2.9-11-15.3-11h-13.6v27.1c0,6.7,0.8,9.9,3.4,11.6
				c2.7,1.8,7.7,1.8,14.9,1.8c10.9,0,14.9-1.2,18-4.9c2.4-2.8,5.2-7.7,7.2-13.5L291.8,581.6z"/>
			<path class="st0" d="M332.1,559c7.2,0,11.9-1.1,15.5-4.1c5.6-4.3,7.9-9.9,7.9-17.8c0-15.4-10.2-21.1-20.9-21.1
				c-4.1,0-6.6,0.5-7.7,1.4c-1.1,0.7-1.6,2.5-1.6,6.3V559H332.1z M384.6,605.4c-1.7,0-3.4,0-5-0.2c-10.8-0.6-16.7-3.7-23.1-13
				c-5-7-10.2-15.9-14.4-22.9c-2.5-4-4.9-5.7-12.2-5.7h-4.6v22.7c0,12,1.3,13,12.6,13.9v4h-37.5v-4c11.7-0.9,12.9-1.7,12.9-13.9V529
				c0-12.3-1.1-12.8-12.3-13.8v-4h35.5c10.4,0,17.5,1.3,22.8,4.9c5.9,3.7,9.6,10.1,9.6,18.7c0,12.3-7.7,19.9-18.2,24.6
				c2.4,4.6,8.4,14.2,12.7,20.6c5.1,7.4,8,11.1,11.6,14.8c3.7,4.3,7.2,5.9,10.3,6.8L384.6,605.4z"/>
			<path class="st0" d="M459.6,533.4c-1.4-6.9-2.8-10.4-4.4-12.9c-2.4-3.3-4.7-4.4-15.6-4.4h-10v70.5c0,11.2,1.1,12.8,14.6,13.6v4
				h-40.9v-4c13-0.9,14.2-2.3,14.2-13.6v-70.5h-8.9c-11.9,0-14.7,1.1-16.6,4.4c-1.7,2.4-2.9,6.6-4.6,12.9h-4.1
				c0.7-8.7,1.4-18,1.7-25.7h2.9c2,3.3,3.9,3.6,7.8,3.6h56.6c3.8,0,5-0.8,7.1-3.6h3c0.1,6.4,0.7,17,1.6,25.3L459.6,533.4z"/>
			<path class="st0" d="M734.1,571.3c-2.8,9.2-7.8,24-11.4,30.8c-5.5,1.2-22.3,5.2-36.7,5.2c-49.7,0-71.5-34.3-71.5-66.1
				c0-42.2,32.4-69.7,76.9-69.7c16.2,0,29.7,4.4,35.3,5.4c1.6,11.2,2.8,19.3,4,30.2l-5.8,1.4c-5.4-21.2-17.4-29.8-39-29.8
				c-33.3,0-51.1,28.2-51.1,58.5c0,37.3,22,62.9,52.3,62.9c20.3,0,31.1-11,41.1-30.7L734.1,571.3z"/>
			<path class="st0" d="M785.7,527.7h-0.3c-4.6,12.1-9,24.8-13.4,36.5h26.3L785.7,527.7z M799.7,604.2v-4c9-1.1,10.3-2.3,8.4-7.9
				c-1.9-5.6-4.7-13.3-7.9-22h-30.5c-2.3,6.4-4.4,12.4-6.3,18.3c-3,9.2-1.9,10.5,9,11.6v4h-31.2v-4c9.1-1.3,11.2-2.1,16-14.9
				l29.6-75l4.4-1.3c8.9,24.4,18.5,51.8,27.6,76.5c4.5,12.4,6.5,13.6,15.8,14.6v4H799.7z"/>
			<path class="st0" d="M940.2,515.2c-8,0.5-11.5,2.3-12,8.5c-0.6,4.4-0.9,10.8-0.9,24.2v57.7h-4.4L862,530.6h-0.3v35.9
				c0,13.1,0.4,20,0.9,24.2c0.7,7.3,4,9,13.7,9.6v4h-33.9v-4c8.2-0.6,11.9-2.3,12.6-9.3c0.5-4.4,0.9-11.4,0.9-24.5V535
				c0-10.4-0.3-11-2.8-14.5c-3-3.6-6-4.7-12.7-5.3v-4h21l59.8,71.7h0.4v-35.1c0-13.2-0.4-19.7-1-23.8c-0.7-6.4-4-8.3-14-8.9v-4h33.8
				V515.2z"/>
			<path class="st0" d="M1034.7,580.7c-2,6.6-5.6,17.2-8.1,22c-4,0.9-16.1,3.7-26.4,3.7c-35.6,0-51.2-24.6-51.2-47.4
				c0-30.2,23.2-49.9,55.1-49.9c11.6,0,21.3,3.2,25.3,3.9c1.1,8,2,13.9,2.9,21.6l-4.1,1c-3.8-15.1-12.4-21.3-27.9-21.3
				c-23.9,0-36.6,20.2-36.6,41.9c0,26.8,15.7,45.1,37.4,45.1c14.6,0,22.3-7.9,29.5-22L1034.7,580.7z"/>
			<path class="st0" d="M1111.8,497.2l-26.5,9.1l-1.9-3.6c7.7-4.9,15.9-10.3,22.5-14.6c1.7,0.3,5.7,5.9,6.1,7.9L1111.8,497.2z
				 M1140.3,515.2c-8.6,0.6-11.9,2.5-12.4,8.5c-0.4,3.9-0.9,10-0.9,23.3v11.6c0,16.9-2.6,29.2-10.7,37.8c-6.8,6.9-16.3,9.9-25.8,9.9
				c-8.4,0-16.6-2-22.9-6.7c-8.6-6.6-12.6-17.3-12.6-34.2v-35.6c0-12.9-1.3-13.5-12.5-14.5v-4h36.9v4c-11.1,0.8-12.3,1.6-12.3,14.5
				v32.5c0,23.2,9.2,36.3,26.9,36.3c20.6,0,27-17.3,27-40.9v-10.7c0-13.2-0.4-19.2-1-23.6c-0.7-5.6-3.7-7.3-13.9-8.1v-4h34V515.2z"
				/>
			<path class="st0" d="M1246,515.2c-8,0.5-11.4,2.3-12,8.5c-0.6,4.4-0.9,10.8-0.9,24.2v57.7h-4.4l-60.9-74.9h-0.3v35.9
				c0,13.1,0.4,20,0.9,24.2c0.7,7.3,4,9,13.8,9.6v4h-33.9v-4c8.1-0.6,11.9-2.3,12.6-9.3c0.5-4.4,0.9-11.4,0.9-24.5V535
				c0-10.4-0.3-11-2.9-14.5c-3-3.6-6-4.7-12.8-5.3v-4h21l59.8,71.7h0.4v-35.1c0-13.2-0.4-19.7-1-23.8c-0.7-6.4-4-8.3-14-8.9v-4h33.8
				V515.2z"/>
			<path class="st0" d="M1261,493.1h1.6c1.9,0,2.7-1.5,2.7-3.6c0-2.3-1.2-3.1-2.7-3.1h-1.6V493.1z M1256.7,485.7h6.8
				c2.3,0,4.5,1.1,4.5,3.6c0,2.1-1.3,3.6-3.1,4.2l2.3,3.1c1,1.5,2.2,2.9,2.9,3.4v0.3h-2.4c-1.3,0-2.2-2.7-4.7-6.5h-1.8v3.9
				c0,1.7,0,1.7,1.9,1.9v0.6h-6.2v-0.6c1.9-0.2,1.9-0.2,1.9-1.9v-9.5c0-1.8,0-1.7-1.9-1.9V485.7z M1262.9,481.2
				c-6.3,0-11.2,5.7-11.2,12c0,6.4,4.9,12,11.2,12c6.1,0,11-5.6,11-12C1273.9,486.8,1269.1,481.2,1262.9,481.2 M1262.9,506.9
				c-7.5,0-13.3-6.1-13.3-13.7c0-7.6,5.8-13.7,13.3-13.7c7.4,0,13.2,6.2,13.2,13.7C1276.1,500.8,1270.3,506.9,1262.9,506.9"/>
			<g>
				<path class="st0" d="M519.9,509.5c26.3,0,46.2,17.6,46.2,46.3c0,27.6-18.7,50.4-46.9,50.4c-32,0-45.6-26.3-45.6-48.5
					C473.6,537.8,487.7,509.5,519.9,509.5z M522.6,601.1c10.5,0,31.6-6.1,31.6-41.8c0-29.6-16.5-45.1-34.9-45.1
					c-19.5,0-33.6,13.4-33.6,40.2C485.7,583.1,501.5,601.1,522.6,601.1z"/>
			</g>
		</g>
	</g>
	<g>
		<g>
			<path class="st0" d="M73.1,663.6h6.3l20.2,30.2l20.2-30.2h6.3v55.4h-6.3v-44.9l-20.2,29.7h-0.3l-20.2-29.6v44.8h-6.1V663.6z"/>
			<path class="st0" d="M170.3,663.2h5.9l25.3,55.8h-6.7l-6.5-14.6H158l-6.6,14.6H145L170.3,663.2z M185.7,698.8l-12.6-28.3
				l-12.7,28.3H185.7z"/>
			<path class="st0" d="M220.3,663.6h23.8c6.8,0,12.3,2.1,15.8,5.5c2.7,2.7,4.3,6.6,4.3,10.9v0.2c0,9.2-6.3,14.6-15,16.1l17,22.6
				h-7.7l-16.1-21.5h-15.8v21.5h-6.3V663.6z M243.5,691.9c8.3,0,14.2-4.3,14.2-11.4v-0.2c0-6.8-5.2-10.9-14.2-10.9h-17.1v22.5H243.5
				z"/>
			<path class="st0" d="M286,663.6h6.3v55.4H286V663.6z"/>
			<path class="st0" d="M316.4,663.6h5.9l34.9,44.4v-44.4h6.1v55.4h-5l-35.8-45.4v45.4h-6.1V663.6z"/>
			<path class="st0" d="M407.4,663.2h5.9l25.3,55.8h-6.7l-6.5-14.6h-30.2l-6.6,14.6h-6.4L407.4,663.2z M422.8,698.8l-12.6-28.3
				l-12.7,28.3H422.8z"/>
			<path class="st0" d="M503.7,669.4h-18.6v-5.8h43.5v5.8H510v49.6h-6.3V669.4z"/>
			<path class="st0" d="M542,691.5v-0.2c0-15.3,11.5-28.7,28.3-28.7c16.9,0,28.2,13.2,28.2,28.5v0.2c0,15.3-11.5,28.7-28.3,28.7
				S542,706.8,542,691.5z M592,691.5v-0.2c0-12.6-9.2-22.9-21.8-22.9s-21.7,10.1-21.7,22.7v0.2c0,12.6,9.2,22.9,21.9,22.9
				C583,714.2,592,704.1,592,691.5z"/>
			<path class="st0" d="M612.6,663.6h6.8l15.8,46.2l15.2-46.3h5.1l15.2,46.3l15.8-46.2h6.6l-19.8,55.8h-5.3l-15.2-45l-15.3,45h-5.2
				L612.6,663.6z"/>
			<path class="st0" d="M712.4,663.6h5.9l34.9,44.4v-44.4h6.1v55.4h-5l-35.8-45.4v45.4h-6.1V663.6z"/>
			<path class="st0" d="M812.1,691.5v-0.2c0-15.7,11.7-28.7,28-28.7c10.1,0,16.1,3.6,21.6,8.8l-4.3,4.6c-4.7-4.4-9.9-7.6-17.4-7.6
				c-12.3,0-21.5,10-21.5,22.7v0.2c0,12.8,9.3,22.9,21.5,22.9c7.6,0,12.6-2.9,17.9-8l4.1,4c-5.8,5.9-12.1,9.7-22.2,9.7
				C823.9,720,812.1,707.4,812.1,691.5z"/>
			<path class="st0" d="M880.9,663.6H921v5.7h-33.8v18.9h30.2v5.7h-30.2v19.4h34.2v5.7h-40.5V663.6z"/>
			<path class="st0" d="M941.9,663.6h5.9l34.9,44.4v-44.4h6.1v55.4h-5L948,673.6v45.4h-6.1V663.6z"/>
			<path class="st0" d="M1027,669.4h-18.6v-5.8h43.5v5.8h-18.6v49.6h-6.3V669.4z"/>
			<path class="st0" d="M1071.6,663.6h40.1v5.7h-33.8v18.9h30.2v5.7h-30.2v19.4h34.2v5.7h-40.5V663.6z"/>
			<path class="st0" d="M1132.6,663.6h23.8c6.8,0,12.3,2.1,15.8,5.5c2.7,2.7,4.3,6.6,4.3,10.9v0.2c0,9.2-6.3,14.6-15,16.1l17,22.6
				h-7.7l-16.1-21.5h-15.8v21.5h-6.3V663.6z M1155.9,691.9c8.3,0,14.2-4.3,14.2-11.4v-0.2c0-6.8-5.2-10.9-14.2-10.9h-17.1v22.5
				H1155.9z"/>
		</g>
	</g>
</g>
</svg>
