<?xml version="1.0" encoding="utf-8"?>
<!-- Generator: Adobe Illustrator 21.1.0, SVG Export Plug-In . SVG Version: 6.00 Build 0)  -->
<svg version="1.1" id="Capa_1" xmlns="http://www.w3.org/2000/svg" xmlns:xlink="http://www.w3.org/1999/xlink" x="0px" y="0px"
	 viewBox="0 0 1280 295.6" style="enable-background:new 0 0 1280 295.6;" xml:space="preserve">
<style type="text/css">
	.st0{fill-rule:evenodd;clip-rule:evenodd;fill:#4D4D4D;}
</style>
<g>
	<path class="st0" d="M328.5,192.3h29.6c11.6,0,16,4,16,13.8c0,9.4-4.4,13.4-16,13.4h-29.6V192.3L328.5,192.3z M282.6,291.1h45.9
		v-40.2h49.2c32.5,0,44.3-19.2,44.3-44c0-28.8-12-45.1-44.6-45.1h-94.7V291.1L282.6,291.1z"/>
	<polygon class="st0" points="437.1,161.9 560.6,161.9 560.6,193.4 483,193.4 483,210.7 555.1,210.7 555.1,242.2 483,242.2 
		483,259.6 560.6,259.6 560.6,291.1 437.1,291.1 437.1,161.9 	"/>
	<path class="st0" d="M625.7,192.3h29.6c11.6,0,16,4,16,13.8c0,9.4-4.4,13.4-16,13.4h-29.6V192.3L625.7,192.3z M579.8,291.1h45.9
		v-40.2h49.2c32.6,0,44.3-19.2,44.3-44c0-28.8-12-45.1-44.6-45.1h-94.7V291.1L579.8,291.1z"/>
	<path class="st0" d="M763.6,236.3c-22.5-3.8-31.7-18.3-31.7-36.4c0-33.5,29.5-42.5,67.2-42.5c51.8,0,73.1,15,74.7,42.3h-53.4
		c0-5.3-2.8-8.5-7-10.3c-4.1-2-9.3-2.7-14.3-2.7c-13.7,0-18.4,3.8-18.4,9.2c0,3.6,1.5,6,6,6.7l54.8,9c23.1,3.8,37.4,15.7,37.4,37.6
		c0,31.5-23.1,46.3-74.7,46.3c-35.3,0-73.9-5.4-74-43.4h55.3c0.2,4.3,1.6,7.2,4.9,9.2c3.4,1.8,8.5,2.7,15.6,2.7
		c14.3,0,18.2-4.3,18.2-10.5c0-3.8-2.1-7.6-8.3-8.7L763.6,236.3L763.6,236.3z"/>
	<polygon class="st0" points="893.9,161.9 939.8,161.9 939.8,291.1 893.9,291.1 893.9,161.9 	"/>
	<path class="st0" d="M1109.9,240.8c-2.9,17-8.1,30.8-19.5,40.2c-11.2,9.4-28.8,14.7-56.8,14.7c-27.8,0-79.4-2.2-79.4-69.1
		c0-67,51.6-69.1,79.4-69.1c27.7,0,70.3,4,76.3,55.2h-51.8c-1.3-9.2-6.8-22.6-24.6-22.6c-18.7,0-30.6,10.3-30.6,36.6
		c0,26.2,11.6,36.5,28.3,36.5c14.5,0,23.1-6.7,26.9-22.3H1109.9L1109.9,240.8z"/>
	<path class="st0" d="M1170,226.5c0-26.2,11.9-36.6,30.6-36.6c18.7,0,30.6,10.3,30.6,36.6c0,26.2-11.9,36.5-30.6,36.5
		C1181.9,263,1170,252.7,1170,226.5L1170,226.5z M1121.1,226.5c0,66.9,51.6,69.1,79.4,69.1c27.8,0,79.4-2.2,79.4-69.1
		c0-67-51.6-69.1-79.4-69.1C1172.7,157.4,1121.1,159.5,1121.1,226.5L1121.1,226.5z"/>
	<path class="st0" d="M213.3,163.2c3-62-50.5-131.8-123.4-140.4l0.1-0.8c71.8,0,126.9,66.5,126.9,119c-0.1,10.9-0.9,17.7-2.5,22.6
		L213.3,163.2L213.3,163.2z M208.9,171c-4.8,5.8-10.8,11.7-17.8,17.3c-13-74.5-67.7-139.7-106.4-158.7l-0.8,0.6
		c38.9,32,85.4,94,103.4,161c-8.6,6.4-18.6,12.2-29.7,17c-36.7-41.9-71-122.7-82-174l-1.1,0.3c0.2,49.8,35.6,134.3,78.7,175.5
		c-9.6,3.8-19.8,6.7-30.6,8.5c-41.3-16.4-70.7-68.8-70.7-122.5c0-35.1,10.7-56.7,12.8-61.2l-0.9-0.3C61.2,38.4,45.5,60,45.5,97.9
		c0,60.7,29.9,107.1,69.7,121.7c-13.6,1.5-27.9,1-42.6-2l-0.3,0.9c4.2,1.6,18.7,7.6,40.7,7.6c49.8,0,83.4-30.9,96.9-54.4L208.9,171
		L208.9,171z"/>
	<path class="st0" d="M108,0C70.3,0,26,27.2,26,52.1c0,9.6,8.8,17.8,27,17.8c42.3,0,81.6-29.1,81.6-51.7C134.7,6.3,123.3,0,108,0
		L108,0z M123,17.5c0,19.1-36.6,42.3-67.2,42.3c-13.5,0-20.8-5.3-20.8-14.1c0-19.3,37-42.2,65.7-42.2C119.5,3.5,123,13,123,17.5
		L123,17.5z"/>
	<path class="st0" d="M11,63.6c-1.1,1.8-5.3,10.2-5.3,18.7c0,15.8,16,30.5,45.3,30.5c56.5,0,121.8-41.6,121.8-80.2
		c0-17.3-16.4-26.7-27.8-28.7l-0.2,0.7c3.5,1.1,16.5,7.2,16.5,22.6c0,30.8-57.6,72.7-115,72.7c-22,0-35.8-10.8-35.8-26.6
		c0-5,1-8.3,1.3-9.2L11,63.6L11,63.6z"/>
	<path class="st0" d="M196.1,35.5c1.5,1.2,10.9,8.9,10.9,23.6c0,50-78.3,99.2-147.6,99.2C18,158.2-0.8,137.8,0,119.7h0.7
		c1.6,9.4,15,26.2,51.2,26.2c69.3,0,146.8-50.9,146.8-95.4c0-7.6-2.1-12.4-3.2-14.5L196.1,35.5L196.1,35.5z"/>
	<path class="st0" d="M222.3,82.2c0.3,1.1,2,5.9,2,13.3c0,55.6-79.3,103.2-148.2,103.2c-35.5,0-54-17.2-57.9-24.2l0.6-0.5
		c9.8,8.6,29.2,15.1,51.7,15.1c60.9,0,151.8-46.3,151-106.8L222.3,82.2L222.3,82.2z"/>
</g>
</svg>
