<?xml version="1.0" encoding="utf-8"?>
<!-- Generator: Adobe Illustrator 21.1.0, SVG Export Plug-In . SVG Version: 6.00 Build 0)  -->
<svg version="1.1" id="Capa_1" xmlns="http://www.w3.org/2000/svg" xmlns:xlink="http://www.w3.org/1999/xlink" x="0px" y="0px"
	 viewBox="0 0 816.2 720" style="enable-background:new 0 0 816.2 720;" xml:space="preserve">
<style type="text/css">
	.st0{fill:#545454;}
	.st1{fill:#FFFFFF;}
	.st2{fill:#4D4D4D;}
	.st3{fill:#999999;}
	.st4{fill:#313131;}
</style>
<g>
	<g>
		<g>
			<path class="st0" d="M268.2,388.2c0,0,0.1-0.1,0.1-0.1C268.3,388,268.2,388,268.2,388.2z M712.5,497.7l-6.5-64.2
				c-1.4-34.6-36.8-42.5-36.8-42.5l-39.7-2.9c-31-1.4-38.9,2.9-38.9,2.9c-0.7-6.5-80.8-5-80.8-5v-36.1L413.9,378l-0.7,18.7
				c-68.5,7.9-82.2,17.3-82.2,17.3c-10.1-3.6-67.1,11.5-67.1,11.5s3.8-34.5,4.3-37.4c-2.4,2.7-80.7,25.1-80.7,25.1
				c-17.3-15.9-142.8,45.4-142.8,45.4c-2.2,0-21.6,97.4-21.6,97.4l10.1-2.9L6.5,678c14.4-6.5,106-46.2,106-46.2l10.8-48.3l13.7-5
				l-6.5,44.7c0,0-2.9,8.7,0,2.2c2.9-6.5,164.4-50.5,164.4-50.5l5-47.6c7.2,48.3,54.8,36.1,54.8,36.1
				c111.1-28.8,320.9-15.9,320.9-15.9C723.3,545.3,712.5,497.7,712.5,497.7z"/>
		</g>
	</g>
	<path class="st1" d="M26.4,658.6l75.5-33.7l9.1-48.1l43.7-16.3l-7.2,47.1c0,0,85.1-28.4,134.1-40.4l6.2-48.6l28.8-5.3
		c0,0-10.1,45.7,26,40.4c0,0,81.2-13.5,93.3-13l1-6.7c0,0,3.8,8.2,23.1,3.4c0,0,164.9-9.6,209.1,0.5c0,0,32.7,7.7,29.8-30.3
		l-7.2-73.6c0,0-1.4-25-35.6-26l-46.2-2.9c0,0-15.4-0.5-18.7,4.8c0,0-8.7-8.2-23.6-5.3l-73.1,1.4l0.5-34.6l-66.8,21.6v20.2
		c0,0-68.8,7.7-71.2,10.6c0,0-11.1-2.4-24.5,11.1c0,0-15.9-9.1-33.7,1.4l-51,12.5l4.8-37.5l-66.3,21.6c0,0-1-8.7-26.9-2.9L54.8,473
		l-12.5,63.9l9.6-3.4L26.4,658.6z"/>
	<path class="st2" d="M209.6,123.5c0,0-9.6-1.4-10.6-4.3c-1-2.9-1.4-4.3-1.4-4.3s-7.2,0-2.9-5.8c4.3-5.8-16.3-6.2-16.3-8.2
		c0,0-14.9,0-12.5,6.2c0,0-10.6,1.9-4.8-7.7c0,0-27.9-1-33.2-15.4c0,0-25-14.9-30.3-13c0,0-26.4-1.4-14.4-6.2c0,0,18.7,9.6,10.1-1
		c0,0-14.4-11.1-13.9-3.4c0,0,3.4,8.7-7.7,8.2c-11.1-0.5-1-0.5-1-0.5s-9.1-8.2,0.5-3.8c0,0,5.8-0.5-5.8-10.1c0,0-6.7,12-4.3,15.4
		c0,0,8.2,4.8-2.4,5.3c0,0-6.7-1.4,7.2,10.6c0,0-5.3,11.5-10.1,10.1c0,0,7.7,2.4,7.2,5.8c-0.5,3.4,14.4,1.9,13,8.2
		c-1.4,6.2,5.3,6.2,9.1,3.8c3.8-2.4,8.2,19.2,20.2,16.3c12-2.9-8.2-8.7,6.7-7.2c14.9,1.4,11.1,3.4,17.8,1.4c6.7-1.9-0.5,5.8-0.5,5.8
		s40.4,29.8,51.9,26.9C192.8,153.8,209.6,123.5,209.6,123.5z"/>
	<path class="st2" d="M48.1,92.7l-5.3-7.2l-6.7,1.4c0,0-4.3,0.5-5.8-1.4c-1.4-1.9-1.9-2.9-3.4-3.4c-1.4-0.5-3.8-1-3.8-1l-5.8-1.4
		c0,0-3.4,0-4.8,0c-1.4,0-4.3,0.5-4.3,0.5l-2.9,1.4v4.8l1.4,1c0,0-1.4-1,1.4,0c2.9,1,4.8,1.4,4.8,1.4l4.3,1H25l1.4,0.5
		c0,0,0,2.4,1.9,2.4c1.9,0,3.4,0,3.4,0s2.9,0.5,4.8,0.5c1.9,0,5.3,0,5.3,0L48.1,92.7z"/>
	<path class="st2" d="M5.8,72.5L2.9,72c0,0-2.9-1-2.9,0.5c0,1.4,0.5,4.3,1.9,4.8c1.4,0.5,4.3,0.5,4.3,0.5l1.4-2.4L5.8,72.5z"/>
	<path class="st2" d="M47.1,77.3v-2.9c0,0,1-2.4-0.5-3.4c-1.4-1-1.9-1-3.8-2.9c-1.9-1.9-2.4-3.4-4.8-5.3c-2.4-1.9-2.9-3.4-4.8-4.8
		c-1.9-1.4,0.5-0.5-1.9-1.4c-2.4-1-3.4-0.5-3.4,1.4c0,1.9,1,5.3,1,5.3l1,2.9l1.4,0.5l1.4,1v2.9l1,3.4c0,0,0,0.5,1.4,0.5
		c1.4,0,1.9-1.4,4.3,0c2.4,1.4,3.8,1.4,3.8,1.4L47.1,77.3z"/>
	<path class="st2" d="M137,79.7l-1.4-1c0,0-1.4-0.5-4.3,0c-2.9,0.5-2.9,0.5-4.3,0.5c-1.4,0-0.5,1.4-1.4,0c-1-1.4-1.4-2.9-1.4-2.9
		s0.5-1.9,1-3.4c0.5-1.4,1.9-1.9,3.8-1.9c1.9,0,4.8,0,4.8,0l2.4,2.9l2.4,2.9L137,79.7z"/>
	<path class="st2" d="M182.7,94.6l-1,1.4l2.4,1.4c0,0,3.8,2.4,3.8,1c0-1.4,0-2.9,0-2.9L182.7,94.6z"/>
	<path class="st2" d="M67.3,484.5l48.1-20.2l-1.9,15.4l20.2-25l30.8-9.6c0,0,20.2-5.8,14.4,12.5c-5.8,18.3-10.6,64.4-10.6,64.4
		s1,15.4-18.3,23.1l-52.9,22.1l-8.7,48.1l-43.3,17.3l26.9-124l-10.6,3.8L67.3,484.5z"/>
	<polygon class="st2" points="181.7,484.5 228.8,470.1 214.4,571.1 165.4,586.4 169.2,559.5 177.9,557.6 186.5,510.5 176.9,513.4 	
		"/>
	<polygon class="st2" points="194.2,446.1 233.6,433.6 229.8,464.3 192.3,475.9 	"/>
	<path class="st2" d="M239.9,465.8l39.4-10.6l-1,11.5l16.3-14.4l23.1-5.8c0,0,11.5-2.9,11.5,8.7c0,11.5-2.9,39.4-2.9,39.4l-39.4,9.6
		l1.9-23.1l-12.5,1.9l-7.7,73.1l-41.3,10.6L239.9,465.8z"/>
	<path class="st2" d="M371.9,468.4v-9.1l15.7-2.9v14.8l-33.3,5.2c0,0-20.5,1.4-21,19.1l-2.9,35.7c0,0-1.4,8.1,11.4,9l23.3-4.3
		c0,0,4.3,0.5,17.6-14.3l1,9.5l38.1-3.8l3.8-84.8c0,0,4.3-13.3-14.8-13.3l-55.7,9.5c0,0-16.7,3.8-17.1,18.1l-1,17.6L371.9,468.4z"/>
	<path class="st2" d="M442.4,404l38.6-12.9l-0.5,31.4l13.8-1v26.2l-13.8,1.4v44.8l14.8-0.5l0.5,27.2l-42.9,3.3
		c0,0-11.9,1.9-13.3-9.5c-1.4-11.4,1-61,1-61l-10,0.5l-0.5-25.7l12.9-1.9L442.4,404z"/>
	<path class="st2" d="M537.6,452.2l-33.8,0.5v-22.9c0,0,1.9-9.1,10-9.5l62.9-1c0,0,11.4,2.4,11.4,12.9l3.3,86.7h-37.2v-11
		l-15.2,11.4h-26.7c0,0-9.5,0-10-9.1l-0.5-41.4c0,0,1.4-11,14.3-10.5l37.2-0.5v-15.7h-15.2L537.6,452.2z"/>
	<path class="st2" d="M645.3,456l33.3,3.3l-1.4-21.9c0,0,0-12.4-16.2-13.8l-51.4-2.4c0,0-13.3-1.9-13.8,11l1.4,30.5
		c0,0-2.4,10,14.8,14.8l35.7,10.5l0.5,11.9h-12.9l-1-12.9l-36.2-0.5l1,20c0,0,0.5,12.4,11.9,12.9l61.9,4.8c0,0,14.8,2.4,11.9-14.8
		l-2.4-27.6c0,0,0-10-15.2-13.8l-34.3-12.4l-1.4-11.4l12.9,1.4L645.3,456z"/>
	<polygon class="st1" points="539.5,477.9 552.9,477.4 553.8,494.5 540,495 	"/>
	<polygon class="st1" points="370.9,493.6 385.7,491.7 385.2,509.8 370.4,511.7 	"/>
	<polygon class="st1" points="112.5,491.3 137,481.9 130.5,528 103.8,536.7 	"/>
	<path class="st2" d="M533.5,300.6c0,0,7.8,4.2,12.9,1.4c0,0,15.7,10.1,17.1,14.3c0,0-1.8,1.4,23.1,4.2c0,0,20.3,5.1,15.7,10.1
		c0,0,8.3,7.8,22.1,5.5c13.8-2.3-1.4-0.5-1.4-0.5s16.1,0.9-6.9-13.8c0,0-5.1-3.7,1.8-2.8c0,0,18.9-1.8,2.3-6.5c0,0-8.8,0.9-4.6-4.6
		c0,0,12-0.5,1.8-5.1c0,0-3.7-1.8-5.1,4.6c0,0-10.1-3.7-6-10.6c0,0-0.9-12.5-9.7-2.8c0,0,0.9,13.4-2.8,5.1c0,0-2.8-19.4-31.4-23.5
		L533.5,300.6z"/>
	<path class="st2" d="M590.7,281.6c0,0,7.4,4.6,8.8,2.8c1.4-1.8-0.5-9.2-3.7-6.9C592.5,279.8,590.7,281.6,590.7,281.6z"/>
	<path class="st2" d="M652.5,344.8c0,0,17.5,2.8,9.2-7.8c0,0-10.1-10.6-12-8.8c0,0-3.7,5.1-1.4,10.1
		C648.3,338.4,650.2,344.4,652.5,344.8z"/>
	<path class="st2" d="M634,321.8c0,0,12.9,6,0.9,6c-12,0,0.9-2.8,0.9-2.8L634,321.8z"/>
	<path class="st2" d="M195.7,314.3c0,0-18.3,11.5-21.2,11.5c-2.9,0-11.5,15.4-26.9,17.3c0,0-5.8,17.3-36.5,14.4
		c0,0,13.5,10.6,0,13.5c0,0-4.8-7.7-11.5-5.8c0,0,0.9,10-4,10.2c0,0-2.9,0.7-2.2-7.9l-3.1,0.2c0,0-4.7,3.8-4.7,5.9
		c0,0-8.5-1.8-3.2-7.9c0,0,6.1-3.4,3.1-5.4c0,0-15.1,9-16.8,4.9c0,0-5.9-4.3,12.4-17.3c0,0,7.9-1.8,9.4-0.9c0,0,15.9-13.8,17.7-17.5
		c0.1-0.2,0.2-0.4,0.2-0.5c0-2.5,3.6-8.7,20.7-9c0,0,15.1-16,18.6-17.1c0,0,7.6-7.4,6.9-9.2c0,0-12.6-2.3-4.5-4.7
		c0,0,4.9,1.3,6.3,0.5c0,0,14.8-12.6,17.1-10.5c2.3,2.2,20.9,5.9,20.9,5.9l6.3,18.7L195.7,314.3z"/>
	<path class="st2" d="M129.1,362.2c-3.5,3.5-2.9,4.1-4.7,5.8c0,0-2.3,5,4.3,3.1c0,0,1.9-2.1,1.9-3.4c0-0.2,0-0.4-0.1-0.5
		c-0.7-1.3,0.7-4,0.2-4.1C130.7,362.9,129.6,361.6,129.1,362.2z"/>
	<path class="st2" d="M68.7,373.5c0,0,2.3,2.3,4,1.8c1.6-0.5-2.3,4.9-3.8,4.3c-1.4-0.5-2.7-4.5-1.6-4.5S68.7,373.5,68.7,373.5z"/>
	<path class="st2" d="M45.1,379.3c0,0,5.2-4.1,9.2-0.7c0,0,4.3,4.1,6.9,3.8c0,0,3.6,7.4-14.2,7.4C46.9,389.8,37.9,385.6,45.1,379.3z
		"/>
	<path class="st2" d="M428.4,113.4c0,0,68.3-47.1,70.2-39.4c0,0-1,5.8,5.8-1.9c6.7-7.7-5.5-4.1,9-9.9c0,0,0.9-4.6-3-5.8
		c0,0-5.7-7.4,9.6-8.6c0,0,15.2,3.1,17.3-7.4c0,0,4.6,4.6,8.6-0.8c0,0,6.1-3.3,9-2.2c2.8,1.1,0.5-0.2,0.5-0.2s6.1-10.4,6.4,0.9
		c0,0.2,0,0.3,0,0.5c0.2,12.1,1.3,7.7,1.7,7.9c0.5,0.2,0-0.3,0-0.3s10.7-0.8,14-2c0,0,6,0.8-1.4,7.9c0,0,9.6-0.3,8,5.7
		c0,0,9.9,6.8,3.6,7.5c0,0-6.9,2.4-7.5,1.1c0,0,4.4-3.8,4.4-4.6c0,0,0.5-5-5.3-1.4c-5.8,3.6,0,0.5,0,0.5s-7.9,3.8-1.6,9.9
		c0,0,8.2,1.7,0.2,6.4c0,0-5,5.7-11.6,4.7c0,0-4.2-1.1,8.2-9.1c0,0,1.1-6.3-5.3-0.3c0,0-10.9,15.6-17.1,15.9c-0.1,0-0.2,0-0.3,0
		c-6.1-0.3-5.5,12.7-19.2,7.2c0,0-20,9.4-27.3,20.6c0,0-3.3-7.9-5.8-3.6c0,0-4.2,3.1,0.6,7.4c4.9,4.2-1.9,2.4-2.2,4.4
		c-0.3,2-11,7.2-11,7.2s-19.5,4.6-20.3,4.6c-0.8,0-18.7-1.7-20.6-2c-1.9-0.3-9.9-4.9-11-6.6c-1.1-1.7-6.6-13.7-6.6-13.7L428.4,113.4
		z"/>
	<path class="st2" d="M535.6,101.8c0,0,0,5.5-6.7,8.7c-6.7,3.1,8.2,3.6,9.6,0.2C538.4,110.7,543.3,101.1,535.6,101.8z"/>
	<path class="st2" d="M566.3,24.4c0,0-7.9,13,4.1,6c0,0,15.6-14.7,19-16.6c0,0,12.3-9.1,2.6-13.2c0,0-6-4.3-13.2,9.4
		C578.8,10,566.3,22.5,566.3,24.4z"/>
	<path class="st2" d="M600.5,2.8c0,0,3.6,0.2,3.6,2.4c0,2.2-0.7,3.8-2.2,3.1c-1.4-0.7-3.8-3.1-2.6-3.1
		C600.5,5.2,599.3,2.1,600.5,2.8z"/>
	<path class="st2" d="M589.2,31.2c0,0-13,6.5-13,6.7c0,0,1.7,6.2,8.9,4.3c0,0,9.4-2.6,10.1-1.7c0,0,11.3-5,6.5-7.7
		C601.7,32.9,589.2,35.3,589.2,31.2z"/>
	<path class="st0" d="M309.1,72c0,0,89.4-6.7,134.6,52.9c0,0,13.5-2.9,20.2,3.8c0,0,44.2-15.4,77.9,17.3c0,0,13.5,17.3,14.4,20.2
		c0,0,5.8,11.5,17.3,1c0,0,86.5-39.4,86.5-43.3c0,0-53.8,96.2-57.7,99c0,0,17.3,1,22.1-1c0,0-45.2,45.2-58.7,54.8
		c0,0-46.2,51.9-99,34.6c0,0-16.3,15.4-21.2,12.5c0,0-35.6,51-112.5,51c0,0-70.2,3.8-128.8-47.1c0,0-38.5-41.3-48.1-78.8
		c0,0-1.9-22.1,6.7-36.5c0,0-4.8-6.7,2.9-21.2c0,0-13.5-21.2,22.1-52.9c0,0,10.6-10.6,12.5-8.7C200.5,129.7,215.9,82.6,309.1,72z"/>
	<path class="st1" d="M439.9,140.3c0,0,14.4-2.9,23.1,2.9c0,0,47.1-14.4,68.3,13.5c0,0,14.4,21.2,17.3,23.1c0,0,13.5,15.4,36.5-1.9
		l39.4-20.2c0,0-32.7,64.4-40.4,64.4c0,0-20.2,20.2-54.8,18.3c0,0-1.9,8.7,55.8,0c0,0-44.2,51.9-79.8,57.7c0,0-17.3,7.7-42.3-2.9
		c0,0-17.3,21.2-24,17.3c0,0-39.4,55.8-122.1,49c0,0-51,1-110.6-51c0,0-22.1-21.2-34.6-59.6c0,0-4.8-20.2,5.8-34.6
		c0,0-3.8-17.3,2.9-25c0,0-11.5-22.1,15.4-41.3c0,0,11.5-11.5,15.4-11.5c0,0,12.5-41.3,92.3-51.9C303.4,86.5,387,71.1,439.9,140.3z"
		/>
	<path class="st2" d="M462,154.2c12-5.8,30.8-3.8,30.8-3.8c26.9,0.5,40.4,27.9,40.4,27.9c9.6,12,16.8,14.9,16.8,14.9
		c14.4,10.6,45.2-8.7,45.2-8.7c-26,63-87,40.4-87,40.4c4.3,39.4,44.2,29.8,44.2,29.8c-48.1,54.8-93.7,28.4-93.7,28.4
		c-13.9,20.2-26.4,20.2-26.4,20.2c-51.4,68.3-144.7,40.4-144.7,40.4c-74-20.2-96.6-77.9-96.6-77.9c-16.3-32.7-0.5-48.6-0.5-48.6
		c-5.3-15.9,2.9-25,2.9-25c-12-30.3,11.1-34.1,11.1-34.1c6.2-9.6,15.2-11.8,15.2-11.8c7.8-31.6,64-45.1,64-45.1
		c112.4-22.3,150.1,51.8,150.1,51.8C449.4,144.9,462,154.2,462,154.2z"/>
	<g>
		<g>
			<path class="st3" d="M412.8,137.2c-1.8-4-6.5-4.7-6.5-4.7c-11.9,7.6-19.8,0.7-19.8,0.7c-9.7-4.7-7.2-18.4-7.2-18.4
				c-24.2-11.9-46.6-10.1-46.6-10.1c-1,14.2-14.2,13.5-14.2,13.5c-13,0.2-16.1-13-16.1-13c-23.8,0.7-38.9,9.6-38.9,9.6
				c0.7,6.2-2.2,8.4-2.2,8.4c-3.8,7-18.5,2.9-18.5,2.9c-4.1,1.7-10.8,9.9-10.8,9.9c14.4-1.9,18,8.7,18,8.7c5,12-4.8,19-4.8,19
				c-20.4,11.1-26.4-10.8-26.4-10.8c-1.9,0-6.5,6.2-6.5,6.2s-10.1-5.3,0.2,0.7c10.3,6,12.3,12.7,12.3,12.7
				c-8.2-6.7-15.1-7.5-15.1-7.5c-7-2.2-12.5,6.7-12.5,6.7c21.9,0.4,30.8,9,30.8,9c6.9,5,28.5,16.6,28.5,16.6
				c16.9,6.5,44.7-3.2,44.7-3.2c14.1-1.8,47.6-19.5,47.6-19.5c-1.4-7.2,7.6-14.8,7.6-14.8c10.5-6.5,22,0.7,22,0.7
				c5.8-4.7,28.5-5.4,28.5-5.4C401.7,144,412.8,137.2,412.8,137.2z M271.5,194.9c-8.2,0-14.8-6.8-14.8-15.1
				c0-8.4,6.6-15.1,14.8-15.1c8.2,0,14.8,6.8,14.8,15.1C286.3,188.1,279.7,194.9,271.5,194.9z M284.8,153c-8.8,0-15.9-7.3-15.9-16.3
				c0-9,7.1-16.3,15.9-16.3c8.8,0,15.9,7.3,15.9,16.3C300.7,145.8,293.6,153,284.8,153z M322.7,179c-8.2,0-14.8-6.8-14.8-15.1
				c0-8.4,6.6-15.1,14.8-15.1c8.2,0,14.8,6.8,14.8,15.1C337.5,172.2,330.9,179,322.7,179z M351.5,149.2c-9.6,0-17.3-7.4-17.3-16.5
				c0-9.1,7.8-16.5,17.3-16.5c9.6,0,17.3,7.4,17.3,16.5C368.9,141.8,361.1,149.2,351.5,149.2z"/>
		</g>
	</g>
	<path class="st3" d="M453.1,157.6c0,0,20.7,10.8-1.2,24.3c0,0-6.3-12.5-7.9-12C444,169.9,454.1,164.6,453.1,157.6z"/>
	<g>
		<g>
			<path class="st3" d="M539.6,195.4c0,0-16.3-17.5-22.6-27.2c0,0-4.3,11.1-18.7,5.3c0,0-8.9-3.6-6.7-17.1l-11.1,0.2
				c0,0-1.4,9.4-11.3,12.7c0,0,21.4,4.8,28.1,22.5c1.6-6,7.5-10.5,14.6-10.5c8.3,0,15,6.1,15,13.7c0,7.6-6.7,13.7-15,13.7
				c-3.4,0-6.5-1-9-2.8c1,3.2,1.8,6.7,2.2,10.2c0,0,12.5,8.4,30.8,6c0,0-2.4-13.7,10.6-17.3c0,0,13-1.4,16.3,8.9
				c0,0,10.1-6.5,14.7-12.7C577.4,201.1,552.6,208.1,539.6,195.4z"/>
		</g>
	</g>
	<g>
		<g>
			<path class="st3" d="M509.3,248.8c-2.5,2.6-6.1,4.3-10,4.3c-7.6,0-13.7-6-13.7-13.3c0-7.4,6.1-13.3,13.7-13.3
				c0.4,0,0.8,0,1.1,0.1c-0.8-8.1-3.2-19.4-9.5-30.4c-2.5,3.1-6.4,5.1-10.9,5.1c-7.5,0-13.6-5.5-13.6-12.4c0-4.3,2.4-8.1,6-10.3
				c-2.3-2-3.9-3.3-4.1-3.3c0,0-4.3,8.9-10.8,10.3c0,0,6.3,8.7,10.3,23.1c1.3-0.5,2.7-0.7,4.2-0.7c7.2,0,13.1,6.1,13.1,13.6
				c0,7.5-5.9,13.6-13.1,13.6c-0.3,0-0.6,0-0.9,0c-0.1,4.3-0.6,8.8-1.5,13.5c1.2-0.3,2.4-0.5,3.7-0.5c8.1,0,14.7,6.2,14.7,13.9
				c0,7.7-6.6,13.9-14.7,13.9c-4.4,0-8.4-1.9-11.1-4.8c-0.7,1.4-1.4,2.9-2.1,4.3c0,0,31,25.2,74.8-13.5
				C534.8,261.9,522.3,261.9,509.3,248.8z"/>
		</g>
	</g>
	<path class="st1" d="M391.6,163.5c0,0-1.1,10.1,0,10.1c1.1,0,22-9,22-7.6C413.6,167.5,414.6,161,391.6,163.5z"/>
	<path class="st1" d="M196.1,179c0,0-0.7,7.6,4.3,14.1c0,0-8.7,12.3-2.9,23.1c0,0,16.9-14.4,96.3,19.5c0,0,14.1,7.6,42.5-5.8
		c0,0,14.4-4.3,62.7-38.6c0,0,38.9-25.2,54.1,5.4c0,0,22.7,40.4-7.6,76.8c0,0-25.2,42.9-94.1,5.4c0,0-31.4-14.8-53.4-35
		c0,0-45.4-22.4-66-23.8c0,0-42.5-10.8-42.5,16.6c0,0,4.7,53.7,63.8,85.5c0,0,44,33.5,119,14.4c0,0,27.4-6.1,56.2-38.2
		c0,0,27-4,36.4-48.3c0,0,8.7-32.1-11.9-61.3c0,0-13.3-22.4-32.5-11.2c0,0-28.1,11.2-28.1,12.3c0,0-1.4-4,12.3-10.5
		c0,0,21.3-9.7,23.1-9.4c0,0-1.4-5-18.7,2.9c0,0-18.7,9.4-18.7,7.2c0,0,0.7,16.9-19.5,25.6c0,0-31,23.1-46.9,24.9
		c0,0-20.2,6.5-29.6-7.6c0,0-6.1-16.6-21.6-17.3c0,0-13.3,3.6-30.3-7.9c0,0-30.6-20.9-36.8-19.1C205.9,178.6,197.2,177.6,196.1,179z
		"/>
	<path class="st1" d="M404.9,193.8c0,0,10.1-3.6,11.2,8.3c0,0,6.1,30.3,5.8,32.8c0,0-6.8,5.8-32.4,10.1c0,0-8.3-24.9-6.9-24.9
		c0,0-5.8-9.7,9-18.7L404.9,193.8z"/>
	<path class="st1" d="M376.1,214.7c0,0-0.7-4-21.3,13.7c0,0-1.1,13.7,1.8,20.9c0,0,20.9,0.4,26.3-2.2
		C382.9,247.2,381.1,223.7,376.1,214.7z"/>
	<path class="st1" d="M322.3,246.8c0,0,14.8,3.6,29.2,3.6c0,0,0-21.6-9.4-17.3l-13,4.7C329.2,237.8,320.5,239.6,322.3,246.8z"/>
	<path class="st1" d="M427.6,232.7c0,0,19.8-14.8,20.9-19.1c0,0,2.9-9.4-4-13.7c0,0-7.6-6.1-14.4-9.4c0,0-9.4-4.3-9.4,7.6
		C420.8,198.1,425.1,229.1,427.6,232.7z"/>
	<path class="st1" d="M317.3,246.8c0,0-7.9-1.4-9-1.8c0,0,2.9-3.2,9-2.9V246.8z"/>
	<path class="st1" d="M455.4,235.6c0,0-1.8,27.8-25.6,45.8c0,0-8.7,4-10.1-13c0,0,1.4-20.6,4.3-26.3
		C424,242.1,451.4,232.4,455.4,235.6z"/>
	<path class="st1" d="M419,243.2c0,0-11.9,5.4-29.2,7.2c0,0-7.6,31-6.5,32.8c0,0-1.1,5,23.4,4C406.7,287.2,415,289.3,419,243.2z"/>
	<path class="st1" d="M356.6,253.6c0,0,25.6-0.7,27-2.9c0,0-0.4,29.6-9,31.7c0,0-5.4,3.2-18-7.9V253.6z"/>
	<path class="st1" d="M351.5,253.6c0,0,1.1,15.1-1.4,19.1c0,0-27.8-12.6-29.6-15.9l0.4-6.9C320.9,250,334.6,253.3,351.5,253.6z"/>
	<path class="st1" d="M317.3,249.3l-0.4,4c0,0-8.7-3.2-8.7-5.8C308.3,245,314.1,251.1,317.3,249.3z"/>
	<path class="st2" d="M253.1,205.7c0,0-6.5,7.6-14.4-1.4c0,0-14.8-14.8-17.3-14.8c0,0-9.7-4.3-18.4,0.4c0,0,12.6-2.5,19.1,6.5
		c0,0-13.3-1.1-18.7,7.2c0,0,12.6-4,18-2.5c0,0-1.8,7.6,5.4,8.7c0,0,2.9,1.8,6.1-3.6c0,0,5.8,7.6,10.8,7.6
		C243.7,213.6,251.7,215.8,253.1,205.7z"/>
	<path class="st4" d="M42.5,463.1"/>
	<path class="st4" d="M187.5,416.3"/>
	<polygon class="st1" points="137,481.9 130.5,528 103.8,536.7 112.5,491.3 	"/>
	<polygon class="st1" points="112.5,491.3 137,481.9 130.5,528 103.8,536.7 	"/>
	<path class="st0" d="M202.5,218.8c0.6,2.5,1,4.8,0.7,7.3c-0.4,3.2,4.5,3.7,5,0.5c0.4-3,0-5.8-0.7-8.7
		C206.6,214.8,201.7,215.7,202.5,218.8L202.5,218.8z"/>
	<path class="st0" d="M228.7,228c0-3.4,0.2-6.7-0.3-10.1c-0.4-3.2-5.4-2.3-4.9,0.9c0.4,2.9,0.2,5.8,0.2,8.8
		C223.7,230.8,228.7,231.2,228.7,228L228.7,228z"/>
	<path class="st0" d="M246.4,234.4c1.8-3.3,2.3-6.6,2.1-10.4c-0.2-3.2-5.1-2.3-4.9,0.9c0.1,2.2-0.1,4.6-1.2,6.6
		C240.8,234.3,244.8,237.2,246.4,234.4L246.4,234.4z"/>
	<path class="st0" d="M262.6,241.1c3.8-2.4,4.7-5.9,4.5-10.2c-0.2-3.2-5.1-2.3-4.9,0.9c0.1,1.8,0,3.8-1.7,4.8
		c-1.1,0.7-1.8,2-1.2,3.3C259.8,241,261.5,241.9,262.6,241.1L262.6,241.1z"/>
	<path class="st0" d="M281.5,248.8c2.4-3.3,4.3-6.4,4-10.6c-0.3-3.2-5.2-2.3-4.9,0.9c0.2,2.7-1.6,4.8-3.1,6.9
		C275.5,248.5,279.6,251.4,281.5,248.8L281.5,248.8z"/>
	<path class="st0" d="M298.9,258.3c4.3-1.5,4.5-6.6,4.5-10.5c0-3.2-5-3.7-5-0.5c0,1.9,0.6,5.7-1.6,6.5
		C293.7,254.9,295.9,259.4,298.9,258.3L298.9,258.3z"/>
	<path class="st0" d="M315.7,270.2c3.1-2.7,4.1-5.8,3.9-9.9c-0.2-3.2-5.1-2.3-4.9,0.9c0.1,2.2-0.5,3.7-2.2,5.2
		C310.1,268.5,313.3,272.3,315.7,270.2L315.7,270.2z"/>
	<path class="st0" d="M331.8,280.8c3-2.9,4.3-5.9,4.1-10.1c-0.2-3.2-5.1-2.3-4.9,0.9c0.1,2.3-0.8,3.9-2.5,5.4
		C326.2,279.2,329.4,283.1,331.8,280.8L331.8,280.8z"/>
	<path class="st0" d="M351.3,291c2.8-1.9,5-5.4,5.6-8.7c0.5-3.2-4.5-3.6-5-0.5c-0.3,2-2.2,4.3-3.8,5.4
		C345.4,289,348.7,292.8,351.3,291L351.3,291z"/>
	<path class="st0" d="M371.3,299.2c1.8-3.1,1.9-6.2,1.9-9.7c0-3.2-5-3.7-5-0.5c0,2.4,0.3,5.1-1,7.3
		C365.6,299.1,369.7,302,371.3,299.2L371.3,299.2z"/>
	<path class="st0" d="M393.2,305.6c2.4-3.3,1.9-7.1,1.9-10.9c0-3.2-5-3.7-5-0.5c0,2.7,0.7,6.1-1,8.5
		C387.2,305.3,391.3,308.2,393.2,305.6L393.2,305.6z"/>
	<path class="st0" d="M413.8,303.8c0.9-3,1.1-6,1.1-9.1c0-3.2-5-3.7-5-0.5c0,2.7,0,5.3-0.8,7.9C408.2,305.2,412.9,306.9,413.8,303.8
		L413.8,303.8z"/>
	<path class="st0" d="M433.8,295.2c0.2-2.1,0.2-4.2,0.2-6.4c0-3.2-5-3.7-5-0.5c0,2.1,0,4.2-0.2,6.4
		C428.5,297.9,433.4,298.4,433.8,295.2L433.8,295.2z"/>
	<path class="st0" d="M444.3,277.5c1.1,0.3,0.8,1.6,0.7,2.6c-0.3,3.2,4.7,3.7,5,0.5c0.3-3.2-0.5-6.8-4-7.8
		C443,271.9,441.2,276.6,444.3,277.5L444.3,277.5z"/>
	<path class="st2" d="M614.4,603.8c0,0-12.5,10.1-13.5,13.5c0,0-19.2,22.1-24,18.7c0,0-2.9-3.4,0.5-6.2c0,0,21.2-10.6,23.6-24.5
		c0,0,3.8-15.4-13.9-2.4c0,0-7.7,6.2-15.9,14.4c0,0-15.9,21.6-15.9,18.7c0,0,3.4-19.7,5.3-20.7c0,0,3.4-19.2-9.1-9.1l-7.7,6.3
		c0,0,2.4-14.9,6.7-17.3c0,0,4.3-11.5-7.2-13.5c0,0-8,1.8-6.1,13c0.1,0.5,0.2,1,0.3,1.5c2.9,12.5-3.8,20.7-5.3,21.6
		c0,0-29.3,30.8-32.2,30.3c0,0-13.5,13.5-9.1,0c0,0,5.3-16.8,12.5-22.6c0,0,10.6,5.8,10.6-3.4c0,0,2.4-11.5-5.3-14.4
		c0,0-5.3,0.5-12.5,12c0,0-29.3,36.1-35.6,35.6c0,0-7.7,6.7-4.3-5.3c0,0,29.8-15.9,25-29.8c0,0-4.8-9.1-24,11.5
		c0,0-13.9,14.9-9.6,29.8c0,0,6.2,9.6,20.7-3.8c0,0,11.1-9.1,13-11.5c0,0,1.4,21.2,15.4,13.5c0,0,28.8-24.5,32.7-30.3
		c0,0-5.8,28.8,1.4,22.6c0,0,1.4,4.8,6.2-10.6c4.8-15.4,0.5-1.4,0.5-1.4s10.6-23.6,13.9-25c3.4-1.4-3.8,14.9-2.9,15.4
		c0,0-5.3,20.2,2.9,18.8c0,0,8.2-6.2,14.9-14.4c0,0,2.4,16.3,13,8.2c0,0,29.3-19.7,30.8-26.9C610.1,615.8,617.8,608.6,614.4,603.8z
		 M592.8,605.7c-1,9.1-11.5,13.5-11.5,13.5C579.8,612.9,592.8,605.7,592.8,605.7z M472.1,628.8c-1,9.1-11.5,13.5-11.5,13.5
		C459.1,636,472.1,628.8,472.1,628.8z"/>
	<path class="st2" d="M214.2,674.4c-0.7,6.5-28.5,27.8-28.5,27.8c-7.9,7.6-5.4-4.3-5.4-4.3c19.1-8.7,26-23.4,26-23.4
		c4.3-16.9-13.7-5.8-13.7-5.8c-14.1,14.1-19.8,24.2-19.8,24.2c-4.7,22,7.6,19.5,7.6,19.5c16.9-4.3,37.9-33.2,37.9-33.2
		C224.6,667.9,214.2,674.4,214.2,674.4z M196.6,674.9c-1,9.1-11.5,13.5-11.5,13.5C183.6,682.1,196.6,674.9,196.6,674.9z"/>
	<path class="st2" d="M425,628.8c0,0-6.7-6.2-8.7-2.9c0,0-5.8,4.8-2.4,13.9l-2.9,2.9c0,0-17.3,23.1-19.2,20.7c0,0,3.4-23.1,5.3-23.1
		c0,0,6.7-4.8,0-9.1h-10.6c0,0-3.4,15.4-8.2,15.4c0,0-1.7,6.3-4.3,9.2c0.5-0.7,0.8-1.8,0.5-3.4c-0.5-2.4-1-8.7-1-8.7
		s6.2-7.7-0.5-7.7c0,0-10.6-3.4-10.6-1.4c0,0-2.4,13.9-5.8,14.4l-1.4,2.4c0,0-3.4-11.1-8.2-11.5c0,0-8.2,0-4.3,14.9
		c0,0-20.2,22.1-22.6,21.6c0,0-1.4-12,10.1-23.6c0,0-3.8-14.9-21.6-3.8c0,0-28.4,29.3-33.7,28.8c0,0-20.7,22.1-26,18.3
		c0,0-11.1,2.4,15.9-36.5c0,0,9.6-16.3,12-13.9c2.4,2.4,1,0.5,1,0.5s16.3,1.4,13-10.1c0,0-2.4-4.8,0-5.3c0,0-6.7-13.5-14.4,0.5
		c0,0-25,26-35.1,54.3c0,0-12,25,13,17.3c0,0,7.2-3.8,33.7-27.4c0,0-3.4,30.8,15.4,13l6.7-9.6c0,0,0,17.3,11.5,7.2
		c0,0,12.5-15.4,16.3-17.8l-1.9,13.9c0,0,0.5,11.5,6.7,2.9c0,0,18.8-36.5,21.6-36.1c0,0-7.2,25.5-4.8,26.4c0,0-1,11.1,6.7,2.4
		c0,0,7.2-14.9,9.1-13.5c0,0,12.5-19.2,13-17.3c0,0-2.9,19.2-4.8,19.2c0,0-3.8,13.9,5.8,10.1c0,0,19.2-23.1,19.7-23.6
		c0,0,1,13.5-2.4,15.9l0.5,2.9c0,0-6.2-1-8.7,7.2c0,0,0,3.8,5.8,1.4c0,0-1,21.6-4.3,22.6c0,0-3.4,8.2,5.8,3.4c0,0,6.2-31.3,9.1-32.2
		c0,0,31.7-29.3,36.1-47.1C450.9,626.8,448.1,620.6,425,628.8z M314.9,659c-1,2.9-17.8,25-17.8,25c-6.7-3.4,13.9-26,13.9-26
		C319.7,653.3,314.9,659,314.9,659z M437,637.4c-6.2,7.7-15.9,23.6-17.8,22.6c-1.9-1,5.3-19.2,5.3-19.2s8.7-5.8,9.1-4.3
		C433.6,636.4,443.3,629.7,437,637.4z"/>
	<path class="st2" d="M173.8,660.7c-5-10.5-7.6-1.1-7.6-1.1c-0.4,4.7-3.6,13-3.6,13c-9.4-8.3-24.2,16.6-24.2,16.6
		c-9.7,22-1.8,29.2-1.8,29.2c5.8,6.5,16.6-9,16.6-9v5.8c10.5,3.6,9.4-1.8,9.4-1.8c-6.5,5,10.1-43.3,10.1-43.3
		C178.5,664.3,173.8,660.7,173.8,660.7z M160.1,683.6c-1,2.9-17.8,25-17.8,25c-6.7-3.4,13.9-26,13.9-26
		C164.9,677.8,160.1,683.6,160.1,683.6z"/>
	<g>
		<polygon class="st0" points="788,366.5 768.7,386.2 740,381.1 754,406.7 739.6,430.3 768.5,426.2 787.8,446.5 789.8,419.5 
			816.2,406.3 790.9,393.5 		"/>
		<polygon class="st1" points="784.6,376.3 769.7,390.5 748.2,387 758.4,406.3 747.5,425.5 769.3,422.4 784.8,437.7 787.1,416.5 
			807.6,406.3 787.8,396.8 		"/>
		<polygon class="st2" points="782.1,383.4 772,394.5 755.5,392 762.8,406.5 754.7,420.3 771.4,417.6 782.1,428.9 783.6,413.4 
			798.6,406.3 782.5,398.9 		"/>
	</g>
	<g>
		<polygon class="st0" points="732.5,282.1 713.2,301.8 684.5,296.7 698.5,322.3 684.1,345.9 713,341.8 732.3,362.1 734.3,335.1 
			760.7,321.9 735.4,309.1 		"/>
		<polygon class="st1" points="729.1,291.9 714.2,306.1 692.7,302.6 702.9,321.9 692,341.1 713.8,338 729.3,353.3 731.6,332.1 
			752.1,321.9 732.3,312.4 		"/>
		<polygon class="st2" points="726.6,299 716.5,310.1 700,307.6 707.3,322.1 699.2,335.9 715.9,333.2 726.6,344.5 728.1,329 
			743.1,321.9 727,314.5 		"/>
	</g>
</g>
</svg>
