<?xml version="1.0" encoding="utf-8"?>
<!-- Generator: Adobe Illustrator 21.1.0, SVG Export Plug-In . SVG Version: 6.00 Build 0)  -->
<svg version="1.1" id="Capa_1" xmlns="http://www.w3.org/2000/svg" xmlns:xlink="http://www.w3.org/1999/xlink" x="0px" y="0px"
	 viewBox="0 0 766.4 720" style="enable-background:new 0 0 766.4 720;" xml:space="preserve">
<style type="text/css">
	.st0{fill-rule:evenodd;clip-rule:evenodd;fill:#999999;}
	.st1{fill-rule:evenodd;clip-rule:evenodd;fill:#4D4D4D;}
	.st2{fill-rule:evenodd;clip-rule:evenodd;fill:#FFFFFC;}
</style>
<g>
	<path class="st0" d="M254.3,282.4c3.1-1.9,5.3-4.8,7.4-7.6c0.7-0.9,0.9-1.9,1-3c2.7-35.8,19.3-63.8,47.6-85.3
		c5.7-4.4,12-7.8,18.8-10.1c6.6-2.3,13.2-3.3,19.8,0c1.7,0.8,1.8-0.5,2.2-1.4c3.4-6,8.6-9.1,15.4-9.5c4-0.2,8.1,0,12.2,0.3
		c8.8,0.6,17.5,1.7,26,4.3c0.2-0.5,0.5-0.8,0.5-1.1c2-10.7,8.5-17.9,17.9-22.7c5.9-3.1,12.3-4.6,18.9-4.9
		c9.8-0.4,18.4,8.4,18.3,18.5c0,3.5,0,3.5,3.3,3.4c7.2-0.2,14.2-1.8,21.2-3.3c2.4-0.5,4.6-0.6,6.9,0.5c2.5,1.2,5.1,2.1,7.5,3.4
		c7.7,4.4,10.7,11,8.7,19.6c-1.7,7.4-4.6,14.5-7,21.8c-1.4,4.2-2.8,8.4-4.2,12.5c-0.3,0.9-0.8,1.7-0.4,2.7c-0.5-0.2-0.6,0-0.4,0.4
		c0.1-0.2,0.2-0.3,0.3-0.5c3.6-3.1,6.3-6.6,7.4-11.4c2.2-9,3.8-18.2,7.6-26.8c11.1-25.2,28.3-44.8,53.1-57.4
		c10.9-5.5,22.6-8.1,34.9-7.8c18.8,0.6,28,16,29.5,27.6c1.2,9.5-0.7,18.5-4.7,27.1c-6,13-15.4,23.2-26.6,31.9
		c-10.7,8.4-22.5,14.8-35.2,19.6c-1,0.4-2,0.8-3.2,1.3c1.2,1.5,2.7,1.6,4.2,1.6c4.6,0.1,9-1,13.3-2.6c8.4-3.2,15.5-8.4,22.1-14.3
		c11-9.8,20.4-21.1,29.3-32.8c5.4-7,10.6-14.1,15.9-21.2c0.8-1,1.5-1.9,0.9-3.5c-4.6-13-2.6-25.6,2.6-38c3.7-8.9,9.4-16.3,17.6-21.6
		c7.2-4.7,15.1-6.4,23.6-4.3c13.3,3.3,20.3,16.1,15.9,29.2c-1.8,5.2-4.7,9.9-7.5,14.6c-0.8,1.4-1.7,2.8-2.6,4.5
		c2.5,1.2,4.7,2.3,6.9,3.5c4.8,2.4,9.4,5.2,13.5,8.7c8.6,7.3,13,16.7,13.6,27.8c1.2,22.8-7.9,41.4-23.9,56.8
		c-11,10.6-24.1,17.4-39.4,20c1.6,1.8,3.5,2.1,5.8,1.8c17-2.5,34-5.1,51-7.5c11-1.6,22-3,33-4.4c6.8-0.9,9.5,1.2,11,8.1
		c0.1,0.5,0.2,0.9,0.7,1.1c0,0.7,0,1.4,0,2.1c-20.1,9.1-38.5,20.9-55.5,35c-7.3,6.1-14.3,12.7-21,19.5c-1.3,1.3-1.5,2.6-1.5,4.4
		c0,5.6,2,9.8,6.1,13.8c3.1,3.1,6.4,6,9.6,9c11.3,10.2,19.6,22.5,23,37.5c1.5,6.5,3.7,12.8,4.4,19.5c0.5,4.9,1,9.7,0.7,14.6
		c-0.4,6.7-0.5,13.4-0.8,20c-0.7,13.6-4.9,26-11.8,37.5c-7.5,12.6-15.4,25-24.3,36.7c-0.6,0.8-1,2-2.5,2.2
		c-1.5-8.2-0.1-16.9-3.3-24.9c-1.6,0.3-2.4,1.4-3.4,2.2c-12,10-20.2,22.8-26.5,36.9c-6.5,14.6-10.3,30-12.4,45.8
		c-0.6,4.5-1,9-1.8,13.5c-2,11-7.5,20.3-15,28.4c-8.5,9.2-18.8,16.1-29.8,22c-2.7,1.4-5,3.1-7,5.4c-5.9,6.4-13,11.2-20.9,14.7
		c-1.9,0.8-3.2,0.8-4.8-0.6c-5-4.2-9.6-8.6-13-14.2c-0.8-1.2-1.5-2.2-3.2-2.5c-16.5-2.2-30.9-9.5-43.8-19.7
		c-1.8-1.4-3.8-2.3-5.9-3.2c-12.2-4.8-24.6-9.2-36-15.8c-7-4-13.5-8.6-19.3-14.2c-0.5-0.5-0.9-1.1-1.9-1.3c-0.5,4.9,1,9.6,0.5,14.4
		c-0.3,0.2-0.6,0.3-1,0.1c-8.1-3.9-16.2-7.6-23.9-12.1c-21.9-12.7-35.9-31.8-43.7-55.5c-4.1-12.3-6.3-25-6.6-37.9
		c0-0.9,0.2-1.9-0.4-2.9c-1.3-0.2-2.5,0.6-3.6,1.1c-5.6,2.6-10.4,6.3-14.7,10.6c-3.4,3.4-6.7,6.8-10.1,10.2c-1,1-1.8,2.3-3.1,2.7
		c-0.7-0.1-0.8-0.6-1-1c-5-14.5-8.4-29.3-8.2-44.8c0.3-22.9,4.5-45,14.4-65.9c1.7-3.5,2.4-7.2,3.1-11c1.5-8.6,3.6-17,7.3-25
		c0.2-0.5,0.5-1.1,0.6-1.7c0.1-0.2,0-0.5-0.1-0.8c-3.5-0.4-6.8,0.6-10.2,0.8c-1.4,0.1-1.5,1.3-1.8,2.3c-1.4,4.3-2.8,8.6-4.3,12.9
		c-7.9,23.3-20,44.1-38.1,61c-15.5,14.5-33.4,24.5-54.4,28.6c-16.9,3.4-33.5,2.6-49.2-5.4c-13.9-7-22.6-18.1-24.9-33.7
		c-1.5-10-0.1-19.7,2.9-29.3c7.4-24,23-41.1,44.8-53c2.2-1.2,4.6-1.9,6.5-3.6c0.3-0.1,0.7-0.1,1-0.2c-0.1-0.1-0.2-0.3-0.3-0.3
		c-0.4,0-0.7,0.1-0.6,0.6c-2.9-0.2-5.6,1.1-8.4,1.7c-16.5,3.3-27.6-8.7-29.7-20.2c-1.4-7.7-0.4-15.3,2.1-22.6
		c9-26.7,16.5-53.8,25.3-80.5c2.9-8.9,4.9-17.9,5-27.3c0-0.7,0-1.4,0-2.6c-1.1,1.1-1.3,2.2-1.6,3.2c-11.9,36.7-23.4,73.6-35.8,110.2
		c-12.8,37.8-36.2,67.7-70.6,88.5c-14.8,9-30.9,14.4-48.1,16c-11.2,1.1-22.2-0.1-32.5-5.1C17.1,392.5,8.7,381,4.9,366
		c-3.9-15.6-1.8-30.8,3.9-45.6c5.1-13.1,12.7-24.4,24.1-32.7c20.7-15.2,43-16.5,66.4-6.6c2.9,1.2,4.8,3.2,4.8,6.5
		c-0.1,3.5-1.1,6.7-4.5,8.4c-2,1-4.1,1.9-6,3.3c-4.1,2.9-7.1,6.7-8.2,11.7c-0.3,1.3-0.3,2.6-0.1,3.9c0.8,4.4,3.1,6.1,7.6,5.5
		c4.9-0.6,8.6-3.3,11.9-6.7c3.1-3.2,5.4-7,7.4-10.9c3.4-6.6,5.9-13.5,8.2-20.6c16.3-49.4,32.8-98.6,48.7-148.1
		c1.8-5.6,1.8-5.6-4.2-5.7c-17.5-0.3-35.1-0.6-52.6-0.9c-3.6-0.1-7.1,0.3-10.6,1.3c-8.3,2.5-11.9,8.2-11.4,16.7
		c0.4,6.7,2.7,12.9,6.9,18.1c2.1,2.7,3.2,5.3,1.5,8.5c-1.7,3.3-6,5.8-9.4,5.4c-14.5-1.9-27.8-6.6-39.2-16
		c-10.7-9-17.8-20.1-19.7-34.2c-1.9-13.8,2.4-25.7,11.7-35.8C50,82.9,60,78,70.8,74.5c10.4-3.3,21.1-4.8,32-5.7
		c13.4-1.1,26.9-2.2,40.3-3.3c10.1-0.8,20.2-1.6,30.3-2.4c13-1.1,25.9-2.2,38.9-3.3c10-0.8,20-1.6,30-2.5c10.3-0.9,20.7-1.7,31-2.6
		c9.8-0.8,19.5-1.6,29.3-2.4c13.2-1.1,26.4-2.3,39.6-3.3c7.9-0.6,15.7-1.4,23.2-3.9c14-4.6,26.1-12.2,35.5-23.7
		c3.5-4.3,6.5-8.9,8-14.3c1-3.3,3-5.3,6.1-6.4c0.4-0.2,0.9-0.2,1.1-0.7c1.2,0,2.4,0,3.6,0c0.1,0.2,0.2,0.5,0.3,0.6
		c14.9,7,24.8,19,32.5,33.1c5.4,9.9,8.5,20.5,7.9,31.9c-1.1,21.2-10.4,38.2-27.1,51.1c-11.1,8.6-23.9,13.2-37.7,15.3
		c-9.6,1.5-19.3,0.9-28.9,0.7c-27.9-0.5-55.8-1.2-83.7-1.8c-12.2-0.3-24.3-0.6-36.5-0.9c-3.8-0.1-6.7,1.4-8.8,4.4
		c-1.8,2.4-3.1,5.1-4,7.9c-4.4,13.4-8.7,26.7-13,40.1c-0.1,0.4-0.1,0.9-0.2,1.6c5.6-0.2,10.9,1.4,16.4,1.6c-0.1,0.3,0,0.4,0.3,0.4
		c0.1,0,0.2-0.1,0.2-0.2c-0.1-0.1-0.3-0.2-0.4-0.3c-0.7-2.4-2.3-4.4-2.9-6.9c-1.5-6.2-0.8-12.1,1.9-17.8c6.7-13.5,18-21.3,32.4-24.8
		c5.6-1.4,11.3-1.2,17,0.5c12.4,3.6,18.1,13.1,15.7,25.8c-1.2,6.3-4.1,11.7-8.4,16.3c-8,8.5-17.6,14.1-29.4,15.7
		c-0.3,0-0.7,0-0.8,0.2c-0.2,0.9,0.3,1.1,0.6,1.4c10.4,8.6,12.7,19.5,8.8,31.9c-3.4,10.8-7.3,21.4-11,32.1c-2.5,7.3-4.9,14.7-7.3,22
		c-0.2,0.3-0.4,0.6-0.1,0.8C253.9,283,254.2,282.7,254.3,282.4z M392.4,220.6c0.9-0.2,1.3-1,1.8-1.7c5.4-6.6,10.2-13.5,14.4-20.9
		c1.2-2.1,2.1-4.3,3.2-6.4c0.4-0.9,0.6-1.8-0.2-2.6c-2-2.2-3.4-4.8-5-7.5c-1.1,1.1-1.5,2.4-1.9,3.5c-4.6,11-8.2,22.4-12.2,33.6
		C392.3,219.3,391.9,220,392.4,220.6c-0.1-0.1-0.3-0.2-0.4,0.1c0,0.1,0.1,0.3,0.1,0.4C392.2,221,392.3,220.8,392.4,220.6z
		 M240.5,331.7c1.3,0.3,2.3-0.3,3.4-0.7c4.8-1.5,9.5-3,14.3-4.4c12.2-3.5,24.7-6.1,37.1-8.9c1-0.2,2.9,0,2.7-1.7
		c-0.2-1.4-1.8-0.7-2.7-0.8c-7.5-0.6-14.5-2.6-20.4-7.6c-2.3-2-2.3-2-4.4,0.2c-8.7,9.1-18.2,17.1-29.3,23.2
		C241,331.2,240.8,331.5,240.5,331.7c-0.3,0.1-0.6,0.2-0.9,0.3c0.1,0.1,0.3,0.3,0.4,0.3C240.4,332.3,240.6,332.1,240.5,331.7z
		 M630.3,225c-1.7,0.5-2.5,2.1-3.6,3.3c-13.7,14.4-28.9,26.7-47.5,34.2c-0.4,0.2-0.8,0.4-0.7,1.1c0.8,0,1.6,0.1,2.5,0
		c5.8-0.9,11.6-1.2,17.4-0.1c0.8,0.1,1.6-0.2,2.5-0.4c6.5-1.1,13-2,19.6-1.4c5.6,0.5,10.9-0.5,16-2.8c4.3-1.9,7.9-4.9,12.5-6.5
		c-1.2-1.2-2.5-1.2-3.6-1.6c-8.3-3.1-13.3-8.9-14.6-17.8C630.3,230.3,630.8,227.6,630.3,225c0.4,0.1,0.5-0.1,0.2-0.4
		C630.4,224.7,630.4,224.8,630.3,225z M686.4,138.8c2.2-3.6,4.3-7,6.4-10.5c2.4-4,4.9-7.9,6.4-12.4c3.6-10.3-1.6-19.8-12.2-22.2
		c-7.8-1.8-14.6,0.7-20.8,5.3c-14.5,10.8-22,35.9-15.1,52.4c1,2.4,0.6,4.1-0.9,6.1c-5.6,7.2-10.9,14.5-16.4,21.7
		c-9.4,12.4-19.2,24.4-30.9,34.7c-6.9,6.2-14.3,11.5-23,15c-5.8,2.4-11.9,3.6-18.2,3.1c-5.4-0.4-9.5-4.4-9.7-9.3
		c-0.1-1.3,0.2-2.1,1.6-2.3c0.6-0.1,1.1-0.4,1.7-0.6c15.6-5.1,29.8-12.7,42.4-23.3c9-7.5,16.5-16.2,21.4-27
		c3.6-7.8,5.6-15.9,4.1-24.7c-2.2-13.1-12-21.6-25.2-21.9c-10.6-0.2-20.7,2.1-30.1,6.8c-25.8,12.9-43.1,33.4-53,60.3
		c-2.6,6.9-3.8,14.3-5.5,21.5c-0.5,2.1-1.3,4.1-2.5,5.9c-4.6,6.9-10.5,12.3-17.2,17.1c-0.5,0.3-1,0.7-1.6,0.9
		c-1.5,0.5-2.4,0-2.3-1.6c0-1.8,0.6-3.5,1.2-5.2c2.5-7.2,5.1-14.4,7.5-21.6c2.6-7.7,5.2-15.4,7.6-23.1c1.3-4.3,1.5-8.8-2.1-12
		c-4.7-4.1-9.8-7.3-16.8-5.5c-8.4,2.2-17.1,3.3-25.9,2.6c-1.7-0.1-3.3-0.2-4.9-1.2c0-1.3,0.9-2.4,1.4-3.6
		c3.6-8.8-4.1-17.6-11.7-16.9c-2.3,0.2-4.5,0.3-6.7,0.9c-8.8,2.1-16.3,6.1-21.2,14.1c-5,8.2-4.2,16.3,2.3,23.3c0.3,0.4,0.6,0.7,1,1
		c1.6,1.2,1.7,2.7,0.9,4.4c-0.8,1.8-1.4,3.8-2.4,5.6c-8.6,16.6-19.8,31.2-34.1,43.3c-0.9,0.7-1.6,1.7-3.2,1.8
		c0.9-3.9,2.3-7.4,3.6-10.9c5.4-15.4,10.4-31,16.4-46.2c1-2.4,2.1-4.8,3.3-7.2c0.6-1.3,0.4-2-1-2.3c-0.5-0.1-0.9-0.3-1.4-0.4
		c-10.5-2.7-21.2-3.5-31.9-3.5c-6,0-10.4,3.2-12.3,9.1c-0.7,2.1-1.4,4.2-2.1,6.2c-1.4-0.1-1.8-1.1-2.5-1.8
		c-3.1-3.3-6.9-4.9-11.5-4.7c-2.9,0.2-5.7,0.8-8.4,1.8c-11.1,4-20.5,10.8-28.8,19c-19.8,19.6-31.6,43.1-33.5,71.2
		c-0.2,2.2-0.8,4.2-2.1,6c-4,5.8-9.1,10.4-15.4,13.6c-0.7,0.4-1.5,0.8-2.3,1c-2.3,0.6-3.4-0.3-3.3-2.7c0.1-2.3,0.8-4.5,1.5-6.6
		c5.1-15,10.2-30,15.3-45.1c1.7-5,3.9-9.8,5-14.9c1.6-7.2,0.8-14-4.2-19.9c-2.6-3.1-5.9-5.2-9.6-6.7c-5.4-2.2-11.1-3.8-16.8-5.1
		c-2.6-0.6-5.1-1.1-7.7-1.4c-2.7-0.4-2.8-0.3-3.2,2.4c-0.1,0.5-0.2,0.9-0.2,1.4c-0.4,8.5-2.6,16.7-5.3,24.8
		c-8.7,26.3-15.9,53-24.9,79.2c-2,5.9-2.8,12.1-2.3,18.3c0.8,9.3,8.5,19,20.2,18c5.9-0.5,11.4-2.4,16.9-4.6
		c16.4-6.6,29.2-17.8,40.7-30.8c0.8-0.9,1.3-2,2.3-2.5c0.8,0.2,1,0.8,1.2,1.3c2.9,5,7.3,8.1,12.7,9.9c3.7,1.2,7.4,1.7,11.3,1.6
		c2.6,0,5.2,0,8.2,0c-0.6,3.3-2.1,6-2.8,9c-0.7,2.7-2.2,4-5,4.6c-11.3,2.4-22.6,4.8-33.8,7.8c-15.3,4-30.2,8.9-44.1,16.6
		c-13.9,7.8-25.6,17.9-33.6,31.9c-6.9,12.1-11.1,25.1-10.6,39.2c0.4,11.4,4.9,21,13.8,28.4c9.9,8.2,21.6,11.5,34.1,12
		c21,0.8,40-5.8,57.2-17.5c21.2-14.3,35.8-34.1,45.9-57.3c4-9.2,6.8-18.8,9.9-28.3c0.6-1.9,1.5-2.9,3.6-3.1c5-0.4,9.9-1.2,14.9-1.7
		c1.3-0.1,2.2-0.7,2.8-1.8c1.5-2.6,3.3-5,5.4-7.1c4.2-4.4,9.2-7.4,15.5-9.2c-2.7,2.7-5.1,4.9-7.2,7.3
		c-10.2,12.4-17.2,26.4-19.9,42.2c-1.2,7-2.8,13.8-6.1,20.1c-1.4,2.7-2.4,5.7-3.4,8.6c-4.4,12.6-7,25.5-8,38.8
		c-1.1,14.9-0.5,29.6,4,43.9c0.3,1,0.2,2.4,1.6,3.1c0.7-0.6,1.3-1.2,1.9-1.7c3.3-3.4,6.7-6.8,10.5-9.8c5.8-4.5,12.1-8,19.4-9.7
		c3-0.7,3.2-0.5,3.2,2.3c0,4.8,0.1,9.5,0.5,14.3c1,11.6,3.3,22.9,7.4,33.8c5.8,15.5,14.6,28.9,27.4,39.6c8.1,6.8,17.5,11.6,27,16
		c0.1,0.1,0.4-0.2,0.7-0.3c0.4-7-0.9-14-0.3-21.1c0.6,0.2,0.7,0.5,1,0.8c8.7,11.7,19.7,20.7,32.4,27.7c10,5.5,20.6,9.3,31.2,13.5
		c3.4,1.3,6.5,2.9,9.3,5.1c12.4,9.7,26.1,16.7,42,18.6c2.1,0.2,3.4,1.3,4.5,3c3,4.6,6.4,8.9,10.5,12.7c1.6,1.5,2.9,1.6,4.8,0.6
		c5.3-2.9,10.3-6.2,14-11c3.1-4,6.8-6.8,11.2-9.1c10.3-5.5,19.8-12.1,27.6-20.8c7-7.8,12-16.6,13.3-27.2c1.2-9.8,2.5-19.6,4.8-29.3
		c4.1-17.6,10.5-34.2,20.7-49.2c6.4-9.4,14.3-17.2,23.5-23.9c1.9-1.4,2-1.4,3.3,0.6c2.1,3.1,3.5,6.5,4.2,10.2c0.3,1.8,0.7,3.6,1,5.4
		c1-0.4,1.4-1.1,1.7-1.7c5.1-8.1,10.5-16,15.3-24.2c5.4-9.1,9.4-18.8,10.4-29.5c1-10.1,1.4-20.2,1.5-30.4c0-1.2-0.3-2.4-0.3-3.6
		c-0.3-9.4-3.2-18.3-5.7-27.2c-3.9-13.8-12.2-24.9-23.5-33.8c-1.4-1.1-3-1.9-4.1-3.5c-2.2-3.1-4.7-6-7.6-8.5c-1.1-0.9-1.6-2-1.7-3.4
		c-0.3-3.7-0.8-7.3-1.3-11c-0.3-1.9,0.4-3.4,1.7-4.8c18.2-19.2,38.6-35.5,61.8-48.4c4.1-2.3,8.2-4.3,12.3-6.5
		c0.6-0.3,1.5-0.6,1.3-1.5c-0.2-0.8-0.7-1.5-1.7-1.7c-0.6-0.1-1.2,0-1.8,0.1c-9,1.2-18,2.3-26.9,3.6c-13,1.8-26,3.7-38.9,5.6
		c-4.8,0.7-9.7,1.4-14.5,2.2c-2.1,0.3-2.1,0.4-1.3,2.5c0.4,1,0.8,2,1.1,3c1.2,4.1,1.2,6.7-0.2,10.4c-0.6-1.5-1.1-2.8-1.6-4.1
		c-1-2.7-2.4-5.2-4.2-7.4c-3.9-4.7-8.8-7.1-15-6.8c-3.7,0.2-6.9,1.7-10,3.6c-7.7,4.9-16,7.3-25.2,6.5c-4.6-0.4-9,0.1-13.5,0.6
		c-3.2,0.4-6.3,1.6-9.6,0.9c-3.9-0.8-7.8-0.8-11.7,0c-4,0.8-7.8,0.3-11.6-0.9c-5.6-1.8-11.1-4.2-17.2-4.1c0.3-1,1-1,1.5-1.1
		c9.8-1.8,19.1-5.1,28-9.6c16.4-8.4,29.8-20.5,41.9-34.2c9.9-11.2,18.5-23.4,26.9-35.8c2.5-3.8,5.2-7.5,7.8-11.2
		c0.5-0.7,1-1.4,2-0.7c4,2.8,8.4,5.1,11.7,8.8c4,4.5,5.2,9.6,3.4,15.3c-2.7,8.7-8.5,14.9-16.8,18.4c-6,2.6-12.1,2.4-17.7-1.6
		c-2.1-1.5-3.9-0.9-4.8,1.5c-2,5.4-3.4,10.9-3.1,16.8c0.4,6.9,3.7,11.8,10.1,14.3c7.1,2.8,14.4,3.2,21.8,1.6
		c11.7-2.6,21.9-8.2,30.7-16.2c14.5-13.1,23.3-29.1,23.8-49.1c0.3-12.5-3.9-22.9-14.2-30.4c-5.1-3.8-10.8-6.5-16.5-9.2
		C690.2,140.9,688.2,140.1,686.4,138.8z M364.8,126.9c0,0.1,0,0.1,0,0.2c3.7,0,7.4-0.2,11.1,0c8.3,0.6,16.5-0.1,24.5-1.8
		c17.8-3.8,32.8-12.3,43.4-27.4C454,83.4,457.8,67.2,453,50c-3.9-14.1-11.9-26-22.8-35.8c-3-2.7-6.3-5.1-10-7
		c-3.2-1.7-4.4-1.1-5.7,2.1c-0.8,2.1-1.7,4.2-2.7,6.2c-6.7,12.6-16.9,21.7-29.2,28.7c-12.9,7.3-26.9,10-41.5,10.9
		c-9.6,0.6-19.3,1.5-28.9,2.3c-10.7,0.9-21.4,1.8-32.1,2.7c-9.4,0.8-18.8,1.5-28.2,2.3c-10.9,0.9-21.9,1.8-32.8,2.7
		c-6.7,0.5-13.3,1-20,1.6c-10.3,0.9-20.7,1.8-31,2.6c-10,0.8-20,1.6-30,2.4c-10.3,0.9-20.7,1.8-31,2.6c-7.7,0.6-15.5,1.2-23,2.9
		c-12.4,2.8-23.9,7.4-33.7,15.8c-16.3,14.1-19.1,36.8-6.3,54.1c11.2,15.3,27.4,21.7,45.4,24.4c1.8,0.3,3.1-0.6,4-1.9
		c0.9-1.3-0.5-2.2-1.1-3.1c-4.7-6.7-7.5-14-7.6-22.3c-0.1-11,5.4-18.2,16-21.3c5.1-1.5,10.4-1.4,15.6-1.4c16.6,0,33.2,1,49.8,0.9
		c2.1,0,4.1,0.3,6,1c3.8,1.3,5.2,4,4.2,7.8c-0.2,0.9-0.6,1.8-0.9,2.7c-10.8,33.1-21.7,66.2-32.6,99.3c-6.5,19.8-13.1,39.6-19.9,59.4
		c-2.9,8.4-6.7,16.3-12.4,23.3c-3.6,4.4-8,7.8-13.6,9.5c-2.5,0.7-5.1,1.4-7.7,0.9c-6.3-1.2-10.4-7.3-9.7-14.3
		c0.7-6.5,3.7-11.7,8.7-15.9c2.5-2.1,5.3-3.7,8.2-5c1.4-0.6,1.9-1.8,1.9-3.2c0-1.2-1.2-1.4-2-1.8c-22.1-9.8-46.7-6.8-64.5,10.3
		c-17.8,17.2-25.2,38.5-22.1,63.1c2.8,21.4,17.7,38,43.1,39.3c18.5,1,35.6-4.3,51.8-12.8c14.7-7.7,27.5-18.1,38.6-30.5
		c15.4-17.1,27.1-36.3,34.2-58.2c13.4-41.2,26.7-82.4,40-123.5c3.6-11,7.1-22,10.8-33c1.5-4.7,3.7-9,7.3-12.6c3-3,6.6-4.4,10.7-4.1
		c12.3,0.7,24.6,0.3,36.9,0.9c11,0.5,22,0.4,32.9,0.7C332.3,126.4,348.5,126.5,364.8,126.9z M295.9,158.1c0.3-6.9-2.3-11.5-7.8-14.2
		c-4.6-2.3-9.5-3.2-14.6-2.6c-10.6,1.3-19.5,6.2-26.6,14c-5,5.6-8.1,12-7.2,19.9c0.5,4.5,2.6,7.9,6.4,10.2c4.8,3,10.2,4,15.8,3.4
		c8.8-1,16.5-4.6,23.1-10.4C291.3,173,295.9,166.5,295.9,158.1z M654.2,209.8c1.1,0,2.1-0.1,3.2-0.4c5.3-1.3,9.2-4.5,12.3-8.7
		c6.9-9.5,4.8-15.1-3.3-20.4c-2.3-1.5-2.3-1.5-3.8,0.7c-5,7.1-9.9,14.3-14.9,21.4c-2.4,3.4-2.1,4.5,1.7,6.3
		C650.9,209.5,652.5,209.8,654.2,209.8z"/>
	<path class="st0" d="M331.5,719.3c0,0.2,0,0.5,0,0.7c-0.2,0-0.5,0-0.7,0C331,719.8,331.3,719.5,331.5,719.3z"/>
	<path class="st0" d="M367.3,720c0-0.3,0-0.5,0-0.8c0.2,0.3,0.5,0.5,0.7,0.8C367.8,720,367.6,720,367.3,720z"/>
	<path class="st0" d="M337.6,549.3c1.7,5.2,3.4,10.4,5.1,15.5c0.3,0.9,0.7,1.8,0.9,2.7c0.3,1.9,1.5,2.4,3.3,2.4
		c5.6-0.1,11.2,0,16.8,0c0.8,0,1.6-0.3,2.5,0.3c0.1,1.1-0.9,1.3-1.5,1.7c-4.4,3.3-8.9,6.5-13.3,9.7c-2.8,2.1-2.7,1.4-1.6,4.9
		c1.6,5.2,3.4,10.4,5.1,15.6c0.2,0.7,0.5,1.3,0.2,2.1c-1,0.1-1.6-0.7-2.3-1.2c-4.6-3.3-9.1-6.5-13.6-9.9c-1.4-1-2.4-1-3.8,0
		c-4.2,3.2-8.5,6.2-12.7,9.3c-1,0.7-1.9,1.3-2.9,2c-0.8-0.9-0.3-1.6,0-2.3c1.6-5.1,3.3-10.2,5-15.3c1.3-4.1,1.2-3.1-1.8-5.4
		c-4.4-3.3-8.9-6.5-13.3-9.7c-0.5-0.3-0.9-0.7-1.4-1c0.6-1.2,1.5-0.7,2.2-0.7c5.2,0,10.5,0,15.7,0c4.8,0,3.9,0.3,5.3-4
		c1.8-5.5,3.6-11.1,5.4-16.6C337.1,549.3,337.3,549.3,337.6,549.3z"/>
	<path class="st0" d="M172.8,652c0.8-0.8,1.8-0.4,2.7-0.4c4.9,0,9.8,0,14.7,0c5.3,0,4.1,0.4,5.8-4.3c1.6-4.5,2.9-9.1,4.4-13.6
		c0.3-1,0.7-1.9,1.2-3.2c1.5,2.9,2.1,5.7,3,8.4c1.2,3.4,2.3,6.8,3.3,10.2c0.5,1.9,1.5,2.6,3.5,2.6c6.3-0.1,12.6,0,19,0
		c0.4,1.3-0.7,1.5-1.2,1.9c-4.7,3.5-9.4,6.9-14.2,10.3c-1.4,1-1.7,1.8-1.1,3.5c1.9,5.5,3.6,11.1,5.4,16.7c0.2,0.7,0.7,1.3,0.2,2.3
		c-2.8-2-5.6-4-8.4-6c-2.5-1.8-5.1-3.6-7.5-5.5c-1.3-1-2.3-1.1-3.7,0c-4.8,3.6-9.6,7-14.5,10.5c-0.5,0.3-1,0.6-1.6,1
		c-0.3-1.3,0.3-2.2,0.6-3.2c1.6-5.1,3.3-10.2,5-15.3c0.8-2.6,0.8-2.7-1.5-4.4c-4.1-3-8.3-6-12.4-9.1
		C174.5,653.6,173.3,653.2,172.8,652z"/>
	<path class="st0" d="M159.2,627.6c-5.2-3.7-10.2-7.4-15.2-11c-2.6-1.9-2.6-1.9-5.1,0c-4.3,3.1-8.7,6.3-13,9.4
		c-0.7,0.5-1.3,1.4-2.7,1.3c1.8-5.6,3.7-11.1,5.4-16.7c1.4-4.7,2.3-3.6-2.2-6.9c-4.1-2.9-8.1-5.9-12.1-8.9c-0.6-0.5-1.5-0.7-1.6-1.8
		c1-0.6,2.1-0.3,3.1-0.3c5.2,0,10.5,0,15.7,0c2.9,0,2.9,0,3.8-2.7c1.5-4.5,2.9-9.1,4.4-13.6c0.5-1.5,1-2.9,1.5-4.5
		c1,0.5,1.1,1.5,1.3,2.3c1.7,5.3,3.5,10.6,5.2,16c0.6,1.9,1.5,2.6,3.5,2.6c5.5-0.1,11-0.1,16.5-0.1c0.9,0,1.8,0,2.8,0
		c-0.2,1.5-1.3,1.7-2,2.3c-4.1,3.1-8.3,6-12.4,9.1c-3.1,2.2-3.1,2.2-1.8,6c1.6,5.1,3.3,10.2,4.9,15.3
		C159.3,626,159.6,626.5,159.2,627.6z"/>
	<path class="st0" d="M367.4,719.3c-5.1-3.7-10.3-7.3-15.4-11c-3-2.2-2.3-2.1-5.4,0.1c-5,3.6-10,7.3-15,10.9
		c-0.4-1.2,0.2-2.3,0.6-3.5c1.7-5.1,3.2-10.2,5-15.3c0.6-1.9,0.4-3-1.3-4.2c-4.4-3-8.7-6.2-13.1-9.4c-0.8-0.6-1.8-1-2.6-2.5
		c2,0,3.6,0,5.3,0c4.5,0,9.1,0,13.6,0c3.2,0,3.3,0,4.2-3c1.9-5.9,3.8-11.8,5.8-17.7c1.3,0.1,1.1,1.1,1.3,1.8
		c1.8,5.4,3.7,10.8,5.3,16.3c0.6,2,1.6,2.6,3.6,2.6c6.3-0.1,12.6,0,19,0c0.2,1.3-0.8,1.5-1.4,1.9c-4.6,3.4-9.2,6.8-13.9,10.1
		c-1.7,1.2-1.9,2.3-1.3,4.1c1.8,5.1,3.4,10.2,5,15.3C367,717,367.6,718.1,367.4,719.3z"/>
	<path class="st0" d="M104.4,563.1c-2.5-0.9-4.4-2.8-6.5-4.3c-3.1-2.2-6.2-4.4-9.3-6.7c-1.4-1.1-2.4-1-3.7,0
		c-4.3,3.2-8.7,6.3-13,9.5c-1,0.7-2,1.3-3.3,2.3c0.3-2.7,1.3-4.9,2-7.1c1.2-4,2.4-8,3.9-11.9c0.7-1.8,0.3-2.8-1.2-3.9
		c-4.8-3.4-9.5-6.8-14.2-10.3c-0.5-0.4-1.4-0.5-1.3-1.8c4.5,0,9,0,13.4,0c1.9,0,3.8-0.1,5.7,0c2,0.2,3-0.6,3.5-2.5
		c1.6-5.4,3.4-10.7,5.2-16c0.3-0.8,0.6-1.6,1.1-3c1.4,4.2,2.6,7.8,3.8,11.5c0.9,2.6,1.8,5.2,2.5,7.8c0.5,1.7,1.3,2.2,3.1,2.2
		c6.1-0.1,12.2,0,18.3,0c0.4,0,0.9,0,1.4,0c-0.2,1.4-1.2,1.6-1.9,2.2c-4.4,3.3-8.8,6.6-13.3,9.7c-1.7,1.2-2.3,2.3-1.5,4.4
		c1.8,4.9,3.3,10,4.9,15C104.3,561,104.9,562,104.4,563.1L104.4,563.1z"/>
	<path class="st0" d="M435.2,625.5c-4.9,3.6-9.8,7.1-14.7,10.7c-2.8,2.1-3.1,1.4-1.8,5.5c1.6,4.9,3.1,9.7,4.7,14.6
		c0.3,0.9,0.9,1.7,0.4,2.7c-1.3,0-2.1-1.1-3-1.7c-4.3-3-8.6-6.1-12.7-9.2c-1.5-1.2-2.6-1-4,0.1c-4,3-8.1,5.9-12.1,8.9
		c-1,0.8-2.1,1.5-3.3,2.3c-0.7-0.9-0.2-1.6,0-2.4c1.6-5.1,3.3-10.2,4.9-15.3c1.2-3.6,1.4-3-1.9-5.4c-4.2-3.1-8.5-6.2-12.7-9.3
		c-0.7-0.5-1.4-0.8-1.9-1.7c0.7-0.9,1.7-0.4,2.6-0.4c5.5,0,11-0.1,16.5,0c2.1,0,3.2-0.5,3.8-2.7c1.6-5.5,3.5-10.9,5.3-16.3
		c0.2-0.5,0.2-1.2,0.8-1.6c1.1,0.2,0.9,1.2,1.1,1.9c1.8,5.4,3.7,10.8,5.3,16.3c0.6,1.9,1.5,2.4,3.3,2.4c6.4-0.1,12.8,0,19.2,0
		C435,625,435.1,625.2,435.2,625.5z"/>
	<path class="st0" d="M187.5,548c-1,0.2-1.5-0.6-2.2-1.1c-4.2-3-8.3-6-12.5-9c-4-2.9-2.8-2.6-6.6,0.1c-3.8,2.7-7.5,5.5-11.3,8.2
		c-0.9,0.7-1.9,1.3-2.9,2c-0.8-1.2,0-2,0.2-2.8c1.7-5.2,3.3-10.5,5.1-15.6c0.7-1.9,0.3-3-1.4-4.1c-4.3-3-8.5-6.1-12.7-9.2
		c-0.9-0.7-2.1-1.1-2.8-2.7c3.1,0,6,0,9,0c3.3,0,6.7,0,10,0c3.1,0,3.1,0,4.1-3.1c1.7-5.2,3.4-10.4,5.1-15.6c0.2-0.6,0.2-1.4,1.2-2
		c0.4,1,0.7,1.9,1,2.9c1.6,5,3.3,10,4.9,14.9c1,2.9,1,3,4.2,3c5.2,0,10.5,0,15.7,0c0.9,0,1.9-0.3,2.9,0.3c-0.4,1-1.3,1.4-2,1.9
		c-4.2,3.1-8.5,6.2-12.7,9.3c-2.8,2-2.8,2-1.7,5.5c1.5,4.8,3.1,9.5,4.6,14.3C187.3,546,187.9,547,187.5,548L187.5,548z"/>
	<path class="st0" d="M93,477.2c-0.4-1.1,0.2-2.1,0.5-3.1c1.7-5.1,3.3-10.2,5-15.3c0.7-1.9,0.3-3-1.4-4.2c-4.5-3.1-8.9-6.4-13.3-9.6
		c-0.7-0.5-1.7-0.9-2.1-2.2c3.6,0,7,0,10.4,0c3.1,0,6.2-0.1,9.3,0c1.8,0.1,2.5-0.6,3-2.2c1.9-6.1,3.9-12.2,5.9-18.3
		c1.3-0.1,1.2,1,1.4,1.7c1.9,5.5,3.7,11.1,5.4,16.7c0.5,1.7,1.3,2.2,3,2.2c5.5-0.1,11,0,16.5,0c1,0,2,0,3.1,0
		c0.1,0.2,0.1,0.4,0.2,0.6c-1.7,1.2-3.4,2.5-5.1,3.7c-3.4,2.5-6.8,4.9-10.1,7.4c-2.5,1.8-2.5,1.8-1.6,4.6c1.7,5.3,3.5,10.7,5.2,16
		c0.2,0.6,0.5,1.1,0.2,2c-0.8,0.1-1.4-0.5-2-0.9c-4.2-3-8.3-6-12.5-9c-4.2-3.1-2.9-2.7-6.9,0.1c-4,2.8-7.9,5.7-11.9,8.6
		C94.6,476.3,94,477.1,93,477.2L93,477.2z"/>
	<path class="st0" d="M268.5,662.7c-0.4-1.1,0.2-2.1,0.5-3.1c1.6-5,3.2-10,4.8-15c0.9-2.9,0.9-2.9-1.5-4.7c-4.1-3-8.3-6-12.4-9.1
		c-0.9-0.7-1.8-1.4-3.4-2.7c2.4,0,3.9,0,5.3,0c4.9,0,9.8-0.1,14.7,0.1c2,0.1,2.9-0.6,3.5-2.5c1.5-5.1,3.3-10.2,4.9-15.3
		c0.3-1,0.7-1.9,1.2-3.2c1.3,2,1.6,3.9,2.2,5.7c1.4,4.1,2.6,8.2,4,12.2c1.2,3.5,0.6,3.1,4.5,3.1c6.1,0,12.2,0,18.2,0
		c0.3,1.3-0.7,1.4-1.3,1.8c-4.6,3.4-9.2,6.8-13.9,10.1c-1.7,1.2-2,2.3-1.4,4.2c1.9,5.5,3.7,11.1,5.5,16.6c0.1,0.4,0.2,0.9,0.3,1.6
		c-1.1,0.2-1.6-0.5-2.2-0.9c-4.3-3.1-8.7-6.3-13-9.4c-3.2-2.3-2.6-2.2-5.5-0.1c-4.2,3.1-8.5,6.2-12.7,9.2
		C270.2,661.8,269.5,662.6,268.5,662.7L268.5,662.7z"/>
	<path class="st0" d="M193.4,575c1.1-0.8,2.1-0.5,3-0.5c5.3,0,10.5,0,15.8,0c3.2,0,3.2,0,4.2-3c1.6-4.9,3.2-9.7,4.8-14.6
		c0.4-1.1,0.7-2.2,1.1-3.3c1.2,0.6,1.1,1.7,1.4,2.5c1.7,5.2,3.6,10.4,5.1,15.6c0.6,2.1,1.5,2.8,3.7,2.8c5.7-0.2,11.5-0.1,17.2,0
		c0.6,0,1.1,0.1,2,0.1c-0.4,1.2-1.4,1.5-2.1,2c-4.3,3.2-8.7,6.3-13,9.5c-2.5,1.8-2.5,1.8-1.5,4.9c1.7,5.2,3.4,10.4,5.1,15.7
		c0.2,0.7,0.7,1.3,0.3,2.1c-1.1,0.1-1.7-0.7-2.4-1.3c-4.5-3.2-9-6.4-13.3-9.7c-1.6-1.2-2.8-1.2-4.4,0.1c-4.1,3.1-8.3,6.1-12.4,9.1
		c-0.9,0.7-1.7,1.6-3,1.8c-0.5-1,0.1-1.9,0.4-2.8c1.7-5.1,3.3-10.2,5-15.3c0.9-2.7,0.9-2.7-1.5-4.4c-4.3-3.2-8.7-6.3-13-9.5
		C194.9,576.2,194.2,575.6,193.4,575z"/>
	<path class="st0" d="M10.7,499.2c0.4-2.8,1.5-5.3,2.3-7.8c1.1-3.7,2.2-7.3,3.6-10.9c0.7-1.9,0.2-2.8-1.3-3.8
		c-4.4-3.1-8.7-6.3-13-9.4c-0.8-0.6-1.5-1.1-2.3-1.7c0.5-1.2,1.4-0.7,2.2-0.8c5.6,0,11.2-0.1,16.8,0c2.1,0.1,3-0.7,3.6-2.6
		c1.6-5.2,3.4-10.4,5.1-15.6c0.3-0.9,0.6-1.8,1.1-3c1.2,1.4,1.3,2.9,1.8,4.3c1.6,4.6,3,9.3,4.5,13.9c1,2.9,1,2.9,3.9,2.9
		c5.6,0,11.2,0,16.8,0c0.6,0,1.1,0.1,1.8,0.1c-0.1,1.3-1.1,1.6-1.8,2.1c-4.4,3.3-8.8,6.5-13.3,9.6c-1.7,1.2-2,2.2-1.3,4.2
		c1.8,5,3.4,10.2,5,15.3c0.3,1,0.6,2,1.1,3.8c-3.1-2.2-5.5-3.9-7.8-5.7c-2.7-2-5.4-4-8.1-5.9c-2.7-1.9-2.1-2-4.9-0.1
		c-4.4,3.1-8.7,6.3-13,9.4C12.6,498.3,11.9,499,10.7,499.2z"/>
	<path class="st0" d="M292.2,547.3c-4.9-3.6-9.8-7.1-14.8-10.7c-3.4-2.4-2.6-2.3-5.7-0.1c-4.9,3.5-9.8,7.1-14.9,10.7
		c-0.7-1-0.1-1.7,0.1-2.3c1.7-5.5,3.4-10.9,5.3-16.3c0.7-2,0.3-3-1.4-4.1c-4.4-3.1-8.7-6.3-13-9.4c-0.7-0.5-1.7-0.9-2.1-2.1
		c0.9-0.5,1.8-0.3,2.7-0.3c5.4,0,10.7,0,16.1,0c2.9,0,2.9,0,3.7-2.7c1.7-5.2,3.4-10.4,5.1-15.6c0.3-0.9,0.5-1.8,1.3-2.9
		c1.5,4.6,2.9,9,4.4,13.4c0.9,2.6,0.8,5.9,3,7.4c2,1.4,5.1,0.4,7.7,0.4c3.7,0.1,7.4,0,11.1,0c0.8,0,1.6,0.1,2.7,0.2
		c-0.9,1.4-2,1.9-2.9,2.6c-4.2,3.1-8.5,6.2-12.7,9.2c-1.5,1.1-1.8,2.1-1.2,3.9c1.8,5,3.4,10.2,5,15.3c0.3,1,0.6,2,0.9,3
		C292.6,547,292.4,547.2,292.2,547.3z"/>
	<path class="st1" d="M733.4,332.6c-10.9-0.1-19.3-8.5-19.2-19.4c0.1-10.5,8.8-18.8,19.4-18.8c10.6,0,19.1,8.5,19.1,19.1
		C752.8,324.4,744.3,332.7,733.4,332.6z M733.3,329.8c8.8,0.1,15.7-6.8,15.9-15.9c0.2-9.2-6.7-16.5-15.5-16.6
		c-8.8-0.1-15.7,6.9-15.9,15.9C717.6,322.5,724.4,329.7,733.3,329.8z"/>
	<path class="st0" d="M187.5,548.1c0.3-0.1,0.4,0,0.3,0.2c0,0-0.2,0-0.2,0C187.6,548.2,187.6,548.1,187.5,548.1L187.5,548.1z"/>
	<path class="st0" d="M92.9,477.1c-0.3,0.4,0.3,0.2-0.2,0.2C92.6,477.4,92.6,477.2,92.9,477.1L92.9,477.1z"/>
	<path class="st0" d="M104.4,563.1c0.2-0.2,0.4-0.2,0.5,0.1c0,0.1-0.1,0.2-0.1,0.3C104.7,563.4,104.5,563.3,104.4,563.1L104.4,563.1
		z"/>
	<path class="st0" d="M268.5,662.7c-0.1,0.1-0.1,0.2-0.2,0.2C268.1,662.8,268.2,662.7,268.5,662.7L268.5,662.7z"/>
	<path class="st1" d="M550.8,36.2c4.2-0.6,7.9-0.7,11.6-0.2c2.5,0.3,3.2,0.9,5.2,3.5c3.8-2.6,7.9-4.2,12.5-4.8
		c2.1-0.2,4.1-0.1,6,0.5c3.6,1.2,5.8,3.7,6.2,7.5c0.5,4.3-0.8,8-3.3,11.4c-2.7,3.8-6.4,6.4-10.6,8.3c-1.1,0.5-2.4,0.5-2.8,1
		c-0.6,0.7-0.5,0.9-0.1,1c6.2,2,8,5.7,5.7,11.8c-2.4,6.3-5.1,12.6-7.5,18.9c-0.4,1-1.6,2.3-0.2,3.1c1.1,0.7,2.2-0.4,3.2-1.1
		c2-1.5,3.2-3.5,4.1-5.8c2.4-5.7,4.8-11.4,7.1-17.2c3.9-9.4,10.8-14.9,20.9-16.3c1.4-0.2,2.5-0.7,3.6-1.5c2.6-1.8,5.7-2.5,8.8-2.5
		c4.9-0.1,6.8,2.4,5.4,7.1c-0.2,0.6-0.4,1.1-0.6,1.8c4,0.6,7.3-0.8,10-3.1c4.3-3.7,9.1-5.5,14.6-6.1c1.3-0.2,2.5-0.5,3.7-1.2
		c2.9-1.9,6.2-2.4,9.6-2.3c4.3,0.2,6,2.4,5,6.6c-0.6,2.5-0.3,2.9,2.2,2.5c2.3-0.4,4.1-1.6,5.9-3.1c1.5,3.9,0.9,6-2.2,8.1
		c-2.1,1.4-4.6,2.1-7.1,2.3c-1.9,0.2-2.7,1-3.3,2.6c-2.7,6.6-5.5,13.2-8.3,19.8c-3.6,8.2-9.7,13.7-18.5,16.1
		c-3.8,1-7.6,1.2-11.3-0.3c-4-1.5-6-4.5-6.2-8.8c-0.1-2.9,0.7-5.7,1.8-8.3c2.5-5.8,5-11.6,7.5-17.4c0.3-0.6,0.5-1.3,0.8-2.3
		c-2,0.5-3.6,0.8-5.2,1.2c-1.4,0.3-1.6,1.7-2,2.7c-2.9,6.9-5.6,13.9-8.6,20.8c-4.1,9.4-11.3,15.1-21.3,17.4
		c-1.8,0.4-3.6,0.4-5.3,0.3c-4.3-0.3-6.5-1.9-9.1-6.6c-0.9,0.4-1.3,1.2-2,1.9c-4.1,4.3-8.9,7.6-14.6,9.3c-2.6,0.7-5.3,1.4-7.4-0.8
		c-1.9-2.1-1.3-4.8-0.4-7.1c3.2-8.3,6.5-16.6,9.8-25c0.6-1.4,1.2-2.9,1.3-4.4c0.3-4.3-4.4-8-8.5-6.8c-1.2,0.3-1.3,1.3-1.6,2.2
		c-2,5.1-4,10.2-5.9,15.3c-3.9,10-7.7,20-11.6,30c-2,5.1-5.4,8.3-11,9c-6,0.8-10.7-3.1-11.1-9.3c0.2-0.1,0.4-0.3,0.6-0.3
		c5.3,0.5,8.3-2.3,10.1-6.9c3.5-8.7,6.9-17.5,10.3-26.3c4.6-11.8,9.2-23.5,13.7-35.3C551.9,45.1,553.2,40.9,550.8,36.2z M649.5,59.2
		c-3,0.5-4.4,2.4-5.5,4.8c-3.6,8.2-7.1,16.4-10.7,24.6c-0.6,1.3-1.1,2.7-1,4.1c0.1,1.7,1,2.6,2.7,2.7c1.2,0.1,2.4-0.3,3.4-0.8
		c2.6-1.3,4.2-3.5,5.3-6.1c3-7,6-14,9.1-21c1.1-2.6,1.1-2.7-1.1-4.4C650.5,62.1,649.8,60.7,649.5,59.2z M607.5,63.7
		c-2.8,1.1-4.6,2.8-5.6,5.2c-3.6,8.8-7.2,17.6-10.7,26.4c-0.5,1.1-0.8,2.3,0.2,3.4c1,1.1,2.4,0.9,3.7,0.5c3.2-1.1,5.6-3.3,6.9-6.4
		c3.3-7.8,6.4-15.6,9.5-23.5c0.4-1,0.4-1.8-0.9-2.2C609.1,66.7,608.1,65.6,607.5,63.7z M558.5,64.6c8.8-2.2,15.3-6.5,19.6-13.9
		c0.9-1.6,1.5-3.2,1.4-5.1c-0.1-1.8-1-2.9-2.7-3.3c-4-1-10,2-11.6,5.8C562.9,53.4,560.9,58.7,558.5,64.6z"/>
	<path class="st1" d="M520.2,51.8c4.2,0.4,7.3-0.8,9.8-3.7c1.8,3.6,1.1,6.8-2,9.2c-2.3,1.8-5.1,2.7-8,2.8c-2.1,0.1-2.9,0.9-3.5,2.7
		c-4.1,10.8-8.4,21.5-12.3,32.4c-3.1,8.7-9.2,13.6-17.8,16c-1.2,0.3-2.7,0.2-3.2,1.8c-0.8,2.2-2.3,4.3-1.9,6.8
		c0.3,1.6,1.8,1.9,3.1,1.8c1.8-0.1,3.5-0.5,5.3-0.9c3.6-0.8,7.2-1.7,10.9-2.2c2.3-0.3,4.5-0.1,6.7,0.7c2.6,1,4.5,2.7,5.5,5.3
		c2.5,6-0.4,15-6.1,18.7c-1-1.7-2-3.5-3.1-5.2c-2.7-4-6.3-5.8-11.3-4.9c-6,1.1-12.1,1.6-18.1,0.2c-1.2-0.3-2.3-0.6-3.4-1.2
		c-3.7-1.8-5.1-4.8-4.2-8.9c0.5-2.1,1.3-4.1,1.9-6.1c0.3-1.1,0.7-2.2,1.1-3.4c-1.6-0.5-2.9-0.8-4.2-1.3c-4.1-1.6-6.2-4.7-6.3-9.1
		c-0.1-3.4,0.8-6.6,2-9.8c4.3-11.3,8.4-22.5,12.9-33.7c5-12.6,17.3-18.4,30.3-14.4c1.3,0.4,2.2,0.4,3.2-0.4c2.2-1.7,4.7-2.8,7.5-3
		c5.1-0.4,7.3,2.4,6,7.3C520.8,49.9,520.5,50.6,520.2,51.8z M479.2,102.6c4.5,0.1,8.4-2.4,10.1-6.7c4.2-10.9,8.4-21.8,12.5-32.7
		c0.9-2.3,0.9-4.5-1-6.3c-1.9-1.7-4.2-2.1-6.7-1.1c-3.4,1.3-5.4,3.9-6.7,7.1c-4.3,11.1-8.5,22.3-12.7,33.4
		C473.2,100.2,475,102.5,479.2,102.6z"/>
	<path class="st1" d="M514.8,100.7c0.5,0.1,1.1,0.1,1.7,0.2c2.6,0.5,3.4,2.1,2.1,4.4c-1.8,3.2-8.2,6.1-11.8,5.3
		c-3.1-0.7-4-2.9-1.8-5.5C507.5,102.2,510.9,101,514.8,100.7z"/>
	<path class="st1" d="M686.4,138.8c1.9,1.3,3.9,2.1,5.8,3c5.7,2.7,11.4,5.5,16.5,9.2c10.3,7.5,14.5,17.9,14.2,30.4
		c-0.5,20-9.2,36-23.8,49.1c-8.8,8-19,13.6-30.7,16.2c-7.4,1.6-14.7,1.2-21.8-1.6c-6.4-2.5-9.7-7.4-10.1-14.3
		c-0.3-5.9,1.1-11.4,3.1-16.8c0.9-2.4,2.7-3,4.8-1.5c5.6,3.9,11.7,4.2,17.7,1.6c8.3-3.6,14.1-9.7,16.8-18.4
		c1.8-5.7,0.6-10.8-3.4-15.3c-3.3-3.7-7.7-6-11.7-8.8c-1-0.7-1.5,0-2,0.7c-2.6,3.7-5.2,7.4-7.8,11.2c-8.4,12.3-17,24.5-26.9,35.8
		c-12.1,13.7-25.5,25.9-41.9,34.2c-8.9,4.5-18.2,7.8-28,9.6c-0.5,0.1-1.2,0-1.5,1.1c6.1-0.1,11.6,2.3,17.2,4.1
		c3.8,1.2,7.6,1.7,11.6,0.9c3.9-0.8,7.8-0.8,11.7,0c3.3,0.7,6.4-0.5,9.6-0.9c4.5-0.5,9-1.1,13.5-0.6c9.2,0.9,17.5-1.5,25.2-6.5
		c3.1-2,6.3-3.4,10-3.6c6.2-0.4,11.2,2,15,6.8c1.8,2.2,3.2,4.7,4.2,7.4c0.5,1.3,1,2.6,1.6,4.1c1.3-3.7,1.4-6.3,0.2-10.4
		c-0.3-1-0.7-2-1.1-3c-0.8-2.1-0.8-2.2,1.3-2.5c4.8-0.7,9.7-1.5,14.5-2.2c13-1.9,26-3.8,38.9-5.6c9-1.3,18-2.4,26.9-3.6
		c0.6-0.1,1.2-0.1,1.8-0.1c0.9,0.1,1.5,0.8,1.7,1.7c0.2,0.9-0.7,1.2-1.3,1.5c-4.1,2.2-8.3,4.2-12.3,6.5
		c-23.1,12.9-43.5,29.3-61.8,48.4c-1.4,1.4-2,2.9-1.7,4.8c0.5,3.7,1,7.3,1.3,11c0.1,1.4,0.6,2.5,1.7,3.4c2.9,2.5,5.4,5.4,7.6,8.5
		c1.1,1.5,2.7,2.4,4.1,3.5c11.3,8.9,19.6,20,23.5,33.8c2.5,8.9,5.4,17.8,5.7,27.2c0,1.2,0.3,2.4,0.3,3.6
		c-0.1,10.1-0.5,20.3-1.5,30.4c-1,10.7-5.1,20.4-10.4,29.5c-4.8,8.2-10.2,16.2-15.3,24.2c-0.4,0.6-0.7,1.3-1.7,1.7
		c-0.3-1.8-0.7-3.6-1-5.4c-0.7-3.7-2.1-7.1-4.2-10.2c-1.3-1.9-1.4-2-3.3-0.6c-9.2,6.6-17.1,14.5-23.5,23.9
		c-10.2,15-16.6,31.6-20.7,49.2c-2.3,9.7-3.6,19.5-4.8,29.3c-1.3,10.6-6.3,19.4-13.3,27.2c-7.8,8.7-17.3,15.3-27.6,20.8
		c-4.4,2.3-8.2,5.1-11.2,9.1c-3.7,4.8-8.7,8.1-14,11c-1.9,1-3.2,0.9-4.8-0.6c-4-3.8-7.5-8.1-10.5-12.7c-1.1-1.7-2.4-2.8-4.5-3
		c-15.9-1.9-29.6-8.9-42-18.6c-2.9-2.2-6-3.8-9.3-5.1c-10.5-4.1-21.2-8-31.2-13.5c-12.7-7-23.7-16-32.4-27.7c-0.2-0.3-0.4-0.6-1-0.8
		c-0.7,7.1,0.7,14.1,0.3,21.1c-0.3,0.1-0.5,0.3-0.7,0.3c-9.5-4.4-18.9-9.2-27-16c-12.8-10.7-21.6-24.1-27.4-39.6
		c-4.1-10.9-6.5-22.2-7.4-33.8c-0.4-4.8-0.6-9.5-0.5-14.3c0-2.9-0.2-3-3.2-2.3c-7.3,1.6-13.6,5.1-19.4,9.7
		c-3.8,2.9-7.2,6.3-10.5,9.8c-0.6,0.6-1.2,1.1-1.9,1.7c-1.3-0.7-1.2-2.1-1.6-3.1c-4.5-14.3-5.1-29-4-43.9c1-13.3,3.6-26.2,8-38.8
		c1-2.9,2-5.9,3.4-8.6c3.3-6.3,4.9-13.1,6.1-20.1c2.8-15.9,9.7-29.9,19.9-42.2c2-2.5,4.5-4.6,7.2-7.3c-6.3,1.9-11.4,4.8-15.5,9.2
		c-2,2.2-3.9,4.6-5.4,7.1c-0.7,1.1-1.5,1.7-2.8,1.8c-5,0.5-9.9,1.3-14.9,1.7c-2.2,0.2-3,1.2-3.6,3.1c-3.2,9.5-5.9,19.1-9.9,28.3
		c-10.1,23.3-24.7,43-45.9,57.3c-17.2,11.7-36.1,18.3-57.2,17.5c-12.6-0.5-24.2-3.8-34.1-12c-8.9-7.4-13.3-17-13.8-28.4
		c-0.6-14.1,3.7-27.1,10.6-39.2c7.9-14,19.7-24.2,33.6-31.9c13.9-7.7,28.8-12.6,44.1-16.6c11.2-2.9,22.5-5.4,33.8-7.8
		c2.8-0.6,4.3-1.8,5-4.6c0.8-3,2.2-5.7,2.8-9c-3,0-5.6,0-8.2,0c-3.8,0-7.6-0.4-11.3-1.6c-5.4-1.8-9.7-5-12.7-9.9
		c-0.3-0.5-0.4-1.1-1.2-1.3c-1.1,0.5-1.6,1.6-2.3,2.5c-11.5,13-24.4,24.2-40.7,30.8c-5.4,2.2-11,4.1-16.9,4.6
		c-11.7,1-19.4-8.7-20.2-18c-0.5-6.3,0.3-12.4,2.3-18.3c9-26.2,16.2-52.9,24.9-79.2c2.7-8.1,4.8-16.2,5.3-24.8
		c0-0.5,0.1-0.9,0.2-1.4c0.4-2.6,0.4-2.7,3.2-2.4c2.6,0.3,5.2,0.8,7.7,1.4c5.7,1.3,11.3,2.8,16.8,5.1c3.7,1.5,7,3.6,9.6,6.7
		c5,5.9,5.8,12.7,4.2,19.9c-1.1,5.1-3.3,10-5,14.9c-5.1,15-10.2,30-15.3,45.1c-0.7,2.1-1.4,4.3-1.5,6.6c-0.1,2.4,1.1,3.3,3.3,2.7
		c0.8-0.2,1.6-0.6,2.3-1c6.3-3.3,11.4-7.8,15.4-13.6c1.2-1.8,1.9-3.7,2.1-6c1.9-28.1,13.7-51.6,33.5-71.2c8.3-8.2,17.7-15,28.8-19
		c2.7-1,5.5-1.6,8.4-1.8c4.6-0.3,8.4,1.3,11.5,4.7c0.6,0.7,1.1,1.6,2.5,1.8c0.7-2,1.5-4.1,2.1-6.2c1.9-6,6.3-9.1,12.3-9.1
		c10.7,0,21.5,0.7,31.9,3.5c0.5,0.1,0.9,0.3,1.4,0.4c1.4,0.3,1.7,1,1,2.3c-1.1,2.4-2.3,4.7-3.3,7.2c-6,15.2-11,30.8-16.4,46.2
		c-1.3,3.6-2.8,7.1-3.6,10.9c1.5-0.1,2.3-1.1,3.2-1.8c14.3-12.2,25.5-26.7,34.1-43.3c0.9-1.8,1.5-3.8,2.4-5.6
		c0.8-1.7,0.7-3.2-0.9-4.4c-0.4-0.3-0.7-0.7-1-1c-6.4-7-7.3-15.2-2.3-23.3c4.9-7.9,12.4-11.9,21.2-14.1c2.2-0.5,4.5-0.7,6.7-0.9
		c7.6-0.7,15.3,8.1,11.7,16.9c-0.5,1.2-1.4,2.3-1.4,3.6c1.5,1,3.2,1,4.9,1.2c8.8,0.7,17.4-0.4,25.9-2.6c7-1.8,12.1,1.3,16.8,5.5
		c3.6,3.2,3.4,7.7,2.1,12c-2.4,7.7-5,15.4-7.6,23.1c-2.4,7.2-5,14.4-7.5,21.6c-0.6,1.7-1.2,3.4-1.2,5.2c0,1.6,0.9,2.1,2.3,1.6
		c0.6-0.2,1.1-0.5,1.6-0.9c6.7-4.7,12.6-10.2,17.2-17.1c1.2-1.8,2-3.7,2.5-5.9c1.8-7.2,3-14.5,5.5-21.5c9.9-26.9,27.2-47.4,53-60.3
		c9.4-4.7,19.5-7,30.1-6.8c13.2,0.3,23,8.8,25.2,21.9c1.5,8.7-0.5,16.8-4.1,24.7c-4.9,10.8-12.5,19.5-21.4,27
		c-12.6,10.5-26.8,18.1-42.4,23.3c-0.6,0.2-1.1,0.4-1.7,0.6c-1.4,0.2-1.6,1.1-1.6,2.3c0.3,4.9,4.4,8.8,9.7,9.3
		c6.3,0.5,12.3-0.8,18.2-3.1c8.6-3.5,16.1-8.9,23-15c11.6-10.4,21.5-22.4,30.9-34.7c5.5-7.2,10.8-14.6,16.4-21.7
		c1.6-2,1.9-3.7,0.9-6.1c-6.8-16.4,0.6-41.6,15.1-52.4c6.2-4.6,13-7.1,20.8-5.3c10.6,2.4,15.8,11.9,12.2,22.2
		c-1.6,4.4-4.1,8.4-6.4,12.4C690.7,131.8,688.5,135.2,686.4,138.8z M667.2,463.2c11.6-12.8,18.4-28,21.5-44.9
		c1-5.4,1.5-10.9,1.5-16.4c0-1.6-0.6-2.4-2.3-2.3c-3.6,0.1-7.1,0-10.7,0.5c-5.3,0.8-10.3,2.7-16,4.7c7.2-5.9,14.8-9.1,23-10.8
		c5.1-1.1,5.1-1,3.9-6c-1.2-5.5-5.5-8.8-11.1-8.6c-1.9,0.1-3.8,0.5-5.5,1.3c-5.9,2.9-11.4,6.5-16.4,10.7c-0.8,0.7-1.6,1.4-2,2.5
		c-3.7,9-10.5,15.2-18.8,20c-1.9,1.1-3.4,2.6-4.3,4.6c-2.4,5.5-5.3,10.7-10.9,13.7c1.9,2.6,4.3,3.8,6.8,5c4.1,2,8.5,3.2,12.9,4
		c1.6,0.3,2.2,1,2.2,2.6c0,2.9,0,5.7-0.3,8.6c-0.8,7.4-2.8,14.5-4.8,21.6c-0.3,1.1-1,2.2-0.4,3.5c1.5-0.2,2.2-1.4,3-2.4
		c2.2-2.5,4-5.4,5.6-8.3c3.8-6.8,6.7-14,8.8-21.5c0.7-2.6,1.9-3.6,4.4-4.1c5.6-1.1,9.3-4.5,11.3-9.9c0.6-1.7,0.3-2.9-1.1-4.1
		c-3.5-3.1-7.5-5.5-12-7c-0.9-0.3-2-0.2-2.8-1.4c6-0.3,11.7,0,17.2,1.9c2.4,0.8,2.4,0.7,3.4-1.5c1.2-2.7,1.5-5.6,1.6-8.5
		c0.4,0,0.6,0,0.7,0.1c0.3,0.5,0.6,1,0.7,1.6c3.4,9.9,2.5,19.5-2.2,28.7c-2.6,5.1-5.9,9.8-9.1,14.5c-20,28.9-34.3,60.2-40.5,95
		c-0.5,2.8-1.3,5.6-2.8,8.1c-1,1.7-2.2,3.1-4.1,3.9c-1.9,0.8-3.8,0.4-5.5-0.6c-1.6-1-0.3-2.6-0.4-4c0-0.3,0.1-0.7,0.2-1.1
		c1.1-7,1.5-14,0.3-21c-0.3-1.6-0.3-3.3-1.9-4.5c-1.2,0.8-1.5,1.9-1.8,3.1c-0.7,2.4-1.3,4.8-2,7.2c-1.4,5.1-2.8,10.1-5,14.9
		c-0.6,1.3-1.2,1.9-3,1.6c-6.1-1.3-12.3-1.1-18.5-1.1c-4.4,0-8.8,0.7-12.9,1c-0.6-0.5-0.6-1-0.7-1.5c-0.3-7.6-0.5-15.3,0.9-22.8
		c0.2-1,0.8-2.1-0.5-2.9c-0.8,0.3-1.3,1-1.8,1.7c-2.5,3.4-4.3,7.2-5.8,11.1c-2.1,5.5-3.5,11.1-4.8,16.8c-0.3,1.3-0.7,2.2-2.1,2.5
		c-2.1,0.5-4,1.6-5.7,3c-1.5,1.2-3.2,1.5-5,1.5c-4.6,0-8.2-2.3-11.4-5.3c-4.2-4-7.2-8.9-9.4-14.2c-8-18.9-9.8-38.5-5.1-58.5
		c3.3-13.9,10.2-25.7,22.2-34c0.2-0.2,0.3-0.6,0.5-0.9c-6.6-3.1-15.6-3.9-23.9-3.1c-13.8,1.3-25.9,6.6-35.8,17.5
		c-1-6.8-0.9-12.8,0.7-18.7c2.9-11,9.3-19.8,17.7-27.2c2.4-2.1,5-4,7.5-6c-0.4-3-2.6-4.7-4.7-6.4c-4.2-3.4-9.1-5.1-14.4-6
		c-1.2-0.2-2.4-0.1-3.7-1.2c8.1-12.5,19.9-19,33.9-21.5c0.6-0.7,0.2-1,0.1-1.3c-1.8-3.3-1.6-5,1-7.6c0.6-0.6,1.2-1.1,1.9-1.6
		c0.9-0.7,1.5-1.4,1.2-2.7c-0.6-2.6,1-4.3,2.8-5.7c1.8-1.4,3.9-2.2,6.1-3.3c-0.7-0.3-1.1-0.6-1.5-0.7c-9.8-1.6-18.3-6-26.2-11.7
		c-3.8-2.7-7.8-5-12.4-6.4c-3.7-1.1-7-3.1-10-5.5c-6.7-5.5-8.3-12.7-4.5-20.5c3.4-6.9,9.3-10.3,16.5-12.1c6.2-1.5,12.5-1.6,18.8-0.9
		c7.2,0.8,14.4,1.9,21.3,4.3c-5,0-10-0.1-15,0.1c-7.4,0.4-14.7,1.7-21.4,5.2c-2.9,1.5-5.5,3.4-7.3,6.2c-3.1,4.6-2.2,9.7,2.4,12.8
		c2.6,1.8,5.6,2.7,8.7,2.9c3.6,0.3,7.2,0.2,10.7,0.2c8.3-0.2,16.7-0.8,25-0.2c5.1,0.4,10.2,1.4,14.8,3.6c2.9,1.4,2.8,1.7,2.2,4.3
		c-1.2,4.6,1.3,7.1,6,6.7c2.5-0.2,4.8-1.2,7.3-1.8c1.1,0.8,2.2,1.5,0,2.3c-0.7,0.2-1.3,0.6-1.8,1.1c-0.6,0.5-0.9,1.1-0.7,1.9
		c0.3,0.7,1,0.6,1.5,0.6c1.4,0,2.9-0.1,4.3,0c8.4,0.6,16.2,2.6,22.8,8.3c0.6,0.5,1.3,0.8,1.4,2c-4.3-1.9-8.4-3.4-12.7-4.3
		c-5.7-1.1-11.3-1.7-17-0.4c-0.9,0.2-1.9,0.3-2.2,1.7c1.5,0.9,3.1,1,4.7,1.1c8.9,0.8,17.4,2.7,25.5,6.5c3.5,1.6,6.8,3.6,9.4,6.4
		c0.5,0.6,1.2,1.1,1,2.1c-0.5-0.1-0.9-0.1-1.2-0.3c-13.6-6.6-28-8.4-42.9-7.5c-5.9,0.4-11.5,1.8-16.7,4.7c-1.4,0.8-3.6,1.6-3.2,3.4
		c0.5,2,3,1.8,4.6,1.7c5.9-0.5,11.7,0.4,17.5,0.2c2.1,0,4.3,0.1,6.4,0.4c5.8,0.7,11.4,2.4,17,4c2.8,0.8,5.5,1.6,8.4,1.4
		c10.1-0.6,20,0.8,29.6,3.9c4.3,1.4,8.4,1,12.5-1c6-2.9,12.4-5,19-6c6.9-1,13.4-3.1,19.9-5.7c2.2-0.9,4.4-1.9,6.2-3.5
		c2.5-2.2,2.4-4-0.6-5.5c-2.4-1.2-4.9-1.7-7.6-1.8c-9.4-0.4-18.2,1.8-26.7,5.6c-0.8,0.4-1.5,1.3-2.6,0.7c0.3-1.4,1.3-2.2,2.3-3.1
		c3.5-3.6,7.7-6,12.2-8c1.4-0.6,2.9-1.1,4.3-1.7c1.3-0.6,1.3-1.6,0.1-2.4c-1.7-1.2-3.6-1-5.5-0.7c-3.8,0.7-7.3,2.1-10.5,4.3
		c-0.8,0.5-1.7,1-2.9,1.8c0.8-2.7,2-4.5,3.7-5.9c1.7-1.5,3.6-2.7,5.3-4.1c-1-1.9-2.5-2.7-4.2-3.5c-1.6-0.8-3.3-1.3-5.1-1.5
		c-1-0.1-1.2-0.6-0.6-1.4c6.6-0.7,9.1-3.3,9.5-10c0.1-0.8,0.2-1.3,0.8-1.8c2.9-2.5,6-4.7,10.1-4.7c0.8,0,1.7-0.1,2.5-0.2
		c2.3-0.5,2.9-1.3,3-3.7c0.1-3.2-0.7-6.1-1.9-9c-1.7-4.1-4.6-7.4-7.6-10.6c1.7-0.3,2.6,0.9,3.7,1.8c3.6,2.9,6.4,6.4,8.5,10.5
		c0.4,0.8,0.5,1.8,1.8,2.3c-0.7-9.5-4.9-16.7-12.9-21.6c-1.3-0.8-2.5-1.7-3.6-2.8c-5.1-5-11.4-7-18.5-6.7c-0.1,1.3,1,2.4-0.3,3.2
		c-1.1,0.8-2.3,0.4-3.4-0.2c-0.5-0.3-0.9-0.7-1.4-1.1c-2.1-2-4.5-3.1-7.3-3.4c-7-0.8-14-1.2-21.1-1.2c-0.7,0-1.5-0.3-2,0.4
		c-0.6,0.9,0.2,1.6,0.7,2.2c0.8,1,1.9,1.8,3,2.6c0.9,0.6,2.1,0.7,2.7,1.8c-2.7,0.8-4.8-0.5-7.5-1.2c0.3,5.8,1.9,10.8,5,15.3
		c1.4,2,3.1,3.8,5.4,4.6c2,0.6,2.2,1.9,2,3.5c-0.5,4.6-2.2,8.8-4.6,12.7c-0.8,1.3-1.6,1.1-2.6,0.4c-3.9-2.3-7.8-4.6-11.2-7.7
		c-1.6-1.5-3-3.1-4-5c-0.5-0.9-0.7-1.7,0.1-2.6c2.3-2.5,2.1-5.5,1.4-8.5c-1.2-4.7-3.6-8.7-6.6-12.6c-3.2,1.8-6.3,3.3-10.2,3.4
		c2.9-2.4,6.7-3.4,7.7-7.7c-6-0.3-11.5-1.4-17.1-2.6c-4-0.8-7.5-0.1-10.5,2.9c-2.8,2.9-6.4,4-10.3,4.4c-1,0.1-2.4,0.5-2.8-0.8
		c-0.4-1.1,0.5-2,1.2-2.8c1.4-1.6,3.2-2.5,5.1-3.1c1.2-0.4,2.5-0.7,3.8-1c0.8-0.2,1.5-0.6,1.6-1.8c-7.7-1.1-15.2-1.1-22.6,1.6
		c-1.3,0.5-2.7,1-3.8,1.9c-2.5,1.9-3,4.1-1.8,6.9c0.5,1.2,1.7,2,1.7,3.4c-1,0.4-2,0.1-2.9-0.1c-18.2-3.2-35.6-0.9-52.4,6.7
		c-6.5,3-11.5,7.7-14.3,14.3c-1.3,3-2.3,6.1-1.3,9.4c0.6,1.8-0.5,2-1.9,2c-5.7,0-11.4,0.1-17.1,0.7c-0.9-1.9-2.4-3.3-3.6-4.9
		c-2.8-3.8-5.6-7.7-7.4-12.2c-0.3-0.7-1-1.4-0.1-2.2c7.7,5.2,16.1,7.3,25.9,5.6c-3.6-2.1-7.2-2.9-10.8-5.1c2.7-0.5,4.8-0.7,6.8-1.2
		c1.9-0.4,4-0.6,5.9-1.9c-0.6-0.2-0.9-0.4-1.3-0.5c-9.3-1.2-18.1-4.2-26.7-7.6c-3.9-1.5-7.9-2.7-12-3.3c-4.2-0.6-5.3,0.7-4.2,4.7
		c1.7,5.9,4.8,11.1,8.3,16.2c3.3,4.7,7.1,8.9,10.8,13.3c-1.2,0.9-2.6,1.1-4,1.4c-10.6,3.1-20.6,7.4-29.6,14
		c-7.3,5.4-13.3,12-16.9,20.4c-0.5,1.3-1.2,2.5-1.2,4c1.5-0.1,2.4-1,3.3-1.6c8.5-5.1,17.6-7.8,27.6-7c7.1,0.6,13.7,3,20,6.4
		c6.1,3.2,12.1,6.8,18.1,10.2c4.6,2.6,9.3,4.9,14.5,6c1.8,0.4,3.6,0.6,6.3,1c-4.5,2.8-8.7,4-13,4.5c-7.1,0.8-14-0.2-20.8-2.3
		c-7.9-2.4-16-3.8-24.3-3.5c-12.8,0.5-24,4.9-33.2,13.9c-7.4,7.2-12.3,16.1-15.8,25.7c-3.8,10.3-5.5,21-6.3,31.8
		c-0.3,4-0.3,7.9-0.1,12.2c10.9-6.8,10.9-6.8,25.1-9.8c1.3-0.3,1.7-1,2.1-2.1c0.9-2.3,1.8-4.7,2.8-6.9c9.9-21.2,25.6-36,48.5-42.2
		c9-2.4,18.1-3.3,28.1-1.4c-5.3,1-9.9,1.7-14.2,3.4c-23,9.2-37.7,26.1-44.5,49.6c-5.1,17.5-4.3,35.4,0.4,53
		c3.7,13.8,9.8,26.3,19.6,36.9c1.9,2.1,3.9,4.1,6.8,5.8c0.1-2.1,0.1-3.7,0.3-5.3c0.3-5.2,1.8-10.1,4.7-14.5c0.5-0.7,0.8-1.8,2-1.7
		c10.4,15.1,23.7,29,30.5,31.7c0.4-3.9-0.6-7.9,1.1-11.9c4.3,12.4,13.2,19.9,22.2,23.2c2.3,0.9,4.6,1.9,6.9,2.9
		c7.7,3.3,15.3,6.8,22,11.9c1.6,1.2,3.2,2.5,4.7,3.7c0.4-0.6,0.3-1,0.2-1.5c-1-4.6-4.3-7.9-7.2-11.3c-5.5-6.5-12.7-10.7-20.2-14.6
		c-8.7-4.5-14.9-11.4-19.2-20.1c-3.2-6.7-4.6-13.7-3.4-21.2c0.5-2.8,1.5-5.5,2.1-8.6c-3.6,2-5.8,5-7.6,8.2c-2.8,5.2-4,10.9-5.1,16.7
		c-0.2,1.3-0.3,2.5-1.3,3.9c-13.5-11.9-21.2-26.9-25.4-44.4c-9,7.9-12.1,18.1-14.1,28.8c-2.6-6.1-3.9-12.4-4.3-18.8
		c-1.1-17.9,3.1-34.6,12.3-50c11.3-18.8,27.5-31.5,48.5-37.9c0,1.1-1,1.3-1.6,1.7c-3.2,2.5-6.4,5-9.3,7.9
		c-13.6,13.3-20.7,29.3-20.3,48.3c0.2,13,3.8,25.2,9.3,36.8c0.2,0.4,0.3,1.1,1.2,1c2.9-10.2,8.1-19.1,16-26.2
		c7.9-7.1,17.1-11.6,27.7-14.2c-1.7,3.7-3.2,7-4.6,10.3c-4,10-5.8,20.4-4.3,31.2c1.8,13.3,8,24.3,17.2,33.8c3.3,3.4,6.9,6.6,10.3,10
		c6,6,10.3,13,12,21.5c1.7,8.2,6.8,14,13.9,18.3c1.5,0.9,3,1.7,4.9,1.7c0.6-4.5,0.9-8.9,3.8-13.1c2.3,6.5,3.9,12.8,9.7,17.5
		c0.1-6.3,0.9-11.8,5.1-17c1.4,10.7,4.2,20.3,8.6,29.9c7.8-9.1,13.4-19.1,18.1-29.7c1.2,4.5-0.4,8.9-0.4,13.6
		c2.7-2.1,4.5-4.8,6.3-7.4c1.8-2.7,3.3-5.7,5.4-9.2c-0.1,5-0.6,9-1.2,13.6c4.9-3.3,9.1-6.5,12.9-10.3c5.4-5.5,8.8-12.1,10.1-19.7
		c1.2-6.8,1.8-13.7,2.7-20.6c1.6-12.2,4.5-24.1,9.9-35.3c0.5-0.8,1.3-1.5,0.8-2.6c0.1-0.4,0.3-0.8,0.4-1.3c1.3,0.1,1.4-1.1,1.9-1.9
		c1.6-2.8,3.1-5.7,4.7-8.4c7.8-13.2,16.7-25.6,28.1-35.9c4.5-4.1,9.4-7.7,14.9-10.4c4.9-2.4,7.5-0.9,8.9,3c0.1,0.1,0.4,0.2,0.6,0.3
		c0.2-0.1,0.5-0.2,0.6-0.4c0.3-0.4,0.6-0.8,0.8-1.2c3.8-6.3,6.8-12.8,8.7-19.9c1.1-3.9,1.7-8,1.8-12c0.2-6.2-1.1-12.1-4.6-17.3
		c-1.2-1.7-0.6-2.7,1.4-3.2c0.9-0.2,1.6,0.2,2.4,0.5c0.9,0.3,1.2,1.5,2.8,1.2c0-2.3-0.1-4.7,0-7.1c0.3-6.2-0.5-12.2-3.2-17.7
		c-4.3-8.6-10.4-15.1-20-17.7c-1.1-0.3-2.1-0.6-4,0.1c12.5,7.1,17.7,17.4,16.8,31.2c-1.4-0.3-2.5-0.6-3.5-0.7c-1.5-0.2-2.6,0.5-3,2
		c-0.7,2.5-1.1,4.7,1.2,6.8c3.2,2.9,5.1,6.6,6,10.8c2.1,9.4,0.9,18.5-3.1,27.2c-0.2,0.4-0.6,0.7-0.9,1.2c-1.3-1.6-0.8-3.6-1.6-5.2
		c-1.4-2.9-3.6-3.7-6.3-2c-1.5,0.9-2.4,2.3-3.3,3.7c-3.2,5.1-6.6,9.9-10.7,14.3C675,457.8,671.7,461.3,667.2,463.2z M573,442.5
		c0,3.5-0.1,6.7,0,9.9c0.4,9.5,2.9,18.3,8.5,26.2c0.5,0.8,1.1,1.5,1.8,2.3c0.4,0.5,1,0.8,1.6,0.6c0.8-0.3,1.1-0.9,1.1-1.7
		c0-0.5,0-1-0.1-1.4c-2.6-11.5-1.6-22.7,1.4-34c1-3.8,1-3.8,4.8-4.3c6.6-0.9,12.8-3,18.3-6.7c4-2.7,7.1-6.4,8.7-11
		c1-2.9,0.2-4.8-2.4-6.4c-1.2-0.7-2.6-1.2-3.9-1.9c-7-3.4-13.7-7.3-18.8-13.4c-2.7-3.2-5.9-5.5-9.4-7.5c-5.8-3.2-11.8-5.7-18.2-7.3
		c-5.2-1.3-10.5-2.6-15.9-1c-4.6,1.3-9.2,3.2-11.4,7.9c-0.8,1.8-1.6,2.4-3.6,2.4c-6.5,0.1-12.8,1.1-18.7,4.1
		c-1.5,0.8-3.1,1.5-4.2,3.4c20.8-4.9,40.3-0.1,60.4,4.9c-2.2,0.4-3.8,0.2-5.4,0.1c-4.2-0.3-8.3-0.6-12.5-0.9c-5.4-0.3-10.7-0.1-16,1
		c-1.7,0.4-2.5,1.1-2.2,2.9c0.3,1.5,0,3.2,0.5,4.6c0.7,2-0.3,2.4-1.9,2.8c-8.3,2-15.5,6-21.8,11.7c-0.9,0.8-1.7,1.7-2.6,2.6
		c20.6-7.7,41.7-11.9,63.6-10.1c-2.6,0.8-5.2,1.4-7.9,2c-5.8,1.4-11.5,3-16.6,6.4c-1.8,1.2-3.7,2.5-4.8,4.7
		C553.9,440.6,562.5,444.1,573,442.5z M438.3,275.3c-2.9-4.8-3.4-9.8-3-15.1c0.4-4.8,1.9-9.3,3.9-13.7c5.2-11.5,10-23.2,14.4-35.1
		c1-2.7,2-5.4,2-8.3c0-3-0.7-3.8-3.8-4c-3.1-0.2-6.1-0.7-9.2-1.3c-3.1-0.6-2.6-1.4-4.1,2.1c-7,16.2-16.9,30.4-29.3,42.9
		c-11.6,11.7-24.7,21.4-38.8,29.9c-2.2,1.3-3.5,2.9-4.4,5.3c-3.8,10.6-7.7,21.1-11.5,31.6c-0.3,0.9-1.1,1.9-0.6,3
		c0.1,0.1,0.2,0.2,0.3,0.2c10.6-1.8,21.1-3.7,31.7-5.5c1.6-0.3,1.6-1.1,1.3-2.3c-0.8-3.1-1.7-6.2-2.3-9.4c-0.9-4.4-1.8-8.9-0.8-13.5
		c2.7-12,15-17.7,24.9-16.1c6.6,1.1,13,3,19.3,5.4C431.6,272.8,434.9,274.1,438.3,275.3z M289.5,357.9c-1.8,0.2-3,0.3-4.2,0.5
		c-11.1,2.3-21.9,5.6-32.2,10.4c-7.1,3.4-13.9,7.4-19.5,13.1c-2.5,2.6-4.6,5.5-5.5,9.1c-2.2,8.4,1.5,16.5,11.9,16.8
		c4.1,0.1,8.1-0.5,11.9-1.9c12.8-4.7,22.2-13.3,28.5-25.2C284.2,373.6,286.3,365.9,289.5,357.9z M306.4,264c0.1,2.2,0.1,3.9,0.5,5.5
		c1.5,5.6,5.8,7.2,10.6,3.8c0.9-0.6,1.7-1.4,2.4-2.2c2.2-2.5,3.9-5.4,5.2-8.5c4.1-9.7,7.4-19.6,10.8-29.6c2.5-7.6,4.8-15.2,7.5-22.8
		c1.1-3.1-0.6-5.4-4.3-4.4c-2.1,0.6-4,1.4-5.8,2.7c-5.2,3.6-9.2,8.3-12.4,13.6c-3.8,6.3-6.8,12.9-9.3,19.7
		C308.8,249.2,306.8,256.7,306.4,264z M533.5,263.2c-10.8-3.2-19.2-9.4-24.6-19.5c-0.5,0.4-0.9,0.6-1.2,1
		c-6.9,7.9-15.1,14.6-23.3,21.1c-7.4,5.9-15,11.4-24.3,14c-0.3,0.1-0.5,0.5-0.3,1c9.5,0.2,18.9,0.3,28-3.6c3.5-1.5,7.2-2.4,10.9-3.6
		c1.8-0.6,3.6-1.2,5.3-2C513.3,267.2,523,264.1,533.5,263.2z M551.5,198.2c0.6,0,0.8,0.1,1.1,0c0.6-0.2,1.1-0.4,1.7-0.6
		c11.2-5.1,21.1-12.1,29.2-21.5c2-2.4,3.7-5,5.1-7.8c1.3-2.8,1.9-5.6,1.7-8.7c-0.3-5.4-2.9-7.3-8-5.9c-1.9,0.5-3.6,1.4-5.2,2.4
		c-12.4,7.8-20.2,19-24,33C552.1,192.1,551.3,194.9,551.5,198.2z M661.9,349.4c3,0.1,5.2,0.2,7.4,0.8c2.1,0.6,4.1,1.2,5.6,2.9
		c1.4,1.5,0.5,3.3,0.6,5.2c9.8-1.2,18.9-0.2,26.8,6.1c0.1-0.6,0.2-0.9,0.2-1.1c0-0.5-0.1-1-0.2-1.4c-1.6-5.9-5-10.2-10.6-12.7
		c-6.4-2.8-13.1-3.9-20.4-2.7c1-1.4,2.3-2.1,2.9-3.5c0.9-2.2,0.1-4.5-2-5.4c-2.4-1-4.8-0.1-5.3,2.3
		C666.2,343.4,664.5,346.3,661.9,349.4z M515.1,341.6c4.2,5.4,10.5,9,17.6,10.9c3.1,0.8,5.4,0.1,7.3-2c4.9-5.4,3.3-6.3-1.9-8
		c-0.2-0.1-0.4,0.1-0.6,0.2c-1,4.8-2.3,6.4-4.9,6.3c-2.9-0.1-4.5-2.5-5.3-8.1C523.5,340.9,519.5,340.7,515.1,341.6z M671.8,128.8
		c4.2-5.9,8-11,11.6-16.3c1-1.5,0.3-2.8-1.6-3.5c-2.9-1.1-6.7,0.1-8.8,3.1C669.5,117,669.8,122.4,671.8,128.8z M594.7,467.9
		c1.6-4.6,3-8.6,4.3-12.7c1.1-3.6-0.9-5.3-3.9-6.5c-2.7-1-3.9-0.2-3.9,2.6C591.1,456.9,592.2,462.2,594.7,467.9z M625.1,464.8
		c4-2.5,9.8-15.1,9.1-19.3c-6.4,0.9-9,3.9-9.1,10.1C625.1,458.6,625.1,461.6,625.1,464.8z M616.3,461.1c3-4.2,4.1-8.5,5.3-12.8
		c0.2-0.6,0.1-1.2-0.4-1.6c-1.7-1.4-6.2,0-6.5,2.3C614.3,452.9,614.2,456.9,616.3,461.1z M604.6,462.4c3.2-4,4.5-8.2,5.5-12.5
		c0.2-0.7,0.2-1.4-0.5-1.9c-1.8-1.3-6-0.1-6.3,2.1C603,454,603,458,604.6,462.4z M654.5,335.8c-2,2.1-2.1,4-0.5,6.1
		c1.3,1.6,3,1.9,5.1,0.7c3.3-1.8,4.2-4.9,4.4-8.4c0.1-1-0.4-1.3-1.3-1.2c-0.7,0.1-1.4,0.2-2.1,0.3c-0.1,0.9-0.1,1.7-0.2,2.5
		c-0.1,0.8-0.3,1.6-0.7,2.4c-1.2,1.9-2.7,1.9-3.7,0C655,337.6,654.9,336.9,654.5,335.8z M572.7,539.2c-1.8,4.2-2.2,8.1-2.6,12.1
		c-0.2,1.9,0.7,3,2.2,3.1c1.5,0.1,2.9-1,2.9-2.5C575.3,547.7,575,543.6,572.7,539.2z M601.5,538.3c-3.5,4-5.5,8.1-7.3,12.3
		c-0.4,1-1.1,2.1,0,2.9c1.1,0.8,2.3,0.2,3.3-0.5c0.8-0.6,1.4-1.3,1.7-2.3C600.2,546.9,601.3,543.1,601.5,538.3z M581,543.3
		c-2.2,3-2.6,6.1-3.4,9c-0.1,0.5-0.1,1,0.3,1.3c1,0.8,2.2,0.6,3.4,0.3c1-0.3,1.6-0.9,1.6-2C582.9,549.1,582.6,546.3,581,543.3z
		 M590.7,543.4c-2.8,2.6-4,5.8-5.3,9c-0.3,0.6-0.2,1.1,0.5,1.4c1.5,0.7,4.3,0,4.6-1.5C591,549.5,591.7,546.6,590.7,543.4z"/>
	<path class="st1" d="M364.8,126.9c-16.2-0.3-32.5-0.5-48.7-1c-11-0.4-22-0.2-32.9-0.7c-12.3-0.6-24.6-0.2-36.9-0.9
		c-4.1-0.2-7.7,1.2-10.7,4.1c-3.6,3.6-5.8,7.9-7.3,12.6c-3.6,11-7.2,22-10.8,33c-13.3,41.2-26.7,82.4-40,123.5
		c-7.1,21.9-18.8,41.1-34.2,58.2c-11.1,12.3-23.8,22.7-38.6,30.5C88.5,394.7,71.4,400,52.9,399c-25.3-1.4-40.3-17.9-43.1-39.3
		c-3.2-24.5,4.3-45.9,22.1-63.1c17.8-17.2,42.4-20.1,64.5-10.3c0.8,0.4,2,0.6,2,1.8c0,1.4-0.5,2.6-1.9,3.2c-2.9,1.3-5.8,2.9-8.2,5
		c-4.9,4.2-8,9.4-8.7,15.9c-0.7,7,3.4,13.1,9.7,14.3c2.7,0.5,5.2-0.1,7.7-0.9c5.6-1.6,10-5,13.6-9.5c5.7-6.9,9.5-14.9,12.4-23.3
		c6.7-19.7,13.3-39.6,19.9-59.4c10.9-33.1,21.7-66.2,32.6-99.3c0.3-0.9,0.6-1.8,0.9-2.7c1-3.9-0.4-6.5-4.2-7.8c-1.9-0.7-3.9-1-6-1
		c-16.6,0.2-33.2-0.8-49.8-0.9c-5.3,0-10.5-0.1-15.6,1.4c-10.7,3.1-16.1,10.3-16,21.3c0,8.3,2.9,15.6,7.6,22.3
		c0.6,0.9,2,1.7,1.1,3.1c-0.9,1.3-2.2,2.2-4,1.9c-18-2.8-34.1-9.2-45.4-24.4c-12.8-17.4-10-40,6.3-54.1c9.7-8.4,21.3-13,33.7-15.8
		c7.6-1.7,15.3-2.3,23-2.9c10.3-0.8,20.7-1.8,31-2.6c10-0.8,20-1.6,30-2.4c10.3-0.9,20.7-1.8,31-2.6c6.7-0.6,13.3-1,20-1.6
		c10.9-0.9,21.9-1.8,32.8-2.7c9.4-0.8,18.8-1.5,28.2-2.3c10.7-0.9,21.4-1.8,32.1-2.7c9.6-0.8,19.2-1.7,28.9-2.3
		c14.6-0.9,28.6-3.6,41.5-10.9c12.3-7,22.5-16.1,29.2-28.7c1.1-2,1.9-4.1,2.7-6.2c1.3-3.2,2.6-3.8,5.7-2.1c3.6,1.9,6.9,4.2,10,7
		C441.2,24,449.2,35.8,453,50c4.7,17.3,0.9,33.4-9.2,47.9c-10.6,15.2-25.6,23.7-43.4,27.4c-8.1,1.7-16.3,2.4-24.5,1.8
		c-3.7-0.3-7.4,0-11.1,0C364.8,127,364.8,126.9,364.8,126.9z"/>
	<path class="st1" d="M295.9,158.1c0,8.4-4.6,14.9-10.9,20.4c-6.6,5.8-14.3,9.4-23.1,10.4c-5.6,0.6-11-0.4-15.8-3.4
		c-3.8-2.3-5.9-5.8-6.4-10.2c-0.9-7.9,2.2-14.3,7.2-19.9c7.1-7.9,16-12.7,26.6-14c5.1-0.6,10,0.3,14.6,2.6
		C293.6,146.6,296.2,151.2,295.9,158.1z"/>
	<path class="st2" d="M225.5,338.2c-0.1-0.5,0.3-0.6,0.6-0.6c0.1,0,0.2,0.2,0.3,0.3C226.1,338,225.8,338.1,225.5,338.2L225.5,338.2z
		"/>
	<path class="st2" d="M240.5,331.7c0.1,0.5-0.2,0.6-0.5,0.6c-0.1,0-0.3-0.2-0.4-0.3C239.9,331.9,240.3,331.8,240.5,331.7
		L240.5,331.7z"/>
	<path class="st2" d="M254.3,282.4c-0.2,0.3-0.4,0.6-0.7,0.3c-0.3-0.2-0.1-0.6,0.1-0.8C253.9,282.1,254.1,282.3,254.3,282.4z"/>
	<path class="st2" d="M630.3,225c0.1-0.1,0.2-0.3,0.2-0.4C630.8,224.9,630.7,225.1,630.3,225L630.3,225z"/>
	<path class="st2" d="M496.3,220.6c-0.1,0.2-0.2,0.3-0.3,0.5C495.8,220.7,495.8,220.5,496.3,220.6L496.3,220.6z"/>
	<path class="st2" d="M392.4,220.6c-0.1,0.2-0.2,0.3-0.3,0.5c0-0.1-0.1-0.3-0.1-0.4C392.1,220.5,392.3,220.5,392.4,220.6
		L392.4,220.6z"/>
	<path class="st2" d="M237,185.5c0.1,0.1,0.3,0.2,0.4,0.3c-0.1,0.1-0.2,0.2-0.2,0.2c-0.3,0-0.4-0.1-0.3-0.4L237,185.5z"/>
	<path class="st0" d="M435.5,328.7c5.7-0.6,11.4-0.7,17.1-0.7c1.4,0,2.4-0.1,1.9-2c-1-3.3,0-6.4,1.3-9.4c2.8-6.7,7.8-11.4,14.3-14.3
		c16.7-7.6,34.2-9.9,52.4-6.7c0.9,0.2,1.9,0.5,2.9,0.1c0-1.4-1.2-2.2-1.7-3.4c-1.2-2.8-0.7-5,1.8-6.9c1.2-0.9,2.5-1.4,3.8-1.9
		c7.3-2.8,14.8-2.7,22.6-1.6c0,1.2-0.8,1.6-1.6,1.8c-1.3,0.4-2.5,0.7-3.8,1c-2,0.6-3.7,1.6-5.1,3.1c-0.7,0.8-1.6,1.7-1.2,2.8
		c0.5,1.3,1.9,0.9,2.8,0.8c3.9-0.4,7.5-1.5,10.3-4.4c3-3,6.5-3.8,10.5-2.9c5.6,1.2,11.2,2.3,17.1,2.6c-1,4.2-4.8,5.2-7.7,7.7
		c4-0.1,7.1-1.6,10.2-3.4c2.9,3.9,5.4,8,6.6,12.6c0.7,2.9,0.9,6-1.4,8.5c-0.8,0.9-0.6,1.7-0.1,2.6c1,1.9,2.4,3.5,4,5
		c3.3,3.1,7.2,5.4,11.2,7.7c1,0.6,1.8,0.9,2.6-0.4c2.4-3.9,4.1-8.1,4.6-12.7c0.2-1.7,0-2.9-2-3.5c-2.3-0.7-4-2.5-5.4-4.6
		c-3-4.5-4.6-9.5-5-15.3c2.7,0.7,4.9,2,7.5,1.2c-0.6-1.1-1.9-1.2-2.7-1.8c-1.1-0.7-2.1-1.5-3-2.6c-0.5-0.6-1.3-1.3-0.7-2.2
		c0.4-0.7,1.3-0.4,2-0.4c7,0,14.1,0.4,21.1,1.2c2.8,0.3,5.2,1.5,7.3,3.4c0.4,0.4,0.9,0.8,1.4,1.1c1.1,0.6,2.2,1,3.4,0.2
		c1.3-0.8,0.1-2,0.3-3.2c7.1-0.2,13.3,1.8,18.5,6.7c1.1,1.1,2.3,2,3.6,2.8c8,4.9,12.2,12.1,12.9,21.6c-1.4-0.4-1.4-1.5-1.8-2.3
		c-2.1-4.1-4.9-7.6-8.5-10.5c-1.1-0.8-2-2.1-3.7-1.8c-1.5-0.2-2.4-1.5-3.4-2.4c-1.6-1.5-3.4-2.6-5.3-3.5c-6.5-2.9-13.2-3.2-20.1-2.5
		c0.2,0.8,0.7,0.8,1.1,0.9c10.1,2.2,15.9,8.6,18.1,18.4c2,9.1-0.2,17.4-4.7,25.3c-0.7,1.2-1.8,2.2-2,3.7c-0.7,0.8-0.4,1.3,0.6,1.4
		c1.8,0.2,3.5,0.7,5.1,1.5c1.6,0.8,3.2,1.6,4.2,3.5c-1.8,1.3-3.6,2.6-5.3,4.1c-1.6,1.4-2.9,3.2-3.7,5.9c1.3-0.8,2.1-1.3,2.9-1.8
		c3.2-2.2,6.7-3.6,10.5-4.3c1.9-0.3,3.8-0.5,5.5,0.7c1.2,0.8,1.2,1.8-0.1,2.4c-1.4,0.7-2.9,1.1-4.3,1.7c-4.5,2-8.7,4.4-12.2,8
		c-0.9,0.9-1.9,1.8-2.3,3.1c1.1,0.6,1.8-0.3,2.6-0.7c8.5-3.8,17.3-6,26.7-5.6c2.7,0.1,5.2,0.6,7.6,1.8c3,1.5,3.1,3.3,0.6,5.5
		c-1.8,1.6-4,2.6-6.2,3.5c-6.4,2.6-13,4.7-19.9,5.7c-6.6,1-13,3.1-19,6c-4.1,2-8.1,2.4-12.5,1c-9.6-3.1-19.5-4.5-29.6-3.9
		c-2.9,0.2-5.7-0.6-8.4-1.4c-5.6-1.6-11.2-3.3-17-4c-2.1-0.3-4.3-0.5-6.4-0.4c-5.8,0.1-11.7-0.7-17.5-0.2c-1.7,0.1-4.1,0.3-4.6-1.7
		c-0.5-1.8,1.8-2.6,3.2-3.4c5.2-2.9,10.8-4.3,16.7-4.7c14.9-1,29.3,0.8,42.9,7.5c0.3,0.1,0.7,0.2,1.2,0.3c0.2-1.1-0.5-1.6-1-2.1
		c-2.6-2.9-5.9-4.8-9.4-6.4c-8.1-3.7-16.7-5.7-25.5-6.5c-1.6-0.1-3.3-0.2-4.7-1.1c0.3-1.4,1.3-1.5,2.2-1.7c5.7-1.3,11.4-0.8,17,0.4
		c4.3,0.9,8.4,2.4,12.7,4.3c-0.1-1.2-0.9-1.6-1.4-2c-6.5-5.6-14.4-7.7-22.8-8.3c-1.4-0.1-2.9,0-4.3,0c-0.6,0-1.3,0.1-1.5-0.6
		c-0.3-0.8,0.1-1.4,0.7-1.9c0.5-0.4,1.2-0.8,1.8-1.1c2.2-0.8,1.1-1.5,0-2.3c-0.5-2.1-2.3-3.3-3.5-4.9c-4.9-6.4-8.9-13.2-10.6-21.2
		c-2.2-10.5,2.2-18,12.4-21.3c1-0.3,2.1-0.6,3.8-1.2c-9.4-3.9-17.9-4.2-26.1,1.1c-2,1.3-3.6,3-4.8,5.2c-1.4,2.6-1.4,2.6-4.6,2.2
		c-6.9-2.4-14.1-3.5-21.3-4.3c-6.3-0.7-12.6-0.6-18.8,0.9c-7.1,1.7-13.1,5.2-16.5,12.1c-3.8,7.7-2.2,15,4.5,20.5
		c3,2.4,6.3,4.4,10,5.5c4.5,1.4,8.6,3.6,12.4,6.4c8,5.7,16.5,10.1,26.2,11.7c0.4,0.1,0.9,0.4,1.5,0.7c-2.2,1.1-4.4,1.9-6.1,3.3
		c-1.9,1.5-3.4,3.1-2.8,5.7c0.3,1.3-0.3,2-1.2,2.7c-0.7,0.5-1.3,1.1-1.9,1.6c-2.6,2.6-2.8,4.3-1,7.6c0.2,0.3,0.5,0.6-0.1,1.3
		c-14,2.4-25.8,9-33.9,21.5c1.3,1,2.5,1,3.7,1.2c5.3,0.8,10.2,2.6,14.4,6c2.1,1.7,4.3,3.5,4.7,6.4c-9.8,0.3-19.4,1.5-28.6,5.3
		c-21,6.5-37.2,19.2-48.5,37.9c-9.2,15.3-13.4,32-12.3,50c0.4,6.4,1.7,12.7,4.3,18.8c2-10.8,5.2-20.9,14.1-28.8
		c4.2,17.5,12,32.4,25.4,44.4c0.9-1.4,1-2.7,1.3-3.9c1.1-5.7,2.3-11.5,5.1-16.7c1.8-3.3,3.9-6.2,7.6-8.2c-0.5,3.1-1.6,5.8-2.1,8.6
		c-1.2,7.5,0.2,14.5,3.4,21.2c4.2,8.7,10.4,15.6,19.2,20.1c7.5,3.8,14.6,8.1,20.2,14.6c2.9,3.4,6.2,6.7,7.2,11.3
		c0.1,0.5,0.3,0.9-0.2,1.5c-1.6-1.2-3.2-2.5-4.7-3.7c-6.7-5.1-14.2-8.7-22-11.9c-2.3-1-4.6-2-6.9-2.9c-9-3.4-17.9-10.9-22.2-23.2
		c-1.7,4-0.7,8-1.1,11.9c-6.8-2.7-20.1-16.6-30.5-31.7c-1.2,0-1.5,1-2,1.7c-2.9,4.4-4.3,9.3-4.7,14.5c-0.1,1.6-0.2,3.2-0.3,5.3
		c-2.9-1.7-4.9-3.7-6.8-5.8c-9.8-10.6-15.9-23.1-19.6-36.9c-4.7-17.6-5.5-35.5-0.4-53c6.8-23.4,21.5-40.4,44.5-49.6
		c4.3-1.7,8.9-2.4,14.2-3.4c-10-1.9-19.2-1-28.1,1.4c-23,6.2-38.6,21-48.5,42.2c-1.1,2.3-2,4.6-2.8,6.9c-0.4,1.1-0.8,1.8-2.1,2.1
		c-14.2,3-14.2,3-25.1,9.8c-0.3-4.2-0.2-8.2,0.1-12.2c0.8-10.9,2.5-21.5,6.3-31.8c3.5-9.6,8.4-18.5,15.8-25.7
		c9.2-9,20.4-13.5,33.2-13.9c8.3-0.3,16.4,1.2,24.3,3.5c6.8,2,13.7,3.1,20.8,2.3c4.4-0.5,8.5-1.7,13-4.5c-2.6-0.4-4.5-0.6-6.3-1
		c-5.2-1.1-9.9-3.5-14.5-6c-6-3.4-12-7-18.1-10.2c-6.3-3.3-12.8-5.7-20-6.4c-10-0.9-19.1,1.9-27.6,7c-1,0.6-1.9,1.5-3.3,1.6
		c0-1.5,0.6-2.8,1.2-4c3.6-8.5,9.6-15,16.9-20.4c9-6.6,19-10.9,29.6-14c1.4-0.4,2.8-0.5,4-1.4C430,330.1,432.7,329.1,435.5,328.7z
		 M505.1,372c-8-2.1-13.1-7.7-17.9-13.7c-1.3-1.6-2.6-3.1-3.9-4.7c-4.9-5.6-10.7-9.8-18.1-11.6c-3.6-0.9-7.3-0.9-11-1.3
		c-14.1-1.3-27.3,1.2-39.6,8.2c-0.7,0.4-1.8,0.6-2.1,1.8c5.8-0.9,11.5-1.4,17.2-1.4c8.2-0.1,16.2,0.8,23.6,4.8
		c3.9,2.1,7.3,5,10.6,7.9c3.4,3,7.1,5.6,11,7.9C484.6,375.4,494.6,376.4,505.1,372z M573,314.2c-3-0.3-4.5-0.1-6.9,0.7
		c-5.1,1.8-6.8,5.3-4.9,10.4c1.7,4.6,4.8,8.1,8.8,11.2C566.9,328.5,564.8,320.7,573,314.2z M634.6,332.7c0.7,0.2,1-0.1,1.3-0.5
		c2.3-3.4,3.8-7.1,4-11.3c0.3-6.1-4.3-9.2-10.3-6.8C636.6,318.8,635.7,325.8,634.6,332.7z"/>
	<path class="st2" d="M476.1,422.5c9.2-3.8,18.8-5,28.6-5.3c-2.5,2-5.1,3.9-7.5,6c-8.4,7.4-14.8,16.1-17.7,27.2
		c-1.6,5.9-1.7,11.9-0.7,18.7c9.9-10.9,22-16.2,35.8-17.5c8.3-0.8,17.3,0,23.9,3.1c-0.2,0.3-0.2,0.7-0.5,0.9
		c-12,8.3-18.9,20.1-22.2,34c-4.7,20-2.9,39.6,5.1,58.5c2.2,5.3,5.2,10.2,9.4,14.2c3.2,3,6.7,5.3,11.4,5.3c1.8,0,3.5-0.3,5-1.5
		c1.7-1.3,3.5-2.5,5.7-3c1.4-0.3,1.8-1.2,2.1-2.5c1.3-5.7,2.7-11.4,4.8-16.8c1.5-3.9,3.3-7.6,5.8-11.1c0.5-0.7,1-1.4,1.8-1.7
		c1.3,0.8,0.7,1.9,0.5,2.9c-1.5,7.6-1.2,15.2-0.9,22.8c0,0.5,0,1,0.7,1.5c4.1-0.3,8.5-1,12.9-1c6.2,0,12.4-0.1,18.5,1.1
		c1.7,0.4,2.4-0.3,3-1.6c2.3-4.8,3.7-9.8,5-14.9c0.7-2.4,1.3-4.8,2-7.2c0.3-1.1,0.7-2.3,1.8-3.1c1.5,1.2,1.6,3,1.9,4.5
		c1.2,7,0.8,14-0.3,21c-0.1,0.4-0.2,0.7-0.2,1.1c0.1,1.3-1.2,3,0.4,4c1.6,1,3.6,1.4,5.5,0.6c1.9-0.7,3.1-2.2,4.1-3.9
		c1.4-2.5,2.3-5.3,2.8-8.1c6.1-34.8,20.4-66.1,40.5-95c3.3-4.7,6.5-9.4,9.1-14.5c4.7-9.3,5.6-18.8,2.2-28.7
		c-0.2-0.5-0.5-1.1-0.7-1.6c0-0.1-0.2,0-0.7-0.1c-0.1,2.9-0.4,5.8-1.6,8.5c-1,2.2-1,2.3-3.4,1.5c-5.5-1.8-11.2-2.1-17.2-1.9
		c0.7,1.2,1.9,1.1,2.8,1.4c4.5,1.5,8.4,3.8,12,7c1.3,1.2,1.7,2.3,1.1,4.1c-2,5.4-5.7,8.8-11.3,9.9c-2.5,0.5-3.7,1.6-4.4,4.1
		c-2.1,7.5-5,14.7-8.8,21.5c-1.6,2.9-3.4,5.8-5.6,8.3c-0.8,0.9-1.5,2.2-3,2.4c-0.5-1.3,0.1-2.4,0.4-3.5c2-7.1,4-14.2,4.8-21.6
		c0.3-2.9,0.3-5.7,0.3-8.6c0-1.6-0.6-2.3-2.2-2.6c-4.5-0.8-8.8-2.1-12.9-4c-2.5-1.2-4.9-2.4-6.8-5c5.6-3,8.5-8.1,10.9-13.7
		c0.9-2,2.4-3.5,4.3-4.6c8.3-4.7,15-11,18.8-20c0.4-1,1.2-1.8,2-2.5c5.1-4.2,10.5-7.9,16.4-10.7c1.8-0.8,3.6-1.3,5.5-1.3
		c5.6-0.2,9.9,3.1,11.1,8.6c1.1,4.9,1.1,4.9-3.9,6c-8.3,1.7-15.9,4.9-23,10.8c5.7-2,10.7-3.8,16-4.7c3.6-0.6,7.1-0.4,10.7-0.5
		c1.7,0,2.3,0.7,2.3,2.3c0,5.5-0.5,11-1.5,16.4c-3.2,16.9-9.9,32-21.5,44.9c-2.5,2.4-4.4,5.3-6.2,8.2c-8.3,13.1-14.5,27.2-20.3,41.5
		c-0.1,0.4-0.3,0.8-0.4,1.3c-1,0.6-0.7,1.6-0.8,2.6c-5.4,11.2-8.3,23-9.9,35.3c-0.9,6.9-1.5,13.7-2.7,20.6
		c-1.3,7.7-4.7,14.2-10.1,19.7c-3.7,3.9-8,7-12.9,10.3c0.6-4.6,1-8.6,1.2-13.6c-2.1,3.6-3.6,6.5-5.4,9.2c-1.7,2.7-3.6,5.3-6.3,7.4
		c0.1-4.7,1.6-9,0.4-13.6c-4.7,10.6-10.3,20.6-18.1,29.7c-4.4-9.6-7.2-19.2-8.6-29.9c-4.1,5.2-5,10.7-5.1,17
		c-5.8-4.7-7.4-11-9.7-17.5c-2.9,4.2-3.2,8.5-3.8,13.1c-1.9,0.1-3.5-0.8-4.9-1.7c-7-4.2-12.2-10.1-13.9-18.3
		c-1.7-8.5-6-15.5-12-21.5c-3.4-3.4-6.9-6.6-10.3-10c-9.2-9.5-15.5-20.6-17.2-33.8c-1.4-10.8,0.3-21.2,4.3-31.2
		c1.3-3.3,2.9-6.5,4.6-10.3c-10.6,2.5-19.8,7.1-27.7,14.2c-7.9,7.1-13.1,16-16,26.2c-0.9,0.1-1-0.6-1.2-1c-5.5-11.7-9-23.9-9.3-36.8
		c-0.3-19,6.8-35.1,20.3-48.3c2.9-2.8,6-5.4,9.3-7.9C475.2,423.7,476.1,423.5,476.1,422.5z"/>
	<path class="st2" d="M573,442.5c-10.4,1.7-19.1-1.9-27.5-7.1c1.1-2.2,3-3.5,4.8-4.7c5-3.4,10.7-5.1,16.6-6.4c2.6-0.6,5.3-1.1,7.9-2
		c-22-1.8-43,2.4-63.6,10.1c0.9-0.9,1.7-1.8,2.6-2.6c6.3-5.7,13.6-9.7,21.8-11.7c1.7-0.4,2.6-0.7,1.9-2.8c-0.5-1.4-0.2-3.1-0.5-4.6
		c-0.3-1.9,0.5-2.6,2.2-2.9c5.3-1.1,10.6-1.4,16-1c4.2,0.3,8.3,0.6,12.5,0.9c1.6,0.1,3.3,0.3,5.4-0.1c-20.1-5-39.6-9.7-60.4-4.9
		c1.2-1.9,2.7-2.7,4.2-3.4c5.9-3,12.2-4,18.7-4.1c2,0,2.7-0.6,3.6-2.4c2.2-4.7,6.7-6.6,11.4-7.9c5.4-1.5,10.7-0.3,15.9,1
		c6.4,1.6,12.4,4.1,18.2,7.3c3.6,2,6.8,4.3,9.4,7.5c5.1,6.1,11.8,10,18.8,13.4c1.3,0.6,2.6,1.1,3.9,1.9c2.6,1.5,3.4,3.5,2.4,6.4
		c-1.6,4.6-4.7,8.3-8.7,11c-5.5,3.8-11.7,5.9-18.3,6.7c-3.8,0.5-3.7,0.5-4.8,4.3c-3,11.2-4.1,22.5-1.4,34c0.1,0.5,0.1,0.9,0.1,1.4
		c0,0.8-0.3,1.4-1.1,1.7c-0.6,0.2-1.2-0.1-1.6-0.6c-0.6-0.7-1.2-1.5-1.8-2.3c-5.5-7.8-8.1-16.7-8.5-26.2
		C572.8,449.2,573,446,573,442.5z"/>
	<path class="st0" d="M438.3,275.3c-3.3-1.3-6.7-2.5-10-3.8c-6.2-2.4-12.7-4.3-19.3-5.4c-9.9-1.6-22.2,4.1-24.9,16.1
		c-1,4.5-0.1,9,0.8,13.5c0.6,3.1,1.5,6.2,2.3,9.4c0.3,1.2,0.3,2-1.3,2.3c-10.6,1.8-21.1,3.7-31.7,5.5c-0.1,0-0.2-0.1-0.3-0.2
		c-0.5-1.1,0.3-2,0.6-3c3.8-10.5,7.7-21.1,11.5-31.6c0.8-2.4,2.2-4,4.4-5.3c14-8.5,27.2-18.2,38.8-29.9
		c12.4-12.5,22.3-26.7,29.3-42.9c1.5-3.5,1-2.7,4.1-2.1c3,0.6,6.1,1.2,9.2,1.3c3.1,0.2,3.7,1,3.8,4c0,2.9-1,5.6-2,8.3
		c-4.4,11.8-9.2,23.5-14.4,35.1c-2,4.4-3.5,8.8-3.9,13.7C434.9,265.5,435.4,270.5,438.3,275.3z M380.1,273.5c-2,0.6-3.4,2.2-5.3,3
		c-2.4,1.1-3.5,3-4.3,5.3c-2.4,6.8-5,13.6-7.4,20.5c-0.3,0.8-1,1.6-0.4,3c5.7-1,11.5-2.1,17.3-3.1c-3.4-17.3-3.2-18.8,0.6-28.2
		c0.2-0.2,0.5-0.5,0.2-0.8C380.5,273,380.2,273.2,380.1,273.5z M428.7,265.2c0.1-0.6,0.3-0.9,0.3-1.2c-0.1-7.2,1.9-13.8,4.9-20.3
		c4.8-10.6,9.2-21.4,13.4-32.3c0.6-1.6,1.1-3.1,1.6-4.7c0.2-0.5,0.5-1.3-0.2-1.6c-1.5-0.7-3.2-0.8-4.9-0.8c-1.5-0.1-1.6,1.3-2,2.2
		c-9.8,20.6-23.9,37.7-41.4,52.2c-0.7,0.6-1.6,1-2,2.4C409.1,258.2,418.8,262.7,428.7,265.2z"/>
	<path class="st2" d="M531,306.6c3.2,0.4,3.2,0.4,4.6-2.2c1.2-2.1,2.8-3.9,4.8-5.2c8.2-5.4,16.7-5,26.1-1.1
		c-1.7,0.5-2.8,0.9-3.8,1.2c-10.2,3.2-14.6,10.8-12.4,21.3c1.7,8,5.7,14.8,10.6,21.2c1.2,1.6,3,2.8,3.5,4.9
		c-2.4,0.6-4.7,1.6-7.3,1.8c-4.7,0.4-7.1-2.1-6-6.7c0.7-2.6,0.8-2.9-2.2-4.3c-4.7-2.3-9.7-3.3-14.8-3.6c-8.4-0.6-16.7,0-25,0.2
		c-3.6,0.1-7.2,0.2-10.7-0.2c-3.1-0.3-6.1-1.2-8.7-2.9c-4.6-3.1-5.5-8.2-2.4-12.8c1.9-2.7,4.4-4.6,7.3-6.2
		c6.7-3.5,13.9-4.8,21.4-5.2C520.9,306.4,526,306.6,531,306.6z M548.4,302.3c-5.6,1.9-8.9,5.1-11.1,9.7c-1.6,3.4-1.6,3.5-5,2.2
		c-0.3-0.1-0.6-0.4-0.9,0.1c-0.1,7.5,4.7,13.1,13,14.7C541.5,319.7,540.4,310.6,548.4,302.3z"/>
	<path class="st0" d="M640.6,513c5.8-14.3,12-28.4,20.3-41.5c1.8-2.9,3.7-5.8,6.2-8.2c4.5-1.9,7.8-5.4,11-8.9
		c4-4.4,7.5-9.3,10.7-14.3c0.9-1.4,1.8-2.8,3.3-3.7c2.8-1.7,5-0.9,6.3,2c0.7,1.6,0.3,3.6,1.6,5.2c0.4-0.5,0.7-0.8,0.9-1.2
		c4-8.7,5.3-17.8,3.1-27.2c-0.9-4.1-2.8-7.9-6-10.8c-2.3-2.1-1.9-4.4-1.2-6.8c0.4-1.5,1.5-2.1,3-2c1,0.1,2.1,0.4,3.5,0.7
		c0.9-13.8-4.3-24.1-16.8-31.2c1.8-0.7,2.9-0.4,4-0.1c9.6,2.6,15.7,9.1,20,17.7c2.8,5.6,3.6,11.5,3.2,17.7c-0.1,2.4,0,4.8,0,7.1
		c-1.6,0.3-1.9-0.9-2.8-1.2c-0.8-0.3-1.5-0.7-2.4-0.5c-2,0.4-2.5,1.5-1.4,3.2c3.6,5.3,4.8,11.1,4.6,17.3c-0.1,4-0.7,8.1-1.8,12
		c-1.9,7.1-4.9,13.7-8.7,19.9c-0.2,0.4-0.5,0.8-0.8,1.2c-0.1,0.2-0.4,0.2-0.6,0.4c-0.2-0.1-0.5-0.1-0.6-0.3c-1.5-3.9-4.1-5.4-8.9-3
		c-5.5,2.7-10.4,6.3-14.9,10.4c-11.4,10.4-20.3,22.7-28.1,35.9c-1.6,2.8-3.1,5.6-4.7,8.4C642,511.9,641.9,513.1,640.6,513z"/>
	<path class="st0" d="M289.5,357.9c-3.2,8-5.3,15.8-9,22.8c-6.3,11.9-15.8,20.5-28.5,25.2c-3.8,1.4-7.8,2-11.9,1.9
		c-10.4-0.3-14.1-8.4-11.9-16.8c1-3.5,3-6.5,5.5-9.1c5.6-5.7,12.3-9.7,19.5-13.1c10.3-4.9,21.1-8.1,32.2-10.4
		C286.5,358.1,287.7,358.1,289.5,357.9z M279.9,365.8c-0.4-0.1-0.7-0.3-0.9-0.3c-11.1,2.8-21.8,6.8-31.7,12.7
		c-3.9,2.3-7.6,5-10.5,8.5c-1.8,2.1-3.3,4.4-3.6,7.3c-0.5,4.9,1.6,7.5,6.5,7.8c2.9,0.2,5.7-0.2,8.5-1.1
		C265.2,395,274.8,382.5,279.9,365.8z"/>
	<path class="st0" d="M306.4,264c0.4-7.3,2.4-14.7,5-22c2.5-6.9,5.5-13.5,9.3-19.7c3.2-5.4,7.2-10.1,12.4-13.6
		c1.8-1.2,3.7-2.1,5.8-2.7c3.7-1,5.4,1.3,4.3,4.4c-2.6,7.5-4.9,15.2-7.5,22.8c-3.3,9.9-6.7,19.9-10.8,29.6c-1.3,3.1-2.9,6-5.2,8.5
		c-0.7,0.8-1.5,1.5-2.4,2.2c-4.8,3.4-9.1,1.8-10.6-3.8C306.5,267.8,306.5,266.2,306.4,264z M335,214.1c-3.9,2.7-6.8,6.4-9.2,10.3
		c-6,9.7-10.1,20.2-12.7,31.3c-0.8,3.6-1.3,7.3-1,11c0.1,0.7-0.1,1.6,0.8,1.8c0.8,0.3,1.3-0.4,1.8-0.9c2.5-2.5,4-5.6,5.3-8.8
		c5.6-13.8,10.1-28,14.8-42.1C335.1,215.9,335.6,215,335,214.1c0.2,0.1,0.4,0.1,0.3-0.1C335.2,214,335.1,214.1,335,214.1z"/>
	<path class="st0" d="M533.5,263.2c-10.5,0.9-20.2,4-29.5,8.4c-1.7,0.8-3.5,1.4-5.3,2c-3.6,1.1-7.4,2-10.9,3.6
		c-9,3.9-18.5,3.8-28,3.6c-0.2-0.5,0-0.9,0.3-1c9.3-2.5,16.9-8.1,24.3-14c8.2-6.5,16.4-13.1,23.3-21.1c0.3-0.3,0.7-0.6,1.2-1
		C514.3,253.8,522.7,259.9,533.5,263.2z M507.6,252.8c-6.1,6.4-12.7,11.4-19.6,17.3c10.2-1.8,18.2-6.8,27.6-9.6
		C512.5,258.2,510.1,255.7,507.6,252.8z"/>
	<path class="st2" d="M435.5,328.7c-2.8,0.4-5.5,1.4-8.4,1c-3.7-4.4-7.5-8.6-10.8-13.3c-3.5-5-6.6-10.2-8.3-16.2
		c-1.1-4,0-5.4,4.2-4.7c4.1,0.6,8.1,1.8,12,3.3c8.7,3.3,17.5,6.3,26.7,7.6c0.3,0,0.7,0.2,1.3,0.5c-1.9,1.3-4,1.5-5.9,1.9
		c-2,0.5-4.1,0.7-6.8,1.2c3.6,2.2,7.2,3,10.8,5.1c-9.8,1.6-18.2-0.5-25.9-5.6c-0.9,0.9-0.1,1.6,0.1,2.2c1.8,4.5,4.5,8.4,7.4,12.2
		C433.1,325.4,434.6,326.8,435.5,328.7z"/>
	<path class="st0" d="M551.5,198.2c-0.2-3.2,0.7-6.1,1.5-9c3.9-14,11.7-25.2,24-33c1.6-1,3.3-1.9,5.2-2.4c5.1-1.5,7.7,0.4,8,5.9
		c0.1,3-0.5,5.9-1.7,8.7c-1.3,2.8-3,5.4-5.1,7.8c-8.1,9.4-17.9,16.4-29.2,21.5c-0.5,0.2-1.1,0.4-1.7,0.6
		C552.3,198.2,552.1,198.2,551.5,198.2z M584.1,158.6c-12.7,6.4-20.3,16.1-24.9,29c1.4,0,2-0.6,2.6-1c4.6-3,9-6.3,12.9-10.1
		c2.9-2.8,5.5-5.9,7.5-9.5C583.5,164.7,584.3,162.3,584.1,158.6z"/>
	<path class="st2" d="M639.5,344.6c0.1-1.5,1.3-2.5,2-3.7c4.5-7.9,6.7-16.3,4.7-25.3c-2.2-9.8-8-16.3-18.1-18.4
		c-0.4-0.1-1-0.1-1.1-0.9c6.9-0.8,13.7-0.5,20.1,2.5c2,0.9,3.7,2.1,5.3,3.5c1,0.9,1.8,2.2,3.4,2.4c3.1,3.1,5.9,6.5,7.6,10.6
		c1.2,2.9,2,5.8,1.9,9c-0.1,2.4-0.7,3.2-3,3.7c-0.8,0.2-1.6,0.2-2.5,0.2c-4.1,0-7.1,2.3-10.1,4.7c-0.6,0.5-0.7,1.1-0.8,1.8
		C648.6,341.3,646.1,343.9,639.5,344.6z M651.7,324c5.7-3.6,7.5-10.1,4.7-15.3c-0.2-0.4-0.5-1-1-0.6c-2.2,1.6-2.8-0.4-3.8-1.6
		c-2.6-3.1-4.6-4.2-7.8-4.5C650.5,307.7,652,315.4,651.7,324z"/>
	<path class="st0" d="M661.9,349.4c2.6-3.1,4.2-6.1,5-9.5c0.5-2.4,2.9-3.3,5.3-2.3c2.1,0.9,3,3.2,2,5.4c-0.6,1.4-1.9,2.1-2.9,3.5
		c7.2-1.2,13.9-0.2,20.4,2.7c5.6,2.5,9,6.8,10.6,12.7c0.1,0.5,0.2,0.9,0.2,1.4c0,0.2-0.1,0.5-0.2,1.1c-7.9-6.4-17-7.3-26.8-6.1
		c-0.1-1.9,0.8-3.7-0.6-5.2c-1.6-1.6-3.5-2.3-5.6-2.9C667.2,349.6,664.9,349.5,661.9,349.4z"/>
	<path class="st2" d="M515.1,341.6c4.4-0.9,8.4-0.6,12.3-0.7c0.8,5.5,2.4,7.9,5.3,8.1c2.6,0.1,3.9-1.5,4.9-6.3
		c0.2-0.1,0.5-0.3,0.6-0.2c5.1,1.7,6.8,2.6,1.9,8c-2,2.2-4.3,2.9-7.3,2C525.6,350.6,519.3,347,515.1,341.6z"/>
	<path class="st0" d="M671.8,128.8c-2-6.4-2.4-11.7,1.2-16.7c2.1-3,6-4.2,8.8-3.1c1.9,0.7,2.7,2.1,1.6,3.5
		C679.8,117.8,676,122.9,671.8,128.8z"/>
	<path class="st2" d="M594.7,467.9c-2.5-5.7-3.6-11-3.5-16.6c0-2.8,1.3-3.6,3.9-2.6c3,1.1,4.9,2.8,3.9,6.5
		C597.7,459.3,596.4,463.3,594.7,467.9z"/>
	<path class="st2" d="M625.1,464.8c0-3.2,0-6.2,0-9.1c0-6.3,2.7-9.2,9.1-10.1C634.9,449.6,629.1,462.3,625.1,464.8z"/>
	<path class="st2" d="M616.3,461.1c-2.2-4.1-2-8.2-1.6-12.2c0.2-2.3,4.8-3.7,6.5-2.3c0.5,0.4,0.6,1,0.4,1.6
		C620.4,452.5,619.4,456.9,616.3,461.1z"/>
	<path class="st2" d="M604.6,462.4c-1.7-4.4-1.6-8.4-1.2-12.4c0.2-2.1,4.5-3.4,6.3-2.1c0.7,0.5,0.6,1.3,0.5,1.9
		C609.1,454.2,607.9,458.4,604.6,462.4z"/>
	<path class="st2" d="M654.5,335.8c0.4,1.1,0.5,1.8,0.9,2.4c1,1.9,2.5,1.9,3.7,0c0.4-0.7,0.7-1.5,0.7-2.4c0.1-0.8,0.1-1.6,0.2-2.5
		c0.8-0.1,1.5-0.2,2.1-0.3c0.8-0.1,1.3,0.2,1.3,1.2c-0.2,3.5-1.1,6.6-4.4,8.4c-2.1,1.2-3.8,0.9-5.1-0.7
		C652.4,339.9,652.5,337.9,654.5,335.8z"/>
	<path class="st2" d="M572.7,539.2c2.3,4.3,2.5,8.4,2.5,12.6c0,1.5-1.4,2.6-2.9,2.5c-1.5-0.1-2.4-1.1-2.2-3.1
		C570.5,547.4,571,543.5,572.7,539.2z"/>
	<path class="st2" d="M601.5,538.3c-0.1,4.8-1.3,8.6-2.3,12.5c-0.3,0.9-0.8,1.7-1.7,2.3c-1,0.7-2.2,1.3-3.3,0.5
		c-1.1-0.8-0.5-1.9,0-2.9C595.9,546.4,597.9,542.3,601.5,538.3z"/>
	<path class="st2" d="M581,543.3c1.6,3,1.8,5.8,1.9,8.6c0,1.1-0.6,1.7-1.6,2c-1.2,0.3-2.3,0.5-3.4-0.3c-0.4-0.3-0.4-0.8-0.3-1.3
		C578.5,549.4,578.9,546.3,581,543.3z"/>
	<path class="st2" d="M590.7,543.4c1,3.2,0.3,6.1-0.2,8.9c-0.2,1.4-3.1,2.2-4.6,1.5c-0.7-0.3-0.7-0.8-0.5-1.4
		C586.7,549.2,587.9,546,590.7,543.4z"/>
	<path class="st0" d="M639.4,516.8c0.1-0.9-0.2-1.9,0.8-2.6C640.7,515.3,639.9,516,639.4,516.8z"/>
	<path class="st1" d="M737,315.3c2,3.1,3.8,6,5.8,9.1c-2.3,0.8-3.8,0.4-4.9-1.6c-1.2-2.1-2.6-4-3.8-6.1c-0.6-1-1.4-1.5-2.6-1.5
		c-1.3,0-2,0.2-1.9,1.8c0.1,1.9,0,3.8,0,5.7c0,1.2-0.2,2-1.7,2.1c-1.4,0-1.8-0.5-1.8-1.9c0.1-6.2,0-12.4,0-18.6c0-1.2,0.2-2,1.8-1.9
		c2.9,0.1,5.7-0.1,8.6,0.1c4.8,0.4,7.3,4.2,5.8,8.5C741.6,313,741.1,313.4,737,315.3z M729.6,308.5c0,4.4-0.3,3.7,3.8,3.7
		c0.9,0,1.9-0.1,2.8-0.2c1.7-0.4,2.7-1.5,2.7-3.2c0.1-1.8-1-2.8-2.7-3.3c-1.9-0.5-3.8-0.2-5.7-0.2c-0.7,0-1,0.5-1,1.1
		C729.6,307.1,729.6,307.8,729.6,308.5z"/>
	<path class="st1" d="M505.1,372c-10.5,4.4-20.5,3.4-30.2-2.1c-4-2.2-7.6-4.9-11-7.9c-3.3-2.9-6.7-5.7-10.6-7.9
		c-7.4-4-15.4-4.9-23.6-4.8c-5.7,0.1-11.4,0.5-17.2,1.4c0.3-1.2,1.3-1.3,2.1-1.8c12.3-7,25.5-9.5,39.6-8.2c3.7,0.3,7.4,0.4,11,1.3
		c7.4,1.8,13.2,5.9,18.1,11.6c1.3,1.5,2.6,3.1,3.9,4.7C492,364.3,497.1,369.9,505.1,372z"/>
	<path class="st2" d="M573,314.2c-8.1,6.5-6,14.3-3,22.3c-4-3-7.1-6.6-8.8-11.2c-1.9-5.1-0.2-8.6,4.9-10.4
		C568.5,314,570,313.9,573,314.2z"/>
	<path class="st2" d="M634.6,332.7c1.1-6.9,2-13.8-5-18.6c6-2.4,10.6,0.7,10.3,6.8c-0.2,4.1-1.7,7.9-4,11.3
		C635.6,332.5,635.2,332.8,634.6,332.7z"/>
	<path class="st2" d="M380.1,273.5c0.1-0.3,0.4-0.6,0.7-0.3c0.3,0.3,0,0.5-0.2,0.8C380.4,273.9,380.3,273.7,380.1,273.5z"/>
	<path class="st1" d="M548.4,302.3c-8,8.3-6.9,17.4-3.9,26.8c-8.3-1.6-13.1-7.2-13-14.7c0.2-0.5,0.6-0.2,0.9-0.1
		c3.4,1.2,3.4,1.2,5-2.2C539.5,307.4,542.8,304.2,548.4,302.3z"/>
	<path class="st2" d="M335,214.1c0.1,0,0.2-0.1,0.3-0.1C335.4,214.2,335.3,214.2,335,214.1C335,214.1,335,214.1,335,214.1z"/>
	<path class="st1" d="M651.7,324c0.3-8.7-1.2-16.3-7.9-22c3.2,0.2,5.2,1.4,7.8,4.5c1,1.2,1.6,3.2,3.8,1.6c0.6-0.4,0.8,0.2,1,0.6
		C659.2,313.9,657.4,320.4,651.7,324z"/>
</g>
</svg>
