<?xml version="1.0" encoding="utf-8"?>
<!-- Generator: Adobe Illustrator 21.1.0, SVG Export Plug-In . SVG Version: 6.00 Build 0)  -->
<svg version="1.1" id="Capa_1" xmlns="http://www.w3.org/2000/svg" xmlns:xlink="http://www.w3.org/1999/xlink" x="0px" y="0px"
	 viewBox="0 0 1280 408.7" style="enable-background:new 0 0 1280 408.7;" xml:space="preserve">
<style type="text/css">
	.st0{fill-rule:evenodd;clip-rule:evenodd;fill:#4D4D4D;}
</style>
<g>
	<path class="st0" d="M205.8,79.8c-4.6-36-21.1-64.7-37.6-64.7c-18.1,0-33.3,25.4-39.2,64.7h-3c-36-7.6-55.5-18.1-55.5-31.6
		c0-19.5,41.9-34.6,94.7-34.6c54.1,0,99,15.1,99,34.6C264.3,61.7,241.8,75.2,205.8,79.8L205.8,79.8z M334.9,108.2
		C334.9,46.8,261.3,0,166.6,0C73.6,0,0,46.8,0,106.8c0,61.7,73.6,109.6,168.2,109.6C259.7,216.4,334.9,168.5,334.9,108.2
		L334.9,108.2z M180.2,202.9c19.5-17.9,28.7-49.5,28.7-96l0,0l1.4-1.6c48.1-6,81.1-27,81.1-49.5v-1.6c13.5,15.1,19.5,31.6,19.5,49.8
		C310.8,155,253.7,198.5,180.2,202.9L180.2,202.9z M43.6,52.7c-1.6,1.4-1.6,1.4-1.6,3c0,22.5,33,42.2,82.8,49.5l1.4,1.6v3
		c0,45.2,10.5,76.6,28.7,93.1c-76.8-6-130.9-47.9-130.9-100.6C23.8,85.7,30,67.6,43.6,52.7L43.6,52.7z M190.7,82.8h-1.6
		c-6,0-13.5,0-20.8,0c-9.2,0-16.5,0-22.7,0l-3-1.6c4.6-25.4,13.5-40.6,24.1-40.6c12.2,0,19.5,13.5,24.1,40.6V82.8L190.7,82.8z
		 M193.7,108.2c-1.4,36.2-11.9,61.7-25.4,61.7c-15.1,0-25.7-25.4-27-61.7h1.4c7.6,0,16.5,1.6,27,1.6
		C181.8,109.8,184.8,109.8,193.7,108.2L193.7,108.2z"/>
	<polygon class="st0" points="495.8,61.7 447.7,61.7 447.7,185 413.1,185 413.1,61.7 366.5,61.7 366.5,33.3 495.8,33.3 495.8,61.7 	
		"/>
	<path class="st0" d="M627.8,109.8c0,30-17.9,51.1-43.6,51.1c-27,0-44.9-19.5-44.9-51.1c1.4-30,17.9-51.1,44.9-51.1
		C610,58.7,627.8,79.8,627.8,109.8L627.8,109.8z M664.1,109.8c0-45.2-36.2-81.1-79.8-81.1c-44.9,0-81.2,36-81.2,82.5
		c0,43.8,36.2,79.8,79.8,79.8C629.5,191,664.1,155,664.1,109.8L664.1,109.8z"/>
	<polygon class="st0" points="761.7,129.3 761.7,185 727.1,185 727.1,129.3 667,33.3 706,33.3 743.6,96.3 782.6,33.3 823.1,33.3 
		761.7,129.3 	"/>
	<path class="st0" d="M946.5,109.8c0,30-16.5,51.1-43.6,51.1c-27,0-43.5-19.5-43.5-51.1c0-30,17.9-51.1,44.9-51.1
		C930,58.7,946.5,79.8,946.5,109.8L946.5,109.8z M984.1,109.8c0-45.2-36-81.1-81.1-81.1c-43.5,0-79.8,36-79.8,82.5
		c0,43.8,34.6,79.8,79.8,79.8C948.1,191,984.1,155,984.1,109.8L984.1,109.8z"/>
	<polygon class="st0" points="1120.7,61.7 1072.8,61.7 1072.8,185 1038.2,185 1038.2,61.7 991.6,61.7 991.6,33.3 1120.7,33.3 
		1120.7,61.7 	"/>
	<path class="st0" d="M1192.9,66.3l21.1,58.4h-43.5L1192.9,66.3L1192.9,66.3z M1214,33.3h-42.2L1110.1,185h37.6l12.2-33.3h64.6
		l13.5,33.3h37.3L1214,33.3L1214,33.3z"/>
	<g>
		<polygon class="st0" points="253.7,338.1 274.8,338.1 264.3,308.1 		"/>
		<polygon class="st0" points="530.2,338.1 551.3,338.1 540.7,308.1 		"/>
		<path class="st0" d="M866.9,302.1h-21.1v22.5h21.1c7.3,0,11.9-3,11.9-11.9C878.9,305.1,874.3,302.1,866.9,302.1z"/>
		<path class="st0" d="M0,245.1v163.7h1280V245.1H0z M107.9,302.1H67.6v19.5H102v15.1H67.6v33H49.5V287h58.4V302.1z M135,369.8
			h-19.5V287H135V369.8z M217.8,369.8h-18.1L165.3,314v55.7h-16.8V287h18.1l34.6,55.7V287h16.5V369.8z M285.4,369.8l-5.9-18.1h-30
			l-7.6,18.1h-18.1l31.6-82.8h17.9l31.7,82.8H285.4z M380.1,369.8h-18.1L327.3,314v55.7h-16.5V287h18.1l34.6,55.7V287h16.5V369.8z
			 M429.6,356.2c10.5,0,18.1-7.6,19.5-18.1h16.5c-1.4,21.1-14.9,34.6-36,34.6c-25.4,0-40.6-19.5-40.6-43.5
			c0-24.1,15.1-43.5,40.6-43.5c18.1,0,33,10.5,36,30h-17.9c-1.6-8.9-9.2-15.1-18.1-15.1c-16.5,0-22.5,13.5-22.5,28.7
			C407.1,342.7,413.1,356.2,429.6,356.2z M492.6,369.8h-17.9V287h17.9V369.8z M561.8,369.8l-6-18.1h-31.6l-5.9,18.1h-18.1l31.7-82.8
			h18.1l31.4,82.8H561.8z M644.3,369.8h-58.4V287H604v67.6h40.3V369.8z M712,372.7c-17.9,0-34.4-8.9-34.4-30h17.9
			c0,10.5,7.6,14.9,18.1,14.9c6,0,15.1-1.4,15.1-10.3c0-9.2-12.2-10.5-24.1-13.5c-12.2-3.2-24.1-7.6-24.1-22.7
			c0-17.9,14.9-25.4,30-25.4c18.1,0,33,7.6,33,27h-16.5c-1.6-10.5-7.6-13.5-16.5-13.5c-6,0-13.5,3-13.5,10.5
			c0,5.9,4.6,5.9,25.4,11.9c6.2,1.6,24.1,4.6,24.1,24.1C746.6,360.8,734.7,372.7,712,372.7z M818.8,369.8h-63V287h61.4v15.1h-43.6
			v18.1h40.6v14.9h-40.6v19.5h45.2V369.8z M880.5,369.8c-1.6-4.6-1.6-12.2-1.6-19.5c-1.6-9.2-5.9-12.2-15.1-12.2h-17.9v31.6h-18.1
			V287h45.2c14.9,0,24.1,10.5,24.1,22.7c0,10.5-4.6,17.9-13.5,20.8c8.9,3.2,11.9,12.2,11.9,19.7c0,6,0,14.9,4.6,19.5H880.5z
			 M946.5,369.8h-21.1l-27-82.8h19.5l18.1,58.7l19.5-58.7h18.1L946.5,369.8z M1000.6,369.8h-18.1V287h18.1V369.8z M1051.7,372.7
			c-25.7,0-40.6-19.5-40.6-43.5c0-24.1,14.9-43.5,40.6-43.5c17.9,0,33,10.5,34.6,30h-16.8c-1.4-8.9-8.9-15.1-17.9-15.1
			c-16.5,0-22.7,13.5-22.7,28.7c0,13.5,6.2,27.1,22.7,27.1c10.5,0,16.5-7.6,17.9-18.1h18.1C1086.3,359.2,1071.2,372.7,1051.7,372.7z
			 M1156.9,302.1h-43.6v18.1h39v14.9h-39v19.5h43.6v15.1h-61.7V287h61.7V302.1z M1198.9,372.7c-18.1,0-36-8.9-36-30h17.9
			c0,10.5,9.2,14.9,18.1,14.9c6,0,16.5-1.4,16.5-10.3c0-9.2-11.9-10.5-24.1-13.5c-13.5-3.2-25.4-7.6-25.4-22.7
			c0-17.9,16.5-25.4,31.7-25.4c16.5,0,33,7.6,33,27h-18.1c0-10.5-7.6-13.5-16.5-13.5c-5.9,0-11.9,3-11.9,10.5c0,5.9,3,5.9,23.8,11.9
			c6.2,1.6,25.7,4.6,25.7,24.1C1233.5,360.8,1221.3,372.7,1198.9,372.7z"/>
	</g>
</g>
</svg>
